<svg width="150" height="150" viewBox="0 0 150 150" xmlns="http://www.w3.org/2000/svg">
  <rect width="100%" height="100%" rx="8" fill="#e5243b"/>
  <text x="12" y="45" font-family="Oswald, sans-serif" font-size="48" fill="white">1</text>
  <text x="48" y="28" font-family="Oswald, sans-serif" font-size="16" fill="white" text-transform="uppercase">CONHECIMENTO</text>
  <svg x="39" y="65" width="72" height="72" viewBox="0 0 512 512">
    <path fill="white" d="M256 0c-56.3 0-108.3 20.3-149.9 56.3C64.3 92.3 32 143.2 32 200.2c0 61.2 38.8 113.4 93.2 136.1-2.2-11.5-3.2-23.3-3.2-35.3 0-58.2 21.6-110.4 57.4-148.1C215.8 116.5 235 112 256 112s40.2 4.5 75.6 12.9c35.8 37.7 57.4 89.9 57.4 148.1 0 12-1 23.8-3.2 35.3 54.4-22.7 93.2-74.9 93.2-136.1 0-57-32.3-107.9-74.1-143.9C364.3 20.3 312.3 0 256 0zM128 384c-17.7 0-32 14.3-32 32s14.3 32 32 32h256c17.7 0 32-14.3 32-32s-14.3-32-32-32H128z"/>
  </svg>
</svg>
