<svg width="150" height="150" viewBox="0 0 150 150" xmlns="http://www.w3.org/2000/svg">
  <rect width="100%" height="100%" rx="8" fill="#bf8b2e"/>
  <text x="12" y="45" font-family="Oswald, sans-serif" font-size="48" fill="white">7</text>
  <text x="48" y="28" font-family="Oswald, sans-serif" font-size="16" fill="white" text-transform="uppercase">ARGUMENTAÇÃO</text>
  <svg x="39" y="65" width="72" height="72" viewBox="0 0 512 512">
    <path fill="white" d="M448 384H64c-8.8 0-16 7.2-16 16v32c0 8.8 7.2 16 16 16h384c8.8 0 16-7.2 16-16v-32c0-8.8-7.2-16-16-16zM256 32C158.8 32 76 114.8 76 212s82.8 180 180 180 180-82.8 180-180S353.2 32 256 32zm-88.1 96.8l27.2 27.2c12.5 12.5 12.5 32.8 0 45.3l-4.7 4.7c-12.5 12.5-32.8 12.5-45.3 0l-27.2-27.2c-12.5-12.5-12.5-32.8 0-45.3l4.7-4.7c12.5-12.5 32.8-12.5 45.3 0zm176.2 0l27.2 27.2c12.5 12.5 12.5 32.8 0 45.3l-4.7 4.7c-12.5 12.5-32.8 12.5-45.3 0l-27.2-27.2c-12.5-12.5-12.5-32.8 0-45.3l4.7-4.7c12.5-12.5 32.8-12.5 45.3 0z"/>
  </svg>
</svg>
