<?xml version="1.0" encoding="UTF-8"?>
<svg version="1.1" xmlns="http://www.w3.org/2000/svg" width="1080" height="1080">
<path d="M0 0 C356.4 0 712.8 0 1080 0 C1080 356.4 1080 712.8 1080 1080 C723.6 1080 367.2 1080 0 1080 C0 723.6 0 367.2 0 0 Z " fill="#842000" transform="translate(0,0)"/>
<path d="M0 0 C1.54349121 -0.02102783 1.54349121 -0.02102783 3.11816406 -0.04248047 C13.77571764 0.02398013 23.4988913 2.58176651 33.1875 6.9375 C33.9518335 7.28047119 34.71616699 7.62344238 35.50366211 7.97680664 C42.95414815 11.47002626 49.09807352 15.95483795 55.25 21.375 C56.06855469 22.08269531 56.88710938 22.79039062 57.73046875 23.51953125 C73.11277412 37.78986274 82.35789524 59.16440897 83.59765625 79.96484375 C84.31667359 101.98948002 77.99178202 124.04346119 63.15234375 140.734375 C61.98232852 141.89718274 60.78973979 143.03838185 59.5625 144.140625 C58.11281626 145.36172904 58.11281626 145.36172904 57.25 147.375 C57.92546875 147.47941406 58.6009375 147.58382812 59.296875 147.69140625 C62.87936272 148.52068582 66.14335741 149.84507914 69.5 151.3125 C70.18876221 151.61027344 70.87752441 151.90804687 71.5871582 152.21484375 C77.9035697 155.03890244 83.77452019 158.50141917 89.57714844 162.26147461 C93.38393995 164.69178766 93.38393995 164.69178766 97.73828125 165.4375 C101.4239922 163.87838122 104.81566696 161.92165973 108.25 159.875 C116.6314433 154.88015464 116.6314433 154.88015464 121.25 154.375 C120.37988281 153.30185547 120.37988281 153.30185547 119.4921875 152.20703125 C106.1252301 135.15644037 100.19665004 115.95350808 102.25 94.375 C104.79317338 74.85967649 115.65195178 57.98670547 130.83203125 45.76953125 C147.50073999 33.567504 166.80106283 29.26488382 187.1171875 31.87109375 C199.44208501 34.30038869 210.01328101 39.15387498 220.25 46.375 C221.18585938 47.03048828 221.18585938 47.03048828 222.140625 47.69921875 C236.00304951 58.48470324 245.81113431 77.28320823 248.25 94.375 C250.65637495 117.72665892 243.25903337 135.99258819 229.25 154.375 C231.0134375 154.8390625 231.0134375 154.8390625 232.8125 155.3125 C244.50330974 159.24016952 254.56001398 166.81233978 263.25 175.375 C264.18199219 176.19871094 264.18199219 176.19871094 265.1328125 177.0390625 C278.61607443 189.31306327 286.91105736 210.44746462 288.25 228.375 C288.45477515 232.8451776 288.56117507 237.30969803 288.60009766 241.78369141 C288.61670123 243.1780664 288.64404985 244.57235476 288.68212891 245.96630859 C288.9027717 254.12625452 289.0889084 261.07226305 283.25 267.375 C278.75890575 271.5453018 275.57293822 272.50062039 269.53633118 272.49525452 C268.34581146 272.49662918 267.15529175 272.49800385 265.92869568 272.49942017 C264.62102737 272.49582489 263.31335907 272.49222961 261.96606445 272.48852539 C260.57647707 272.48824335 259.18688954 272.48840159 257.79730225 272.4889679 C254.02279387 272.4892552 250.24831716 272.48336926 246.47381616 272.47639394 C242.53000565 272.47014928 238.58619445 272.46955572 234.64237976 272.46836853 C227.17324515 272.4652585 219.70412515 272.45704953 212.23499697 272.44701904 C203.73206822 272.43584772 195.22913878 272.43034488 186.72620451 272.42532361 C169.23412789 272.41486665 151.74206549 272.39727355 134.25 272.375 C134.26571045 273.01002441 134.2814209 273.64504883 134.29760742 274.29931641 C134.3602859 277.1994523 134.39909417 280.09944524 134.4375 283 C134.47520508 284.49853516 134.47520508 284.49853516 134.51367188 286.02734375 C134.57749224 292.4519272 134.29662956 296.900439 129.89472288 301.92064017 C124.84007678 306.83444091 120.76463099 307.23503148 113.89515686 307.14363098 C112.86576522 307.15369649 111.83637358 307.163762 110.77578825 307.17413253 C107.33317155 307.2003657 103.89211983 307.18380298 100.44946289 307.16723633 C97.97867245 307.17700554 95.50789094 307.18931163 93.03712463 307.20396423 C87.02668153 307.23230982 81.01685088 307.23246151 75.00640661 307.21851341 C70.12006455 307.20768542 65.23384727 307.20822899 60.34750175 307.21683311 C59.65136893 307.21804124 58.95523612 307.21924936 58.23800836 307.22049409 C56.82370091 307.22298481 55.4093935 307.2254958 53.99508613 307.22802683 C40.73995988 307.2502964 27.48507658 307.23504436 14.22997367 307.20744052 C2.8648219 307.18472584 -8.4998795 307.19639851 -19.86499023 307.23266602 C-33.07195762 307.2748067 -46.27864585 307.29389852 -59.48567969 307.27764148 C-60.89501508 307.27598188 -62.30435051 307.27435852 -63.71368599 307.27277184 C-64.40705117 307.27198689 -65.10041634 307.27120195 -65.81479258 307.27039323 C-70.69285895 307.2665072 -75.57071939 307.2792023 -80.44874382 307.29850197 C-87.01942898 307.3240856 -93.58934537 307.31267823 -100.16002846 307.27651405 C-102.57066451 307.26885973 -104.98137239 307.27311665 -107.39196014 307.29018784 C-110.68507951 307.31158403 -113.97520907 307.2897821 -117.26817322 307.25715637 C-118.22061462 307.27345354 -119.17305602 307.28975072 -120.15435928 307.30654174 C-126.46289529 307.18144211 -129.64977876 305.56278801 -134.17318922 301.16820544 C-137.3381886 297.56885529 -137.99505247 295.53245843 -137.9453125 290.83203125 C-137.93564453 289.22231445 -137.93564453 289.22231445 -137.92578125 287.58007812 C-137.90902344 286.46052734 -137.89226562 285.34097656 -137.875 284.1875 C-137.86597656 283.05634766 -137.85695313 281.92519531 -137.84765625 280.75976562 C-137.82406862 277.96463172 -137.791153 275.16992155 -137.75 272.375 C-138.4702237 272.37776538 -139.19044741 272.38053076 -139.93249607 272.38337994 C-157.4681975 272.44967245 -175.00386704 272.49929648 -192.53966618 272.53043652 C-201.01989814 272.5458964 -209.50004638 272.56696909 -217.98022461 272.60131836 C-225.37272827 272.63124765 -232.76517129 272.65058139 -240.15773386 272.65726548 C-244.07098711 272.66117177 -247.9840669 272.67033369 -251.89726448 272.69219017 C-255.58345492 272.71261118 -259.26940107 272.71882253 -262.9556427 272.71432304 C-264.94746523 272.71553687 -266.93926138 272.73164956 -268.93101501 272.7482605 C-282.37773842 272.70189483 -282.37773842 272.70189483 -287.4921875 267.65625 C-287.86601562 267.0684375 -288.23984375 266.480625 -288.625 265.875 C-289.01429688 265.2871875 -289.40359375 264.699375 -289.8046875 264.09375 C-292.81510333 258.62026668 -291.93598174 252.25445599 -291.93530273 246.19091797 C-291.93745745 244.04243182 -291.95552907 241.89448686 -291.97460938 239.74609375 C-292.069443 217.22555129 -286.36680512 197.86989286 -271.75 180.375 C-271.22921875 179.70855469 -270.7084375 179.04210937 -270.171875 178.35546875 C-261.52827696 167.71880805 -249.78189526 161.40540904 -237.75 155.375 C-236.945625 154.97152344 -236.14125 154.56804687 -235.3125 154.15234375 C-234.5390625 153.76755859 -234.5390625 153.76755859 -233.75 153.375 C-234.34167969 152.56417969 -234.93335938 151.75335938 -235.54296875 150.91796875 C-248.48297286 132.90162786 -253.72846871 114.54749421 -251.75 92.375 C-248.48639715 73.62528164 -237.78897917 56.84505819 -222.75 45.375 C-204.43799601 33.31780001 -185.1301041 28.42159653 -163.5 32.5 C-143.86480295 37.3804247 -127.2229721 48.76360873 -116.3125 65.9375 C-106.89483019 82.25505443 -102.62603643 101.06197736 -106.9375 119.6875 C-107.50563675 121.59444049 -108.1107341 123.4907122 -108.75 125.375 C-109.0903125 126.43074219 -109.430625 127.48648438 -109.78125 128.57421875 C-113.18567339 138.2929274 -118.57094615 146.2194165 -124.75 154.375 C-123.93660156 154.60832031 -123.12320313 154.84164062 -122.28515625 155.08203125 C-117.19160959 156.94497483 -112.62722359 159.65292903 -107.93945312 162.36132812 C-103.75201986 164.72407401 -103.75201986 164.72407401 -99.08203125 165.3671875 C-96.15627662 164.12239407 -93.65300715 162.56857079 -91 160.8125 C-85.75855849 157.45104023 -80.3825472 154.59014993 -74.75 151.9375 C-74.03231445 151.59581787 -73.31462891 151.25413574 -72.57519531 150.90209961 C-68.98520714 149.24014626 -65.70676672 147.92369226 -61.75 147.375 C-62.47445312 146.48039063 -63.19890625 145.58578125 -63.9453125 144.6640625 C-78.4591066 126.58833934 -87.39427599 108.15646608 -87.1875 84.5 C-87.17847656 83.2634668 -87.16945313 82.02693359 -87.16015625 80.75292969 C-86.73702213 58.49725019 -76.34615088 38.38384853 -60.64331055 22.77783203 C-43.6724392 6.66502379 -23.01933403 0.21471988 0 0 Z " fill="#FEFDFD" transform="translate(545.75,335.625)"/>
<path d="M0 0 C0.97759277 0.00749268 1.95518555 0.01498535 2.96240234 0.02270508 C17.86786255 0.24545323 30.92447083 3.09559903 41.9375 13.80859375 C54.68086278 27.63602733 58.49522342 44.15120665 58.47802734 62.54785156 C58.48474457 63.60654953 58.49146179 64.6652475 58.49838257 65.75602722 C58.51720839 69.21760902 58.52127886 72.67899536 58.5234375 76.140625 C58.52987584 78.57379228 58.53660494 81.0069588 58.54360962 83.44012451 C58.5555437 88.52699578 58.55929441 93.61379933 58.55810547 98.70068359 C58.55790244 105.18058194 58.58520601 111.66004095 58.61964989 118.13983536 C58.64201642 123.16225127 58.64594003 128.18456303 58.64488602 133.20702362 C58.64722725 135.59414941 58.65596614 137.98127873 58.67155075 140.3683548 C58.79863294 161.84166286 57.17697413 181.72142905 41.54296875 198.0625 C28.66288275 210.02410557 13.91316534 212.86805509 -3.11328125 212.49609375 C-17.56915169 211.91181264 -29.1310262 206.57590544 -39.58984375 196.6640625 C-45.80921159 189.90910762 -49.09280986 181.91592177 -51.8125 173.25 C-52.32657158 171.78238724 -52.32657158 171.78238724 -52.85102844 170.28512573 C-54.2765985 165.23343014 -54.08343416 160.16110877 -54.05541992 154.94970703 C-54.05731827 153.83172729 -54.05921661 152.71374756 -54.06117249 151.56188965 C-54.06486802 147.87712524 -54.05419129 144.19255932 -54.04296875 140.5078125 C-54.0417759 137.93862939 -54.04132401 135.36944583 -54.0415802 132.80026245 C-54.04001731 127.41873234 -54.03198881 122.03727334 -54.01831055 116.65576172 C-54.00260307 110.4533817 -53.99731204 104.25106365 -53.9980461 98.04866517 C-53.99865885 92.06057974 -53.99342054 86.07251932 -53.98525429 80.08443832 C-53.98208025 77.54640702 -53.98010318 75.00837391 -53.97936058 72.47034073 C-53.97718261 68.91655688 -53.96840646 65.36284936 -53.95776367 61.80908203 C-53.95821686 60.76775116 -53.95867004 59.72642029 -53.95913696 58.65353394 C-53.88629637 41.94543263 -50.20858119 26.84362095 -38.8203125 14.00390625 C-28.14750123 3.66339862 -14.47782093 -0.14534967 0 0 Z " fill="#FDFDFC" transform="translate(225.8125,100.75)"/>
<path d="M0 0 C1.63415108 -0.00856522 1.63415108 -0.00856522 3.30131531 -0.01730347 C4.50703186 -0.01842133 5.71274841 -0.01953918 6.95500183 -0.02069092 C8.21668686 -0.02565582 9.47837189 -0.03062073 10.77828979 -0.03573608 C14.24946229 -0.04888418 17.72061542 -0.05530994 21.19180894 -0.05974674 C23.35925639 -0.06267415 25.52669852 -0.06677835 27.6941433 -0.07125092 C34.47193116 -0.08493341 41.24970688 -0.09459586 48.0275076 -0.09845281 C55.85795378 -0.10293284 63.68822533 -0.12047488 71.5186184 -0.1494534 C77.56621307 -0.17105889 83.61375858 -0.18115651 89.66139144 -0.18249393 C93.27550724 -0.18354296 96.88945907 -0.1894711 100.50353432 -0.20731354 C104.53564188 -0.22683132 108.56738356 -0.22250981 112.59953308 -0.21600342 C113.79917694 -0.2252182 114.9988208 -0.23443298 116.2348175 -0.243927 C117.33271103 -0.23835785 118.43060455 -0.2327887 119.56176758 -0.22705078 C120.99228565 -0.22925062 120.99228565 -0.22925062 122.45170307 -0.2314949 C125.4677954 0.21372287 126.83631938 0.97772343 128.97135925 3.14044189 C129.34693051 6.21185086 129.43749654 8.88268419 129.34635925 11.95294189 C129.33056824 12.9103125 129.31477722 13.86768311 129.29850769 14.85406494 C129.22326625 18.28470378 129.10275387 21.71149542 128.97135925 25.14044189 C128.92205261 26.45012939 128.87274597 27.75981689 128.82194519 29.10919189 C128.03706432 48.94319416 126.62202285 68.73137945 125.03385925 88.51544189 C124.91488281 90.02166611 124.91488281 90.02166611 124.79350281 91.55831909 C123.88861556 102.91935783 122.79240689 114.24151619 121.404953 125.55450439 C121.21498497 127.12209 121.21498497 127.12209 121.0211792 128.72134399 C120.89959946 129.67900665 120.77801971 130.63666931 120.65275574 131.62335205 C120.4917765 132.89814926 120.4917765 132.89814926 120.32754517 134.19869995 C119.97135925 136.14044189 119.97135925 136.14044189 118.97135925 137.14044189 C116.62082062 137.26552265 114.29821375 137.32647807 111.94596863 137.34576416 C111.20879105 137.35566376 110.47161346 137.36556335 109.71209717 137.37576294 C107.24646789 137.40760294 104.78082104 137.43229008 102.31510925 137.45684814 C100.57954976 137.47746516 98.84399474 137.4984627 97.10844421 137.51982117 C93.43956693 137.56394817 89.77067265 137.6047921 86.10173035 137.64312744 C81.50433348 137.69121882 76.90702983 137.74506824 72.3097229 137.80103493 C63.42490074 137.90910517 54.54014543 137.99802358 45.65493774 138.06757545 C40.59367189 138.10953491 35.53361297 138.1768118 30.47298431 138.2671175 C27.37502831 138.31944698 24.2770181 138.35604849 21.17880249 138.38908195 C19.74152643 138.40803943 18.30432361 138.43399356 16.86730957 138.4673481 C14.90818419 138.5120271 12.94850292 138.5299739 10.98893738 138.54644775 C9.89263 138.56461044 8.79632263 138.58277313 7.66679382 138.60148621 C4.97135925 138.14044189 4.97135925 138.14044189 3.13652039 136.30281067 C1.56937646 133.39442057 1.27991969 130.85984538 0.90885925 127.57794189 C0.83238663 126.92691498 0.755914 126.27588806 0.67712402 125.60513306 C0.42852179 123.45150881 0.19923517 121.29635082 -0.02864075 119.14044189 C-0.19726211 117.62167939 -0.36629609 116.10296265 -0.53572083 114.58428955 C-4.02081622 82.82263752 -6.08633597 51.15975449 -6.15364075 19.20294189 C-6.15641022 18.31368011 -6.15917969 17.42441833 -6.16203308 16.50820923 C-6.16780081 13.98062832 -6.16605824 11.45317913 -6.16145325 8.92559814 C-6.16342209 8.15392303 -6.16539093 7.38224792 -6.16741943 6.58718872 C-6.14064671 0.49894115 -6.02779161 0.01882389 0 0 Z " fill="#FEFEFD" transform="translate(481.0286407470703,658.8595581054688)"/>
<path d="M0 0 C0.96075439 0.47542236 0.96075439 0.47542236 1.94091797 0.96044922 C16.87536908 8.4920979 28.89684233 19.07935714 35.171875 34.92578125 C38.28289179 44.54400817 37.41967439 54.764822 37.25 64.75 C37.22990025 66.81508681 37.21165565 68.88019255 37.1953125 70.9453125 C37.1550309 75.96439944 37.07669383 80.98081509 37 86 C25.78 86 14.56 86 3 86 C2.6875 75.875 2.6875 75.875 2.61206055 72.71826172 C2.37322921 66.67600311 1.73917771 62.00310889 -2.5 57.35546875 C-6.983536 53.86438212 -10.1321892 52.6342969 -15.875 52.71875 C-20.7297621 53.36129204 -24.08338535 56.01102103 -27.375 59.5625 C-32.80357319 67.70535979 -30.46916902 74.85254934 -31 86 C-53.44 86 -75.88 86 -99 86 C-99.495 75.605 -99.495 75.605 -100 65 C-104.69788078 56.93264577 -104.69788078 56.93264577 -112 53 C-117.30088579 52.106246 -121.52436769 53.01624512 -126 56 C-130.06671446 60.12167006 -132.08385985 63.22737333 -132.31640625 69.0078125 C-132.35451416 69.8961377 -132.39262207 70.78446289 -132.43188477 71.69970703 C-132.47498779 72.83005371 -132.51809082 73.96040039 -132.5625 75.125 C-132.706875 78.71375 -132.85125 82.3025 -133 86 C-144.22 86 -155.44 86 -167 86 C-167.06919013 79.91639412 -167.12882799 73.83417535 -167.16479492 67.75048828 C-167.17980192 65.68468579 -167.200214 63.61891472 -167.22631836 61.55322266 C-167.26305961 58.56925662 -167.27980764 55.58571493 -167.29296875 52.6015625 C-167.30845261 51.69072906 -167.32393646 50.77989563 -167.33988953 49.84146118 C-167.34332507 36.49675773 -162.0769758 24.94420375 -152.9375 15.3125 C-112.32934658 -23.21599058 -47.60643338 -23.79751532 0 0 Z " fill="#842000" transform="translate(609,522)"/>
<path d="M0 0 C1.07765625 0.00410889 2.1553125 0.00821777 3.265625 0.01245117 C4.54574463 0.01341797 5.82586426 0.01438477 7.14477539 0.01538086 C8.6017324 0.02792347 10.0586824 0.04130176 11.515625 0.05541992 C13.04483878 0.0651333 14.57405439 0.07456282 16.10327148 0.08374023 C19.70290084 0.10860699 23.30234128 0.14298934 26.90185547 0.1809082 C31.81489917 0.23079984 36.72788368 0.26203802 41.64111328 0.28540039 C48.35076613 0.31767006 55.06010839 0.36662486 61.76952553 0.43164158 C65.55640724 0.46804439 69.3430948 0.49809189 73.13012695 0.51309204 C76.75469815 0.52806358 80.37859575 0.56243112 84.00286674 0.61104012 C86.0128003 0.63312754 88.02292023 0.63541144 90.03297424 0.63731384 C91.23904831 0.65701736 92.44512238 0.67672089 93.68774414 0.69702148 C94.74498184 0.70590393 95.80221954 0.71478638 96.89149475 0.72393799 C99.515625 1.24291992 99.515625 1.24291992 101.35482788 3.04615784 C103.12323785 6.39280292 102.95691059 9.74545071 102.95703125 13.44213867 C102.97561943 14.66376961 102.97561943 14.66376961 102.99458313 15.91007996 C103.02049236 17.66602917 103.04020458 19.4220785 103.05438232 21.17816162 C103.09470755 25.85267456 103.18782644 30.52616323 103.27734375 35.19995117 C103.29448425 36.14241699 103.31162476 37.08488281 103.32928467 38.0559082 C103.71911808 58.03476254 105.34341285 77.96192784 107.015625 97.86791992 C107.07538513 98.58622986 107.13514526 99.30453979 107.19671631 100.0446167 C107.92757051 108.74185691 108.87034578 117.3835097 110.1003418 126.0246582 C111.46756255 136.62001623 111.46756255 136.62001623 109.51078796 139.95600891 C106.32629123 142.01005862 102.94755909 141.63334887 99.28051758 141.58349609 C98.44127243 141.58393417 97.60202728 141.58437225 96.73735046 141.58482361 C93.96138299 141.58273239 91.18601831 141.55938578 88.41015625 141.53588867 C86.48630605 141.5302939 84.56245158 141.52602324 82.63859558 141.52302551 C77.5733766 141.51156739 72.50841542 141.48209185 67.44329834 141.44891357 C62.27538541 141.41823355 57.10743086 141.4045246 51.93945312 141.3894043 C41.79806378 141.35722312 31.65686582 141.30601504 21.515625 141.24291992 C20.87537452 139.80368016 20.23526496 138.36437771 19.59521484 136.92504883 C19.23873871 136.12354401 18.88226257 135.32203918 18.51498413 134.49624634 C13.39683574 122.95599157 10.21465299 111.19012406 7.19140625 98.9597168 C6.6189605 96.65835252 6.02639162 94.36411737 5.421875 92.07104492 C-1.03261104 66.56541459 -4.56062769 39.84170658 -4.734375 13.55541992 C-4.74380127 12.46052246 -4.75322754 11.365625 -4.76293945 10.23754883 C-4.75866943 9.2248291 -4.75439941 8.21210937 -4.75 7.16870117 C-4.74774414 6.26547119 -4.74548828 5.36224121 -4.74316406 4.43164062 C-4.35174259 1.12117507 -3.26322695 0.31907535 0 0 Z " fill="#FEFDFD" transform="translate(352.484375,656.757080078125)"/>
<path d="M0 0 C1.24643532 0.01213028 1.24643532 0.01213028 2.51805115 0.02450562 C3.96558022 0.03119766 3.96558022 0.03119766 5.44235229 0.0380249 C7.05268089 0.06106186 7.05268089 0.06106186 8.69554138 0.08456421 C9.83350662 0.09307404 10.97147186 0.10158386 12.1439209 0.11035156 C15.38604873 0.13655485 18.6279502 0.17205247 21.86995697 0.21000671 C25.62147461 0.25042795 29.37310772 0.27519799 33.1247406 0.30233765 C40.52266826 0.35813627 47.92024326 0.43305245 55.31786156 0.52056503 C59.59940221 0.57110149 63.88090367 0.61761605 68.1625824 0.65487671 C72.38126701 0.69164291 76.59974583 0.73788519 80.81825447 0.79106522 C82.40944983 0.80954004 84.00068775 0.82467329 85.59194756 0.83634567 C87.79198199 0.8531469 89.99153289 0.88213552 92.19139099 0.91415405 C93.43867477 0.92747772 94.68595856 0.94080139 95.97103882 0.95452881 C99.00413513 1.23300171 99.00413513 1.23300171 102.00413513 3.23300171 C102.39231873 5.43417358 102.39231873 5.43417358 102.40257263 8.20175171 C102.40861511 9.23501587 102.41465759 10.26828003 102.42088318 11.33285522 C102.40710632 12.45490356 102.39332947 13.5769519 102.37913513 14.73300171 C102.37115906 15.89049927 102.36318298 17.04799683 102.35496521 18.24057007 C102.15571674 30.68393112 100.7942335 42.92820652 99.00413513 55.23300171 C98.83591248 56.39654175 98.83591248 56.39654175 98.66429138 57.58358765 C97.92730136 62.49912914 97.00740628 67.36538674 96.00413513 72.23300171 C95.79917419 73.23444214 95.59421326 74.23588257 95.38304138 75.26766968 C92.51284366 89.11799527 89.2932395 102.70358722 84.72874451 116.09725952 C83.98461383 118.29053958 83.26510039 120.49070952 82.55101013 122.69393921 C79.16838349 133.06875336 79.16838349 133.06875336 78.00413513 134.23300171 C74.04185943 134.63202864 70.04557437 134.67020921 66.06663513 134.79550171 C64.76387634 134.83723511 63.46111755 134.87896851 62.11888123 134.92196655 C47.46053425 135.34135047 32.79572079 135.34399595 18.13247299 135.35593796 C16.12314719 135.35800788 14.1138301 135.36177445 12.10450745 135.36584473 C8.30279324 135.37168147 4.50116242 135.3701238 0.69944763 135.36581421 C-0.46585983 135.36779312 -1.6311673 135.36977203 -2.83178711 135.37181091 C-3.89381851 135.36870407 -4.95584991 135.36559723 -6.05006409 135.36239624 C-7.4520253 135.36120285 -7.4520253 135.36120285 -8.88230896 135.35998535 C-10.99586487 135.23300171 -10.99586487 135.23300171 -11.99586487 134.23300171 C-12.12577169 132.02760683 -12.17193015 129.81718971 -12.18336487 127.60800171 C-12.19754456 126.39886108 -12.21172424 125.18972046 -12.22633362 123.94393921 C-12.12949164 120.06924858 -11.61421898 116.31476876 -11.05982971 112.48031616 C-9.91280111 104.1958923 -9.29116039 95.9071618 -8.74195862 87.56503296 C-8.63541021 85.99443059 -8.52855568 84.42384897 -8.42141724 82.85328674 C-8.19901529 79.57682269 -7.98005731 76.30015266 -7.76368713 73.02328491 C-7.49214034 68.9143532 -7.21233101 64.80603604 -6.93001366 60.69783211 C-6.65442233 56.67470235 -6.3843397 52.65121615 -6.11695862 48.62753296 C-6.06477551 47.8429282 -6.01259239 47.05832344 -5.95882797 46.24994278 C-5.1739847 34.3175443 -4.62350024 22.39753188 -4.4029541 10.43974304 C-4.37697647 9.37853745 -4.35099884 8.31733185 -4.32423401 7.22396851 C-4.30832718 6.30206223 -4.29242035 5.38015594 -4.27603149 4.43031311 C-3.89871017 1.47102968 -3.01494587 0.35197149 0 0 Z " fill="#FEFEFD" transform="translate(633.9958648681641,659.7669982910156)"/>
<path d="M0 0 C1.07556152 0.00410889 2.15112305 0.00821777 3.25927734 0.01245117 C4.49266846 0.01349854 5.72605957 0.0145459 6.99682617 0.015625 C8.362963 0.0281182 9.72909277 0.04140564 11.09521484 0.05541992 C12.50235854 0.06436429 13.90950379 0.07306703 15.31665039 0.08154297 C19.18904828 0.11002894 23.06102577 0.15729812 26.9331665 0.2097168 C29.57357553 0.24427263 32.21401 0.27313728 34.85449219 0.30151367 C39.4332909 0.35327396 44.01146887 0.42421512 48.58978271 0.50839233 C50.38369407 0.53972002 52.17769185 0.56644031 53.97174072 0.58853149 C56.49908844 0.62167733 59.0253453 0.67391478 61.55224609 0.73120117 C62.68922188 0.74080872 62.68922188 0.74080872 63.84916687 0.75061035 C66.66479626 0.83034873 68.93799839 0.94946591 71.43261719 2.32495117 C73.01967454 5.25858002 72.94630576 8.18478031 72.98974609 11.44213867 C73.03869946 12.95706168 73.08863252 14.47195325 73.1394043 15.98681641 C73.16185211 16.79093964 73.18429993 17.59506287 73.20742798 18.42355347 C73.85503466 39.98725453 76.71367078 61.02196146 80.47021484 82.24291992 C80.67517578 83.4037207 80.88013672 84.56452148 81.09130859 85.76049805 C83.51528107 98.99204434 87.29879757 111.7371818 91.52416992 124.48974609 C91.90468506 125.65610596 92.2852002 126.82246582 92.67724609 128.02416992 C93.19508667 129.57201172 93.19508667 129.57201172 93.72338867 131.15112305 C94.56848821 134.64976329 94.732934 137.65630287 94.47021484 141.24291992 C92.47021484 143.24291992 92.47021484 143.24291992 90.02780151 143.48342896 C89.00187897 143.47898773 87.97595642 143.47454651 86.91894531 143.4699707 C85.17736649 143.46974411 85.17736649 143.46974411 83.40060425 143.46951294 C82.14224762 143.45919037 80.88389099 143.4488678 79.58740234 143.43823242 C78.30286163 143.43540253 77.01832092 143.43257263 75.69485474 143.42965698 C72.27858718 143.42201801 68.86248948 143.40236745 65.44628906 143.38024902 C61.96079812 143.35979617 58.47527974 143.35065648 54.98974609 143.34057617 C48.14983253 143.31912167 41.31003184 143.28498264 34.47021484 143.24291992 C18.51572934 115.66298796 6.53002966 86.10731043 0.34521484 54.74291992 C0.21636902 54.09361511 0.08752319 53.4443103 -0.04522705 52.77532959 C-3.27246449 36.39671138 -6.03486105 18.99795593 -4.52978516 2.24291992 C-2.52978516 0.24291992 -2.52978516 0.24291992 0 0 Z " fill="#FEFDFD" transform="translate(255.52978515625,655.757080078125)"/>
<path d="M0 0 C11.22 0 22.44 0 34 0 C34 67.65 34 135.3 34 205 C19.81 205 5.62 205 -9 205 C-9.33 151.54 -9.66 98.08 -10 43 C-22.375 48.445 -22.375 48.445 -35 54 C-35.66 54 -36.32 54 -37 54 C-37 43.44 -37 32.88 -37 22 C-33.844375 20.39125 -30.68875 18.7825 -27.4375 17.125 C-12.8397715 9.88661942 -12.8397715 9.88661942 0 0 Z " fill="#FDFBFB" transform="translate(102,104)"/>
<path d="M0 0 C4.31263714 0.01048495 8.62528087 0.01484976 12.93792725 0.01983643 C21.30382972 0.03035831 29.66970176 0.0472755 38.0355835 0.06866455 C37.31353931 7.99127674 36.08864563 15.65182208 34.4730835 23.44366455 C34.08370605 25.32505127 34.08370605 25.32505127 33.6864624 27.2444458 C30.81244407 40.71146676 27.03151253 53.89458601 23.0355835 67.06866455 C22.5405835 68.73663086 22.5405835 68.73663086 22.0355835 70.43829346 C20.08877069 76.92295335 17.95754534 83.22220804 15.2855835 89.44366455 C14.94196777 90.24602539 14.59835205 91.04838623 14.24432373 91.87506104 C0.90674822 122.52019866 0.90674822 122.52019866 -12.9644165 128.06866455 C-18.15827264 128.90638328 -20.97069515 128.41151664 -25.4644165 125.69366455 C-47.95494551 109.01832369 -56.23135273 73.48306605 -62.31304932 47.81085205 C-62.96684838 45.05842661 -63.64639199 42.31342251 -64.331604 39.56866455 C-66.38225559 31.27790635 -68.28264989 22.96732423 -69.8394165 14.56866455 C-69.97178711 13.88046631 -70.10415771 13.19226807 -70.24053955 12.48321533 C-70.89625261 8.74231835 -71.06923737 5.72412125 -69.9644165 2.06866455 C-68.19862617 0.30287422 -65.65549519 0.83473937 -63.25543213 0.75445557 C-62.01885864 0.7127977 -60.78228516 0.67113983 -59.50823975 0.6282196 C-58.12906607 0.58823176 -56.74987416 0.54886905 -55.3706665 0.5100708 C-54.6673671 0.48901339 -53.96406769 0.46795597 -53.23945618 0.44626045 C-35.49486432 -0.07671094 -17.75052515 -0.04797089 0 0 Z " fill="#FEFDFD" transform="translate(558.9644165039063,815.9313354492188)"/>
<path d="M0 0 C2.95372009 -0.3742218 2.95372009 -0.3742218 6.78881836 -0.37231445 C7.83541374 -0.37779045 7.83541374 -0.37779045 8.90315247 -0.38337708 C11.21562852 -0.39150027 13.52740761 -0.37785717 15.83984375 -0.36328125 C17.44405619 -0.36276279 19.04826927 -0.36327993 20.65248108 -0.36479187 C24.01768455 -0.36470206 27.38264887 -0.35425689 30.74780273 -0.33618164 C35.0634133 -0.31351231 39.37867367 -0.31294614 43.69432735 -0.31969929 C47.00829688 -0.32303985 50.32218646 -0.31640724 53.63614082 -0.30657005 C55.2273676 -0.30271789 56.81860326 -0.30156991 58.40983391 -0.3031559 C60.63399078 -0.30352645 62.85769776 -0.29090903 65.08178711 -0.2746582 C66.34816513 -0.27005081 67.61454315 -0.26544342 68.91929626 -0.26069641 C72 0 72 0 75 2 C76.15618018 11.15510872 74.67907378 20.73466969 73.375 29.8125 C73.19678711 31.06442139 73.01857422 32.31634277 72.83496094 33.60620117 C68.60807232 61.89452811 60.30410918 109.69589082 39 131 C36.6997827 131.1603384 34.39473797 131.2518255 32.08984375 131.31640625 C31.37856827 131.33736862 30.66729279 131.35833099 29.9344635 131.37992859 C27.60225954 131.44660541 25.26995547 131.50533547 22.9375 131.5625 C22.14899658 131.58268188 21.36049316 131.60286377 20.5480957 131.62365723 C15.77192962 131.74499451 10.99560189 131.85368517 6.21893311 131.95318604 C4.15908288 131.99664375 2.09931203 132.04382057 0.03955078 132.09130859 C-3.30702352 132.16260893 -6.65290557 132.21182422 -10 132.25 C-10.98234619 132.2713501 -11.96469238 132.2927002 -12.97680664 132.31469727 C-13.87133545 132.31912842 -14.76586426 132.32355957 -15.6875 132.328125 C-16.45449219 132.3374707 -17.22148438 132.34681641 -18.01171875 132.35644531 C-20.54747828 131.90185188 -21.44479463 131.01548207 -23 129 C-23.03125 127.1171875 -23.03125 127.1171875 -22.5 124.875 C-22.28859375 123.97652344 -22.0771875 123.07804688 -21.859375 122.15234375 C-20.68628321 117.84922979 -19.40012463 113.58190047 -18.10620117 109.31396484 C-15.20072541 99.57139312 -12.93211484 89.65945185 -10.63916016 79.75805664 C-10.2510873 78.08347337 -9.85667285 76.41032026 -9.45068359 74.73999023 C-7.83589789 67.91685239 -6.90923631 61.01008842 -6 54.0625 C-5.91284729 53.40479614 -5.82569458 52.74709229 -5.73590088 52.06945801 C-4.0695813 39.33921888 -3.22547159 26.60516807 -2.68359375 13.78149414 C-2.65105499 13.08180008 -2.61851624 12.38210602 -2.58499146 11.66120911 C-2.49787204 9.76439232 -2.4221226 7.86706299 -2.34716797 5.96972656 C-2 3 -2 3 0 0 Z " fill="#FEFDFD" transform="translate(758,662)"/>
<path d="M0 0 C12.85426397 8.75631061 20.42651772 20.02472664 24.0546875 35.203125 C24.64507998 43.3123394 24.57999262 51.42518523 22.0546875 59.203125 C21.79816406 60.01136719 21.54164063 60.81960938 21.27734375 61.65234375 C18.96473613 68.13360031 15.58321064 73.06056483 11.0546875 78.203125 C10.508125 78.8321875 9.9615625 79.46125 9.3984375 80.109375 C0.2297696 89.97001783 -11.56608618 94.27654821 -24.8203125 95.5859375 C-39.48293935 96.036633 -52.4129868 90.78141095 -63.2890625 80.95703125 C-68.97189699 74.93912397 -73.05633478 67.92532137 -75.9453125 60.203125 C-76.30109375 59.33300781 -76.656875 58.46289062 -77.0234375 57.56640625 C-80.35761841 45.40229707 -79.04802407 31.19415465 -72.9453125 20.203125 C-70.83334356 16.65642182 -68.55011471 13.403797 -65.9453125 10.203125 C-65.44644531 9.57921875 -64.94757813 8.9553125 -64.43359375 8.3125 C-60.8392453 4.29262415 -56.58107158 1.58227747 -51.9453125 -1.109375 C-51.36386475 -1.44727051 -50.78241699 -1.78516602 -50.18334961 -2.13330078 C-34.7950102 -10.67157029 -14.68902969 -8.961477 0 0 Z " fill="#842101" transform="translate(570.9453125,376.796875)"/>
<path d="M0 0 C0.77911743 -0.00204437 1.55823486 -0.00408875 2.36096191 -0.00619507 C4.93733147 -0.00920436 7.51306195 0.0092755 10.08935547 0.02832031 C11.8762903 0.0313773 13.66322751 0.03325388 15.45016479 0.03399658 C19.19440838 0.03860029 22.93843697 0.0530308 26.68261719 0.07519531 C31.4926873 0.10351861 36.30258826 0.11441075 41.11273384 0.11887741 C44.80148017 0.12302467 48.49019198 0.13283564 52.17892075 0.1447525 C53.95322263 0.15046656 55.72752785 0.15522149 57.50183487 0.15901947 C59.97524161 0.16585944 62.44851157 0.17947984 64.921875 0.1953125 C66.03150101 0.19698929 66.03150101 0.19698929 67.1635437 0.19869995 C72.21685394 0.24175629 72.21685394 0.24175629 73.33154297 1.35644531 C74.07856682 7.17963121 71.86440405 10.98264055 69.14404297 15.91894531 C68.47888672 17.14991943 68.47888672 17.14991943 67.80029297 18.40576172 C59.73337512 33.12566449 51.01767235 47.38900741 40.33154297 60.35644531 C39.51814453 61.37222656 38.70474609 62.38800781 37.86669922 63.43457031 C19.73928399 85.76865289 -1.75281917 103.78979654 -27.66845703 116.35644531 C-28.48233887 116.75508789 -29.2962207 117.15373047 -30.13476562 117.56445312 C-37.62663393 121.09132224 -37.62663393 121.09132224 -41.66845703 120.35644531 C-42.32845703 119.69644531 -42.98845703 119.03644531 -43.66845703 118.35644531 C-43.66845703 113.69093463 -42.35592702 110.56472263 -40.16845703 106.48144531 C-33.29980395 93.35800429 -28.68055869 78.6446132 -24.56420898 64.43603516 C-23.98953122 62.46029643 -23.3991524 60.48901823 -22.7890625 58.52392578 C-19.12933526 46.41662888 -16.89823281 34.02180086 -14.52026367 21.61254883 C-13.9533399 18.66705647 -13.37237915 15.72460666 -12.78955078 12.78222656 C-12.62071884 11.87918289 -12.4518869 10.97613922 -12.27793884 10.04573059 C-12.11088943 9.21023178 -11.94384003 8.37473297 -11.77172852 7.51391602 C-11.63057114 6.78114944 -11.48941376 6.04838287 -11.34397888 5.29341125 C-9.35907647 -0.39802325 -5.38089019 -0.06739647 0 0 Z " fill="#FEFDFD" transform="translate(627.66845703125,814.6435546875)"/>
<path d="M0 0 C0.74086853 0.00719055 1.48173706 0.0143811 2.24505615 0.02178955 C3.02563385 0.0214975 3.80621155 0.02120544 4.61044312 0.02090454 C7.19693015 0.02230065 9.78313101 0.03787491 12.36956787 0.05352783 C14.16032758 0.05725697 15.95108933 0.06010441 17.74185181 0.06210327 C22.46014009 0.06974759 27.17830568 0.08940288 31.89654541 0.11151123 C36.70915059 0.13195251 41.52177556 0.14110131 46.33441162 0.15118408 C55.78108018 0.17264805 65.22765758 0.20679359 74.67425537 0.24884033 C75.99238317 4.77498144 77.09391866 9.19113737 77.86566162 13.84259033 C83.40650714 45.96022539 91.42923789 79.53359443 106.86566162 108.48321533 C108.05031826 111.07000181 107.80153713 113.44864169 107.67425537 116.24884033 C100.65942885 118.22115305 96.11435055 115.72386126 89.79925537 112.56134033 C88.78419922 112.06239258 87.76914307 111.56344482 86.72332764 111.04937744 C50.1956509 92.59422691 21.41830411 59.52171924 1.67425537 24.24884033 C1.26094971 23.5164917 0.84764404 22.78414307 0.42181396 22.02960205 C-0.86401524 19.73599997 -2.12986615 17.4326029 -3.38824463 15.12384033 C-3.78302002 14.4128418 -4.17779541 13.70184326 -4.58453369 12.96929932 C-8.05824851 6.45881003 -8.05824851 6.45881003 -7.32574463 2.24884033 C-4.83735138 -0.23955292 -3.39484801 0.01380945 0 0 Z " fill="#FEFDFD" transform="translate(392.32574462890625,817.7511596679688)"/>
<path d="M0 0 C1.10384033 0.06018311 1.10384033 0.06018311 2.22998047 0.12158203 C17.809747 1.1133877 32.41864076 6.49030725 46 14 C44.62416187 17.62959201 42.96951371 20.96312748 41.125 24.375 C35.03561226 36.538887 33.91268872 47.30966915 33 61 C-6.6 61 -46.2 61 -87 61 C-87 44.73784617 -82.93848938 33.1822205 -71.8125 21.25 C-66.76778578 16.46179667 -61.18227392 13.1304644 -55 10 C-54.11054688 9.54882812 -53.22109375 9.09765625 -52.3046875 8.6328125 C-35.59623522 0.96882157 -18.16841083 -1.08250934 0 0 Z " fill="#842101" transform="translate(375,513)"/>
<path d="M0 0 C9.29349396 7.83269027 15.14965139 17.32832483 18.359375 29.01171875 C18.359375 33.63171875 18.359375 38.25171875 18.359375 43.01171875 C-20.910625 43.01171875 -60.180625 43.01171875 -100.640625 43.01171875 C-101.300625 36.74171875 -101.960625 30.47171875 -102.640625 24.01171875 C-105.08280565 15.32840979 -107.91160454 7.82460209 -112.50390625 0.0859375 C-113.640625 -1.98828125 -113.640625 -1.98828125 -113.640625 -3.98828125 C-103.47044969 -9.49434199 -94.01686251 -13.56780518 -82.640625 -15.98828125 C-81.70605469 -16.21257813 -80.77148438 -16.436875 -79.80859375 -16.66796875 C-53.22978556 -22.21947947 -21.84963533 -16.45187039 0 0 Z " fill="#842101" transform="translate(780.640625,530.98828125)"/>
<path d="M0 0 C9.59450425 6.7400932 16.37554722 16.13973478 18.72265625 27.6796875 C19.7718493 37.55164031 17.81838921 47.77645265 12.03515625 55.9921875 C10.96490447 57.25099481 9.85865004 58.47987383 8.72265625 59.6796875 C8.09746094 60.36804688 7.47226562 61.05640625 6.828125 61.765625 C-0.91174073 69.49113106 -10.56234198 72.8495272 -21.40234375 73.3046875 C-32.16729259 72.85865938 -41.64953581 68.23182274 -49.27734375 60.6796875 C-57.35203615 50.85193688 -60.54909811 39.33879726 -59.59863281 26.71972656 C-58.28090359 18.35274681 -52.69424033 9.09257985 -46.27734375 3.6796875 C-43.06742803 1.40622274 -39.76923453 -0.5141621 -36.27734375 -2.3203125 C-35.64054687 -2.66320312 -35.00375 -3.00609375 -34.34765625 -3.359375 C-23.54575793 -8.31990341 -9.95027182 -5.76876823 0 0 Z " fill="#842101" transform="translate(387.27734375,406.3203125)"/>
<path d="M0 0 C9.52865359 -0.45664474 18.56977693 2.40536942 25.94921875 8.49609375 C35.64840839 17.60872332 40.54328796 26.56999832 41.1953125 39.9453125 C40.94574329 50.84316802 36.56646356 59.43505576 29.00390625 67.109375 C19.90112408 75.56308923 9.74863779 79.05519371 -2.78515625 78.640625 C-13.15797932 77.30446474 -22.82568809 71.87735852 -29.24609375 63.6171875 C-36.27299234 53.11351445 -38.63118862 43.90598312 -37.2421875 31.1953125 C-33.86636635 18.81730162 -27.1012527 10.71420992 -16.2421875 4.1953125 C-10.99000739 1.32762216 -5.91236644 0.5150145 0 0 Z " fill="#842101" transform="translate(719.2421875,400.8046875)"/>
<path d="M0 0 C1.51223648 0.00666183 1.51223648 0.00666183 3.05502319 0.01345825 C4.19605499 0.01360931 5.33708679 0.01376038 6.51269531 0.01391602 C8.36741959 0.02939987 8.36741959 0.02939987 10.25961304 0.04519653 C12.15313004 0.04944138 12.15313004 0.04944138 14.0848999 0.05377197 C17.44201998 0.06308772 20.79886965 0.08106068 24.15591431 0.10317993 C27.58108176 0.12363353 31.00627713 0.13277264 34.43148804 0.14285278 C41.15291724 0.16494445 47.87421827 0.19844527 54.59555054 0.24050903 C53.35397708 3.43552632 52.14999645 6.13034367 50.09164429 8.87722778 C49.60268677 9.53207153 49.11372925 10.18691528 48.60995483 10.86160278 C48.08957642 11.54351685 47.569198 12.22543091 47.03305054 12.92800903 C46.49655884 13.63699341 45.96006714 14.34597778 45.40731812 15.07644653 C41.75077991 19.85819904 37.93873539 24.43422743 33.82601929 28.83425903 C31.96284967 30.84426338 30.16919372 32.88752656 28.38070679 34.96316528 C18.4793924 46.31180836 7.61666552 57.14933155 -4.40444946 66.24050903 C-5.58982698 67.16567345 -6.7746856 68.09150294 -7.95913696 69.01785278 C-18.00804338 76.79650702 -28.51137739 83.70510221 -39.40444946 90.24050903 C-40.23460571 90.73985962 -41.06476196 91.23921021 -41.92007446 91.75369263 C-44.36152545 93.20804299 -46.81630993 94.63575644 -49.27944946 96.05300903 C-50.39392456 96.7116394 -50.39392456 96.7116394 -51.53091431 97.38357544 C-56.66634282 100.26951322 -56.66634282 100.26951322 -60.28726196 100.12722778 C-62.40444946 99.24050903 -62.40444946 99.24050903 -64.40444946 97.24050903 C-64.12148966 93.49915158 -62.17434424 91.62076417 -59.65444946 88.99050903 C-36.61745907 64.01855748 -20.35968216 35.20058818 -5.71694946 4.72879028 C-3.40214408 0.34030509 -3.40214408 0.34030509 0 0 Z " fill="#FDFDFC" transform="translate(729.4044494628906,813.7594909667969)"/>
<path d="M0 0 C0.98474808 -0.02567047 1.96949615 -0.05134094 2.98408508 -0.07778931 C4.0517662 -0.09256317 5.11944733 -0.10733704 6.21948242 -0.12255859 C7.31459641 -0.13870209 8.40971039 -0.15484558 9.53800964 -0.17147827 C11.85893404 -0.1991736 14.17994014 -0.22061186 16.50097656 -0.23632812 C20.05129298 -0.27076661 23.59788818 -0.35850644 27.1472168 -0.44677734 C29.40044456 -0.4670304 31.65370405 -0.48406288 33.90698242 -0.49755859 C34.96859085 -0.53257477 36.03019928 -0.56759094 37.12397766 -0.60366821 C44.32408986 -0.5612938 44.32408986 -0.5612938 47.01315308 2.06167603 C48.32454616 4.11742226 49.32548907 6.10570312 50.26245117 8.35400391 C50.8553263 9.59660921 51.44893269 10.83886624 52.04370117 12.08056641 C52.6178248 13.37951278 53.19068616 14.67901761 53.76245117 15.97900391 C65.07328267 40.70965414 80.95939645 63.19279563 99.31713867 83.16259766 C101.10253077 85.17385261 102.79943419 87.09637706 104.26245117 89.35400391 C103.94995117 92.10400391 103.94995117 92.10400391 103.26245117 94.35400391 C98.59872542 95.48374211 96.31763569 95.36825895 92.17260742 92.95947266 C91.23070557 92.4209668 90.28880371 91.88246094 89.31835938 91.32763672 C88.33053467 90.73821289 87.34270996 90.14878906 86.32495117 89.54150391 C85.30167725 88.94563477 84.27840332 88.34976563 83.22412109 87.73583984 C65.71882343 77.44784402 49.57789235 65.67978076 34.26245117 52.35400391 C33.39749023 51.60248047 32.5325293 50.85095703 31.64135742 50.07666016 C22.12390781 41.65562074 13.21070964 32.84669662 5.29370117 22.89306641 C3.40318991 20.52992733 1.45387149 18.24615105 -0.55004883 15.97900391 C-1.10305664 15.34607422 -1.65606445 14.71314453 -2.22583008 14.06103516 C-3.54080231 12.57616987 -4.88662987 11.11874179 -6.23754883 9.66650391 C-7.73754883 7.35400391 -7.73754883 7.35400391 -7.61254883 4.66650391 C-6.00203529 0.41014669 -4.25016255 0.09632417 0 0 Z " fill="#FDFCFC" transform="translate(314.737548828125,818.64599609375)"/>
<path d="M0 0 C31.69230769 0 31.69230769 0 39.875 4.625 C45.56181384 10.98085077 46.60500239 18.11408257 46.53125 26.37109375 C46.5350769 27.33346451 46.53890381 28.29583527 46.54284668 29.28736877 C46.5455525 31.31016087 46.53828521 33.33298876 46.52148438 35.35571289 C46.50007948 38.42609902 46.52131977 41.49413929 46.546875 44.56445312 C46.54423103 46.54167176 46.53910462 48.51888895 46.53125 50.49609375 C46.53934692 51.40056747 46.54744385 52.3050412 46.55578613 53.23692322 C46.44838679 60.65712867 44.87823639 67.79282231 39.8125 73.4375 C26.407733 80.88459278 16.74606978 78 0 78 C0 52.26 0 26.52 0 0 Z " fill="#FDFCFC" transform="translate(544,103)"/>
<path d="M0 0 C31.69230769 0 31.69230769 0 39.875 4.625 C45.56181384 10.98085077 46.60500239 18.11408257 46.53125 26.37109375 C46.5350769 27.33346451 46.53890381 28.29583527 46.54284668 29.28736877 C46.5455525 31.31016087 46.53828521 33.33298876 46.52148438 35.35571289 C46.50007948 38.42609902 46.52131977 41.49413929 46.546875 44.56445312 C46.54423103 46.54167176 46.53910462 48.51888895 46.53125 50.49609375 C46.53934692 51.40056747 46.54744385 52.3050412 46.55578613 53.23692322 C46.44838679 60.65712867 44.87823639 67.79282231 39.8125 73.4375 C26.407733 80.88459278 16.74606978 78 0 78 C0 52.26 0 26.52 0 0 Z " fill="#FDFCFC" transform="translate(436,103)"/>
<path d="M0 0 C3.75410639 1.35786827 4.68912181 2.43250039 6.6056366 5.93104553 C8.61525875 10.86408305 8.41174254 15.78507026 8.37231445 21.04077148 C8.37596512 22.1310968 8.37961578 23.22142212 8.38337708 24.3447876 C8.39146082 27.93704974 8.37788911 31.5288577 8.36328125 35.12109375 C8.36276235 37.62541198 8.36328122 40.12973063 8.36479187 42.63404846 C8.36470224 47.87856068 8.35463329 53.12295632 8.33618164 58.36743164 C8.31502777 64.41422835 8.31150288 70.46083506 8.3177436 76.50766128 C8.32345686 82.34412813 8.3176618 88.18052753 8.30657005 94.01698494 C8.30272856 96.49164627 8.30156547 98.96631329 8.3031559 101.4409771 C8.30352799 104.90403882 8.29086516 108.36681525 8.2746582 111.82983398 C8.27713562 112.84670792 8.27961304 113.86358185 8.28216553 114.91127014 C8.18283637 128.25385101 8.18283637 128.25385101 4.0625 133.4375 C0.22080088 136.34787812 -3.31210514 136.47673507 -8 136 C-13.11021605 132.95352505 -14.66773449 130.13164232 -16.40297318 124.5662384 C-17.44388498 120.09202095 -17.41674455 115.69017352 -17.38818359 111.11523438 C-17.39344055 110.06523758 -17.39869751 109.01524078 -17.40411377 107.9334259 C-17.41724219 104.48671281 -17.40860083 101.04046722 -17.3984375 97.59375 C-17.40046028 95.18436597 -17.40337343 92.77498253 -17.40713501 90.36560059 C-17.41154868 85.32554269 -17.40515796 80.28564472 -17.39111328 75.24560547 C-17.37402222 68.79973366 -17.3838685 62.35423667 -17.40183067 55.9083786 C-17.41269424 50.93598632 -17.40921032 45.96368224 -17.4014473 40.99128723 C-17.39945241 38.61513728 -17.40187943 36.2389792 -17.40888596 33.86283875 C-17.41654264 30.53659994 -17.40483666 27.21096007 -17.38818359 23.88476562 C-17.39425629 22.91203201 -17.40032898 21.9392984 -17.40658569 20.93708801 C-17.34085941 13.8162321 -16.18187966 7.57828264 -12.4375 1.4375 C-8.45835486 -0.90917534 -4.49230731 -0.58341653 0 0 Z " fill="#852303" transform="translate(232,139)"/>
<path d="M0 0 C3.96 0 7.92 0 12 0 C15.81410052 7.40828894 19.15160493 14.91808053 22.3125 22.625 C23.859375 26.37875 25.40625 30.1325 27 34 C27.33 22.78 27.66 11.56 28 0 C32.62 0 37.24 0 42 0 C42 25.74 42 51.48 42 78 C38.04 78 34.08 78 30 78 C29.64695801 77.08710205 29.29391602 76.1742041 28.93017578 75.23364258 C27.61470899 71.83232654 26.29886524 68.43115644 24.98291016 65.0300293 C24.4144486 63.56066778 23.84608796 62.09126722 23.27783203 60.62182617 C22.4589273 58.50429057 21.6396544 56.38689773 20.8203125 54.26953125 C20.44206833 53.29111015 20.44206833 53.29111015 20.05618286 52.29292297 C18.72466193 48.85309076 17.3699718 45.4249295 16 42 C15.67 53.88 15.34 65.76 15 78 C10.05 78 5.1 78 0 78 C0 52.26 0 26.52 0 0 Z " fill="#FDFCFC" transform="translate(652,103)"/>
<path d="M0 0 C0.83265381 0.00523682 1.66530762 0.01047363 2.52319336 0.01586914 C3.42231445 0.0190918 4.32143555 0.02231445 5.24780273 0.02563477 C6.66609375 0.03820312 6.66609375 0.03820312 8.11303711 0.05102539 C9.06243164 0.05553711 10.01182617 0.06004883 10.98999023 0.06469727 C13.34356776 0.07652429 15.69702188 0.09300514 18.05053711 0.11352539 C22.03471738 20.21096034 25.98740048 40.31149329 29.55053711 60.48852539 C29.67986633 61.2162616 29.80919556 61.9439978 29.94244385 62.69378662 C30.30463042 64.73679343 30.66286413 66.78044356 31.01928711 68.82446289 C31.21973633 69.97221191 31.42018555 71.11996094 31.62670898 72.30249023 C32.05053711 75.11352539 32.05053711 75.11352539 32.05053711 78.11352539 C26.77053711 78.11352539 21.49053711 78.11352539 16.05053711 78.11352539 C14.56975231 75.15195579 14.69739674 72.27846244 14.48803711 68.98852539 C14.36235352 67.0665332 14.36235352 67.0665332 14.23413086 65.10571289 C14.17354492 64.11829102 14.11295898 63.13086914 14.05053711 62.11352539 C10.09053711 62.11352539 6.13053711 62.11352539 2.05053711 62.11352539 C1.90616211 64.01102539 1.76178711 65.90852539 1.61303711 67.86352539 C1.338834 71.46733771 0.9312917 74.59050704 0.05053711 78.11352539 C-5.55946289 78.11352539 -11.16946289 78.11352539 -16.94946289 78.11352539 C-15.45619421 69.01303891 -13.85596226 59.93559121 -12.19946289 50.86352539 C-12.07173492 50.16340332 -11.94400696 49.46328125 -11.81240845 48.74194336 C-11.00058487 44.29444745 -10.18569485 39.84751973 -9.36920166 35.40087891 C-8.94581463 33.09364431 -8.52350978 30.78621341 -8.10131836 28.47875977 C-7.41594031 24.7359936 -6.72597023 20.99409981 -6.03259277 17.25280762 C-5.76930608 15.82914229 -5.50733826 14.40523242 -5.2467041 12.9810791 C-4.88444321 11.00370447 -4.51670496 9.02733564 -4.14868164 7.05102539 C-3.8367688 5.36299805 -3.8367688 5.36299805 -3.51855469 3.64086914 C-2.73458416 0.15924629 -2.73458416 0.15924629 0 0 Z " fill="#FBF8F7" transform="translate(611.949462890625,102.886474609375)"/>
<path d="M0 0 C0.83265381 0.00523682 1.66530762 0.01047363 2.52319336 0.01586914 C3.42231445 0.0190918 4.32143555 0.02231445 5.24780273 0.02563477 C6.66609375 0.03820312 6.66609375 0.03820312 8.11303711 0.05102539 C9.06243164 0.05553711 10.01182617 0.06004883 10.98999023 0.06469727 C13.34356776 0.07652429 15.69702188 0.09300514 18.05053711 0.11352539 C22.03471738 20.21096034 25.98740048 40.31149329 29.55053711 60.48852539 C29.67986633 61.2162616 29.80919556 61.9439978 29.94244385 62.69378662 C30.30463042 64.73679343 30.66286413 66.78044356 31.01928711 68.82446289 C31.21973633 69.97221191 31.42018555 71.11996094 31.62670898 72.30249023 C32.05053711 75.11352539 32.05053711 75.11352539 32.05053711 78.11352539 C26.77053711 78.11352539 21.49053711 78.11352539 16.05053711 78.11352539 C14.56975231 75.15195579 14.69739674 72.27846244 14.48803711 68.98852539 C14.36235352 67.0665332 14.36235352 67.0665332 14.23413086 65.10571289 C14.17354492 64.11829102 14.11295898 63.13086914 14.05053711 62.11352539 C10.09053711 62.11352539 6.13053711 62.11352539 2.05053711 62.11352539 C1.90616211 64.01102539 1.76178711 65.90852539 1.61303711 67.86352539 C1.338834 71.46733771 0.9312917 74.59050704 0.05053711 78.11352539 C-5.55946289 78.11352539 -11.16946289 78.11352539 -16.94946289 78.11352539 C-15.45619421 69.01303891 -13.85596226 59.93559121 -12.19946289 50.86352539 C-12.07173492 50.16340332 -11.94400696 49.46328125 -11.81240845 48.74194336 C-11.00058487 44.29444745 -10.18569485 39.84751973 -9.36920166 35.40087891 C-8.94581463 33.09364431 -8.52350978 30.78621341 -8.10131836 28.47875977 C-7.41594031 24.7359936 -6.72597023 20.99409981 -6.03259277 17.25280762 C-5.76930608 15.82914229 -5.50733826 14.40523242 -5.2467041 12.9810791 C-4.88444321 11.00370447 -4.51670496 9.02733564 -4.14868164 7.05102539 C-3.8367688 5.36299805 -3.8367688 5.36299805 -3.51855469 3.64086914 C-2.73458416 0.15924629 -2.73458416 0.15924629 0 0 Z " fill="#FBF8F7" transform="translate(503.949462890625,102.886474609375)"/>
<path d="M0 0 C6.93 0 13.86 0 21 0 C25.92781735 25.95961296 30.83896113 51.90464066 35 78 C29.72 78 24.44 78 19 78 C17.19019666 71.66568832 16.80670678 68.28202978 17 62 C13.04 62 9.08 62 5 62 C4.86722656 62.98742187 4.73445312 63.97484375 4.59765625 64.9921875 C4.42105469 66.27351563 4.24445312 67.55484375 4.0625 68.875 C3.80146484 70.78925781 3.80146484 70.78925781 3.53515625 72.7421875 C3 76 3 76 2 78 C-3.28 78 -8.56 78 -14 78 C-13.26989317 71.22528778 -12.03786224 64.57752812 -10.75933838 57.88671875 C-10.08960716 54.38118578 -9.4281496 50.8740883 -8.765625 47.3671875 C-8.62516754 46.62482849 -8.48471008 45.88246948 -8.33999634 45.11761475 C-6.5703007 35.75088362 -4.84843113 26.37533216 -3.125 17 C-2.81169453 15.29671071 -2.49838092 13.59342291 -2.18505859 11.89013672 C-1.45608522 7.92687143 -0.72806533 3.96343258 0 0 Z " fill="#FBF9F8" transform="translate(745,103)"/>
<path d="M0 0 C4.9205337 3.39202748 7.28796694 7.5140544 8.8359375 13.265625 C9.08672389 17.95031483 8.9245453 22.5694115 8.8359375 27.265625 C3.2259375 27.265625 -2.3840625 27.265625 -8.1640625 27.265625 C-8.359375 23.71744792 -8.5546875 20.16927083 -8.75 16.62109375 C-8.92509189 13.13807266 -8.92509189 13.13807266 -11.1640625 10.265625 C-13.62115625 9.68211995 -13.62115625 9.68211995 -16.1640625 10.265625 C-18.83177663 13.09806439 -19.53814621 15.02652379 -19.52050781 18.87890625 C-19.52350891 19.78664795 -19.52651001 20.69438965 -19.52960205 21.62963867 C-19.51725525 22.60263916 -19.50490845 23.57563965 -19.4921875 24.578125 C-19.49031433 25.58399658 -19.48844116 26.58986816 -19.48651123 27.6262207 C-19.479794 29.75117308 -19.46588606 31.87611316 -19.4453125 34.00097656 C-19.41417979 37.25337218 -19.40434224 40.50528268 -19.3984375 43.7578125 C-19.38926617 45.82292257 -19.37888999 47.88802772 -19.3671875 49.953125 C-19.36293762 50.92612549 -19.35868774 51.89912598 -19.35430908 52.90161133 C-19.34470154 53.80935303 -19.33509399 54.71709473 -19.32519531 55.65234375 C-19.31495331 56.84670044 -19.31495331 56.84670044 -19.30450439 58.06518555 C-19.16529188 60.24636304 -18.76430804 62.16854193 -18.1640625 64.265625 C-14.14048496 64.63567015 -14.14048496 64.63567015 -10.5078125 63.203125 C-8.47719743 60.27526142 -8.63793309 57.59600378 -8.4765625 54.078125 C-8.3734375 51.83 -8.2703125 49.581875 -8.1640625 47.265625 C-2.5540625 47.265625 3.0559375 47.265625 8.8359375 47.265625 C9.21837141 56.25282197 9.52624284 64.67941864 3.4453125 71.921875 C-2.9355232 77.69821047 -10.35804303 77.71030866 -18.5234375 77.57421875 C-24.12754971 77.09919207 -27.70334778 75.71365562 -31.6796875 71.7578125 C-37.32077556 64.78750254 -37.47789726 55.89594136 -37.5 47.296875 C-37.5066568 46.37652466 -37.5133136 45.45617432 -37.52017212 44.50793457 C-37.53023153 42.57513407 -37.53499124 40.64229931 -37.53466797 38.70947266 C-37.53905123 35.77317723 -37.57546984 32.83837517 -37.61328125 29.90234375 C-37.61914907 28.01302591 -37.6231187 26.12370102 -37.625 24.234375 C-37.63937103 23.36848755 -37.65374207 22.5026001 -37.66854858 21.61047363 C-37.61318831 14.13257797 -35.553487 8.23626087 -30.8515625 2.390625 C-22.13744772 -4.49960529 -9.89194892 -5.22177229 0 0 Z " fill="#FCFAF9" transform="translate(389.1640625,104.734375)"/>
<path d="M0 0 C5.61 0 11.22 0 17 0 C17 25.74 17 51.48 17 78 C11.39 78 5.78 78 0 78 C0 52.26 0 26.52 0 0 Z " fill="#FEFEFE" transform="translate(706,103)"/>
<path d="M0 0 C5.61 0 11.22 0 17 0 C17 25.74 17 51.48 17 78 C11.39 78 5.78 78 0 78 C0 52.26 0 26.52 0 0 Z " fill="#FEFDFC" transform="translate(407,103)"/>
<path d="M0 0 C2.97 0.33 5.94 0.66 9 1 C10.83825557 4.67651113 11.25255482 5.79483001 11.2746582 9.62915039 C11.28419022 10.54011978 11.29372223 11.45108917 11.30354309 12.3896637 C11.30263168 13.36580124 11.30172028 14.34193878 11.30078125 15.34765625 C11.30506638 16.35589951 11.3093515 17.36414276 11.31376648 18.40293884 C11.31950437 20.53204599 11.32001403 22.66117275 11.31567383 24.7902832 C11.31250836 28.05388597 11.33599924 31.31658705 11.36132812 34.58007812 C11.36360055 36.64843635 11.36430488 38.71679703 11.36328125 40.78515625 C11.372491 41.76331802 11.38170074 42.7414798 11.39118958 43.74928284 C11.38496078 44.65710007 11.37873199 45.5649173 11.37231445 46.50024414 C11.37294388 47.29870255 11.3735733 48.09716095 11.3742218 48.91981506 C11 51 11 51 9.97673035 52.78123474 C8 54 8 54 0 54 C0 36.18 0 18.36 0 0 Z " fill="#872708" transform="translate(561,115)"/>
<path d="M0 0 C2.97 0.33 5.94 0.66 9 1 C10.83825557 4.67651113 11.25255482 5.79483001 11.2746582 9.62915039 C11.28419022 10.54011978 11.29372223 11.45108917 11.30354309 12.3896637 C11.30263168 13.36580124 11.30172028 14.34193878 11.30078125 15.34765625 C11.30506638 16.35589951 11.3093515 17.36414276 11.31376648 18.40293884 C11.31950437 20.53204599 11.32001403 22.66117275 11.31567383 24.7902832 C11.31250836 28.05388597 11.33599924 31.31658705 11.36132812 34.58007812 C11.36360055 36.64843635 11.36430488 38.71679703 11.36328125 40.78515625 C11.372491 41.76331802 11.38170074 42.7414798 11.39118958 43.74928284 C11.38496078 44.65710007 11.37873199 45.5649173 11.37231445 46.50024414 C11.37294388 47.29870255 11.3735733 48.09716095 11.3742218 48.91981506 C11 51 11 51 9.97673035 52.78123474 C8 54 8 54 0 54 C0 36.18 0 18.36 0 0 Z " fill="#872708" transform="translate(453,115)"/>
<path d="M0 0 C0.33 0 0.66 0 1 0 C1.50790159 3.51973999 2.00488523 7.04094042 2.5 10.5625 C2.64308594 11.55314453 2.78617188 12.54378906 2.93359375 13.56445312 C3.65920623 18.76467588 4.17673411 23.74952418 4 29 C1.69 29 -0.62 29 -3 29 C-3.18343092 22.51877412 -2.4800332 16.40111777 -1.5 10 C-1.35691406 9.03449219 -1.21382812 8.06898438 -1.06640625 7.07421875 C-0.71607574 4.71532665 -0.3605065 2.35735455 0 0 Z " fill="#88280A" transform="translate(755,125)"/>
<path d="M0 0 C0.66 0.33 1.32 0.66 2 1 C2.48595041 3.68772573 2.84740316 6.28929816 3.125 9 C3.20991699 9.77077881 3.29483398 10.54155762 3.38232422 11.33569336 C3.93205573 16.583583 4.19194754 21.72144276 4 27 C1.69 27 -0.62 27 -3 27 C-2.27247184 17.96333446 -1.16165032 8.9886923 0 0 Z " fill="#8A2C0E" transform="translate(619,127)"/>
<path d="M0 0 C0.66 0.33 1.32 0.66 2 1 C2.48595041 3.68772573 2.84740316 6.28929816 3.125 9 C3.20991699 9.77077881 3.29483398 10.54155762 3.38232422 11.33569336 C3.93205573 16.583583 4.19194754 21.72144276 4 27 C1.69 27 -0.62 27 -3 27 C-2.27247184 17.96333446 -1.16165032 8.9886923 0 0 Z " fill="#8A2C0E" transform="translate(511,127)"/>
<path d="M0 0 C0.33 0 0.66 0 1 0 C1.33 2.97 1.66 5.94 2 9 C1.01 9.33 0.02 9.66 -1 10 C-0.67 6.7 -0.34 3.4 0 0 Z " fill="#A35941" transform="translate(755,125)"/>
</svg>
