<?xml version="1.0" encoding="UTF-8"?>
<svg version="1.1" xmlns="http://www.w3.org/2000/svg" width="1080" height="1080">
<path d="M0 0 C356.4 0 712.8 0 1080 0 C1080 356.4 1080 712.8 1080 1080 C723.6 1080 367.2 1080 0 1080 C0 723.6 0 367.2 0 0 Z " fill="#FE671B" transform="translate(0,0)"/>
<path d="M0 0 C1.69419067 0.00173721 1.69419067 0.00173721 3.42260742 0.00350952 C18.94318047 0.03501625 34.17708337 0.37988155 49.52490234 2.90234375 C52.0395675 3.30879338 54.55524566 3.64713204 57.08203125 3.96875 C68.24714971 5.45301301 78.80475867 8.32107554 89.56933594 11.58349609 C91.86200822 12.25387598 94.15699997 12.85666339 96.4765625 13.42578125 C110.29024866 16.85475518 123.09367439 22.52133737 136.0625 28.3125 C137.39643799 28.9010376 137.39643799 28.9010376 138.75732422 29.50146484 C178.29848103 47.04169548 216.73302985 75.81667013 243.0625 110.3125 C243.99047212 111.48860747 244.9188872 112.66436552 245.84765625 113.83984375 C257.52763357 128.81339169 267.01934562 145.13242205 275.0625 162.3125 C275.39733398 163.01552246 275.73216797 163.71854492 276.07714844 164.44287109 C298.71938401 212.20416895 304.50287405 268.57084536 287.375 318.9375 C279.60008055 340.60905954 266.5375774 359.48909902 251.0625 376.3125 C250.29164063 377.15554688 249.52078125 377.99859375 248.7265625 378.8671875 C222.5798854 406.18025912 187.01073862 420.81136268 150.0625 425.3125 C148.24928757 425.56469803 148.24928757 425.56469803 146.39944458 425.82199097 C142.34199766 426.32727379 138.35214553 426.44353535 134.26049805 426.4543457 C133.52597412 426.45782013 132.7914502 426.46129456 132.03466797 426.46487427 C130.45404996 426.47217297 128.87342209 426.47754934 127.29279137 426.48116493 C124.78127892 426.48840504 122.26995356 426.504126 119.75849915 426.52250671 C112.62263533 426.57462772 105.48688025 426.62291247 98.35083008 426.63842773 C93.97121394 426.64856915 89.59208049 426.67804048 85.21265602 426.71974754 C83.55550618 426.73196712 81.89828796 426.73719554 80.24109459 426.73494911 C65.03205152 426.71940211 52.06109174 429.87230561 40.4375 440.3125 C30.28270452 451.11855315 26.32721165 464.09008173 26.69140625 478.59765625 C27.38307598 490.69079993 32.62169365 500.01514668 40.0625 509.3125 C49.25399356 522.01653229 52.99805273 533.70854639 50.56640625 549.54296875 C47.1448149 564.48585074 39.24204808 575.47069205 26.4140625 583.91015625 C19.06272974 588.29409057 12.28176851 589.43768707 3.75 589.4453125 C3.05922363 589.44626923 2.36844727 589.44722595 1.65673828 589.44821167 C0.19775298 589.44888926 -1.26123541 589.44706449 -2.72021484 589.44287109 C-4.90339327 589.43758262 -7.08635971 589.4427962 -9.26953125 589.44921875 C-32.21346135 589.46419181 -32.21346135 589.46419181 -42.91992188 586.79003906 C-44.93120915 586.31398898 -46.90364902 586.00359011 -48.953125 585.7421875 C-59.13608239 584.43036167 -68.91328372 582.16085965 -78.8125 579.4375 C-80.01165039 579.10991699 -81.21080078 578.78233398 -82.44628906 578.44482422 C-90.47355887 576.18211129 -98.20447825 573.42863767 -105.9375 570.3125 C-106.9584375 569.90765381 -107.979375 569.50280762 -109.03125 569.08569336 C-146.51166533 554.11843339 -180.21819783 530.53825465 -208.5625 502 C-209.10787415 501.45313538 -209.65324829 500.90627075 -210.21514893 500.34283447 C-218.09841054 492.42087704 -225.43853422 484.42676634 -231.9375 475.3125 C-232.84436828 474.10689472 -233.75467608 472.90387088 -234.66796875 471.703125 C-240.89217597 463.46608775 -246.51866312 454.94243613 -251.85009766 446.10400391 C-252.79226171 444.55178123 -253.75918194 443.01463636 -254.73046875 441.48046875 C-265.82980543 423.47370639 -273.22828546 403.27595816 -279.9375 383.3125 C-280.28699707 382.27464355 -280.28699707 382.27464355 -280.64355469 381.21582031 C-281.84256669 377.60704846 -282.91907923 373.97591879 -283.9375 370.3125 C-284.26105469 369.22066406 -284.58460938 368.12882812 -284.91796875 367.00390625 C-291.31706523 343.83476382 -293.15491515 319.32857612 -293.125 295.375 C-293.12472809 294.55613312 -293.12445618 293.73726624 -293.12417603 292.89358521 C-293.10490157 280.25802075 -292.63292978 267.84647538 -290.9375 255.3125 C-290.7407751 253.69272173 -290.54416245 252.07292982 -290.34765625 250.453125 C-281.29009795 180.07965356 -241.03012704 109.87882409 -184.9375 66.3125 C-183.79946927 65.37686844 -182.6642294 64.43783577 -181.53125 63.49609375 C-173.07520407 56.50988038 -164.29685544 50.35072575 -154.97363281 44.57666016 C-153.08418847 43.40357349 -151.20930524 42.21023771 -149.3359375 41.01171875 C-120.29077703 22.70862527 -87.24410094 11.23389346 -53.75 4.4375 C-52.33811401 4.15096558 -52.33811401 4.15096558 -50.89770508 3.85864258 C-33.90238665 0.6092992 -17.26999944 -0.05472176 0 0 Z " fill="#FEFEFE" transform="translate(537.9375,381.6875)"/>
<path d="M0 0 C1.02544922 -0.020625 2.05089844 -0.04125 3.10742188 -0.0625 C13.12566851 -0.11312917 21.72596533 2.08823723 30.625 6.625 C32.32076172 7.47191406 32.32076172 7.47191406 34.05078125 8.3359375 C45.8645425 15.26856386 51.5667663 26.09094608 55.39453125 38.859375 C59.12046982 54.2488866 57.1928398 72.13191009 49.3125 85.8125 C48.33224657 87.30482612 47.3349044 88.78622977 46.3125 90.25 C45.69375 91.178125 45.075 92.10625 44.4375 93.0625 C41.46055636 96.1270008 38.00677368 98.14282933 34.3125 100.25 C34.993125 100.78625 35.67375 101.3225 36.375 101.875 C37.344375 102.65875 38.31375 103.4425 39.3125 104.25 C39.86679688 104.6625 40.42109375 105.075 40.9921875 105.5 C50.07887346 112.60780768 54.36531571 123.13029274 56.3125 134.25 C57.69416773 156.76260806 56.33392951 178.56799105 42.14453125 197.078125 C32.20026223 207.70881258 18.01840556 211.9028059 3.78125 212.48828125 C-10.34202764 212.80131348 -23.71282449 211.55895851 -35.6875 203.25 C-36.29851562 202.83234375 -36.90953125 202.4146875 -37.5390625 201.984375 C-49.24253515 193.01343121 -53.87270515 177.83196395 -56 163.8125 C-56.71138546 155.98725993 -56.6875 148.10750924 -56.6875 140.25 C-42.4975 140.25 -28.3075 140.25 -13.6875 140.25 C-13.375 150.6875 -13.375 150.6875 -13.29956055 153.91967773 C-13.02542668 161.12919822 -12.266135 168.04624137 -7.625 173.8125 C-3.37590492 175.8918444 0.66032539 175.90054799 5.3125 175.25 C8.79076031 173.95490308 9.19983807 173.46697853 11 170 C13.44164443 163.02387306 13.52482614 156.31814654 13.5625 149 C13.583125 148.01386719 13.60375 147.02773437 13.625 146.01171875 C13.66070204 139.23725615 12.57036791 133.61896251 10.3125 127.25 C10.02375 126.26 9.735 125.27 9.4375 124.25 C7.85188739 121.43113314 6.38740223 121.13830509 3.3125 120.25 C2.28125 119.899375 1.25 119.54875 0.1875 119.1875 C-4.67250479 118.01169239 -9.70781785 117.70269838 -14.6875 117.25 C-14.6875 107.68 -14.6875 98.11 -14.6875 88.25 C-10.0675 87.92 -5.4475 87.59 -0.6875 87.25 C5.52336167 85.36792071 8.1044022 82.7364702 11.5 77.375 C15.33632856 67.3415253 14.7266923 51.32186729 11.3125 41.25 C9.46556876 38.47960315 8.2812421 36.73437105 5.3125 35.25 C-0.00144261 34.65100486 -4.26134143 34.26042058 -8.75 37.375 C-13.23743615 44.03377623 -13.0918625 50.84831229 -13.3125 58.625 C-13.498125 64.379375 -13.498125 64.379375 -13.6875 70.25 C-27.8775 70.25 -42.0675 70.25 -56.6875 70.25 C-57.05263279 50.53282916 -57.03543376 30.06169001 -42.390625 14.76171875 C-29.88274425 3.6595402 -16.35808438 0.08073083 0 0 Z " fill="#FFFDFC" transform="translate(125.6875,100.75)"/>
<path d="M0 0 C10.61608727 8.96433956 17.22507318 20.3545185 18.6796875 34.2890625 C19.13384965 50.12796746 13.5744381 63.30563857 2.765625 74.76953125 C-7.75691751 84.41237567 -21.20777306 88.58322303 -35.265625 88.3046875 C-47.66883831 87.1784187 -59.43883438 81.31384938 -67.96875 72.20703125 C-78.77605829 58.11270753 -81.09675575 44.32093684 -79.6640625 26.99609375 C-78.86238258 23.21999911 -77.62591371 20.30026421 -75.6640625 16.99609375 C-75.21675781 16.15046875 -74.76945312 15.30484375 -74.30859375 14.43359375 C-67.18174203 1.59379655 -56.63101978 -5.68158716 -42.9140625 -10.25390625 C-27.48491957 -13.6519913 -12.40792503 -9.33323393 0 0 Z " fill="#FE681C" transform="translate(390.6640625,589.00390625)"/>
<path d="M0 0 C8.90698911 7.36713675 16.42942399 18.55155543 17.71533203 30.24853516 C18.79975673 45.62424969 15.44408913 59.5704837 5.8046875 71.84375 C-3.16336581 81.67674246 -15.92554594 87.39374571 -29.11328125 88.421875 C-43.63702061 88.68554349 -55.78172101 83.48291281 -66.25390625 73.53515625 C-77.28861288 62.19446122 -80.93228234 50.21942829 -80.7265625 34.71875 C-80.55384949 29.50281697 -79.57357711 25.01491654 -77.5078125 20.21875 C-77.25257813 19.55101562 -76.99734375 18.88328125 -76.734375 18.1953125 C-71.17193978 5.28433902 -59.01070551 -3.42055364 -46.5078125 -8.78125 C-30.63199597 -14.25477498 -13.3270603 -9.46594937 0 0 Z " fill="#FE681C" transform="translate(751.5078125,588.78125)"/>
<path d="M0 0 C9.18842484 8.44067716 16.46254384 20.18407367 17.28515625 32.85546875 C17.50326695 48.83207743 13.55728852 61.76014836 2.47265625 73.46875 C-9.32913716 84.61488822 -22.10889393 87.33512471 -37.8203125 87.0625 C-49.96393583 86.52059389 -60.68794778 80.2633648 -68.98046875 71.5625 C-79.93174652 58.20382927 -82.23392519 44.52435936 -80.91796875 27.7265625 C-80.14211702 23.64288781 -78.90732264 20.36288889 -76.91796875 16.7265625 C-76.18900391 15.34984375 -76.18900391 15.34984375 -75.4453125 13.9453125 C-68.31725373 1.67763689 -57.55155568 -6.50568465 -43.98046875 -10.6484375 C-28.55592341 -13.74612052 -12.32922666 -9.6059035 0 0 Z " fill="#FE671C" transform="translate(653.91796875,458.2734375)"/>
<path d="M0 0 C1.31232355 0.95130281 2.60407127 1.93156248 3.875 2.9375 C5.10669922 3.85982422 5.10669922 3.85982422 6.36328125 4.80078125 C14.67052584 11.86775293 20.18496678 22.20265935 21.875 32.9375 C22.98156997 49.33650408 19.61418331 62.27273392 9.03125 75.1875 C4.08311545 80.54121935 -1.5219144 83.93098868 -8.125 86.9375 C-8.85847656 87.27910156 -9.59195313 87.62070312 -10.34765625 87.97265625 C-20.8719395 91.96334567 -34.86880543 91.61287376 -45.375 87.8125 C-50.51716639 85.46798736 -54.93244655 82.71971843 -59.125 78.9375 C-59.81335938 78.3290625 -60.50171875 77.720625 -61.2109375 77.09375 C-66.06203789 72.54922472 -69.34281752 67.95731121 -72.125 61.9375 C-72.71474609 60.7928125 -72.71474609 60.7928125 -73.31640625 59.625 C-77.87867785 49.4512933 -78.07518349 35.44346331 -74.5625 24.875 C-73.44140625 22.37890625 -73.44140625 22.37890625 -72.125 19.9375 C-71.63902344 19.01839844 -71.15304687 18.09929687 -70.65234375 17.15234375 C-64.6018642 6.75352901 -56.28018701 -0.58285797 -45.125 -5.0625 C-43.97451172 -5.54009766 -43.97451172 -5.54009766 -42.80078125 -6.02734375 C-28.42968067 -11.18193685 -12.60150295 -8.19932228 0 0 Z " fill="#FE671C" transform="translate(485.125,455.0625)"/>
<path d="M0 0 C5.86114205 3.12086784 9.05119608 6.67289984 11.31546021 12.97955322 C12.44597922 17.21954031 12.38481826 21.4402941 12.37109375 25.8046875 C12.3763356 26.79066925 12.38157745 27.776651 12.38697815 28.79251099 C12.39337178 30.86833764 12.39209602 32.94420065 12.38354492 35.02001953 C12.37504299 38.17156467 12.40382171 41.32129002 12.43554688 44.47265625 C12.43715952 46.49999946 12.43658015 48.52734585 12.43359375 50.5546875 C12.45044472 51.94891434 12.45044472 51.94891434 12.46763611 53.37130737 C12.39457271 60.33715502 11.18529221 67.50040087 6.52561951 72.96969604 C-0.68260897 79.31415983 -9.06004149 78.9977825 -18.11328125 78.51220703 C-23.31237288 77.97953457 -26.56894193 75.68495877 -30.375 72.1875 C-34.58403669 65.01654861 -35.51864185 57.4249436 -35.4609375 49.24609375 C-35.46380768 48.32715836 -35.46667786 47.40822296 -35.46963501 46.46144104 C-35.47166089 44.53459042 -35.46623537 42.60771854 -35.45361328 40.6809082 C-35.43751977 37.75359625 -35.45352216 34.82766079 -35.47265625 31.90039062 C-35.47067392 30.01562199 -35.46683045 28.13085421 -35.4609375 26.24609375 C-35.46701019 25.38334335 -35.47308289 24.52059296 -35.4793396 23.63169861 C-35.40287147 16.93674686 -34.47260326 10.33269216 -30.1953125 4.97265625 C-29.53273438 4.44542969 -28.87015625 3.91820313 -28.1875 3.375 C-27.53007813 2.82972656 -26.87265625 2.28445312 -26.1953125 1.72265625 C-18.65595081 -3.26215981 -8.27450159 -3.43496116 0 0 Z " fill="#FFFBF9" transform="translate(576.0625,103.6875)"/>
<path d="M0 0 C6.01358578 3.19088225 9.02861337 7.76710359 11.31768799 14.09991455 C12.41129262 18.11410586 12.36488451 22.07381878 12.3359375 26.2109375 C12.33880768 27.13033112 12.34167786 28.04972473 12.34463501 28.99697876 C12.34666589 30.9315859 12.34120476 32.86621402 12.32861328 34.80078125 C12.31258277 37.73485102 12.32847639 40.66753572 12.34765625 43.6015625 C12.34567293 45.4921905 12.34182741 47.38281764 12.3359375 49.2734375 C12.34504654 50.56923233 12.34504654 50.56923233 12.3543396 51.89120483 C12.27172921 59.17965806 10.9906849 66.04742447 7.125 72.3125 C0.38398813 78.66831119 -7.546508 78.82206718 -16.34765625 78.65625 C-22.4808245 78.19190919 -26.0836411 76.3538589 -30.375 72.0625 C-34.6055102 65.3250208 -35.50615313 60.2202354 -35.42578125 52.3828125 C-35.42627975 51.43743622 -35.42677826 50.49205994 -35.42729187 49.51803589 C-35.42496057 47.52616262 -35.41528808 45.53428588 -35.39868164 43.54248047 C-35.3751271 40.51632923 -35.37812378 37.49106325 -35.38476562 34.46484375 C-35.37918645 32.52082815 -35.37207508 30.57681622 -35.36328125 28.6328125 C-35.36419266 27.73877716 -35.36510406 26.84474182 -35.36604309 25.9236145 C-35.27468318 17.70353884 -34.60779396 9.81953082 -29.0625 3.375 C-20.70196062 -2.58045271 -9.59854513 -3.90092643 0 0 Z " fill="#FFFBF9" transform="translate(719.0625,103.625)"/>
<path d="M0 0 C36.82978723 0 36.82978723 0 44.0625 6.9375 C48.62784034 14.15368312 49.37773788 21.86476102 47.5 30.2265625 C46.26514553 33.41192575 44.83630912 35.1413694 42.25 37.375 C39.55248267 39.92223216 39.55248267 39.92223216 40.140625 43.93359375 C40.94806277 49.70665747 42.7141554 55.15425056 44.5 60.6875 C45.13894111 62.69028528 45.77446616 64.69416419 46.40625 66.69921875 C46.68791016 67.57408936 46.96957031 68.44895996 47.25976562 69.3503418 C48.05109004 72.18287607 48.51650359 75.09902155 49 78 C43.06 78 37.12 78 31 78 C26.04464286 60.32142857 26.04464286 60.32142857 24.1875 53.1875 C23.95417969 52.29417969 23.72085938 51.40085938 23.48046875 50.48046875 C22.98570302 47.92619041 22.91147821 45.59508613 23 43 C21.35 43 19.7 43 18 43 C18 54.55 18 66.1 18 78 C12.06 78 6.12 78 0 78 C0 52.26 0 26.52 0 0 Z " fill="#FFFAF8" transform="translate(598,103)"/>
<path d="M0 0 C36.82978723 0 36.82978723 0 44.0625 6.9375 C48.62784034 14.15368312 49.37773788 21.86476102 47.5 30.2265625 C46.26514553 33.41192575 44.83630912 35.1413694 42.25 37.375 C39.55248267 39.92223216 39.55248267 39.92223216 40.140625 43.93359375 C40.94806277 49.70665747 42.7141554 55.15425056 44.5 60.6875 C45.13894111 62.69028528 45.77446616 64.69416419 46.40625 66.69921875 C46.68791016 67.57408936 46.96957031 68.44895996 47.25976562 69.3503418 C48.05109004 72.18287607 48.51650359 75.09902155 49 78 C43.06 78 37.12 78 31 78 C26.04464286 60.32142857 26.04464286 60.32142857 24.1875 53.1875 C23.95417969 52.29417969 23.72085937 51.40085938 23.48046875 50.48046875 C22.98570302 47.92619041 22.91147821 45.59508613 23 43 C21.35 43 19.7 43 18 43 C18 54.55 18 66.1 18 78 C12.06 78 6.12 78 0 78 C0 52.26 0 26.52 0 0 Z " fill="#FFFAF8" transform="translate(443,103)"/>
<path d="M0 0 C30 0 30 0 41 4 C46.82095752 9.82095752 47.22496772 13.44212099 47.3125 21.25 C47.34150391 22.09691406 47.37050781 22.94382812 47.40039062 23.81640625 C47.46734673 30.43990995 45.74212852 33.83600556 41.375 38.875 C40 40 40 40 38 40 C38.24524414 40.70672852 38.49048828 41.41345703 38.74316406 42.14160156 C41.40049665 49.93593621 43.65164351 57.78885348 45.75 65.75 C46.06582031 66.9359375 46.38164062 68.121875 46.70703125 69.34375 C47.47468877 72.22828129 48.23782592 75.11401498 49 78 C43.06 78 37.12 78 31 78 C28.81389959 71.65966772 26.94228542 65.3168702 25.3125 58.8125 C25.08755859 57.94947266 24.86261719 57.08644531 24.63085938 56.19726562 C23.49805834 51.69704995 22.71649233 47.68170773 23 43 C21.02 43 19.04 43 17 43 C17 54.55 17 66.1 17 78 C11.39 78 5.78 78 0 78 C0 52.26 0 26.52 0 0 Z " fill="#FFFBF9" transform="translate(245,103)"/>
<path d="M0 0 C35.2 0 35.2 0 43 6.5 C46.77357266 11.21696582 47.34014986 14.82353978 47.3125 20.8125 C47.32861328 21.49892578 47.34472656 22.18535156 47.36132812 22.89257812 C47.36613078 27.9689858 46.36486769 31.4944227 44 36 C41.3125 38.4375 41.3125 38.4375 39 40 C39.6278439 44.11008056 40.48696244 48.05577707 41.59375 52.0625 C41.90183594 53.18914062 42.20992187 54.31578125 42.52734375 55.4765625 C42.84832031 56.63929688 43.16929687 57.80203125 43.5 59 C44.13816417 61.3117433 44.77367168 63.62422197 45.40625 65.9375 C45.82874023 67.46697266 45.82874023 67.46697266 46.25976562 69.02734375 C46.99593669 71.98368243 47.49913895 74.99483371 48 78 C42.06 78 36.12 78 30 78 C28.85739128 73.49842772 27.71695381 68.99642003 26.58203125 64.49291992 C26.19528503 62.96102204 25.80727236 61.42944332 25.41796875 59.89819336 C24.85864406 57.69727922 24.30388248 55.49525789 23.75 53.29296875 C23.57500977 52.60849167 23.40001953 51.92401459 23.21972656 51.21879578 C22.51258894 48.39124571 22 45.92845999 22 43 C20.35 43 18.7 43 17 43 C17 54.55 17 66.1 17 78 C11.39 78 5.78 78 0 78 C0 52.26 0 26.52 0 0 Z " fill="#FFFCFB" transform="translate(492,233)"/>
<path d="M0 0 C5.61 0 11.22 0 17 0 C17.01981934 1.8572168 17.03963867 3.71443359 17.06005859 5.62792969 C17.12785202 11.76678301 17.20462907 17.90547263 17.28752708 24.04413986 C17.33745556 27.76571684 17.38378574 31.48726591 17.421875 35.20898438 C17.45877163 38.80120413 17.50514317 42.39318843 17.55806351 45.9852066 C17.57658426 47.35507321 17.59170081 48.72499024 17.60334396 50.09493256 C17.62024532 52.01488656 17.65041426 53.93470986 17.68115234 55.85449219 C17.69447601 56.94703308 17.70779968 58.03957397 17.7215271 59.16522217 C17.99536721 61.95283949 18.56055693 63.62670059 20 66 C22.41645782 66.16687448 22.41645782 66.16687448 25 66 C27.73306029 63.26693971 27.27381961 61.7253334 27.31884766 57.89794922 C27.33871735 56.61677216 27.35858704 55.33559509 27.37905884 54.01559448 C27.39093617 52.61196058 27.40259898 51.20832484 27.4140625 49.8046875 C27.43276692 48.37263869 27.45233978 46.94060098 27.4727478 45.50857544 C27.52415206 41.73735083 27.56373311 37.96609045 27.60089111 34.19470215 C27.640879 30.34715874 27.69199504 26.49976517 27.7421875 22.65234375 C27.83904497 15.10165731 27.92238971 7.5509133 28 0 C33.94 0 39.88 0 46 0 C46.09076364 7.91109876 46.16398016 15.8217853 46.20724869 23.73326683 C46.22802687 27.40782562 46.2561623 31.08200637 46.30175781 34.75634766 C46.34556907 38.30958335 46.36921035 41.86245796 46.37950897 45.41594315 C46.39037784 47.41546807 46.42154635 49.41484993 46.45318604 51.41415405 C46.45512697 59.38368058 46.02060953 67.32423216 40.58770752 73.64242554 C33.41774694 80.02434751 24.9860893 79.68440453 15.94921875 79.19970703 C10.66318437 78.65812686 7.34930665 76.34930665 3.625 72.625 C0.56548134 67.68270062 -0.24981711 63.20372932 -0.22705078 57.44384766 C-0.22689972 56.16297272 -0.22674866 54.88209778 -0.22659302 53.56240845 C-0.21638209 52.17962485 -0.20595014 50.79684288 -0.1953125 49.4140625 C-0.19157835 47.98774413 -0.18873328 46.56142318 -0.18673706 45.13510132 C-0.17913219 41.39667573 -0.15951109 37.65840767 -0.1373291 33.92004395 C-0.11680257 30.09906138 -0.10772084 26.27805316 -0.09765625 22.45703125 C-0.07626189 14.97127433 -0.04110578 7.48567938 0 0 Z " fill="#FFFAF7" transform="translate(299,233)"/>
<path d="M0 0 C5.61 0 11.22 0 17 0 C17.01458252 1.82168701 17.02916504 3.64337402 17.04418945 5.52026367 C17.09589077 11.5474088 17.16119001 17.57427881 17.23571491 23.60117626 C17.28039218 27.25435862 17.31965377 30.90743015 17.34643555 34.56079102 C17.37249545 38.08826179 17.41291592 41.61530546 17.46318626 45.14251137 C17.48792576 47.13927679 17.49789298 49.13620755 17.50764465 51.13310242 C17.53733589 52.96443474 17.53733589 52.96443474 17.56762695 54.83276367 C17.57873001 55.90531906 17.58983307 56.97787445 17.60127258 58.08293152 C18.05033874 61.36827552 19.11956735 63.30052442 21 66 C23.97065509 65.65772428 23.97065509 65.65772428 27 65 C28.36682074 62.26635853 28.16265463 60.04962521 28.20532227 56.98974609 C28.22526749 55.72858978 28.24521271 54.46743347 28.26576233 53.1680603 C28.28274665 51.78652063 28.29962546 50.40497966 28.31640625 49.0234375 C28.3369756 47.61381418 28.35797207 46.20419703 28.37937927 44.79458618 C28.43460195 41.08252965 28.48401031 37.37041743 28.53222656 33.65826416 C28.58244018 29.87108397 28.63812697 26.08398474 28.69335938 22.296875 C28.80094336 14.86464995 28.90188203 7.43235715 29 0 C34.61 0 40.22 0 46 0 C46.06792394 8.22367354 46.12290106 16.44712697 46.15543652 24.6710062 C46.17105618 28.49016857 46.19222614 32.30912815 46.22631836 36.12817383 C46.2590448 39.81753963 46.27688081 43.50671104 46.28463173 47.19621086 C46.29015153 48.59995519 46.30093021 50.00368953 46.31719017 51.40735054 C46.487622 66.73735089 46.487622 66.73735089 40.75 73.75 C35.06153908 78.4041953 29.7184437 79.56164086 22.5625 79.5 C21.81331299 79.49572998 21.06412598 79.49145996 20.29223633 79.48706055 C12.77003671 79.2547875 8.86316791 76.86316791 3.625 71.625 C-0.96971059 64.2027752 -0.26272439 56.20287124 -0.1953125 47.75390625 C-0.19157695 46.37385769 -0.18873254 44.99380645 -0.18673706 43.61375427 C-0.17914324 40.00192798 -0.15953194 36.39026551 -0.1373291 32.77850342 C-0.11677846 29.08478002 -0.10771573 25.39102986 -0.09765625 21.69726562 C-0.07628145 14.46476083 -0.04113467 7.23242435 0 0 Z " fill="#FFFCFB" transform="translate(435,233)"/>
<path d="M0 0 C31 0 31 0 40 4 C46.76020794 12.02774693 46.73347907 19.89486234 46.23535156 29.91601562 C45.63078069 35.26935277 42.76006565 38.29671066 39.0625 41.875 C31.27692506 46.12167724 26.54838763 45 17 45 C17 55.89 17 66.78 17 78 C11.39 78 5.78 78 0 78 C0 52.26 0 26.52 0 0 Z " fill="#FFFDFC" transform="translate(346,103)"/>
<path d="M0 0 C6.93 0 13.86 0 21 0 C25.92781735 25.95961296 30.83896113 51.90464066 35 78 C29.72 78 24.44 78 19 78 C17.19019666 71.66568832 16.80670678 68.28202978 17 62 C13.04 62 9.08 62 5 62 C4.86722656 62.98742187 4.73445312 63.97484375 4.59765625 64.9921875 C4.42105469 66.27351563 4.24445312 67.55484375 4.0625 68.875 C3.80146484 70.78925781 3.80146484 70.78925781 3.53515625 72.7421875 C3 76 3 76 2 78 C-3.28 78 -8.56 78 -14 78 C-13.16845062 70.37101787 -11.7626152 62.85667979 -10.375 55.3125 C-10.11306091 53.8796492 -9.85118061 52.44678764 -9.58935547 51.01391602 C-6.47172619 33.99454852 -3.23662293 16.99705828 0 0 Z " fill="#FFFBF9" transform="translate(560,233)"/>
<path d="M0 0 C5.64357771 2.96864775 9.00087982 7.28110182 10.9375 13.375 C11.19507648 18.05774033 11.02524542 22.68061981 10.9375 27.375 C5.3275 27.375 -0.2825 27.375 -6.0625 27.375 C-6.2578125 23.79427083 -6.453125 20.21354167 -6.6484375 16.6328125 C-6.73491106 13.29438301 -6.73491106 13.29438301 -9.0625 11.375 C-11.5625 11.04166667 -11.5625 11.04166667 -14.0625 11.375 C-16.55222763 13.86472763 -16.31491448 14.61923154 -16.32128906 18.05249023 C-16.32759338 19.02367294 -16.33389771 19.99485565 -16.34039307 20.99546814 C-16.3363446 22.04754959 -16.33229614 23.09963104 -16.328125 24.18359375 C-16.33003845 25.26125504 -16.3319519 26.33891632 -16.33392334 27.44923401 C-16.33528619 29.73153924 -16.33158284 32.01385219 -16.32324219 34.29614258 C-16.31255465 37.79461057 -16.32312897 41.2925638 -16.3359375 44.79101562 C-16.33461572 47.00520947 -16.33205294 49.21940299 -16.328125 51.43359375 C-16.33217346 52.48365097 -16.33622192 53.53370819 -16.34039307 54.61558533 C-16.33408875 55.5899202 -16.32778442 56.56425507 -16.32128906 57.56811523 C-16.31969788 58.42590073 -16.31810669 59.28368622 -16.31646729 60.16746521 C-16.199252 62.66383826 -16.199252 62.66383826 -14.0625 65.375 C-11.5625 65.875 -11.5625 65.875 -9.0625 65.375 C-6.63770264 61.73780395 -6.67587423 59.51796518 -6.4375 55.1875 C-6.31375 52.939375 -6.19 50.69125 -6.0625 48.375 C-0.4525 48.375 5.1575 48.375 10.9375 48.375 C11.51841454 66.77062714 11.51841454 66.77062714 5.1875 73.8125 C0.57513371 78.46462807 -6.30791077 78.68556619 -12.5 78.75 C-23.59974792 78.53107006 -23.59974792 78.53107006 -28.0625 74.375 C-34.17538924 66.39054335 -35.21909432 59.60088612 -35.30078125 49.83203125 C-35.31288887 48.44657356 -35.31288887 48.44657356 -35.32524109 47.03312683 C-35.33904415 45.0806158 -35.34978312 43.12808102 -35.35766602 41.17553711 C-35.3691705 39.19239152 -35.38959794 37.20927653 -35.41918945 35.22631836 C-35.46214887 32.34467762 -35.47807458 29.46395365 -35.48828125 26.58203125 C-35.50578934 25.70875687 -35.52329742 24.83548248 -35.54133606 23.93574524 C-35.51694179 16.8982281 -34.14085154 9.80866878 -29.31221008 4.42268372 C-21.36630144 -2.8661261 -9.9655129 -4.01970268 0 0 Z " fill="#FFFBF9" transform="translate(279.0625,233.625)"/>
<path d="M0 0 C11.88 0 23.76 0 36 0 C36 3.96 36 7.92 36 12 C30.06 12 24.12 12 18 12 C18 18.27 18 24.54 18 31 C22.29 31 26.58 31 31 31 C31 34.96 31 38.92 31 43 C26.71 43 22.42 43 18 43 C18 50.59 18 58.18 18 66 C23.94 66 29.88 66 36 66 C36 69.96 36 73.92 36 78 C24.12 78 12.24 78 0 78 C0 52.26 0 26.52 0 0 Z " fill="#FFF9F6" transform="translate(400,103)"/>
<path d="M0 0 C11.55 0 23.1 0 35 0 C35 3.96 35 7.92 35 12 C29.06 12 23.12 12 17 12 C17 18.27 17 24.54 17 31 C21.62 31 26.24 31 31 31 C31 34.96 31 38.92 31 43 C26.38 43 21.76 43 17 43 C17 50.59 17 58.18 17 66 C22.94 66 28.88 66 35 66 C35 69.96 35 73.92 35 78 C23.45 78 11.9 78 0 78 C0 52.26 0 26.52 0 0 Z " fill="#FFFDFC" transform="translate(303,103)"/>
<path d="M0 0 C13.53 0 27.06 0 41 0 C41 4.29 41 8.58 41 13 C37.37 13 33.74 13 30 13 C30 34.45 30 55.9 30 78 C24.06 78 18.12 78 12 78 C12 56.55 12 35.1 12 13 C8.04 13 4.08 13 0 13 C0 8.71 0 4.42 0 0 Z " fill="#FFFAF7" transform="translate(495,103)"/>
<path d="M0 0 C13.53 0 27.06 0 41 0 C41 4.29 41 8.58 41 13 C37.04 13 33.08 13 29 13 C29 34.45 29 55.9 29 78 C23.39 78 17.78 78 12 78 C12 56.55 12 35.1 12 13 C8.04 13 4.08 13 0 13 C0 8.71 0 4.42 0 0 Z " fill="#FFFDFD" transform="translate(388,233)"/>
<path d="M0 0 C5.94 0 11.88 0 18 0 C18 21.78 18 43.56 18 66 C23.94 66 29.88 66 36 66 C36 69.96 36 73.92 36 78 C24.12 78 12.24 78 0 78 C0 52.26 0 26.52 0 0 Z " fill="#FFF8F5" transform="translate(602,233)"/>
<path d="M0 0 C5.61 0 11.22 0 17 0 C17 21.78 17 43.56 17 66 C22.94 66 28.88 66 35 66 C35 69.96 35 73.92 35 78 C23.45 78 11.9 78 0 78 C0 52.26 0 26.52 0 0 Z " fill="#FFFDFC" transform="translate(356,233)"/>
<path d="M0 0 C5.94 0 11.88 0 18 0 C18 25.74 18 51.48 18 78 C12.06 78 6.12 78 0 78 C0 52.26 0 26.52 0 0 Z " fill="#FFF8F5" transform="translate(656,103)"/>
<path d="M0 0 C2.5 0.5 2.5 0.5 4.13134766 2.35107422 C6.1532184 7.00289171 5.92848259 11.36239284 5.8984375 16.3828125 C5.90274277 17.9596431 5.90274277 17.9596431 5.90713501 19.56832886 C5.90917295 21.78562968 5.90366202 24.00294859 5.89111328 26.22021484 C5.87502427 29.61987265 5.89098822 33.01834733 5.91015625 36.41796875 C5.9081744 38.5729193 5.90433194 40.7278691 5.8984375 42.8828125 C5.90754654 44.41097092 5.90754654 44.41097092 5.9168396 45.97000122 C5.90738312 46.91463226 5.89792664 47.85926331 5.88818359 48.83251953 C5.88579681 49.66349152 5.88341003 50.4944635 5.88095093 51.35061646 C5.40840368 54.0168005 4.65990975 54.90421539 2.5 56.5 C-0.5625 56.875 -0.5625 56.875 -3.5 56.5 C-5.65869783 53.26195326 -5.75491344 52.35639208 -5.7746582 48.6171875 C-5.78419022 47.62605957 -5.79372223 46.63493164 -5.80354309 45.61376953 C-5.80263168 44.54497559 -5.80172028 43.47618164 -5.80078125 42.375 C-5.80506638 41.27655762 -5.8093515 40.17811523 -5.81376648 39.04638672 C-5.81951185 36.72298879 -5.82000853 34.39957287 -5.81567383 32.07617188 C-5.81251244 28.51401234 -5.83597628 24.95268188 -5.86132812 21.390625 C-5.86360087 19.13541772 -5.86430473 16.8802082 -5.86328125 14.625 C-5.872491 13.55620605 -5.88170074 12.48741211 -5.89118958 11.38623047 C-5.88496078 10.39510254 -5.87873199 9.40397461 -5.87231445 8.3828125 C-5.87294388 7.51027832 -5.8735733 6.63774414 -5.8742218 5.73876953 C-5.25718435 2.04736339 -3.5903646 0.71807292 0 0 Z " fill="#FF681D" transform="translate(707.5,113.5)"/>
<path d="M0 0 C2.93429955 0.58685991 3.69458615 1.15888647 5.5 3.5 C5.88095093 5.73876953 5.88095093 5.73876953 5.88818359 8.3828125 C5.89764008 9.37394043 5.90709656 10.36506836 5.9168396 11.38623047 C5.91076691 12.45502441 5.90469421 13.52381836 5.8984375 14.625 C5.90274277 16.27266357 5.90274277 16.27266357 5.90713501 17.95361328 C5.90917736 20.27702347 5.90363563 22.60045078 5.89111328 24.92382812 C5.87506278 28.48606712 5.89095698 32.04717142 5.91015625 35.609375 C5.90817385 37.86458585 5.90433024 40.11979598 5.8984375 42.375 C5.90754654 43.97819092 5.90754654 43.97819092 5.9168396 45.61376953 C5.90738312 46.60489746 5.89792664 47.59602539 5.88818359 48.6171875 C5.88579681 49.48972168 5.88341003 50.36225586 5.88095093 51.26123047 C5.41864297 53.97811836 4.68696144 54.86745702 2.5 56.5 C0 56.875 0 56.875 -2.5 56.5 C-4.62996735 54.89243764 -5.41063508 54.00421055 -5.88095093 51.35061646 C-5.88333771 50.51964447 -5.88572449 49.68867249 -5.88818359 48.83251953 C-5.89764008 47.88788849 -5.90709656 46.94325745 -5.9168396 45.97000122 C-5.91076691 44.95122894 -5.90469421 43.93245667 -5.8984375 42.8828125 C-5.90130768 41.83350555 -5.90417786 40.78419861 -5.90713501 39.70309448 C-5.90917748 37.48223329 -5.90363493 35.26135418 -5.89111328 33.04052734 C-5.87509481 29.64509652 -5.89093983 26.25086191 -5.91015625 22.85546875 C-5.90817322 20.69791404 -5.90432832 18.54036008 -5.8984375 16.3828125 C-5.90451019 15.36808868 -5.91058289 14.35336487 -5.9168396 13.30789185 C-5.7960282 1.15920564 -5.7960282 1.15920564 0 0 Z " fill="#FF681D" transform="translate(564.5,113.5)"/>
<path d="M0 0 C10 0 10 0 12.625 1.3125 C14.88129213 5.72252553 14.61002881 10.1556536 14 15 C12.62747293 18.11937969 12.020457 19.4897715 9 21 C6.03 21 3.06 21 0 21 C0 14.07 0 7.14 0 0 Z " fill="#FF6B21" transform="translate(509,245)"/>
<path d="M0 0 C9 0 9 0 12.0625 1.875 C14.78877145 6.27221202 14.77908827 9.95250259 14 15 C11.97368421 19.51315789 11.97368421 19.51315789 9 21 C6.03 21 3.06 21 0 21 C0 14.07 0 7.14 0 0 Z " fill="#FF6B21" transform="translate(616,115)"/>
<path d="M0 0 C9 0 9 0 12.0625 1.875 C14.78877145 6.27221202 14.77908827 9.95250259 14 15 C11.97368421 19.51315789 11.97368421 19.51315789 9 21 C6.03 21 3.06 21 0 21 C0 14.07 0 7.14 0 0 Z " fill="#FF6B21" transform="translate(461,115)"/>
<path d="M0 0 C8 0 8 0 10.97265625 1.58984375 C13.62078005 4.73799864 13.58096107 6.4946844 13.4375 10.5625 C13.41558594 11.69816406 13.39367187 12.83382812 13.37109375 14.00390625 C13 17 13 17 11 20 C8 21 8 21 0 21 C0 14.07 0 7.14 0 0 Z " fill="#FF6B21" transform="translate(363,115)"/>
<path d="M0 0 C9 0 9 0 11.52734375 1.62890625 C14.30761525 6.1053646 13.78078137 10.93528544 13 16 C11 19.25 11 19.25 8 21 C5.36 21 2.72 21 0 21 C0 14.07 0 7.14 0 0 Z " fill="#FF681C" transform="translate(263,115)"/>
<path d="M0 0 C5.28 0 10.56 0 16 0 C14.72304513 2.70714433 13.38887318 5.35001349 12 8 C11.51402344 8.98355469 11.02804687 9.96710938 10.52734375 10.98046875 C8.87618401 13.99783632 7.38543653 16.51610267 5 19 C1.49024591 19.91714742 -1.46431272 19.70429183 -5 19 C-4.39022935 12.29252289 -2.21185 6.35015001 0 0 Z " fill="#FFFAF8" transform="translate(565,78)"/>
<path d="M0 0 C0.33 0 0.66 0 1 0 C1.50790159 3.51973999 2.00488523 7.04094042 2.5 10.5625 C2.64308594 11.55314453 2.78617188 12.54378906 2.93359375 13.56445312 C3.65920623 18.76467588 4.17673411 23.74952418 4 29 C1.69 29 -0.62 29 -3 29 C-3.18343092 22.51877412 -2.4800332 16.40111777 -1.5 10 C-1.35691406 9.03449219 -1.21382812 8.06898438 -1.06640625 7.07421875 C-0.71607574 4.71532665 -0.3605065 2.35735455 0 0 Z " fill="#FF6C23" transform="translate(570,255)"/>
<path d="M0 0 C0.33 0 0.66 0 1 0 C1.33 2.97 1.66 5.94 2 9 C1.01 9.33 0.02 9.66 -1 10 C-0.67 6.7 -0.34 3.4 0 0 Z " fill="#FF8E55" transform="translate(570,255)"/>
</svg>
