<?xml version="1.0" encoding="UTF-8"?>
<svg version="1.1" xmlns="http://www.w3.org/2000/svg" width="1080" height="1080">
<path d="M0 0 C356.4 0 712.8 0 1080 0 C1080 356.4 1080 712.8 1080 1080 C723.6 1080 367.2 1080 0 1080 C0 723.6 0 367.2 0 0 Z " fill="#233DFE" transform="translate(0,0)"/>
<path d="M0 0 C1.26535583 0.00406357 1.26535583 0.00406357 2.55627441 0.00820923 C16.62892637 0.07637975 30.07622791 1.22268401 43.8125 4.4375 C44.64007812 4.61941895 45.46765625 4.80133789 46.3203125 4.98876953 C78.51590414 12.13695744 107.27086372 28.20071137 131.5 50.34765625 C133.46235514 52.12106841 135.45911409 53.81900245 137.5 55.5 C141.36188441 58.79475453 144.56605462 62.54718758 147.8125 66.4375 C148.50214844 67.23929687 149.19179688 68.04109375 149.90234375 68.8671875 C170.69444429 93.49614315 184.20405044 122.72596472 191.0625 154.125 C191.22588867 154.86049072 191.38927734 155.59598145 191.55761719 156.35375977 C193.98029622 168.09910401 194.08237514 180.17379288 194.125 192.125 C194.12761841 192.83661285 194.13023682 193.54822571 194.13293457 194.28140259 C194.140226 212.97323991 191.98645664 231.71029776 185.8125 249.4375 C185.57160645 250.14358398 185.33071289 250.84966797 185.08251953 251.57714844 C179.21097923 268.67041394 172.10270585 284.5476085 161.8125 299.4375 C161.16539062 300.37980469 160.51828125 301.32210938 159.8515625 302.29296875 C150.03810747 316.171998 138.55190761 329.19722637 125.5 340.125 C114.97657697 349.11653234 108.72534044 360.10761706 106.3125 373.59375 C106.10947266 374.65372192 105.90644531 375.71369385 105.69726562 376.80578613 C105.05417212 380.18041933 104.43274813 383.55860137 103.8125 386.9375 C103.39731329 389.1422063 102.98065702 391.34663639 102.5625 393.55078125 C101.72842072 397.95664789 100.89607467 402.36283175 100.06640625 406.76953125 C99.86031738 407.86281738 99.65422852 408.95610352 99.44189453 410.08251953 C99.01508593 412.35761796 98.59169236 414.6333592 98.17138672 416.90966797 C97.54218545 420.30659157 96.89754789 423.70028233 96.25 427.09375 C96.064375 428.11658081 95.87875 429.13941162 95.6875 430.1932373 C94.28621058 437.43192395 93.01352537 443.80719639 87.14857483 448.62646484 C81.10005391 451.84750353 73.8202793 450.9930598 67.15014648 450.95507812 C65.55295169 450.96050296 63.9557619 450.96762764 62.35858154 450.97631836 C58.03422547 450.9945104 53.7102523 450.98750173 49.38588977 450.97480202 C44.85499229 450.96465469 40.32412696 450.97407234 35.79322815 450.98034668 C28.18639252 450.9876173 20.5797124 450.97804999 12.97290039 450.95898438 C4.18350695 450.9372089 -4.60551543 450.94427419 -13.3948999 450.96629 C-20.94839543 450.98445136 -28.50177937 450.98699896 -36.05528969 450.97653532 C-40.56363535 450.97030544 -45.07180667 450.96945099 -49.58014107 450.98268127 C-53.81809459 450.99425019 -58.0555703 450.9861953 -62.29347229 450.96310425 C-63.84706772 450.95782302 -65.40070347 450.95932095 -66.95428276 450.96815491 C-69.07838364 450.97911794 -71.20096207 450.96534081 -73.32496643 450.94543457 C-74.51236199 450.94392647 -75.69975756 450.94241837 -76.9231348 450.94086456 C-82.03061452 450.15329205 -85.12120008 447.68778939 -88.42163086 443.81787109 C-90.72032629 439.41752035 -91.5653618 435.20967286 -92.44140625 430.3515625 C-92.72189064 428.88969009 -92.72189064 428.88969009 -93.00804138 427.39828491 C-93.60157091 424.28863513 -94.17606184 421.17581872 -94.75 418.0625 C-95.13872036 416.0088769 -95.52868318 413.95548857 -95.91992188 411.90234375 C-96.85541284 406.97744428 -97.77512182 402.04977706 -98.68862915 397.12075806 C-99.1514667 394.63131095 -99.61949835 392.14292852 -100.09057617 389.6550293 C-100.22717148 388.93266083 -100.36376678 388.21029236 -100.50450134 387.46603394 C-100.85985023 385.58839318 -101.21555288 383.71081937 -101.57128906 381.83325195 C-102.2252195 378.22963924 -102.79852973 374.61670357 -103.375 371 C-105.43145434 360.9521428 -109.13211753 348.89481423 -117.5625 342.4375 C-119.10231272 341.43464761 -120.64402353 340.43470433 -122.1875 339.4375 C-125.63380845 336.55895242 -128.91093006 333.50687508 -132.1875 330.4375 C-133.59515625 329.12845703 -133.59515625 329.12845703 -135.03125 327.79296875 C-162.74308063 301.4281133 -179.2580119 266.40347111 -187.1875 229.4375 C-187.40277344 228.49261719 -187.61804688 227.54773438 -187.83984375 226.57421875 C-190.2664815 215.46836567 -190.37405934 204.15062567 -190.37280273 192.82983398 C-190.37498674 190.63831052 -190.39321558 188.44729435 -190.41210938 186.25585938 C-190.46210888 173.84335071 -189.20057361 161.75305109 -186.4375 149.625 C-186.26903564 148.8820166 -186.10057129 148.1390332 -185.92700195 147.37353516 C-179.87862953 121.74136804 -168.55302467 97.13218149 -152.1875 76.4375 C-151.49269531 75.55191406 -150.79789062 74.66632813 -150.08203125 73.75390625 C-126.71210351 44.59319996 -96.8682202 22.13609679 -61.1875 10.4375 C-60.00994141 10.02757812 -60.00994141 10.02757812 -58.80859375 9.609375 C-56.61170119 8.84875658 -54.40481305 8.13635609 -52.1875 7.4375 C-51.20007813 7.11910156 -50.21265625 6.80070312 -49.1953125 6.47265625 C-33.03690821 1.5281099 -16.84325788 -0.12823435 0 0 Z " fill="#FEFEFE" transform="translate(538.1875,381.5625)"/>
<path d="M0 0 C9.97165472 8.89847215 15.63485913 21.40785595 16.8203125 34.64355469 C18.01238848 63.91150352 3.69146202 85.57602301 -12.22744751 108.96395874 C-15.46501254 113.7213883 -18.68982777 118.48743607 -21.9140625 123.25390625 C-22.87236214 124.67010506 -22.87236214 124.67010506 -23.85002136 126.11491394 C-32.17119689 138.42894091 -40.28013845 150.8755786 -48.38671875 163.33203125 C-28.91671875 163.33203125 -9.44671875 163.33203125 10.61328125 163.33203125 C10.61328125 174.22203125 10.61328125 185.11203125 10.61328125 196.33203125 C-24.69671875 196.33203125 -60.00671875 196.33203125 -96.38671875 196.33203125 C-96.38671875 161.44418926 -96.38671875 161.44418926 -86.11425781 149.4453125 C-83.08782134 145.74310305 -80.62308848 141.68289796 -78.07421875 137.64453125 C-76.98396879 135.95821235 -75.89148423 134.27333627 -74.796875 132.58984375 C-74.2414502 131.73293945 -73.68602539 130.87603516 -73.11376953 129.99316406 C-70.08755008 125.33020223 -67.04909042 120.67523281 -64.01171875 116.01953125 C-63.38910156 115.06393311 -62.76648438 114.10833496 -62.125 113.1237793 C-58.91248001 108.19469288 -55.69093716 103.2718899 -52.453125 98.359375 C-31.11688804 68.62167801 -31.11688804 68.62167801 -26.84765625 33.5546875 C-27.91873812 29.66729037 -28.51486626 27.83892223 -32.07421875 25.76953125 C-39.60262134 24.717264 -39.60262134 24.717264 -46.69921875 27.01953125 C-51.59472576 31.23194425 -53.99883945 36.44055755 -54.640625 42.87939453 C-54.8059447 45.82238769 -54.92014895 48.76074027 -55.01171875 51.70703125 C-55.19734375 56.96640625 -55.19734375 56.96640625 -55.38671875 62.33203125 C-68.91671875 62.33203125 -82.44671875 62.33203125 -96.38671875 62.33203125 C-96.86199916 39.39975144 -96.4671114 19.02628242 -79.68359375 1.33203125 C-58.45966039 -17.14867263 -21.9662375 -16.7465375 0 0 Z " fill="#FDFDFF" transform="translate(166.38671875,112.66796875)"/>
<path d="M0 0 C3.42944674 3.15873088 4.10509875 4.93643345 4.54418945 9.6081543 C4.57346959 10.97899721 4.58580057 12.35028234 4.58325195 13.72143555 C4.58454102 14.43170898 4.58583008 15.14198242 4.5871582 15.8737793 C4.47234527 21.59355081 3.25980569 26.12965276 0.20825195 31.03393555 C-1.12577687 30.91659042 -2.45894945 30.78951379 -3.79174805 30.65893555 C-4.53424805 30.58932617 -5.27674805 30.5197168 -6.04174805 30.44799805 C-8.79174805 30.03393555 -8.79174805 30.03393555 -12.4519043 29.01831055 C-31.53743972 24.12744668 -53.61292086 29.28338582 -70.5144043 38.5222168 C-91.77931338 51.34235623 -105.53335407 69.72584992 -112.06518555 93.7800293 C-113.57314291 100.53340826 -113.97405304 107.02034996 -113.97924805 113.90893555 C-113.99761719 115.17930664 -113.99761719 115.17930664 -114.01635742 116.4753418 C-114.02805267 121.56667295 -113.51428665 126.12856805 -112.21044922 131.05493164 C-111.2714307 135.4932314 -112.15832042 138.91910292 -114.35424805 142.78393555 C-120.42974454 148.39208616 -126.94788932 148.36276443 -134.83862305 148.3347168 C-137.79571274 148.03353174 -139.44936329 147.85341892 -141.79174805 146.03393555 C-142.8034668 143.49487305 -142.8034668 143.49487305 -143.47924805 140.40893555 C-143.70999023 139.40604492 -143.94073242 138.4031543 -144.1784668 137.36987305 C-147.33555848 120.19690302 -147.698831 100.87235326 -142.79174805 84.03393555 C-142.45143555 82.82350586 -142.11112305 81.61307617 -141.76049805 80.3659668 C-132.40407252 49.86275519 -111.62517537 24.05629611 -83.5065918 8.8425293 C-62.61728331 -1.58239146 -21.04131071 -14.81816136 0 0 Z " fill="#253EFF" transform="translate(553.791748046875,451.966064453125)"/>
<path d="M0 0 C0.71305298 -0.0358017 1.42610596 -0.07160339 2.1607666 -0.10848999 C6.08579382 -0.15229244 7.73335924 0.27615879 10.83789062 2.75244141 C14.29102562 7.19602942 14.29779406 11.2284093 14.26171875 16.67578125 C13.70338465 20.97679445 12.11993004 22.57406618 8.90625 25.4140625 C6.30503135 26.28113538 4.28367278 26.66553064 1.58789062 26.93896484 C0.7142688 27.02931 -0.15935303 27.11965515 -1.05944824 27.21273804 C-2.00920532 27.30753448 -2.9589624 27.40233093 -3.9375 27.5 C-4.93463013 27.60245026 -5.93176025 27.70490051 -6.95910645 27.81045532 C-10.17033575 28.13986735 -13.38200681 28.4647025 -16.59375 28.7890625 C-20.7501728 29.21185981 -24.90638579 29.63668052 -29.0625 30.0625 C-30.12645996 30.17128479 -31.19041992 30.28006958 -32.28662109 30.39215088 C-39.88337492 31.17364261 -47.47355117 32.00570608 -55.0625 32.859375 C-65.25509765 34.00395906 -75.45310311 35.08731546 -85.65625 36.1328125 C-86.36681046 36.20564075 -87.07737091 36.27846901 -87.8094635 36.35350418 C-93.63657088 36.95028625 -99.46397112 37.54418918 -105.29138184 38.13800049 C-109.65494197 38.58274936 -114.01840879 39.0283951 -118.38174438 39.4753418 C-119.80991408 39.62149424 -121.23811624 39.76732975 -122.66635132 39.9128418 C-130.05248612 40.66578025 -137.43377385 41.44258246 -144.80859375 42.30078125 C-146.02039307 42.44092651 -147.23219238 42.58107178 -148.48071289 42.72546387 C-150.71110161 42.98593868 -152.94084147 43.25207183 -155.16967773 43.5255127 C-173.48626011 45.66565765 -173.48626011 45.66565765 -179.21875 42.9140625 C-183.00220972 37.86944955 -183.79515317 31.60979048 -183.09375 25.4140625 C-181.0146515 22.18787517 -179.29335471 20.5471323 -176.09375 18.4140625 C-174.05444336 18.00392151 -174.05444336 18.00392151 -171.68359375 17.77563477 C-170.78995117 17.68536514 -169.89630859 17.59509552 -168.97558594 17.50209045 C-167.51813965 17.36763771 -167.51813965 17.36763771 -166.03125 17.23046875 C-165.01192383 17.12943344 -163.99259766 17.02839813 -162.94238281 16.92430115 C-159.66022175 16.60049148 -156.3770964 16.28810154 -153.09375 15.9765625 C-148.84346055 15.56414337 -144.59360721 15.14731541 -140.34375 14.73046875 C-138.72200111 14.57254097 -138.72200111 14.57254097 -137.06748962 14.41142273 C-128.14968123 13.53645228 -119.24524685 12.55907583 -110.34095764 11.55688477 C-102.29198888 10.65269869 -94.23964892 9.78785983 -86.18359375 8.94921875 C-84.45400925 8.768964 -84.45400925 8.768964 -82.68948364 8.58506775 C-77.89136289 8.08551094 -73.09314351 7.58690464 -68.29492188 7.08831787 C-50.35547736 5.22572591 -50.35547736 5.22572591 -32.44140625 3.13671875 C-31.6617601 3.04115189 -30.88211395 2.94558502 -30.07884216 2.84712219 C-26.64389417 2.42383904 -23.21173199 1.98820667 -19.78100586 1.53149414 C-13.19581834 0.70068408 -6.63291449 0.1770493 0 0 Z " fill="#FCFCFE" transform="translate(624.09375,840.5859375)"/>
<path d="M0 0 C2.69823335 3.20870992 3.8944516 5.27435477 4.5 9.4375 C3.86668169 13.94989292 2.57496508 16.24790803 0 20 C-6.84454108 24.56302739 -16.67369109 24.38779906 -24.71875 25.11328125 C-26.78255634 25.30846736 -28.84635824 25.50370047 -30.91015625 25.69897461 C-32.51914795 25.84857132 -32.51914795 25.84857132 -34.16064453 26.00119019 C-51.46538838 27.61441664 -68.74450137 29.36276132 -86 31.4375 C-106.53360387 33.904158 -127.10277892 35.98693057 -147.68164062 38.03295898 C-148.91927658 38.15660324 -150.15691254 38.2802475 -151.43205261 38.40763855 C-153.76203721 38.64014249 -156.09219844 38.87088559 -158.42256165 39.0995636 C-163.31813655 39.58789995 -168.15443843 40.13050877 -173 41 C-177.88911737 41.35261318 -182.3977009 41.6342434 -187 39.8125 C-190.09230572 37.01009794 -191.74008973 34.89544321 -192.3203125 30.6640625 C-192.57742228 24.95622538 -191.96008578 21.40009531 -188 17 C-185.13898914 15.28514795 -182.66526098 14.64904197 -179.37011719 14.25390625 C-177.98823212 14.08375 -177.98823212 14.08375 -176.57843018 13.91015625 C-175.07781036 13.73806641 -175.07781036 13.73806641 -173.546875 13.5625 C-172.49054871 13.43617188 -171.43422241 13.30984375 -170.34588623 13.1796875 C-157.32921475 11.64571794 -144.28948975 10.3225473 -131.25 9 C-126.35926726 8.50105171 -121.46867811 8.00070565 -116.578125 7.5 C-115.36705582 7.37611404 -114.15598663 7.25222809 -112.90821838 7.12458801 C-96.30294683 5.42174063 -79.70678338 3.63548173 -63.11593628 1.79763794 C-58.30300176 1.26511612 -53.48955322 0.73733398 -48.67602539 0.21020508 C-46.23988917 -0.05791639 -43.80402032 -0.328477 -41.3684082 -0.60131836 C-37.75801699 -1.00512942 -34.14672746 -1.39986904 -30.53515625 -1.79296875 C-29.46515884 -1.91480026 -28.39516144 -2.03663177 -27.29273987 -2.16215515 C-6.07843732 -4.43728337 -6.07843732 -4.43728337 0 0 Z " fill="#FCFCFE" transform="translate(634,891)"/>
<path d="M0 0 C6.27 0 12.54 0 19 0 C20.00031474 5.1955123 20.99837903 10.39135285 21.99072266 15.58837891 C22.3289191 17.35588494 22.66842714 19.12314053 23.00927734 20.89013672 C23.49922949 23.43131708 23.98444391 25.97336335 24.46875 28.515625 C24.62186646 29.30430969 24.77498291 30.09299438 24.93273926 30.90557861 C25.58573088 34.35569804 26 37.47443443 26 41 C26.66 41 27.32 41 28 41 C28.103125 39.81019531 28.20625 38.62039062 28.3125 37.39453125 C29.05374339 30.72986581 30.56050252 24.22974442 32 17.6875 C32.27328125 16.42615234 32.5465625 15.16480469 32.828125 13.86523438 C33.83599086 9.22855736 34.84911929 4.60352283 36 0 C41.94 0 47.88 0 54 0 C55.0627737 8.62722184 55.12948667 17.17451443 55.09765625 25.8515625 C55.09578721 27.36184644 55.09436561 28.872131 55.09336853 30.38241577 C55.08958158 34.32458216 55.07978472 38.2667107 55.06866455 42.2088623 C55.05836747 46.24470508 55.05385327 50.28055408 55.04882812 54.31640625 C55.03815837 62.21095471 55.02112886 70.10547263 55 78 C51.04 78 47.08 78 43 78 C42.22867749 67.52042442 41.7430061 57.06562829 41.4375 46.5625 C41.2209375 39.3540625 41.2209375 39.3540625 41 32 C38.36 47.18 35.72 62.36 33 78 C29.37 78 25.74 78 22 78 C20.39338928 72.70926469 19.25026491 67.44347775 18.2734375 62.00390625 C18.13784424 61.26394409 18.00225098 60.52398193 17.86254883 59.76159668 C17.36290628 57.02925532 16.86929702 54.29581345 16.375 51.5625 C15.26125 45.436875 14.1475 39.31125 13 33 C12.34 47.85 11.68 62.7 11 78 C7.04 78 3.08 78 -1 78 C-1.02272845 69.74957117 -1.0410168 61.49916729 -1.05181217 53.2487154 C-1.05699732 49.41636795 -1.06401409 45.58404331 -1.07543945 41.75170898 C-1.0864255 38.04288196 -1.09230959 34.33407666 -1.09487724 30.6252346 C-1.09670352 29.22089484 -1.1002686 27.81655606 -1.10573006 26.41222572 C-1.13878714 17.54731999 -0.78844402 8.83111868 0 0 Z " fill="#F9F9FF" transform="translate(493,103)"/>
<path d="M0 0 C4.54077558 3.55365045 6.53617096 7.50994089 8 13 C8.41564125 16.50268804 8.44467742 19.96758051 8.43359375 23.4921875 C8.4388356 24.47816925 8.44407745 25.464151 8.44947815 26.48001099 C8.45587178 28.55583764 8.45459602 30.63170065 8.44604492 32.70751953 C8.43754299 35.85906467 8.46632171 39.00879002 8.49804688 42.16015625 C8.49965952 44.18749946 8.49908015 46.21484585 8.49609375 48.2421875 C8.51294472 49.63641434 8.51294472 49.63641434 8.53013611 51.05880737 C8.45707271 58.02465502 7.24779221 65.18790087 2.58811951 70.65719604 C-4.62010897 77.00165983 -12.99754149 76.6852825 -22.05078125 76.19970703 C-27.24987288 75.66703457 -30.50644193 73.37245877 -34.3125 69.875 C-38.52870459 62.69183663 -39.45602524 55.09050785 -39.3984375 46.8984375 C-39.40130768 45.97713043 -39.40417786 45.05582336 -39.40713501 44.1065979 C-39.40916073 42.17555113 -39.40373635 40.24448314 -39.39111328 38.31347656 C-39.37500099 35.37518144 -39.3910321 32.43825383 -39.41015625 29.5 C-39.40817427 27.61197617 -39.40433154 25.72395317 -39.3984375 23.8359375 C-39.40451019 22.96802582 -39.41058289 22.10011414 -39.4168396 21.2059021 C-39.32432095 13.10495331 -37.28610892 6.47831482 -31.640625 0.4765625 C-23.27123908 -7.05588483 -9.01064491 -5.85980106 0 0 Z " fill="#F9FAFF" transform="translate(736,106)"/>
<path d="M0 0 C6.01358578 3.19088225 9.02861337 7.76710359 11.31768799 14.09991455 C12.41129262 18.11410586 12.36488451 22.07381878 12.3359375 26.2109375 C12.33880768 27.13033112 12.34167786 28.04972473 12.34463501 28.99697876 C12.34666589 30.9315859 12.34120476 32.86621402 12.32861328 34.80078125 C12.31258277 37.73485102 12.32847639 40.66753572 12.34765625 43.6015625 C12.34567293 45.4921905 12.34182741 47.38281764 12.3359375 49.2734375 C12.34504654 50.56923233 12.34504654 50.56923233 12.3543396 51.89120483 C12.27172921 59.17965806 10.9906849 66.04742447 7.125 72.3125 C0.38398813 78.66831119 -7.546508 78.82206718 -16.34765625 78.65625 C-22.46458321 78.19313881 -26.04265943 76.34025028 -30.375 72.125 C-34.5771862 65.27699286 -35.50893739 59.36873135 -35.42578125 51.50390625 C-35.42627975 50.58214096 -35.42677826 49.66037567 -35.42729187 48.7106781 C-35.42496372 46.77185905 -35.4153101 44.83303625 -35.39868164 42.89428711 C-35.37509553 39.9494278 -35.37813013 37.00547674 -35.38476562 34.06054688 C-35.37918727 32.16666134 -35.37207641 30.27277958 -35.36328125 28.37890625 C-35.36419266 27.50988174 -35.36510406 26.64085724 -35.36604309 25.74549866 C-35.27286946 17.58948336 -34.55991867 9.76389197 -29.0625 3.375 C-20.70196062 -2.58045271 -9.59854513 -3.90092643 0 0 Z " fill="#FAFAFF" transform="translate(998.0625,233.625)"/>
<path d="M0 0 C6.01358578 3.19088225 9.02861337 7.76710359 11.31768799 14.09991455 C12.41129262 18.11410586 12.36488451 22.07381878 12.3359375 26.2109375 C12.33880768 27.13033112 12.34167786 28.04972473 12.34463501 28.99697876 C12.34666589 30.9315859 12.34120476 32.86621402 12.32861328 34.80078125 C12.31258277 37.73485102 12.32847639 40.66753572 12.34765625 43.6015625 C12.34567293 45.4921905 12.34182741 47.38281764 12.3359375 49.2734375 C12.34504654 50.56923233 12.34504654 50.56923233 12.3543396 51.89120483 C12.27172921 59.17965806 10.9906849 66.04742447 7.125 72.3125 C0.38398813 78.66831119 -7.546508 78.82206718 -16.34765625 78.65625 C-22.46458321 78.19313881 -26.04265943 76.34025028 -30.375 72.125 C-34.5771862 65.27699286 -35.50893739 59.36873135 -35.42578125 51.50390625 C-35.42627975 50.58214096 -35.42677826 49.66037567 -35.42729187 48.7106781 C-35.42496372 46.77185905 -35.4153101 44.83303625 -35.39868164 42.89428711 C-35.37509553 39.9494278 -35.37813013 37.00547674 -35.38476562 34.06054688 C-35.37918727 32.16666134 -35.37207641 30.27277958 -35.36328125 28.37890625 C-35.36419266 27.50988174 -35.36510406 26.64085724 -35.36604309 25.74549866 C-35.27286946 17.58948336 -34.55991867 9.76389197 -29.0625 3.375 C-20.70196062 -2.58045271 -9.59854513 -3.90092643 0 0 Z " fill="#FAFAFF" transform="translate(539.0625,233.625)"/>
<path d="M0 0 C0.68335922 -0.02478928 1.36671844 -0.04957855 2.07078552 -0.07511902 C7.02311454 -0.08089029 9.80367813 1.32316241 13.62109375 4.39453125 C16.37704796 8.40535798 16.15109466 12.7002375 15.62109375 17.39453125 C13.85656134 21.80586228 10.91337611 24.45863092 6.62109375 26.39453125 C2.57724903 27.26623067 -1.48782353 27.60502738 -5.60546875 27.95703125 C-6.81010773 28.07388275 -8.0147467 28.19073425 -9.25588989 28.31112671 C-12.50075018 28.62329714 -15.74653295 28.92098091 -18.99333191 29.21215057 C-22.3537944 29.5169806 -25.71249409 29.83999048 -29.07128906 30.16259766 C-30.41589014 30.29157004 -31.76049463 30.42050686 -33.10510254 30.54940796 C-33.76828995 30.61299877 -34.43147736 30.67658958 -35.11476135 30.74210739 C-37.11911008 30.93340443 -39.12366717 31.12236114 -41.1282959 31.31069946 C-48.68206152 32.02405051 -56.22528897 32.79006747 -63.76171875 33.66796875 C-64.58713165 33.76378235 -65.41254456 33.85959595 -66.26296997 33.95831299 C-69.25249142 34.30781624 -72.2415327 34.6601732 -75.2288208 35.02832031 C-99.76558013 38.04777373 -99.76558013 38.04777373 -105.57250977 35.39086914 C-108.4581204 33.0579241 -111.10482789 30.06768403 -111.71484375 26.34375 C-111.80985469 20.84261656 -111.08343083 17.73411719 -107.37890625 13.39453125 C-103.61035593 10.88216437 -100.08151174 10.54734624 -95.69140625 9.95703125 C-94.77061279 9.82925293 -93.84981934 9.70147461 -92.90112305 9.56982422 C-84.19205338 8.41107934 -75.45511531 7.61326184 -66.70422363 6.84509277 C-57.97615597 6.07690488 -49.2776507 5.17194827 -40.58203125 4.09375 C-39.65855392 3.97986938 -38.7350766 3.86598877 -37.78361511 3.74865723 C-33.24802328 3.18698137 -28.71454864 2.61234621 -24.18286133 2.02001953 C-16.13266855 0.99234147 -8.1193691 0.15489867 0 0 Z " fill="#FBFCFE" transform="translate(592.37890625,934.60546875)"/>
<path d="M0 0 C34.41666667 0 34.41666667 0 42.4375 5.25 C48.14001531 11.36977253 48.49995255 16.76266858 48.28515625 24.90625 C47.78103778 30.37559013 46.52398178 33.68383392 42.25 37.375 C39.55248267 39.92223216 39.55248267 39.92223216 40.140625 43.93359375 C40.94806277 49.70665747 42.7141554 55.15425056 44.5 60.6875 C45.13894111 62.69028528 45.77446616 64.69416419 46.40625 66.69921875 C46.68791016 67.57408936 46.96957031 68.44895996 47.25976562 69.3503418 C48.05109004 72.18287607 48.51650359 75.09902155 49 78 C43.06 78 37.12 78 31 78 C26.04464286 60.32142857 26.04464286 60.32142857 24.1875 53.1875 C23.95417969 52.29417969 23.72085938 51.40085937 23.48046875 50.48046875 C22.98570302 47.92619041 22.91147821 45.59508613 23 43 C21.35 43 19.7 43 18 43 C18 54.55 18 66.1 18 78 C12.06 78 6.12 78 0 78 C0 52.26 0 26.52 0 0 Z " fill="#F8F9FF" transform="translate(707,233)"/>
<path d="M0 0 C35.2 0 35.2 0 43 6.5 C46.77357266 11.21696582 47.34014986 14.82353978 47.3125 20.8125 C47.32861328 21.49892578 47.34472656 22.18535156 47.36132812 22.89257812 C47.36613078 27.9689858 46.36486769 31.4944227 44 36 C41.3125 38.4375 41.3125 38.4375 39 40 C39.6278439 44.11008056 40.48696244 48.05577707 41.59375 52.0625 C41.90183594 53.18914062 42.20992188 54.31578125 42.52734375 55.4765625 C42.84832031 56.63929688 43.16929687 57.80203125 43.5 59 C44.13816417 61.3117433 44.77367168 63.62422197 45.40625 65.9375 C45.82874023 67.46697266 45.82874023 67.46697266 46.25976562 69.02734375 C46.99593669 71.98368243 47.49913895 74.99483371 48 78 C42.06 78 36.12 78 30 78 C28.85739128 73.49842772 27.71695381 68.99642003 26.58203125 64.49291992 C26.19528503 62.96102204 25.80727236 61.42944332 25.41796875 59.89819336 C24.85864406 57.69727922 24.30388248 55.49525789 23.75 53.29296875 C23.57500977 52.60849167 23.40001953 51.92401459 23.21972656 51.21879578 C22.51258894 48.39124571 22 45.92845999 22 43 C20.35 43 18.7 43 17 43 C17 54.55 17 66.1 17 78 C11.39 78 5.78 78 0 78 C0 52.26 0 26.52 0 0 Z " fill="#FCFCFF" transform="translate(293,233)"/>
<path d="M0 0 C4.29 0 8.58 0 13 0 C17.62 10.56 22.24 21.12 27 32 C27.33 21.44 27.66 10.88 28 0 C32.95 0 37.9 0 43 0 C43 25.74 43 51.48 43 78 C39.04 78 35.08 78 31 78 C29.50636392 74.33801637 28.01293981 70.67594729 26.52001953 67.01367188 C25.76748063 65.16787577 25.01460371 63.32221748 24.26171875 61.4765625 C23.77832031 60.290625 23.29492188 59.1046875 22.796875 57.8828125 C22.35698242 56.80402832 21.91708984 55.72524414 21.46386719 54.61376953 C19.62802113 50.08171593 17.81601461 45.54003652 16 41 C15.67 53.21 15.34 65.42 15 78 C10.05 78 5.1 78 0 78 C0 52.26 0 26.52 0 0 Z " fill="#F8F8FF" transform="translate(602,103)"/>
<path d="M0 0 C3.96 0 7.92 0 12 0 C17.55931902 11.46609549 22.33740241 23.13900614 27 35 C27.33 23.45 27.66 11.9 28 0 C32.62 0 37.24 0 42 0 C42 25.74 42 51.48 42 78 C38.04 78 34.08 78 30 78 C25.38 66.45 20.76 54.9 16 43 C15.67 54.55 15.34 66.1 15 78 C10.05 78 5.1 78 0 78 C0 52.26 0 26.52 0 0 Z " fill="#FCFCFF" transform="translate(337,103)"/>
<path d="M0 0 C32 0 32 0 40 4 C45.72556106 10.02690638 46.36345148 14.87187396 46.375 22.875 C46.39949219 23.76058594 46.42398438 24.64617187 46.44921875 25.55859375 C46.47458648 31.2325102 45.80698292 34.51544397 42 39 C34.05054393 46.33795945 28.6006009 45 17 45 C17 55.89 17 66.78 17 78 C11.39 78 5.78 78 0 78 C0 52.26 0 26.52 0 0 Z " fill="#FCFDFF" transform="translate(239,103)"/>
<path d="M0 0 C0.83265381 0.00523682 1.66530762 0.01047363 2.52319336 0.01586914 C3.42231445 0.0190918 4.32143555 0.02231445 5.24780273 0.02563477 C6.66609375 0.03820312 6.66609375 0.03820312 8.11303711 0.05102539 C9.06243164 0.05553711 10.01182617 0.06004883 10.98999023 0.06469727 C13.34356776 0.07652429 15.69702188 0.09300514 18.05053711 0.11352539 C22.03471738 20.21096034 25.98740048 40.31149329 29.55053711 60.48852539 C29.67986633 61.2162616 29.80919556 61.9439978 29.94244385 62.69378662 C30.30463042 64.73679343 30.66286413 66.78044356 31.01928711 68.82446289 C31.21973633 69.97221191 31.42018555 71.11996094 31.62670898 72.30249023 C32.05053711 75.11352539 32.05053711 75.11352539 32.05053711 78.11352539 C26.77053711 78.11352539 21.49053711 78.11352539 16.05053711 78.11352539 C14.56975231 75.15195579 14.69739674 72.27846244 14.48803711 68.98852539 C14.36235352 67.0665332 14.36235352 67.0665332 14.23413086 65.10571289 C14.17354492 64.11829102 14.11295898 63.13086914 14.05053711 62.11352539 C10.09053711 62.11352539 6.13053711 62.11352539 2.05053711 62.11352539 C1.90616211 64.01102539 1.76178711 65.90852539 1.61303711 67.86352539 C1.338834 71.46733771 0.9312917 74.59050704 0.05053711 78.11352539 C-5.55946289 78.11352539 -11.16946289 78.11352539 -16.94946289 78.11352539 C-15.45619421 69.01303891 -13.85596226 59.93559121 -12.19946289 50.86352539 C-12.07173492 50.16340332 -11.94400696 49.46328125 -11.81240845 48.74194336 C-11.00058487 44.29444745 -10.18569485 39.84751973 -9.36920166 35.40087891 C-8.94581463 33.09364431 -8.52350978 30.78621341 -8.10131836 28.47875977 C-7.41594031 24.7359936 -6.72597023 20.99409981 -6.03259277 17.25280762 C-5.76930608 15.82914229 -5.50733826 14.40523242 -5.2467041 12.9810791 C-4.88444321 11.00370447 -4.51670496 9.02733564 -4.14868164 7.05102539 C-3.8367688 5.36299805 -3.8367688 5.36299805 -3.51855469 3.64086914 C-2.73458416 0.15924629 -2.73458416 0.15924629 0 0 Z " fill="#F8F9FF" transform="translate(806.949462890625,232.886474609375)"/>
<path d="M0 0 C0.83265381 0.00523682 1.66530762 0.01047363 2.52319336 0.01586914 C3.42231445 0.0190918 4.32143555 0.02231445 5.24780273 0.02563477 C6.66609375 0.03820312 6.66609375 0.03820312 8.11303711 0.05102539 C9.06243164 0.05553711 10.01182617 0.06004883 10.98999023 0.06469727 C13.34356776 0.07652429 15.69702188 0.09300514 18.05053711 0.11352539 C22.03471738 20.21096034 25.98740048 40.31149329 29.55053711 60.48852539 C29.67986633 61.2162616 29.80919556 61.9439978 29.94244385 62.69378662 C30.30463042 64.73679343 30.66286413 66.78044356 31.01928711 68.82446289 C31.21973633 69.97221191 31.42018555 71.11996094 31.62670898 72.30249023 C32.05053711 75.11352539 32.05053711 75.11352539 32.05053711 78.11352539 C26.77053711 78.11352539 21.49053711 78.11352539 16.05053711 78.11352539 C14.56975231 75.15195579 14.69739674 72.27846244 14.48803711 68.98852539 C14.36235352 67.0665332 14.36235352 67.0665332 14.23413086 65.10571289 C14.17354492 64.11829102 14.11295898 63.13086914 14.05053711 62.11352539 C10.09053711 62.11352539 6.13053711 62.11352539 2.05053711 62.11352539 C1.90616211 64.01102539 1.76178711 65.90852539 1.61303711 67.86352539 C1.338834 71.46733771 0.9312917 74.59050704 0.05053711 78.11352539 C-5.55946289 78.11352539 -11.16946289 78.11352539 -16.94946289 78.11352539 C-15.45619421 69.01303891 -13.85596226 59.93559121 -12.19946289 50.86352539 C-12.07173492 50.16340332 -11.94400696 49.46328125 -11.81240845 48.74194336 C-11.00058487 44.29444745 -10.18569485 39.84751973 -9.36920166 35.40087891 C-8.94581463 33.09364431 -8.52350978 30.78621341 -8.10131836 28.47875977 C-7.41594031 24.7359936 -6.72597023 20.99409981 -6.03259277 17.25280762 C-5.76930608 15.82914229 -5.50733826 14.40523242 -5.2467041 12.9810791 C-4.88444321 11.00370447 -4.51670496 9.02733564 -4.14868164 7.05102539 C-3.8367688 5.36299805 -3.8367688 5.36299805 -3.51855469 3.64086914 C-2.73458416 0.15924629 -2.73458416 0.15924629 0 0 Z " fill="#F8F9FF" transform="translate(451.949462890625,102.886474609375)"/>
<path d="M0 0 C4.300573 2.75492945 6.49065846 6.52275662 8.09765625 11.34375 C8.16801064 13.91872068 8.19114965 16.45824929 8.16015625 19.03125 C8.13953125 21.444375 8.11890625 23.8575 8.09765625 26.34375 C2.48765625 26.34375 -3.12234375 26.34375 -8.90234375 26.34375 C-9.09765625 22.76302083 -9.29296875 19.18229167 -9.48828125 15.6015625 C-9.57475481 12.26313301 -9.57475481 12.26313301 -11.90234375 10.34375 C-14.40234375 9.92708333 -14.40234375 9.92708333 -16.90234375 10.34375 C-19.01915733 13.51897037 -19.15404764 14.3008577 -19.16113281 17.93530273 C-19.16743713 18.86314072 -19.17374146 19.7909787 -19.18023682 20.74693298 C-19.17618835 21.74696854 -19.17213989 22.74700409 -19.16796875 23.77734375 C-19.1698822 24.80682632 -19.17179565 25.8363089 -19.17376709 26.89698792 C-19.17512854 29.07496383 -19.17143492 31.25294787 -19.16308594 33.4309082 C-19.15239691 36.7646714 -19.16297714 40.09789436 -19.17578125 43.43164062 C-19.17445943 45.54687619 -19.17189659 47.66211142 -19.16796875 49.77734375 C-19.17201721 50.77535507 -19.17606567 51.77336639 -19.18023682 52.80162048 C-19.1739325 53.73261063 -19.16762817 54.66360077 -19.16113281 55.62280273 C-19.15954163 56.43982162 -19.15795044 57.25684052 -19.15631104 58.09861755 C-18.87706804 60.56719339 -18.13641013 62.20514947 -16.90234375 64.34375 C-14.59234375 64.34375 -12.28234375 64.34375 -9.90234375 64.34375 C-9.57234375 58.73375 -9.24234375 53.12375 -8.90234375 47.34375 C-3.29234375 47.34375 2.31765625 47.34375 8.09765625 47.34375 C8.90364081 65.07541023 8.90364081 65.07541023 3.09765625 72.34375 C-4.42504006 78.5001798 -13.73734572 77.99511623 -22.90234375 77.34375 C-28.16541092 75.86536035 -32.10694529 71.97103228 -34.90234375 67.34375 C-37.63217124 61.15315997 -38.35943688 55.37005141 -38.3359375 48.6640625 C-38.34117935 47.77065155 -38.3464212 46.8772406 -38.3518219 45.95675659 C-38.35820337 44.07941724 -38.35695579 42.20203769 -38.34838867 40.32470703 C-38.33988537 37.48265957 -38.36868343 34.64263062 -38.40039062 31.80078125 C-38.48413329 10.59958065 -38.48413329 10.59958065 -32.18139648 3.36962891 C-23.6705131 -4.80333158 -10.29526223 -4.68727386 0 0 Z " fill="#F9F9FF" transform="translate(689.90234375,234.65625)"/>
<path d="M0 0 C4.9205337 3.39202748 7.28796694 7.5140544 8.8359375 13.265625 C9.08672389 17.95031483 8.9245453 22.5694115 8.8359375 27.265625 C3.2259375 27.265625 -2.3840625 27.265625 -8.1640625 27.265625 C-8.39192708 23.68489583 -8.61979167 20.10416667 -8.84765625 16.5234375 C-8.95612277 13.38262348 -8.95612277 13.38262348 -10.1640625 11.265625 C-13.58049009 11.01546627 -13.58049009 11.01546627 -17.1640625 11.265625 C-19.26994458 14.42444812 -19.41341441 15.16144445 -19.40698242 18.76538086 C-19.41005905 19.67319809 -19.41313568 20.58101532 -19.41630554 21.51634216 C-19.40912003 22.49450394 -19.40193451 23.47266571 -19.39453125 24.48046875 C-19.39407303 25.48775528 -19.39361481 26.49504181 -19.3931427 27.53285217 C-19.39012087 29.66375913 -19.38223664 31.79466388 -19.36987305 33.92553711 C-19.35165389 37.18676589 -19.34936315 40.44771008 -19.34960938 43.70898438 C-19.3446926 45.77864829 -19.33886358 47.84831027 -19.33203125 49.91796875 C-19.33091843 50.89410629 -19.3298056 51.87024384 -19.32865906 52.8759613 C-19.32227921 53.78693069 -19.31589935 54.69790009 -19.30932617 55.63647461 C-19.30360847 56.83535561 -19.30360847 56.83535561 -19.29777527 58.05845642 C-19.16530633 60.24509338 -18.76709112 62.16429341 -18.1640625 64.265625 C-14.14048496 64.63567015 -14.14048496 64.63567015 -10.5078125 63.203125 C-8.47719743 60.27526142 -8.63793309 57.59600378 -8.4765625 54.078125 C-8.3734375 51.83 -8.2703125 49.581875 -8.1640625 47.265625 C-2.5540625 47.265625 3.0559375 47.265625 8.8359375 47.265625 C9.21837141 56.25282197 9.52624284 64.67941864 3.4453125 71.921875 C-2.9355232 77.69821047 -10.35804303 77.71030866 -18.5234375 77.57421875 C-24.12754971 77.09919207 -27.70334778 75.71365562 -31.6796875 71.7578125 C-37.32077556 64.78750254 -37.47789726 55.89594136 -37.5 47.296875 C-37.5066568 46.37652466 -37.5133136 45.45617432 -37.52017212 44.50793457 C-37.53023153 42.57513407 -37.53499124 40.64229931 -37.53466797 38.70947266 C-37.53905123 35.77317723 -37.57546984 32.83837517 -37.61328125 29.90234375 C-37.61914907 28.01302591 -37.6231187 26.12370102 -37.625 24.234375 C-37.63937103 23.36848755 -37.65374207 22.5026001 -37.66854858 21.61047363 C-37.61318831 14.13257797 -35.553487 8.23626087 -30.8515625 2.390625 C-22.13744772 -4.49960529 -9.89194892 -5.22177229 0 0 Z " fill="#FAFAFF" transform="translate(487.1640625,234.734375)"/>
<path d="M0 0 C4.9205337 3.39202748 7.28796694 7.5140544 8.8359375 13.265625 C9.08672389 17.95031483 8.9245453 22.5694115 8.8359375 27.265625 C3.2259375 27.265625 -2.3840625 27.265625 -8.1640625 27.265625 C-8.39192708 23.68489583 -8.61979167 20.10416667 -8.84765625 16.5234375 C-8.95612277 13.38262348 -8.95612277 13.38262348 -10.1640625 11.265625 C-13.58049009 11.01546627 -13.58049009 11.01546627 -17.1640625 11.265625 C-19.26994458 14.42444812 -19.41341441 15.16144445 -19.40698242 18.76538086 C-19.41005905 19.67319809 -19.41313568 20.58101532 -19.41630554 21.51634216 C-19.40912003 22.49450394 -19.40193451 23.47266571 -19.39453125 24.48046875 C-19.39407303 25.48775528 -19.39361481 26.49504181 -19.3931427 27.53285217 C-19.39012087 29.66375913 -19.38223664 31.79466388 -19.36987305 33.92553711 C-19.35165389 37.18676589 -19.34936315 40.44771008 -19.34960938 43.70898438 C-19.3446926 45.77864829 -19.33886358 47.84831027 -19.33203125 49.91796875 C-19.33091843 50.89410629 -19.3298056 51.87024384 -19.32865906 52.8759613 C-19.32227921 53.78693069 -19.31589935 54.69790009 -19.30932617 55.63647461 C-19.30360847 56.83535561 -19.30360847 56.83535561 -19.29777527 58.05845642 C-19.16530633 60.24509338 -18.76709112 62.16429341 -18.1640625 64.265625 C-14.14048496 64.63567015 -14.14048496 64.63567015 -10.5078125 63.203125 C-8.47719743 60.27526142 -8.63793309 57.59600378 -8.4765625 54.078125 C-8.3734375 51.83 -8.2703125 49.581875 -8.1640625 47.265625 C-2.5540625 47.265625 3.0559375 47.265625 8.8359375 47.265625 C9.21837141 56.25282197 9.52624284 64.67941864 3.4453125 71.921875 C-2.9355232 77.69821047 -10.35804303 77.71030866 -18.5234375 77.57421875 C-24.12754971 77.09919207 -27.70334778 75.71365562 -31.6796875 71.7578125 C-37.32077556 64.78750254 -37.47789726 55.89594136 -37.5 47.296875 C-37.5066568 46.37652466 -37.5133136 45.45617432 -37.52017212 44.50793457 C-37.53023153 42.57513407 -37.53499124 40.64229931 -37.53466797 38.70947266 C-37.53905123 35.77317723 -37.57546984 32.83837517 -37.61328125 29.90234375 C-37.61914907 28.01302591 -37.6231187 26.12370102 -37.625 24.234375 C-37.63937103 23.36848755 -37.65374207 22.5026001 -37.66854858 21.61047363 C-37.61318831 14.13257797 -35.553487 8.23626087 -30.8515625 2.390625 C-22.13744772 -4.49960529 -9.89194892 -5.22177229 0 0 Z " fill="#FAFAFF" transform="translate(275.1640625,234.734375)"/>
<path d="M0 0 C4.72293615 2.75504609 7.42636362 7.22566907 9.19140625 12.3125 C9.70403702 15.33432348 9.5625 18.43500287 9.5625 21.5 C4.6125 21.83 -0.3375 22.16 -5.4375 22.5 C-6.0975 19.2 -6.7575 15.9 -7.4375 12.5 C-9.0875 12.5 -10.7375 12.5 -12.4375 12.5 C-13.96701026 14.02951026 -13.7914351 15.43360414 -13.9375 17.5625 C-13.84287376 22.56980546 -12.19672732 24.82573195 -8.7734375 28.33984375 C-6.51126001 30.43179049 -4.21253601 32.47818682 -1.90429688 34.51904297 C4.66778621 40.37545443 9.8668595 45.04688592 11.0234375 54.11328125 C11.30260405 60.83321889 11.25550429 66.50488076 7.0625 71.984375 C1.87621587 77.22468292 -2.9522711 78.67338816 -10.125 78.875 C-16.56063921 78.82186779 -20.74888566 77.99917537 -25.4375 73.5 C-30.64582235 67.19518873 -31.4375 61.5782618 -31.4375 53.5 C-26.4875 52.84 -21.5375 52.18 -16.4375 51.5 C-15.98177083 54.29947917 -15.52604167 57.09895833 -15.0703125 59.8984375 C-14.6416198 62.6425115 -14.6416198 62.6425115 -12.4375 64.5 C-9.35402174 64.66681109 -9.35402174 64.66681109 -6.4375 64.5 C-6.11689063 57.75437879 -6.91773296 53.36765219 -11.5 48.25 C-15.024158 44.70346639 -18.75977799 41.44924737 -22.578125 38.2265625 C-27.11984908 34.00924728 -31.15841789 29.1710032 -31.640625 22.828125 C-31.83422908 10.1147907 -31.83422908 10.1147907 -26.85546875 4.81640625 C-19.39181372 -1.96429995 -9.54173769 -4.09968197 0 0 Z " fill="#FAFAFF" transform="translate(420.4375,103.5)"/>
<path d="M0 0 C4.95 0 9.9 0 15 0 C15.25394531 1.65644531 15.50789062 3.31289062 15.76953125 5.01953125 C17.81566465 18.35130684 19.88156172 31.67951685 22 45 C24.31162073 41.53256891 24.51039805 39.42603066 25 35.3125 C25.08121094 34.65475586 25.16242187 33.99701172 25.24609375 33.31933594 C25.50493937 31.21372639 25.75307769 29.1070382 26 27 C26.32896002 24.24945734 26.66270291 21.49953235 27 18.75 C27.0810498 18.08589111 27.16209961 17.42178223 27.24560547 16.73754883 C27.9493142 11.10996921 28.9177435 5.56589057 30 0 C35.28 0 40.56 0 46 0 C44.44199219 11.79875101 42.33778398 23.46789418 40.16870117 35.16723633 C39.56450333 38.42669266 38.96451715 41.68690241 38.36523438 44.94726562 C36.33157893 55.98382393 34.23965984 67.00334219 32 78 C25.73 78 19.46 78 13 78 C11.45244949 69.24755315 9.90752987 60.49465148 8.36578369 51.74118042 C7.4264808 46.41101944 6.48244583 41.0817161 5.53572083 35.75286865 C4.88771293 32.10180678 4.24255295 28.45024501 3.59793091 24.79858398 C3.28312385 23.01890942 2.96710771 21.2394483 2.64987183 19.46020508 C2.2035298 16.95578738 1.76145077 14.45065127 1.3203125 11.9453125 C1.18622482 11.19883453 1.05213715 10.45235657 0.91398621 9.68325806 C0.33575214 6.37615483 0 3.37224905 0 0 Z " fill="#FAFBFF" transform="translate(911,233)"/>
<path d="M0 0 C11.88 0 23.76 0 36 0 C36 3.96 36 7.92 36 12 C30.06 12 24.12 12 18 12 C18 18.27 18 24.54 18 31 C22.29 31 26.58 31 31 31 C31 34.96 31 38.92 31 43 C26.71 43 22.42 43 18 43 C18 50.59 18 58.18 18 66 C23.94 66 29.88 66 36 66 C36 69.96 36 73.92 36 78 C24.12 78 12.24 78 0 78 C0 52.26 0 26.52 0 0 Z " fill="#F6F7FF" transform="translate(559,103)"/>
<path d="M0 0 C11.55 0 23.1 0 35 0 C35 3.96 35 7.92 35 12 C29.06 12 23.12 12 17 12 C17 18.27 17 24.54 17 31 C21.62 31 26.24 31 31 31 C31 34.96 31 38.92 31 43 C26.38 43 21.76 43 17 43 C17 50.59 17 58.18 17 66 C22.94 66 28.88 66 35 66 C35 69.96 35 73.92 35 78 C23.45 78 11.9 78 0 78 C0 52.26 0 26.52 0 0 Z " fill="#FCFCFF" transform="translate(586,233)"/>
<path d="M0 0 C11.55 0 23.1 0 35 0 C35 3.96 35 7.92 35 12 C29.06 12 23.12 12 17 12 C17 18.27 17 24.54 17 31 C21.62 31 26.24 31 31 31 C31 34.96 31 38.92 31 43 C26.38 43 21.76 43 17 43 C17 50.59 17 58.18 17 66 C22.94 66 28.88 66 35 66 C35 69.96 35 73.92 35 78 C23.45 78 11.9 78 0 78 C0 52.26 0 26.52 0 0 Z " fill="#FBFCFF" transform="translate(294,103)"/>
<path d="M0 0 C13.53 0 27.06 0 41 0 C41 4.29 41 8.58 41 13 C37.04 13 33.08 13 29 13 C29 34.45 29 55.9 29 78 C23.06 78 17.12 78 11 78 C11 56.55 11 35.1 11 13 C7.37 13 3.74 13 0 13 C0 8.71 0 4.42 0 0 Z " fill="#F7F8FF" transform="translate(375,233)"/>
<path d="M0 0 C13.53 0 27.06 0 41 0 C41 4.29 41 8.58 41 13 C37.37 13 33.74 13 30 13 C30 34.45 30 55.9 30 78 C24.06 78 18.12 78 12 78 C12 56.55 12 35.1 12 13 C8.04 13 4.08 13 0 13 C0 8.71 0 4.42 0 0 Z " fill="#F7F8FF" transform="translate(651,103)"/>
<path d="M0 0 C13.53 0 27.06 0 41 0 C41 4.29 41 8.58 41 13 C37.04 13 33.08 13 29 13 C29 34.45 29 55.9 29 78 C23.39 78 17.78 78 12 78 C12 56.55 12 35.1 12 13 C8.04 13 4.08 13 0 13 C0 8.71 0 4.42 0 0 Z " fill="#FDFDFF" transform="translate(838,233)"/>
<path d="M0 0 C5.94 0 11.88 0 18 0 C18 25.74 18 51.48 18 78 C12.06 78 6.12 78 0 78 C0 52.26 0 26.52 0 0 Z " fill="#F5F6FF" transform="translate(885,233)"/>
<path d="M0 0 C5.94 0 11.88 0 18 0 C18 25.74 18 51.48 18 78 C12.06 78 6.12 78 0 78 C0 52.26 0 26.52 0 0 Z " fill="#F5F6FF" transform="translate(422,233)"/>
<path d="M0 0 C5.94 0 11.88 0 18 0 C18 25.74 18 51.48 18 78 C12.06 78 6.12 78 0 78 C0 52.26 0 26.52 0 0 Z " fill="#F5F6FF" transform="translate(350,233)"/>
<path d="M0 0 C5.61 0 11.22 0 17 0 C17 25.74 17 51.48 17 78 C11.39 78 5.78 78 0 78 C0 52.26 0 26.52 0 0 Z " fill="#FDFDFF" transform="translate(765,233)"/>
<path d="M0 0 C2.5 0.5 2.5 0.5 4.13134766 2.35107422 C6.1532184 7.00289171 5.92848259 11.36239284 5.8984375 16.3828125 C5.90274277 17.9596431 5.90274277 17.9596431 5.90713501 19.56832886 C5.90917295 21.78562968 5.90366202 24.00294859 5.89111328 26.22021484 C5.87502427 29.61987265 5.89098822 33.01834733 5.91015625 36.41796875 C5.9081744 38.5729193 5.90433194 40.7278691 5.8984375 42.8828125 C5.90754654 44.41097092 5.90754654 44.41097092 5.9168396 45.97000122 C5.90738312 46.91463226 5.89792664 47.85926331 5.88818359 48.83251953 C5.88579681 49.66349152 5.88341003 50.4944635 5.88095093 51.35061646 C5.40840368 54.0168005 4.65990975 54.90421539 2.5 56.5 C-0.5625 56.875 -0.5625 56.875 -3.5 56.5 C-5.65869783 53.26195326 -5.75491344 52.35639208 -5.7746582 48.6171875 C-5.78419022 47.62605957 -5.79372223 46.63493164 -5.80354309 45.61376953 C-5.80263168 44.54497559 -5.80172028 43.47618164 -5.80078125 42.375 C-5.80506638 41.27655762 -5.8093515 40.17811523 -5.81376648 39.04638672 C-5.81951185 36.72298879 -5.82000853 34.39957287 -5.81567383 32.07617188 C-5.81251244 28.51401234 -5.83597628 24.95268188 -5.86132812 21.390625 C-5.86360087 19.13541772 -5.86430473 16.8802082 -5.86328125 14.625 C-5.872491 13.55620605 -5.88170074 12.48741211 -5.89118958 11.38623047 C-5.88496078 10.39510254 -5.87873199 9.40397461 -5.87231445 8.3828125 C-5.87294388 7.51027832 -5.8735733 6.63774414 -5.8742218 5.73876953 C-5.25718435 2.04736339 -3.5903646 0.71807292 0 0 Z " fill="#253FFF" transform="translate(986.5,243.5)"/>
<path d="M0 0 C2.5 0.5 2.5 0.5 4.13134766 2.35107422 C6.1532184 7.00289171 5.92848259 11.36239284 5.8984375 16.3828125 C5.90274277 17.9596431 5.90274277 17.9596431 5.90713501 19.56832886 C5.90917295 21.78562968 5.90366202 24.00294859 5.89111328 26.22021484 C5.87502427 29.61987265 5.89098822 33.01834733 5.91015625 36.41796875 C5.9081744 38.5729193 5.90433194 40.7278691 5.8984375 42.8828125 C5.90754654 44.41097092 5.90754654 44.41097092 5.9168396 45.97000122 C5.90738312 46.91463226 5.89792664 47.85926331 5.88818359 48.83251953 C5.88579681 49.66349152 5.88341003 50.4944635 5.88095093 51.35061646 C5.40840368 54.0168005 4.65990975 54.90421539 2.5 56.5 C-0.5625 56.875 -0.5625 56.875 -3.5 56.5 C-5.65869783 53.26195326 -5.75491344 52.35639208 -5.7746582 48.6171875 C-5.78419022 47.62605957 -5.79372223 46.63493164 -5.80354309 45.61376953 C-5.80263168 44.54497559 -5.80172028 43.47618164 -5.80078125 42.375 C-5.80506638 41.27655762 -5.8093515 40.17811523 -5.81376648 39.04638672 C-5.81951185 36.72298879 -5.82000853 34.39957287 -5.81567383 32.07617188 C-5.81251244 28.51401234 -5.83597628 24.95268188 -5.86132812 21.390625 C-5.86360087 19.13541772 -5.86430473 16.8802082 -5.86328125 14.625 C-5.872491 13.55620605 -5.88170074 12.48741211 -5.89118958 11.38623047 C-5.88496078 10.39510254 -5.87873199 9.40397461 -5.87231445 8.3828125 C-5.87294388 7.51027832 -5.8735733 6.63774414 -5.8742218 5.73876953 C-5.25718435 2.04736339 -3.5903646 0.71807292 0 0 Z " fill="#253FFF" transform="translate(527.5,243.5)"/>
<path d="M0 0 C2.93429955 0.58685991 3.69458615 1.15888647 5.5 3.5 C5.88095093 5.73876953 5.88095093 5.73876953 5.88818359 8.3828125 C5.89764008 9.37394043 5.90709656 10.36506836 5.9168396 11.38623047 C5.91076691 12.45502441 5.90469421 13.52381836 5.8984375 14.625 C5.90274277 16.27266357 5.90274277 16.27266357 5.90713501 17.95361328 C5.90917736 20.27702347 5.90363563 22.60045078 5.89111328 24.92382812 C5.87506278 28.48606712 5.89095698 32.04717142 5.91015625 35.609375 C5.90817385 37.86458585 5.90433024 40.11979598 5.8984375 42.375 C5.90754654 43.97819092 5.90754654 43.97819092 5.9168396 45.61376953 C5.90738312 46.60489746 5.89792664 47.59602539 5.88818359 48.6171875 C5.88579681 49.48972168 5.88341003 50.36225586 5.88095093 51.26123047 C5.41864297 53.97811836 4.68696144 54.86745702 2.5 56.5 C0 56.875 0 56.875 -2.5 56.5 C-4.62996735 54.89243764 -5.41063508 54.00421055 -5.88095093 51.35061646 C-5.88333771 50.51964447 -5.88572449 49.68867249 -5.88818359 48.83251953 C-5.89764008 47.88788849 -5.90709656 46.94325745 -5.9168396 45.97000122 C-5.91076691 44.95122894 -5.90469421 43.93245667 -5.8984375 42.8828125 C-5.90130768 41.83350555 -5.90417786 40.78419861 -5.90713501 39.70309448 C-5.90917748 37.48223329 -5.90363493 35.26135418 -5.89111328 33.04052734 C-5.87509481 29.64509652 -5.89093983 26.25086191 -5.91015625 22.85546875 C-5.90817322 20.69791404 -5.90432832 18.54036008 -5.8984375 16.3828125 C-5.90451019 15.36808868 -5.91058289 14.35336487 -5.9168396 13.30789185 C-5.7960282 1.15920564 -5.7960282 1.15920564 0 0 Z " fill="#253FFF" transform="translate(720.5,113.5)"/>
<path d="M0 0 C10 0 10 0 12.625 1.3125 C14.88129213 5.72252553 14.61002881 10.1556536 14 15 C12.62747293 18.11937969 12.020457 19.4897715 9 21 C6.03 21 3.06 21 0 21 C0 14.07 0 7.14 0 0 Z " fill="#2942FF" transform="translate(310,245)"/>
<path d="M0 0 C9 0 9 0 12.0625 1.875 C14.78877145 6.27221202 14.77908827 9.95250259 14 15 C11.97368421 19.51315789 11.97368421 19.51315789 9 21 C6.03 21 3.06 21 0 21 C0 14.07 0 7.14 0 0 Z " fill="#2942FF" transform="translate(725,245)"/>
<path d="M0 0 C9.22222222 0 9.22222222 0 12 2 C13.40783127 4.81566255 13.2076814 7.2363707 13.25 10.375 C13.28867187 12.08816406 13.28867187 12.08816406 13.328125 13.8359375 C13 17 13 17 10 21 C6.7 21 3.4 21 0 21 C0 14.07 0 7.14 0 0 Z " fill="#2D46FF" transform="translate(256,115)"/>
<path d="M0 0 C4.95 0 9.9 0 15 0 C13.29856111 4.25359722 11.35279989 7.90453149 8.9375 11.75 C8.57333984 12.33910156 8.20917969 12.92820313 7.83398438 13.53515625 C5.15223689 17.84776311 5.15223689 17.84776311 4 19 C2.31391034 19.07205511 0.62499341 19.08386068 -1.0625 19.0625 C-1.98160156 19.05347656 -2.90070313 19.04445312 -3.84765625 19.03515625 C-4.55792969 19.02355469 -5.26820313 19.01195312 -6 19 C-4.47214176 12.40095271 -2.92382423 6.12610791 0 0 Z " fill="#F8F9FF" transform="translate(360,208)"/>
<path d="M0 0 C0.66 0.33 1.32 0.66 2 1 C3.80826437 9.5501883 4.32626931 18.28135909 4 27 C1.69 27 -0.62 27 -3 27 C-2.27247184 17.96333446 -1.16165032 8.9886923 0 0 Z " fill="#3149FF" transform="translate(814,257)"/>
<path d="M0 0 C0.66 0.33 1.32 0.66 2 1 C3.80826437 9.5501883 4.32626931 18.28135909 4 27 C1.69 27 -0.62 27 -3 27 C-2.27247184 17.96333446 -1.16165032 8.9886923 0 0 Z " fill="#3149FF" transform="translate(459,127)"/>
</svg>
