<?xml version="1.0" encoding="UTF-8"?>
<svg version="1.1" xmlns="http://www.w3.org/2000/svg" width="1080" height="1080">
<path d="M0 0 C356.4 0 712.8 0 1080 0 C1080 356.4 1080 712.8 1080 1080 C723.6 1080 367.2 1080 0 1080 C0 723.6 0 367.2 0 0 Z " fill="#0E7D00" transform="translate(0,0)"/>
<path d="M0 0 C1.33479005 -0.0037408 2.66957792 -0.00834403 4.00436234 -0.01373065 C7.65725545 -0.02592297 11.3100567 -0.02570465 14.96296549 -0.02334189 C18.90857245 -0.02293277 22.85415034 -0.03398197 26.79974365 -0.04345703 C34.52437818 -0.06004732 42.24898217 -0.06556569 49.97363302 -0.06668179 C56.25480852 -0.0676332 62.53597398 -0.07174814 68.8171463 -0.07808304 C86.63845746 -0.09569009 104.45974456 -0.10492275 122.28106448 -0.10342209 C123.72123047 -0.10330222 123.72123047 -0.10330222 125.19049072 -0.10317993 C126.6324219 -0.10305729 126.6324219 -0.10305729 128.10348299 -0.10293217 C143.67923794 -0.10211943 159.25489615 -0.12125555 174.83062312 -0.14945666 C190.83643687 -0.17820704 206.84220346 -0.19199577 222.84804368 -0.19026911 C231.82897163 -0.18960596 240.80979817 -0.19506569 249.79070282 -0.21662521 C257.43768749 -0.23486537 265.08452477 -0.23916112 272.73152182 -0.22560637 C276.62978019 -0.21909097 280.52775601 -0.21890743 284.42598724 -0.23631287 C288.00148531 -0.25211249 291.57647843 -0.2491107 295.15196469 -0.2317446 C297.04354249 -0.22725346 298.93513638 -0.24227784 300.82665229 -0.25822389 C317.21106498 -0.12690647 329.61270813 6.62876043 341.34185791 17.69711304 C351.00338826 27.72437955 357.13835098 41.54507535 357.09257507 55.48042297 C357.09781175 56.27957471 357.10304843 57.07872645 357.1084438 57.9020949 C357.12338036 60.56550849 357.12414756 63.22872889 357.12481689 65.8921814 C357.13244296 67.80811891 357.14087123 69.72405338 357.15003967 71.63998413 C357.17195489 76.83676512 357.18078027 82.03348727 357.18586612 87.23030925 C357.189515 90.48301495 357.19575801 93.73570537 357.20286751 96.98840523 C357.22735737 108.35363564 357.24041168 119.71882049 357.24395752 131.08407593 C357.24758634 141.64781893 357.27743613 152.21127024 357.3193621 162.77492422 C357.35416643 171.86569608 357.36950776 180.95637182 357.37020355 190.0472098 C357.37099329 195.46696349 357.37959105 200.88642029 357.40820122 206.30610466 C357.43455406 211.41246102 357.43649176 216.51827807 357.42054558 221.62467194 C357.41874436 223.4869232 357.42530011 225.3492067 357.44136429 227.21138954 C357.59790953 246.5559861 353.32056879 263.32851449 339.88092041 278.01742554 C327.60996245 289.69762211 311.49312905 294.73737639 294.79888916 294.63851929 C292.5378198 294.65588344 290.27675212 294.67346798 288.01568604 294.69125366 C284.49588092 294.70135742 280.97617896 294.70491122 277.45635986 294.70321655 C274.02856287 294.70678395 270.60154702 294.73409321 267.17388916 294.76351929 C266.12380173 294.75533676 265.07371429 294.74715424 263.99180603 294.73872375 C257.95646405 294.80020783 254.39572196 295.2062037 249.81842041 299.26742554 C247.99222954 301.7810731 247.99222954 301.7810731 246.81842041 304.26742554 C246.48842041 304.92742554 246.15842041 305.58742554 245.81842041 306.26742554 C245.72494549 309.25779277 245.69269308 312.22473032 245.70489502 315.21517944 C245.70467598 316.60550133 245.70467598 316.60550133 245.70445251 318.02391052 C245.70515095 321.09729324 245.71294014 324.17061586 245.72076416 327.24398804 C245.72262859 329.37105272 245.72405237 331.49811784 245.72505188 333.62518311 C245.72887513 339.23118266 245.73870379 344.83715641 245.74975586 350.44314575 C245.75997411 356.16061046 245.76455039 361.87807933 245.76959229 367.59555054 C245.78032621 378.81952022 245.79740034 390.04347074 245.81842041 401.26742554 C242.0843849 399.50831071 239.30791694 397.2010561 236.31842041 394.39242554 C235.49930176 393.6291394 235.49930176 393.6291394 234.66363525 392.85043335 C229.15977228 387.67226938 223.79689353 382.35024786 218.44342041 377.01742554 C217.599729 376.17840698 216.7560376 375.33938843 215.88677979 374.47494507 C210.99164055 369.56720948 206.30089821 364.55434302 201.81842041 359.26742554 C201.34340088 358.70877808 200.86838135 358.15013062 200.37896729 357.57455444 C199.46746242 356.4998191 198.5569652 355.42422827 197.64752197 354.3477478 C192.7447563 348.55990391 187.72456063 342.89336806 182.56842041 337.32992554 C182.0146875 336.72785278 181.46095459 336.12578003 180.89044189 335.50546265 C178.06842203 332.48637319 175.18135568 329.66949318 172.03717041 326.98617554 C168.80205969 324.20917822 165.82129338 321.27361181 162.86529541 318.20101929 C161.99775635 317.30318726 161.13021729 316.40535522 160.23638916 315.48031616 C158.46326955 313.63580448 156.70013282 311.78164208 154.94732666 309.91781616 C148.25919583 303.04692252 139.40246018 295.65492106 129.3231554 295.13993359 C128.32166808 295.13867631 127.32018076 295.13741903 126.28834534 295.13612366 C125.13777649 295.13211548 123.98720764 295.1281073 122.80177307 295.12397766 C121.53794296 295.12450638 120.27411285 295.1250351 118.97198486 295.12557983 C117.62806077 295.12254762 116.2841377 295.11902599 114.94021606 295.11505127 C112.04282326 295.10716069 109.14544279 295.10201648 106.24804115 295.0987606 C101.65209338 295.09283783 97.05622258 295.0762809 92.46031189 295.05741882 C90.88416391 295.05108088 89.30801587 295.04475526 87.73186779 295.03844166 C86.94230611 295.03527585 86.15274443 295.03211004 85.33925664 295.02884829 C74.6421398 294.98687551 63.94505737 294.95386043 53.24786377 294.9414978 C46.03094976 294.93307166 38.81422527 294.91040741 31.59740609 294.87214214 C27.78507408 294.85251988 23.97302447 294.83992991 20.16063881 294.84497643 C-3.01167527 294.8698228 -25.14404552 294.77707369 -42.93157959 277.67367554 C-57.54953211 262.04058743 -59.48711679 243.82173999 -59.45623779 223.40634155 C-59.46059047 221.50155437 -59.46577546 219.59676894 -59.47172546 217.69198608 C-59.4850659 212.54115761 -59.48569974 207.39040274 -59.48316216 202.23956037 C-59.48208924 197.9305303 -59.48698396 193.62151493 -59.49176759 189.31248802 C-59.50284531 179.14307766 -59.50330973 168.97370424 -59.49725342 158.80429077 C-59.49121238 148.33191417 -59.50353198 137.85967188 -59.52482349 127.38731819 C-59.54246481 118.37724408 -59.54843691 109.36721262 -59.54518574 100.35712188 C-59.54337703 94.9840469 -59.5459681 89.61106776 -59.55990028 84.2380085 C-59.57251547 79.18425428 -59.57049966 74.13070888 -59.5574894 69.0769577 C-59.55513222 67.2287406 -59.55782729 65.38050862 -59.56611252 63.53230858 C-59.64322833 44.98404666 -56.22535347 30.25108471 -43.18157959 16.26742554 C-30.49226145 4.2414613 -17.1024143 -0.04309353 0 0 Z " fill="#FDFEFD" transform="translate(532.1815795898438,325.7325744628906)"/>
<path d="M0 0 C0.83323325 -0.00085442 1.66646651 -0.00170885 2.52494925 -0.00258917 C5.31480641 -0.00423527 8.10460334 0.00126319 10.89445496 0.00672913 C12.89516702 0.00701121 14.89587918 0.00685285 16.89659119 0.00628662 C22.32794912 0.00599948 27.75928502 0.01188282 33.19063783 0.01886058 C38.86678598 0.02510791 44.54293463 0.02569901 50.21908569 0.02688599 C60.96767013 0.02999522 71.71624441 0.03820314 82.46482438 0.04823548 C94.70170736 0.05940924 106.93859082 0.06491025 119.17547762 0.06993091 C144.34767818 0.08038607 169.51986971 0.09797765 194.69206238 0.12025452 C194.88397156 1.26478088 195.07588074 2.40930725 195.27360535 3.58851624 C195.53525774 5.11736406 195.79715216 6.64617047 196.05924988 8.17494202 C196.18453064 8.92606262 196.3098114 9.67718323 196.43888855 10.45106506 C199.94119675 30.72931976 210.81544522 49.51554943 227.43595886 61.84681702 C247.09188249 75.68628188 267.56563975 78.39043359 290.89518738 78.53431702 C292.82860613 78.55306055 294.76201697 78.57263625 296.69541931 78.59300232 C301.74554246 78.64399332 306.79569203 78.6837943 311.84593201 78.72114563 C317.0147589 78.76139415 322.18347901 78.81239062 327.35221863 78.86244202 C337.46542451 78.95880938 347.57869115 79.04333765 357.69206238 79.12025452 C357.78571423 100.52213352 357.85614347 121.92397849 357.89931107 143.32602119 C357.91989181 153.2645009 357.94792614 163.2028529 357.99382019 173.14125061 C358.03382586 181.80868301 358.05952777 190.47602287 358.06841636 199.14354503 C358.07360796 203.72831681 358.08571541 208.31282398 358.1149826 212.89751053 C358.14236928 217.2231402 358.15046102 221.54839921 358.1444931 225.87410736 C358.14558304 227.45177864 358.15339739 229.02946384 358.16888428 230.60705948 C358.33873487 248.82055346 353.84657197 264.38163315 341.02799988 277.83900452 C327.12270486 291.41875751 311.15463836 295.47568894 292.1993866 295.31556702 C290.18077288 295.31108413 288.16215915 295.30660177 286.14354539 295.30213928 C283.99320643 295.29543608 281.84294703 295.28374195 279.6926384 295.27058411 C275.19498892 295.24334557 270.69737849 295.23171101 266.19966125 295.2223053 C256.65540814 295.20018977 247.11125092 295.16110487 237.56706238 295.12025452 C227.25356999 295.0761347 216.94011691 295.0350041 206.62654889 295.0134182 C202.16122622 295.00349349 197.69608742 294.98383614 193.23083854 294.95655823 C191.12070769 294.94519537 189.01062241 294.93846879 186.90046692 294.93379211 C184.33597504 294.92808174 181.77148437 294.915222 179.20707703 294.89363098 C158.62578752 294.8910875 148.48171667 305.18275282 134.50065613 319.14369202 C133.67050491 319.97051483 132.8403537 320.79733765 131.98504639 321.6492157 C130.24521444 323.38402594 128.50669692 325.12015535 126.76945496 326.8575592 C124.13774426 329.48707945 121.49812397 332.10848135 118.858078 334.72962952 C110.66911368 342.89171921 102.80746492 350.99799653 95.69206238 360.12025452 C93.8201432 362.27218455 91.89077222 364.34855745 89.94206238 366.43275452 C87.24169433 369.32656998 84.58617635 372.2197175 82.08268738 375.28431702 C80.19359687 377.52529694 78.45327893 379.35351565 76.19206238 381.18275452 C73.18553435 383.68496172 70.42738007 386.31822176 67.69206238 389.12025452 C58.68056813 398.31948823 58.68056813 398.31948823 53.69206238 402.12025452 C53.03206238 402.12025452 52.37206238 402.12025452 51.69206238 402.12025452 C51.57646352 388.1114516 51.66926898 374.1335806 52.12168884 360.13276672 C52.5012626 348.26656029 52.85995891 336.39640663 52.97917175 324.5243988 C52.99587193 323.14866142 53.01959956 321.77298825 53.0509491 320.39750671 C53.22440383 312.5134776 53.05225226 306.81887026 48.69206238 300.12025452 C43.6985334 295.12672554 37.25955579 294.89136385 30.56997681 294.84379578 C29.52616348 294.84479279 28.48235016 294.84578979 27.40690613 294.84681702 C25.16145855 294.82651477 22.91601589 294.80566375 20.670578 294.78431702 C17.15792191 294.76181724 13.64546082 294.74528116 10.13273621 294.73939514 C-7.80702835 294.68879289 -21.36120819 294.01690242 -36.30793762 283.12025452 C-37.25926575 282.46283264 -37.25926575 282.46283264 -38.22981262 281.79212952 C-48.18127403 274.2144112 -55.95301752 260.25151657 -58.30793762 248.12025452 C-58.41023404 245.42663691 -58.46008451 242.75850552 -58.46183777 240.06474304 C-58.46622002 239.24632569 -58.47060228 238.42790833 -58.47511733 237.58469045 C-58.48848719 234.83824201 -58.49468023 232.09182564 -58.50080872 229.34535217 C-58.50871139 227.37735347 -58.51698045 225.40935621 -58.52558899 223.44136047 C-58.5517998 216.97236004 -58.56712021 210.50335319 -58.58137512 204.03431702 C-58.58673604 201.80458446 -58.59211355 199.57485195 -58.59750748 197.34511948 C-58.61913883 188.06492231 -58.63787257 178.78472688 -58.64912987 169.50451088 C-58.66534817 156.22317245 -58.69847171 142.94212755 -58.75553071 129.66089976 C-58.79431178 120.31375622 -58.81377249 110.9666909 -58.81905043 101.61946905 C-58.82269396 96.0421094 -58.83460835 90.46506289 -58.86715317 84.88779068 C-58.89737583 79.63294325 -58.90349514 74.37859608 -58.89176941 69.12368011 C-58.89154983 67.20414483 -58.89975815 65.28458539 -58.91742325 63.36513138 C-59.07869753 44.81838192 -55.12906199 30.66152377 -42.07746887 16.74134827 C-30.31957642 5.77425212 -16.0541535 -0.0603164 0 0 Z " fill="#FDFEFD" transform="translate(251.3079376220703,568.8797454833984)"/>
<path d="M0 0 C16.5 0 33 0 50 0 C50 41.91 50 83.82 50 127 C56.27 127 62.54 127 69 127 C69 137.56 69 148.12 69 159 C62.73 159 56.46 159 50 159 C50 174.18 50 189.36 50 205 C36.8 205 23.6 205 10 205 C10 189.82 10 174.64 10 159 C-10.79 159 -31.58 159 -53 159 C-54.98024162 132.90740457 -50.68161515 116.99076868 -39.61901855 93.72505188 C-35.63971114 85.34687618 -32.09621559 76.81328843 -28.59811401 68.22537231 C-26.874103 64.00051656 -25.12549486 59.78587245 -23.37890625 55.5703125 C-23.02925308 54.72507523 -22.67959991 53.87983795 -22.3193512 53.00898743 C-17.90772931 42.34840671 -13.45444422 31.70524105 -9 21.0625 C-8.60233429 20.11160492 -8.20466858 19.16070984 -7.79495239 18.18099976 C-6.67658343 15.50705714 -5.55723275 12.83352801 -4.4375 10.16015625 C-4.10294296 9.36016205 -3.76838593 8.56016785 -3.4236908 7.7359314 C-1.11532194 2.23064388 -1.11532194 2.23064388 0 0 Z " fill="#FCFDFC" transform="translate(119,104)"/>
<path d="M0 0 C1.04928267 -0.00644889 2.09856535 -0.01289778 3.17964447 -0.0195421 C4.33118487 -0.01644489 5.48272527 -0.01334769 6.66916084 -0.01015663 C7.89341086 -0.01468774 9.11766087 -0.01921886 10.37900937 -0.02388728 C13.77893042 -0.03437119 17.17864023 -0.0358548 20.5785625 -0.03349853 C24.24464168 -0.0330908 27.91068916 -0.04412527 31.57675362 -0.05361366 C38.75983216 -0.07023397 45.94287788 -0.07572367 53.12597404 -0.07683842 C58.96393321 -0.07778837 64.80188153 -0.08189603 70.63983727 -0.08823967 C87.18707472 -0.10585463 103.73428621 -0.1150781 120.28153311 -0.11357872 C121.17379383 -0.11349881 122.06605455 -0.1134189 122.98535347 -0.11333656 C123.87870203 -0.1132548 124.7720506 -0.11317304 125.69247033 -0.1130888 C140.17322658 -0.11227575 154.65387886 -0.13141749 169.13460504 -0.1596133 C183.99895119 -0.18832798 198.8632466 -0.20215438 213.7276212 -0.20042574 C222.07461253 -0.19976137 230.42149485 -0.20527448 238.76846123 -0.22678185 C245.87480232 -0.24497501 252.98098499 -0.24935638 260.08733927 -0.235763 C263.71344844 -0.22922392 267.33925352 -0.22914957 270.96533394 -0.2464695 C274.89555974 -0.2650492 278.82533933 -0.25267015 282.75558662 -0.23720741 C284.47620507 -0.2526381 284.47620507 -0.2526381 286.23158348 -0.26838052 C292.42061356 -0.21439829 296.15382124 0.07321289 300.83935738 4.25726891 C304.49487888 8.39378008 305.49394221 11.63398913 305.22216988 17.01508141 C304.33753105 22.19653737 301.95152713 25.39476991 297.77685738 28.63226891 C293.92414367 30.76355734 291.21144261 31.38264191 286.87984943 31.38869667 C285.33503746 31.39445839 285.33503746 31.39445839 283.75901717 31.4003365 C282.62401866 31.39947002 281.48902016 31.39860354 280.31962776 31.3977108 C279.11664994 31.40068192 277.91367211 31.40365304 276.67424041 31.4067142 C273.32912212 31.41390233 269.98405517 31.41657413 266.63893282 31.41731167 C263.03351427 31.41916111 259.42810689 31.42670788 255.82269478 31.43344688 C247.93635898 31.44703512 240.05002826 31.45305565 232.1636827 31.45745754 C227.24067562 31.46021905 222.31767051 31.46445623 217.39466476 31.46896172 C203.76783274 31.48115487 190.14100229 31.49145419 176.51416492 31.49483681 C175.20566905 31.49516616 175.20566905 31.49516616 173.87073891 31.49550216 C172.55909001 31.49582958 172.55909001 31.49582958 171.22094315 31.49616361 C169.4489725 31.49660707 167.67700185 31.49705364 165.9050312 31.49750328 C165.02607021 31.49772471 164.14710922 31.49794614 163.24151305 31.49817428 C148.99674249 31.50212294 134.75202307 31.51957883 120.50727227 31.5428628 C105.88704584 31.56656789 91.26684508 31.57903827 76.64659911 31.58020473 C68.43598415 31.58112194 60.2254358 31.58688605 52.01483917 31.60502434 C45.02378083 31.62041394 38.0328097 31.62555254 31.04173764 31.61728624 C27.47441334 31.6133757 23.90726475 31.61432881 20.33996201 31.62834358 C16.47324449 31.64339583 12.60677513 31.63522791 8.74003792 31.62476158 C7.04757841 31.63684619 7.04757841 31.63684619 5.3209278 31.64917493 C-1.04750468 31.60873254 -5.88333251 31.24654939 -10.80517387 26.75726891 C-14.46390712 22.05842755 -15.62646982 18.53701755 -15.57861137 12.67914391 C-14.83457898 8.36792815 -12.27201034 5.2330495 -9.16064262 2.25726891 C-6.01749029 0.34427123 -3.65568493 0.00568117 0 0 Z " fill="#117E03" transform="translate(538.1606426239014,404.74273109436035)"/>
<path d="M0 0 C1.21638063 -0.00694553 2.43276125 -0.01389106 3.6860019 -0.02104706 C7.05497772 -0.03616603 10.42306982 -0.03337323 13.79200578 -0.02289402 C17.42811801 -0.01589921 21.06414014 -0.03190215 24.70022583 -0.04489136 C31.82090983 -0.06653274 38.94143402 -0.06640401 46.06214009 -0.05826581 C51.85046469 -0.05196517 57.6387427 -0.05310344 63.4270668 -0.05953789 C64.25100173 -0.06043954 65.07493666 -0.0613412 65.92383931 -0.06227018 C67.59769027 -0.06412139 69.27154121 -0.06598395 70.94539215 -0.06785773 C86.64214915 -0.08443702 102.33881629 -0.07571628 118.03556789 -0.05887216 C132.39201595 -0.04417865 146.74825466 -0.05879839 161.10467575 -0.08764232 C175.84932899 -0.11704538 190.59388563 -0.12800573 205.3385669 -0.11846012 C207.0068608 -0.11743758 208.67515471 -0.11644297 210.34344864 -0.11547661 C211.16425788 -0.11500022 211.98506711 -0.11452383 212.83074936 -0.114033 C218.60995005 -0.11186987 224.3890592 -0.12166767 230.16823959 -0.13624763 C237.21449862 -0.15377632 244.26049087 -0.15364625 251.30673943 -0.13089598 C254.90075853 -0.11975781 258.4943077 -0.11658086 262.08830643 -0.13519669 C265.9871762 -0.15513145 269.88531262 -0.13620687 273.78417969 -0.11352539 C274.91628683 -0.12536112 276.04839397 -0.13719685 277.21480739 -0.14939123 C285.24494241 -0.05441596 290.26386007 1.81150275 295.99172974 7.4599762 C298.1766271 11.82977093 297.57754194 16.78037428 297.01907349 21.5146637 C295.02573165 25.97974942 292.51321742 28.32537626 288.23419487 30.67823696 C283.634423 32.41510438 278.75867184 32.06075954 273.9044342 32.02259827 C272.07646493 32.03195821 272.07646493 32.03195821 270.21156698 32.04150724 C266.84098057 32.05467713 263.47128902 32.04997133 260.10075748 32.03756237 C256.46130069 32.02849948 252.82192121 32.04248765 249.18247986 32.05348206 C242.05791695 32.07125818 234.9335227 32.06743154 227.80895322 32.05583149 C222.01873004 32.04679457 216.22855409 32.04557429 210.43832588 32.04992676 C209.613949 32.05053969 208.78957212 32.05115262 207.94021412 32.05178413 C206.26547323 32.05306304 204.59073235 32.05435989 202.91599149 32.05567449 C187.2164248 32.06707745 171.51695158 32.05397069 155.81740022 32.03247303 C142.34706159 32.01459897 128.87686082 32.01770922 115.40652466 32.03614807 C99.7612376 32.05755409 84.11603241 32.06598234 68.47073275 32.05369902 C66.80249029 32.05242483 65.13424781 32.05116734 63.46600533 32.04992676 C62.23481182 32.0490011 62.23481182 32.0490011 60.97874571 32.04805675 C55.19510448 32.04460329 49.41151519 32.05043203 43.627882 32.05984497 C36.58015232 32.07106321 29.53260085 32.06802854 22.48489159 32.04672199 C18.88915173 32.03620961 15.293709 32.0320927 11.69797134 32.0453186 C7.80072258 32.05943677 3.90396035 32.04257925 0.00672913 32.02259827 C-1.13052158 32.03152115 -2.26777228 32.04044404 -3.43948513 32.04963732 C-9.61013229 31.98808323 -13.2998287 31.66740608 -17.98092651 27.5146637 C-21.41009724 23.81476897 -22.280624 20.9354288 -22.48092651 16.0146637 C-22.280624 11.0938986 -21.41009724 8.21455842 -17.98092651 4.5146637 C-12.42904118 -0.40874416 -7.19299213 -0.05215327 0 0 Z " fill="#107E02" transform="translate(260.9809265136719,740.4853363037109)"/>
<path d="M0 0 C1.12756512 -0.00935994 1.12756512 -0.00935994 2.27790934 -0.01890898 C4.78061458 -0.03478196 7.28233809 -0.0222577 9.78504944 -0.00964355 C11.58589239 -0.01506727 13.3867309 -0.02219133 15.18756104 -0.03088379 C20.06780436 -0.04909168 24.94770875 -0.04205971 29.82795787 -0.02936745 C34.94115138 -0.01922511 40.0543163 -0.0286367 45.16751099 -0.03491211 C53.7545949 -0.04218557 62.34154113 -0.03260938 70.92860413 -0.0135498 C80.84720144 0.00821139 90.76546976 0.00117178 100.68405908 -0.02085543 C109.20827479 -0.03902625 117.73239164 -0.0415593 126.25662047 -0.03110075 C131.34405727 -0.02487419 136.43133961 -0.02400702 141.5187664 -0.0372467 C146.3033425 -0.0488288 151.08749586 -0.04073637 155.87202644 -0.01766968 C157.62473983 -0.01239489 159.37748898 -0.01387525 161.13018799 -0.02272034 C177.60146758 -0.09815917 177.60146758 -0.09815917 184.22669983 4.50793457 C188.42685905 8.97907181 188.68771004 13.79956618 188.64076233 19.70715332 C187.98463143 24.14532178 185.77826258 26.86544862 182.22669983 29.50793457 C178.03460463 31.60191132 174.20151417 31.79555389 169.60452271 31.77536011 C168.4651535 31.78215678 168.4651535 31.78215678 167.30276674 31.78909075 C164.76180535 31.80173415 162.22105831 31.80011444 159.68006897 31.79846191 C157.85657475 31.80444713 156.03308307 31.81125266 154.20959473 31.81881714 C149.25921904 31.83648317 144.3089125 31.84117272 139.35850835 31.84244871 C135.22571471 31.84434833 131.09293715 31.85170642 126.96014971 31.8587929 C117.21053116 31.87507607 107.46094955 31.87996185 97.71131897 31.87854004 C87.65300922 31.87733799 77.59491384 31.89845255 67.53665835 31.93002737 C58.90043155 31.95617234 50.26427486 31.96690811 41.62800878 31.96562922 C36.47016103 31.96511915 31.31250385 31.97082769 26.15469551 31.99198532 C21.3045262 32.0113382 16.4547299 32.01151239 11.6045475 31.99695206 C9.82518215 31.99485933 8.04579362 31.99959245 6.26646805 32.01167297 C3.83582649 32.02710601 1.40647431 32.01783122 -1.0241394 32.00241089 C-1.72696814 32.01269801 -2.42979688 32.02298514 -3.15392345 32.033584 C-8.13561642 31.96381944 -10.91683282 30.59015473 -14.77330017 27.50793457 C-18.2024709 23.80803984 -19.07299766 20.92869967 -19.27330017 16.00793457 C-19.06609918 11.08189808 -18.26144893 8.17496275 -14.77330017 4.50793457 C-9.76128026 1.13904371 -6.08288219 -0.07865214 0 0 Z " fill="#107E02" transform="translate(258.77330017089844,657.4920654296875)"/>
<path d="M0 0 C0.77112456 -0.00694553 1.54224912 -0.01389106 2.33674109 -0.02104706 C4.91706039 -0.03932299 7.49646088 -0.02905143 10.07681274 -0.01878357 C11.92824491 -0.02584183 13.77967131 -0.03458645 15.63108826 -0.04489136 C20.65805579 -0.06740737 25.68470881 -0.06444016 30.71170759 -0.05556989 C34.90903984 -0.05046173 39.1063129 -0.0577513 43.30363905 -0.06504196 C53.20676123 -0.08204853 63.10972935 -0.07846808 73.0128479 -0.06175232 C83.22684847 -0.04483462 93.44042157 -0.06065908 103.65437543 -0.0929752 C112.42567048 -0.11967476 121.19683249 -0.12694596 129.96816409 -0.11846012 C135.20598817 -0.11353144 140.4435551 -0.11574324 145.68134689 -0.13624763 C150.6079473 -0.15461006 155.53393328 -0.14863903 160.46050072 -0.12404823 C162.26685085 -0.11904191 164.07324784 -0.12252549 165.87956047 -0.13519669 C168.34952887 -0.15115025 170.81747967 -0.1361568 173.28735352 -0.11352539 C173.99894225 -0.12536112 174.71053099 -0.13719685 175.44368303 -0.14939123 C180.97789937 -0.04666463 184.29381144 1.90371674 188.2706604 5.5146637 C190.58080171 8.67758444 190.56855948 11.59265266 190.5831604 15.4521637 C190.59991821 16.47181213 190.61667603 17.49146057 190.63394165 18.54200745 C190.20185046 22.07772139 189.51327282 23.74222838 187.2706604 26.5146637 C182.23925962 29.92029338 178.51586237 31.09901058 172.40124512 31.00914001 C171.25825429 31.01638326 171.25825429 31.01638326 170.09217274 31.02377284 C167.55479619 31.03498842 165.01843993 31.01776764 162.48110962 31.00050354 C160.65569792 31.00265076 158.83028756 31.00653047 157.00488281 31.01200867 C152.05870308 31.02168531 147.11288544 31.00642057 142.16674948 30.98610258 C136.98810342 30.9685109 131.80946819 30.97205704 126.63079834 30.9728241 C117.93696039 30.97095238 109.24326226 30.95360421 100.54946899 30.92628479 C90.49796785 30.89481564 80.44661967 30.88428936 70.39507282 30.8857559 C59.6912148 30.88710668 48.98741576 30.87322696 38.28357553 30.85486269 C35.19964658 30.85060023 32.11572714 30.84918037 29.0317955 30.84838486 C24.18741127 30.84637599 19.34315547 30.83416638 14.49881363 30.81405258 C12.72065263 30.80821092 10.94247686 30.80575017 9.16430664 30.80690765 C6.73810401 30.80788935 4.31226093 30.7965754 1.8861084 30.78208923 C0.82954239 30.78673504 0.82954239 30.78673504 -0.24836838 30.7914747 C-4.87205121 30.74585059 -8.79375595 30.31338789 -12.2762146 27.0771637 C-16.69668972 21.33628691 -17.52750595 17.72033216 -16.7293396 10.5146637 C-12.96347798 2.98294047 -8.307358 -0.09560643 0 0 Z " fill="#0E7D00" transform="translate(548.7293395996094,486.48533630371094)"/>
<path d="M0 0 C3.14581423 -0.02888514 6.29159469 -0.04675923 9.4375 -0.0625 C10.33533203 -0.07087891 11.23316406 -0.07925781 12.15820312 -0.08789062 C13.01220703 -0.09111328 13.86621094 -0.09433594 14.74609375 -0.09765625 C15.93223267 -0.10551147 15.93223267 -0.10551147 17.14233398 -0.11352539 C19 0 19 0 20 1 C20.48940155 3.28683312 20.9257145 5.58506357 21.33984375 7.88671875 C21.46686172 8.5813472 21.5938797 9.27597565 21.7247467 9.99165344 C22.26937253 12.97016394 22.80501181 15.95026865 23.34057617 18.93041992 C23.73257642 21.10402178 24.12981365 23.27662253 24.52734375 25.44921875 C24.6451268 26.11507492 24.76290985 26.78093109 24.88426208 27.46696472 C25.61396778 31.44835354 26.63214349 35.19140786 28 39 C28.81831475 35.05315173 29.63616457 31.10620742 30.45361328 27.15917969 C30.73083423 25.8209381 31.00817466 24.48272125 31.28564453 23.14453125 C32.88412376 15.43489858 34.4673056 7.72299411 36 0 C42.27 0 48.54 0 55 0 C55.61888479 26.00421288 56.17830348 51.98750303 56 78 C51.71 78 47.42 78 43 78 C42.97494385 76.83428467 42.9498877 75.66856934 42.92407227 74.4675293 C42.82995309 70.14563869 42.72974331 65.8239071 42.62768555 61.50219727 C42.58435378 59.63114134 42.54267743 57.76004631 42.50268555 55.88891602 C42.44494051 53.20056369 42.38125819 50.51240785 42.31640625 47.82421875 C42.29969376 46.98662521 42.28298126 46.14903168 42.26576233 45.28605652 C42.18085939 41.96326712 42.05749327 39.17247982 41 36 C40.15974242 40.53416948 39.32373114 45.06909499 38.49145508 49.60473633 C38.20840955 51.14400781 37.92425339 52.68307554 37.63891602 54.22192383 C36.17417094 62.12539068 34.72025136 69.98606395 34 78 C30.04 78 26.08 78 22 78 C19.36 63.48 16.72 48.96 14 34 C13.34 48.52 12.68 63.04 12 78 C7.71 78 3.42 78 -1 78 C-1.07244146 60.49331449 -0.85194756 43.00289543 -0.5 25.5 C-0.45161124 23.0078166 -0.40343316 20.5156291 -0.35546875 18.0234375 C-0.2393955 12.0155758 -0.12076893 6.00776905 0 0 Z " fill="#F7FBF7" transform="translate(356,103)"/>
<path d="M0 0 C5.86114205 3.12086784 9.05119608 6.67289984 11.31546021 12.97955322 C12.44597922 17.21954031 12.38481826 21.4402941 12.37109375 25.8046875 C12.3763356 26.79066925 12.38157745 27.776651 12.38697815 28.79251099 C12.39337178 30.86833764 12.39209602 32.94420065 12.38354492 35.02001953 C12.37504299 38.17156467 12.40382171 41.32129002 12.43554688 44.47265625 C12.43715952 46.49999946 12.43658015 48.52734585 12.43359375 50.5546875 C12.45044472 51.94891434 12.45044472 51.94891434 12.46763611 53.37130737 C12.39457271 60.33715502 11.18529221 67.50040087 6.52561951 72.96969604 C-0.68260897 79.31415983 -9.06004149 78.9977825 -18.11328125 78.51220703 C-23.31237288 77.97953457 -26.56894193 75.68495877 -30.375 72.1875 C-34.58403669 65.01654861 -35.51864185 57.4249436 -35.4609375 49.24609375 C-35.46380768 48.32715836 -35.46667786 47.40822296 -35.46963501 46.46144104 C-35.47166089 44.53459042 -35.46623537 42.60771854 -35.45361328 40.6809082 C-35.43751977 37.75359625 -35.45352216 34.82766079 -35.47265625 31.90039062 C-35.47067392 30.01562199 -35.46683045 28.13085421 -35.4609375 26.24609375 C-35.46701019 25.38334335 -35.47308289 24.52059296 -35.4793396 23.63169861 C-35.40287147 16.93674686 -34.47260326 10.33269216 -30.1953125 4.97265625 C-29.53273438 4.44542969 -28.87015625 3.91820313 -28.1875 3.375 C-27.53007812 2.82972656 -26.87265625 2.28445312 -26.1953125 1.72265625 C-18.65595081 -3.26215981 -8.27450159 -3.43496116 0 0 Z " fill="#F9FCF9" transform="translate(333.0625,103.6875)"/>
<path d="M0 0 C6.2910849 4.12073393 8.94226342 9.99756778 10.67578125 17.09765625 C11.0692649 20.33270419 11.12078655 23.52084271 11.109375 26.77734375 C11.11461685 27.6707547 11.1198587 28.56416565 11.1252594 29.48464966 C11.13164087 31.36198901 11.13039329 33.23936856 11.12182617 35.11669922 C11.11332287 37.95874668 11.14212093 40.79877563 11.17382812 43.640625 C11.25757079 64.8418256 11.25757079 64.8418256 4.95483398 72.07177734 C-1.36379574 78.13952715 -8.48889931 78.49940441 -16.91015625 78.33984375 C-23.24240774 77.89064513 -27.31629962 76.51368259 -31.69921875 71.84765625 C-36.91214932 65.73192764 -36.63213739 57.97497813 -36.625 50.37890625 C-36.62928513 49.36219849 -36.63357025 48.34549072 -36.63798523 47.29797363 C-36.6437073 45.15650169 -36.64424451 43.01501032 -36.63989258 40.87353516 C-36.63672883 37.60806011 -36.66023207 34.34348851 -36.68554688 31.078125 C-36.68781979 28.99088655 -36.6885234 26.90364568 -36.6875 24.81640625 C-36.69670975 23.846427 -36.70591949 22.87644775 -36.71540833 21.8770752 C-36.66787226 14.87232615 -35.34278355 10.43605188 -31.69921875 4.41015625 C-23.69014302 -3.38815433 -10.0742711 -4.63804772 0 0 Z " fill="#FBFDFB" transform="translate(810.32421875,103.90234375)"/>
<path d="M0 0 C5.61 0 11.22 0 17 0 C17.01981934 1.8572168 17.03963867 3.71443359 17.06005859 5.62792969 C17.12785202 11.76678301 17.20462907 17.90547263 17.28752708 24.04413986 C17.33745556 27.76571684 17.38378574 31.48726591 17.421875 35.20898438 C17.45877163 38.80120413 17.50514317 42.39318843 17.55806351 45.9852066 C17.57658426 47.35507321 17.59170081 48.72499024 17.60334396 50.09493256 C17.62024532 52.01488656 17.65041426 53.93470986 17.68115234 55.85449219 C17.69447601 56.94703308 17.70779968 58.03957397 17.7215271 59.16522217 C17.99536721 61.95283949 18.56055693 63.62670059 20 66 C22.41645782 66.16687448 22.41645782 66.16687448 25 66 C27.73306029 63.26693971 27.27381961 61.7253334 27.31884766 57.89794922 C27.33871735 56.61677216 27.35858704 55.33559509 27.37905884 54.01559448 C27.39093617 52.61196058 27.40259898 51.20832484 27.4140625 49.8046875 C27.43276692 48.37263869 27.45233978 46.94060098 27.4727478 45.50857544 C27.52415206 41.73735083 27.56373311 37.96609045 27.60089111 34.19470215 C27.640879 30.34715874 27.69199504 26.49976517 27.7421875 22.65234375 C27.83904497 15.10165731 27.92238971 7.5509133 28 0 C33.94 0 39.88 0 46 0 C46.09076364 7.91109876 46.16398016 15.8217853 46.20724869 23.73326683 C46.22802687 27.40782562 46.2561623 31.08200637 46.30175781 34.75634766 C46.34556907 38.30958335 46.36921035 41.86245796 46.37950897 45.41594315 C46.39037784 47.41546807 46.42154635 49.41484993 46.45318604 51.41415405 C46.45512697 59.38368058 46.02060953 67.32423216 40.58770752 73.64242554 C33.41774694 80.02434751 24.9860893 79.68440453 15.94921875 79.19970703 C10.66318437 78.65812686 7.34930665 76.34930665 3.625 72.625 C0.56548134 67.68270062 -0.24981711 63.20372932 -0.22705078 57.44384766 C-0.22689972 56.16297272 -0.22674866 54.88209778 -0.22659302 53.56240845 C-0.21638209 52.17962485 -0.20595014 50.79684288 -0.1953125 49.4140625 C-0.19157835 47.98774413 -0.18873328 46.56142318 -0.18673706 45.13510132 C-0.17913219 41.39667573 -0.15951109 37.65840767 -0.1373291 33.92004395 C-0.11680257 30.09906138 -0.10772084 26.27805316 -0.09765625 22.45703125 C-0.07626189 14.97127433 -0.04110578 7.48567938 0 0 Z " fill="#F7FAF7" transform="translate(423,103)"/>
<path d="M0 0 C5.64357771 2.96864775 9.00087982 7.28110182 10.9375 13.375 C11.19507648 18.05774033 11.02524542 22.68061981 10.9375 27.375 C5.3275 27.375 -0.2825 27.375 -6.0625 27.375 C-6.2578125 23.79427083 -6.453125 20.21354167 -6.6484375 16.6328125 C-6.73491106 13.29438301 -6.73491106 13.29438301 -9.0625 11.375 C-11.5625 11.04166667 -11.5625 11.04166667 -14.0625 11.375 C-16.55222763 13.86472763 -16.31491448 14.61923154 -16.32128906 18.05249023 C-16.32759338 19.02367294 -16.33389771 19.99485565 -16.34039307 20.99546814 C-16.3363446 22.04754959 -16.33229614 23.09963104 -16.328125 24.18359375 C-16.33003845 25.26125504 -16.3319519 26.33891632 -16.33392334 27.44923401 C-16.33528619 29.73153924 -16.33158284 32.01385219 -16.32324219 34.29614258 C-16.31255465 37.79461057 -16.32312897 41.2925638 -16.3359375 44.79101562 C-16.33461572 47.00520947 -16.33205294 49.21940299 -16.328125 51.43359375 C-16.33217346 52.48365097 -16.33622192 53.53370819 -16.34039307 54.61558533 C-16.33408875 55.5899202 -16.32778442 56.56425507 -16.32128906 57.56811523 C-16.31969788 58.42590073 -16.31810669 59.28368622 -16.31646729 60.16746521 C-16.199252 62.66383826 -16.199252 62.66383826 -14.0625 65.375 C-11.5625 65.875 -11.5625 65.875 -9.0625 65.375 C-6.63770264 61.73780395 -6.67587423 59.51796518 -6.4375 55.1875 C-6.31375 52.939375 -6.19 50.69125 -6.0625 48.375 C-0.4525 48.375 5.1575 48.375 10.9375 48.375 C11.52208198 66.88676262 11.52208198 66.88676262 5.0625 73.8125 C0.61275687 77.769045 -3.12904252 78.65097477 -9.0625 78.375 C-9.0625 80.025 -9.0625 81.675 -9.0625 83.375 C-8.44761719 83.48457031 -7.83273437 83.59414062 -7.19921875 83.70703125 C-5.98685547 83.94486328 -5.98685547 83.94486328 -4.75 84.1875 C-3.54923828 84.41373047 -3.54923828 84.41373047 -2.32421875 84.64453125 C0.27600945 85.48432861 1.35517951 86.15173956 2.9375 88.375 C3.76492751 92.84012681 3.81430793 97.02606472 1.3125 100.875 C-4.11790449 104.30472915 -8.80993143 104.68250337 -15.0625 104.375 C-16.5475 103.88 -16.5475 103.88 -18.0625 103.375 C-18.0625 101.065 -18.0625 98.755 -18.0625 96.375 C-13.1125 95.88 -13.1125 95.88 -8.0625 95.375 C-8.3925 93.725 -8.7225 92.075 -9.0625 90.375 C-11.0425 89.715 -13.0225 89.055 -15.0625 88.375 C-15.0625 85.075 -15.0625 81.775 -15.0625 78.375 C-16.25875 78.2925 -17.455 78.21 -18.6875 78.125 C-23.06916019 77.53768752 -25.69361824 76.36956157 -29.0625 73.375 C-34.38784853 65.67483388 -35.22428835 58.97973781 -35.30078125 49.83203125 C-35.31288887 48.44657356 -35.31288887 48.44657356 -35.32524109 47.03312683 C-35.33904415 45.0806158 -35.34978312 43.12808102 -35.35766602 41.17553711 C-35.3691705 39.19239152 -35.38959794 37.20927653 -35.41918945 35.22631836 C-35.46214887 32.34467762 -35.47807458 29.46395365 -35.48828125 26.58203125 C-35.50578934 25.70875687 -35.52329742 24.83548248 -35.54133606 23.93574524 C-35.51694179 16.8982281 -34.14085154 9.80866878 -29.31221008 4.42268372 C-21.36630144 -2.8661261 -9.9655129 -4.01970268 0 0 Z " fill="#F8FBF7" transform="translate(703.0625,103.625)"/>
<path d="M0 0 C3.96 0 7.92 0 12 0 C17.55931902 11.46609549 22.33740241 23.13900614 27 35 C27.33 23.45 27.66 11.9 28 0 C32.62 0 37.24 0 42 0 C42 25.74 42 51.48 42 78 C38.04 78 34.08 78 30 78 C25.38 66.45 20.76 54.9 16 43 C15.67 54.55 15.34 66.1 15 78 C10.05 78 5.1 78 0 78 C0 52.26 0 26.52 0 0 Z " fill="#FBFDFB" transform="translate(480,103)"/>
<path d="M0 0 C6.6 0 13.2 0 20 0 C22.74953739 11.36761866 24.89155416 22.81197624 27 34.3125 C27.51740471 37.11866824 28.03561324 39.9246871 28.55395508 42.73068237 C28.89083152 44.55740419 29.22662056 46.3843269 29.5612793 48.2114563 C30.32582103 52.38149759 31.10148394 56.54828531 31.91796875 60.70849609 C32.05904053 61.43425339 32.2001123 62.16001068 32.34545898 62.90776062 C32.72092452 64.8314975 33.10239841 66.75405904 33.484375 68.67651367 C34 72 34 72 34 78 C28.72 78 23.44 78 18 78 C16.77731709 72.34509154 16 67.84044472 16 62 C12.04 62 8.08 62 4 62 C3.855625 63.711875 3.71125 65.42375 3.5625 67.1875 C3.24861109 70.90932563 2.73741485 74.31292574 2 78 C-3.28 78 -8.56 78 -14 78 C-14 70.12590271 -14 70.12590271 -13.23730469 66.34765625 C-13.07002869 65.50146729 -12.90275269 64.65527832 -12.73040771 63.78344727 C-12.54609192 62.88553467 -12.36177612 61.98762207 -12.171875 61.0625 C-11.88645844 59.62765259 -11.88645844 59.62765259 -11.59527588 58.16381836 C-10.98646432 55.1079155 -10.36880996 52.05389247 -9.75 49 C-8.94926262 45.02159955 -8.15290229 41.04234456 -7.359375 37.0625 C-7.06432068 35.58801392 -7.06432068 35.58801392 -6.76330566 34.08374023 C-5.11973887 25.79118333 -3.65413299 17.47241088 -2.26849365 9.13305664 C-2.11575989 8.22547607 -1.96302612 7.31789551 -1.80566406 6.3828125 C-1.6735553 5.58246582 -1.54144653 4.78211914 -1.40533447 3.95751953 C-1 2 -1 2 0 0 Z " fill="#F8FBF8" transform="translate(734,103)"/>
<path d="M0 0 C3.31248187 -0.02888146 6.62493167 -0.04675799 9.9375 -0.0625 C10.88302734 -0.07087891 11.82855469 -0.07925781 12.80273438 -0.08789062 C14.15141602 -0.09272461 14.15141602 -0.09272461 15.52734375 -0.09765625 C16.77632446 -0.10551147 16.77632446 -0.10551147 18.05053711 -0.11352539 C20 0 20 0 21 1 C21.60266872 3.84831803 22.15294299 6.69078692 22.671875 9.5546875 C22.83471985 10.43550995 22.9975647 11.3163324 23.16534424 12.22384644 C23.69742827 15.10686801 24.22390641 17.99087976 24.75 20.875 C25.11168172 22.84543223 25.47366147 24.81580977 25.8359375 26.78613281 C26.37907641 29.74066221 26.9218639 32.69525188 27.4630127 35.65014648 C28.50044659 41.31013404 29.55707211 46.96585799 30.640625 52.6171875 C30.87426758 53.84453613 31.10791016 55.07188477 31.34863281 56.33642578 C31.77037783 58.54663524 32.19652591 60.75601095 32.62792969 62.96435547 C32.81258789 63.94033691 32.99724609 64.91631836 33.1875 65.921875 C33.34605469 66.74268555 33.50460937 67.56349609 33.66796875 68.40917969 C34.07459815 71.58208498 34 74.80114467 34 78 C28.72 78 23.44 78 18 78 C17.34 72.72 16.68 67.44 16 62 C12.04 62 8.08 62 4 62 C4.04125 63.340625 4.0825 64.68125 4.125 66.0625 C4.26740148 70.69054811 3.39067637 73.13263271 2 78 C-3.28 78 -8.56 78 -14 78 C-12.62652256 65.78737847 -10.54345994 53.85697938 -8.125 41.8125 C-7.76436786 39.9949932 -7.40434545 38.17736532 -7.04492188 36.35961914 C-6.34603168 32.82626811 -5.64500164 29.29335349 -4.94238281 25.76074219 C-3.76438983 19.8254132 -2.62419157 13.88326007 -1.5 7.9375 C-1.34031738 7.09485596 -1.18063477 6.25221191 -1.01611328 5.3840332 C-0.67649046 3.58952904 -0.33805409 1.79480035 0 0 Z " fill="#F9FBF8" transform="translate(627,103)"/>
<path d="M0 0 C4.300573 2.75492945 6.49065846 6.52275662 8.09765625 11.34375 C8.16801064 13.91872068 8.19114965 16.45824929 8.16015625 19.03125 C8.13953125 21.444375 8.11890625 23.8575 8.09765625 26.34375 C2.48765625 26.34375 -3.12234375 26.34375 -8.90234375 26.34375 C-9.09765625 22.76302083 -9.29296875 19.18229167 -9.48828125 15.6015625 C-9.57475481 12.26313301 -9.57475481 12.26313301 -11.90234375 10.34375 C-14.40234375 9.92708333 -14.40234375 9.92708333 -16.90234375 10.34375 C-19.01915733 13.51897037 -19.15404764 14.3008577 -19.16113281 17.93530273 C-19.16743713 18.86314072 -19.17374146 19.7909787 -19.18023682 20.74693298 C-19.17618835 21.74696854 -19.17213989 22.74700409 -19.16796875 23.77734375 C-19.1698822 24.80682632 -19.17179565 25.8363089 -19.17376709 26.89698792 C-19.17512854 29.07496383 -19.17143492 31.25294787 -19.16308594 33.4309082 C-19.15239691 36.7646714 -19.16297714 40.09789436 -19.17578125 43.43164062 C-19.17445943 45.54687619 -19.17189659 47.66211142 -19.16796875 49.77734375 C-19.17201721 50.77535507 -19.17606567 51.77336639 -19.18023682 52.80162048 C-19.1739325 53.73261063 -19.16762817 54.66360077 -19.16113281 55.62280273 C-19.15954163 56.43982162 -19.15795044 57.25684052 -19.15631104 58.09861755 C-18.87706804 60.56719339 -18.13641013 62.20514947 -16.90234375 64.34375 C-14.59234375 64.34375 -12.28234375 64.34375 -9.90234375 64.34375 C-9.57234375 58.73375 -9.24234375 53.12375 -8.90234375 47.34375 C-3.29234375 47.34375 2.31765625 47.34375 8.09765625 47.34375 C8.9044185 65.09251953 8.9044185 65.09251953 3.09765625 72.34375 C0.7955909 74.19133034 -1.15324268 75.15074388 -3.90234375 76.34375 C-4.89234375 76.83875 -4.89234375 76.83875 -5.90234375 77.34375 C-8.64708415 77.52205582 -11.34313427 77.62142275 -14.08984375 77.65625 C-15.20456055 77.69975586 -15.20456055 77.69975586 -16.34179688 77.74414062 C-23.38971076 77.82444113 -27.55515924 75.63758941 -32.65234375 70.65625 C-37.57557535 64.20252857 -38.36349977 56.52947272 -38.3359375 48.6640625 C-38.34117935 47.77065155 -38.3464212 46.8772406 -38.3518219 45.95675659 C-38.35820337 44.07941724 -38.35695579 42.20203769 -38.34838867 40.32470703 C-38.33988537 37.48265957 -38.36868343 34.64263062 -38.40039062 31.80078125 C-38.48413329 10.59958065 -38.48413329 10.59958065 -32.18139648 3.36962891 C-23.6705131 -4.80333158 -10.29526223 -4.68727386 0 0 Z " fill="#F8FBF8" transform="translate(598.90234375,104.65625)"/>
<path d="M0 0 C5.64357771 2.96864775 9.00087982 7.28110182 10.9375 13.375 C11.19507648 18.05774033 11.02524542 22.68061981 10.9375 27.375 C5.3275 27.375 -0.2825 27.375 -6.0625 27.375 C-6.2578125 23.79427083 -6.453125 20.21354167 -6.6484375 16.6328125 C-6.73491106 13.29438301 -6.73491106 13.29438301 -9.0625 11.375 C-11.5625 11.04166667 -11.5625 11.04166667 -14.0625 11.375 C-16.55222763 13.86472763 -16.31491448 14.61923154 -16.32128906 18.05249023 C-16.32759338 19.02367294 -16.33389771 19.99485565 -16.34039307 20.99546814 C-16.3363446 22.04754959 -16.33229614 23.09963104 -16.328125 24.18359375 C-16.33003845 25.26125504 -16.3319519 26.33891632 -16.33392334 27.44923401 C-16.33528619 29.73153924 -16.33158284 32.01385219 -16.32324219 34.29614258 C-16.31255465 37.79461057 -16.32312897 41.2925638 -16.3359375 44.79101562 C-16.33461572 47.00520947 -16.33205294 49.21940299 -16.328125 51.43359375 C-16.33217346 52.48365097 -16.33622192 53.53370819 -16.34039307 54.61558533 C-16.33408875 55.5899202 -16.32778442 56.56425507 -16.32128906 57.56811523 C-16.31969788 58.42590073 -16.31810669 59.28368622 -16.31646729 60.16746521 C-16.199252 62.66383826 -16.199252 62.66383826 -14.0625 65.375 C-11.5625 65.875 -11.5625 65.875 -9.0625 65.375 C-6.63770264 61.73780395 -6.67587423 59.51796518 -6.4375 55.1875 C-6.31375 52.939375 -6.19 50.69125 -6.0625 48.375 C-0.4525 48.375 5.1575 48.375 10.9375 48.375 C11.52208198 66.88676262 11.52208198 66.88676262 5.0625 73.8125 C-0.29164482 78.94721266 -6.67426032 78.78689201 -13.67700195 78.73193359 C-19.15623395 78.58685867 -23.94948301 78.3760289 -28.0625 74.375 C-34.16240745 66.37224531 -35.21899104 59.61323756 -35.30078125 49.83203125 C-35.31288887 48.44657356 -35.31288887 48.44657356 -35.32524109 47.03312683 C-35.33904415 45.0806158 -35.34978312 43.12808102 -35.35766602 41.17553711 C-35.3691705 39.19239152 -35.38959794 37.20927653 -35.41918945 35.22631836 C-35.46214887 32.34467762 -35.47807458 29.46395365 -35.48828125 26.58203125 C-35.50578934 25.70875687 -35.52329742 24.83548248 -35.54133606 23.93574524 C-35.51694179 16.8982281 -34.14085154 9.80866878 -29.31221008 4.42268372 C-21.36630144 -2.8661261 -9.9655129 -4.01970268 0 0 Z " fill="#F9FBF8" transform="translate(279.0625,103.625)"/>
<path d="M0 0 C5.94 0 11.88 0 18 0 C18 25.74 18 51.48 18 78 C12.06 78 6.12 78 0 78 C0 52.26 0 26.52 0 0 Z " fill="#F4F9F4" transform="translate(533,103)"/>
<path d="M0 0 C0.33 0 0.66 0 1 0 C1 27.39 1 54.78 1 83 C-8.9 83 -18.8 83 -29 83 C-26.74992429 72.87465932 -26.74992429 72.87465932 -24.94042969 67.90795898 C-24.53951111 66.79907822 -24.13859253 65.69019745 -23.7255249 64.54771423 C-23.29532043 63.37567947 -22.86511597 62.20364471 -22.421875 60.99609375 C-21.74828949 59.1410598 -21.74828949 59.1410598 -21.06109619 57.24855042 C-19.87158971 53.97321115 -18.67528745 50.70039457 -17.4776001 47.42803955 C-16.27876572 44.1483159 -15.08711885 40.86598336 -13.89453125 37.58398438 C-9.32938862 25.03115267 -4.73518239 12.4898476 0 0 Z " fill="#117E03" transform="translate(128,148)"/>
<path d="M0 0 C2.11076435 3.16614653 2.25413059 3.95254782 2.2746582 7.57568359 C2.28419022 8.50029388 2.29372223 9.42490417 2.30354309 10.37753296 C2.30263168 11.37443146 2.30172028 12.37132996 2.30078125 13.3984375 C2.30506638 14.4255484 2.3093515 15.4526593 2.31376648 16.51089478 C2.31951184 18.68466454 2.32000853 20.85845353 2.31567383 23.03222656 C2.31251884 26.35515266 2.33595372 29.67718434 2.36132812 33 C2.36360161 35.11197804 2.36430439 37.22395848 2.36328125 39.3359375 C2.372491 40.32878754 2.38170074 41.32163757 2.39118958 42.34457397 C2.33158533 51.25263829 2.33158533 51.25263829 -1 55 C-4 55.625 -4 55.625 -7 55 C-10.99791044 50.46504806 -10.41756783 45.29474316 -10.36328125 39.58984375 C-10.36377975 38.58538712 -10.36427826 37.58093048 -10.36479187 36.54603577 C-10.36245573 34.42707333 -10.35275439 32.3081079 -10.33618164 30.18920898 C-10.31255862 26.94554865 -10.31562822 23.70270908 -10.32226562 20.45898438 C-10.31668956 18.3984326 -10.30958013 16.33788428 -10.30078125 14.27734375 C-10.30169266 13.30748032 -10.30260406 12.33761688 -10.30354309 11.33836365 C-10.29401108 10.43384964 -10.28447906 9.52933563 -10.2746582 8.59741211 C-10.27005081 7.80419052 -10.26544342 7.01096893 -10.26069641 6.19371033 C-9.96648984 3.71801844 -9.31636489 2.10930599 -8 0 C-5.06791253 -1.46604374 -3.11702298 -0.77925574 0 0 Z " fill="#17820A" transform="translate(801,115)"/>
<path d="M0 0 C2.99469289 0.44920393 3.68024141 1.00489302 5.5 3.375 C5.88095093 5.61376953 5.88095093 5.61376953 5.88818359 8.2578125 C5.89764008 9.24894043 5.90709656 10.24006836 5.9168396 11.26123047 C5.91076691 12.33002441 5.90469421 13.39881836 5.8984375 14.5 C5.90274277 16.14766357 5.90274277 16.14766357 5.90713501 17.82861328 C5.90917736 20.15202347 5.90363563 22.47545078 5.89111328 24.79882812 C5.87506278 28.36106712 5.89095698 31.92217142 5.91015625 35.484375 C5.90817385 37.73958585 5.90433024 39.99479598 5.8984375 42.25 C5.90754654 43.85319092 5.90754654 43.85319092 5.9168396 45.48876953 C5.90738312 46.47989746 5.89792664 47.47102539 5.88818359 48.4921875 C5.88579681 49.36472168 5.88341003 50.23725586 5.88095093 51.13623047 C5.41864297 53.85311836 4.68696144 54.74245702 2.5 56.375 C0 56.75 0 56.75 -2.5 56.375 C-4.68696144 54.74245702 -5.41864297 53.85311836 -5.88095093 51.13623047 C-5.88333771 50.26369629 -5.88572449 49.39116211 -5.88818359 48.4921875 C-5.89764008 47.50105957 -5.90709656 46.50993164 -5.9168396 45.48876953 C-5.91076691 44.41997559 -5.90469421 43.35118164 -5.8984375 42.25 C-5.90130768 41.15155762 -5.90417786 40.05311523 -5.90713501 38.92138672 C-5.90917736 36.59797653 -5.90363563 34.27454922 -5.89111328 31.95117188 C-5.87506278 28.38893288 -5.89095698 24.82782858 -5.91015625 21.265625 C-5.90817385 19.01041415 -5.90433024 16.75520402 -5.8984375 14.5 C-5.90451019 13.43120605 -5.91058289 12.36241211 -5.9168396 11.26123047 C-5.90738312 10.27010254 -5.89792664 9.27897461 -5.88818359 8.2578125 C-5.88579681 7.38527832 -5.88341003 6.51274414 -5.88095093 5.61376953 C-5.25414195 1.93014329 -3.63537791 0.54530669 0 0 Z " fill="#117E03" transform="translate(321.5,113.625)"/>
<path d="M0 0 C0.99 0.66 1.98 1.32 3 2 C5.32387947 2.39387788 7.65793749 2.73486085 10 3 C10 2.01 10 1.02 10 0 C12.31 0 14.62 0 17 0 C17.20837644 4.09806991 17.33579156 7.07163509 15.9375 10.9375 C14 13 14 13 10.75 14.0625 C5.9142793 13.98190465 4.06469062 12.5308451 0 10 C-1.32 10 -2.64 10 -4 10 C-4.33 10.99 -4.66 11.98 -5 13 C-7.64 13 -10.28 13 -13 13 C-13.49029622 5.76813075 -13.49029622 5.76813075 -11.125 2.0625 C-7.30642049 -1.64376835 -5.11332274 -0.98678158 0 0 Z " fill="#F4F9F4" transform="translate(742,81)"/>
<path d="M0 0 C0.33 0 0.66 0 1 0 C1.50508972 3.89519106 2.00317733 7.79124657 2.5 11.6875 C2.64308594 12.79029297 2.78617188 13.89308594 2.93359375 15.02929688 C3.06894531 16.09599609 3.20429687 17.16269531 3.34375 18.26171875 C3.46943359 19.24100342 3.59511719 20.22028809 3.72460938 21.22924805 C3.98432795 23.84232089 4.05025329 26.37635968 4 29 C1.69 29 -0.62 29 -3 29 C-3.26942834 22.77321163 -2.83735382 16.73340794 -2.0625 10.5625 C-1.97564941 9.86447266 -1.88879883 9.16644531 -1.79931641 8.44726562 C-1.41107732 5.49923205 -0.94290398 2.82871193 0 0 Z " fill="#228715" transform="translate(637,125)"/>
<path d="M0 0 C0.33 0 0.66 0 1 0 C1.50579714 3.04080421 2.00480759 6.08246646 2.5 9.125 C2.64308594 9.9809375 2.78617188 10.836875 2.93359375 11.71875 C3.65695734 16.19671505 4.17918816 20.44563435 4 25 C1.36 25 -1.28 25 -4 25 C-3.71682059 21.95732762 -3.42376386 18.91614859 -3.125 15.875 C-3.04636719 15.0190625 -2.96773437 14.163125 -2.88671875 13.28125 C-2.41779282 8.59199072 -1.72786571 4.42856339 0 0 Z " fill="#1E8511" transform="translate(744,129)"/>
</svg>
