<?xml version="1.0" encoding="UTF-8"?>
<svg version="1.1" xmlns="http://www.w3.org/2000/svg" width="1080" height="1080">
<path d="M0 0 C356.4 0 712.8 0 1080 0 C1080 356.4 1080 712.8 1080 1080 C723.6 1080 367.2 1080 0 1080 C0 723.6 0 367.2 0 0 Z " fill="#EC6964" transform="translate(0,0)"/>
<path d="M0 0 C1.54046997 -0.0049926 1.54046997 -0.0049926 3.11206055 -0.01008606 C5.273433 -0.01511503 7.43481311 -0.01749564 9.59619141 -0.01733398 C12.83900348 -0.01950713 16.08146721 -0.03766996 19.32421875 -0.05664062 C35.47767917 -0.10092966 51.37375204 0.77202294 67.25 3.91796875 C68.09651123 4.08135742 68.94302246 4.24474609 69.81518555 4.41308594 C79.66051644 6.39933735 89.27631929 9.23442615 98.875 12.16796875 C98.875 12.82796875 98.875 13.48796875 98.875 14.16796875 C98.03839844 14.61785156 97.20179688 15.06773437 96.33984375 15.53125 C75.38711155 27.02283275 55.15014323 42.72186945 39.875 61.16796875 C39.153125 61.97878906 38.43125 62.78960937 37.6875 63.625 C7.9654681 97.68149488 -10.7893468 145.0300084 -9.33056641 190.35693359 C-9.03032403 194.46262328 -8.16107315 198.31822352 -7.125 202.29296875 C-2.59362723 219.78209749 -4.35342373 235.16672286 -13.11328125 250.88671875 C-15.73512941 255.16313128 -18.69762592 259.08709116 -21.765625 263.05078125 C-25.60884943 268.12841883 -29.05184495 273.46486989 -32.54833984 278.78320312 C-34.4119596 281.60200737 -36.29322759 284.40864995 -38.17578125 287.21484375 C-38.88855225 288.27864258 -39.60132324 289.34244141 -40.33569336 290.43847656 C-41.75303403 292.55337587 -43.17176438 294.66734468 -44.59204102 296.78027344 C-46.45432994 299.56492783 -48.29849668 302.35973328 -50.125 305.16796875 C-50.79160645 306.19108154 -50.79160645 306.19108154 -51.47167969 307.23486328 C-54.94609344 312.87885541 -54.94494103 317.7339417 -54.125 324.16796875 C-52.40084932 330.60931821 -49.46409406 334.22268059 -44.125 338.16796875 C-41.75036511 339.51224501 -39.42525085 340.75358275 -36.9765625 341.9375 C-36.31917084 342.26336594 -35.66177917 342.58923187 -34.98446655 342.92497253 C-32.90998471 343.95113153 -30.83019325 344.9659463 -28.75 345.98046875 C-27.33166298 346.67959192 -25.91369046 347.37945507 -24.49609375 348.08007812 C-21.04321337 349.78461735 -17.58552868 351.47901467 -14.125 353.16796875 C-14.5895331 354.87638658 -15.05445475 356.58469877 -15.51953125 358.29296875 C-15.79361816 359.29972656 -16.06770508 360.30648438 -16.35009766 361.34375 C-16.912309 363.39279249 -17.48890848 365.43790452 -18.07421875 367.48046875 C-20.41185471 375.98995837 -22.32295822 385.22679698 -17.73828125 393.3125 C-13.87194522 397.75925451 -8.34155013 400.55969369 -3.125 403.16796875 C-3.58941579 406.23311296 -4.26559182 408.44352872 -5.6875 411.23046875 C-8.18614826 416.89572075 -8.17494051 423.61478026 -6.43359375 429.5078125 C-4.76587513 433.14329952 -3.24183488 435.07155744 -0.0859375 437.67578125 C4.1961234 441.88191444 4.15456628 446.93836146 4.625 452.66796875 C4.85277007 454.82683289 5.08063417 456.98568711 5.30859375 459.14453125 C5.50024828 461.15207348 5.68931688 463.15986541 5.875 465.16796875 C6.81351604 475.29372679 8.14443209 483.69312598 15.80078125 491.0078125 C23.80403103 497.36379145 30.63289276 498.62889309 40.65234375 498.6015625 C41.77766006 498.60680435 42.90297638 498.6120462 44.06239319 498.6174469 C46.4350604 498.62385171 48.80775942 498.62255016 51.18041992 498.61401367 C54.79729106 498.60550453 58.41258152 498.63428789 62.02929688 498.66601562 C64.34114536 498.66762791 66.65299663 498.66704958 68.96484375 498.6640625 C70.57612404 498.68091347 70.57612404 498.68091347 72.21995544 498.69810486 C78.51886564 498.64005311 83.70641877 498.02197065 88.875 494.16796875 C91.6386989 490.19515158 92.57523436 486.96957577 91.875 482.16796875 C89.53867589 477.75491209 87.44771009 475.16802601 82.875 473.16796875 C79.16797074 472.80083618 75.49344515 472.91502711 71.7734375 473.015625 C69.5703149 473.04380815 67.36718981 473.07179712 65.1640625 473.09960938 C61.69645761 473.16193561 58.22909359 473.23091503 54.76171875 473.30493164 C51.41148231 473.37109217 48.06157321 473.41317762 44.7109375 473.453125 C43.67029144 473.4831813 42.62964539 473.51323761 41.5574646 473.54420471 C40.59281281 473.55418991 39.62816101 473.56417511 38.63427734 473.57446289 C37.78554047 473.59239395 36.93680359 473.61032501 36.06234741 473.62879944 C33.875 473.16796875 33.875 473.16796875 32.10832214 471.31593323 C30.5135112 468.53839674 30.38367329 466.41493538 30.21484375 463.22265625 C30.14330078 462.0625 30.07175781 460.90234375 29.99804688 459.70703125 C29.93681641 458.49789063 29.87558594 457.28875 29.8125 456.04296875 C29.33012934 438.77434307 29.33012934 438.77434307 21.0625 424.23046875 C19.62604088 421.73556607 19.69561822 420.07248088 20.21484375 417.2734375 C21.03157413 414.66859918 22.21556792 412.35835161 23.4375 409.91796875 C26.09769176 404.25533834 27.17223268 399.3637069 25.875 393.16796875 C22.54452983 385.75405255 13.76440658 382.53089867 6.875 379.16796875 C7.11375659 373.10355136 7.85537837 367.7669639 9.9375 362.04296875 C12.95788219 353.42599604 12.68288167 347.91403559 8.84765625 339.625 C3.31099726 332.72884454 -5.77045952 329.17605374 -13.5625 325.41796875 C-15.52129799 324.46847993 -17.47841975 323.51552281 -19.43359375 322.55859375 C-20.71447876 321.94032715 -20.71447876 321.94032715 -22.02124023 321.30957031 C-24.125 320.16796875 -24.125 320.16796875 -26.125 318.16796875 C-25.91762101 313.38164034 -23.25012812 309.88979355 -20.63671875 306.05859375 C-19.95450005 305.03879677 -19.95450005 305.03879677 -19.25849915 303.99839783 C-17.78429448 301.79956577 -16.29855685 299.60880376 -14.8125 297.41796875 C-13.79955463 295.91094987 -12.78718553 294.40354349 -11.77539062 292.89575195 C-6.66760681 285.30210991 -1.48122759 277.77658674 3.875 270.35546875 C17.91580572 250.78152029 23.25170842 227.58286247 19.47802734 203.65039062 C19.00860082 201.58841504 18.47806486 199.56958955 17.875 197.54296875 C9.41242156 168.78224844 23.78096874 133.64519497 37.26586914 108.47607422 C54.3759082 77.56462629 80.34556569 53.66787455 110.5625 35.79296875 C111.20920654 35.39335937 111.85591309 34.99375 112.5222168 34.58203125 C115.44173783 32.91832095 117.32467394 32.09164059 120.69140625 32.55859375 C125.32479324 34.90087036 129.72851215 37.53453282 134.125 40.29296875 C135.06867432 40.88263428 136.01234863 41.4722998 136.98461914 42.07983398 C143.31005375 46.07689449 149.23406877 50.24378951 154.875 55.16796875 C155.95382945 56.05699782 157.03472555 56.94352238 158.1171875 57.828125 C195.27719263 88.48255583 214.57147279 129.83913971 221.578125 176.83203125 C222.32243493 185.19572436 221.62982252 192.15603486 219.375 200.23046875 C214.1006333 220.8366597 216.51067832 241.48293006 226.875 260.16796875 C229.80654432 264.99604519 233.07861902 269.57848475 236.40136719 274.14257812 C240.97318406 280.42617533 245.41949539 286.80165787 249.875 293.16796875 C250.50535156 294.06402832 251.13570312 294.96008789 251.78515625 295.88330078 C253.76916155 298.71710874 255.73049143 301.56546779 257.6875 304.41796875 C258.31696533 305.31153076 258.94643066 306.20509277 259.5949707 307.12573242 C260.16820068 307.96982666 260.74143066 308.8139209 261.33203125 309.68359375 C261.84741455 310.42899414 262.36279785 311.17439453 262.89379883 311.94238281 C264.16911913 314.83509739 263.98768625 316.23083989 262.875 319.16796875 C261.20776367 320.54248047 261.20776367 320.54248047 259.04296875 321.59765625 C258.24971191 321.99678223 257.45645508 322.3959082 256.63916016 322.80712891 C255.7888623 323.21495605 254.93856445 323.6227832 254.0625 324.04296875 C252.32349677 324.92174982 250.58521468 325.8019594 248.84765625 326.68359375 C247.99703613 327.10833984 247.14641602 327.53308594 246.27001953 327.97070312 C234.36979091 333.69708824 234.36979091 333.69708824 226.875 344.16796875 C224.23380739 352.09154657 226.41758665 358.79379021 229.09619141 366.3190918 C230.6259953 370.7444012 231.12170196 374.41895597 230.875 379.16796875 C229.92238281 379.67585938 228.96976563 380.18375 227.98828125 380.70703125 C226.72099624 381.40169118 225.45408906 382.09704069 224.1875 382.79296875 C223.24874023 383.28990234 223.24874023 383.28990234 222.29101562 383.796875 C216.92696587 386.7737822 212.87984554 390.15343213 210.875 396.16796875 C210.38600622 401.80498036 211.6349879 405.47943398 214.375 410.29296875 C218.61650537 417.84252077 218.61650537 417.84252077 217.875 422.16796875 C216.6328125 424.265625 216.6328125 424.265625 215 426.23046875 C210.62460793 431.56760158 209.50631166 435.6984896 208.91015625 442.58203125 C208.74835598 444.24612383 208.58623708 445.91018546 208.42382812 447.57421875 C208.17767557 450.19196124 207.93596904 452.80999065 207.70043945 455.42871094 C207.46971531 457.96027413 207.22220009 460.4897642 206.97265625 463.01953125 C206.9069191 463.8059903 206.84118195 464.59244934 206.77345276 465.40274048 C206.55102539 467.60791016 206.55102539 467.60791016 205.875 471.16796875 C202.27392877 473.5686829 200.65260522 473.41879689 196.37158203 473.42333984 C195.38810791 473.42877052 195.38810791 473.42877052 194.38476562 473.43431091 C192.96229569 473.44119936 191.53979936 473.44371138 190.11731339 473.44236374 C187.86398719 473.44139818 185.61113763 473.4543439 183.35787964 473.47134399 C176.95200297 473.51760614 170.54617467 473.54221898 164.14013672 473.54882812 C160.22018502 473.55384749 156.30073037 473.57811898 152.38094711 473.61415482 C150.88908754 473.62394385 149.3971595 473.6262896 147.90527725 473.62098312 C145.81538175 473.61389888 143.72696304 473.63121948 141.63720703 473.65380859 C139.8554155 473.65808365 139.8554155 473.65808365 138.03762817 473.66244507 C134.20035442 474.27580606 132.59319526 475.43063949 129.875 478.16796875 C128.10825803 481.09672115 127.62071221 483.27111841 127.5965271 486.67315674 C127.58536362 487.57055573 127.57420013 488.46795471 127.56269836 489.39254761 C127.55945808 490.85774338 127.55945808 490.85774338 127.55615234 492.35253906 C127.54610672 493.38700165 127.5360611 494.42146423 127.52571106 495.48727417 C127.49481782 498.90687504 127.47782667 502.3263974 127.4609375 505.74609375 C127.44223081 508.11692992 127.42265778 510.48775939 127.4022522 512.85858154 C127.35087235 519.099081 127.31127784 525.33960207 127.27410889 531.5802002 C127.234106 537.94805266 127.1829967 544.31581482 127.1328125 550.68359375 C127.03598386 563.17832203 126.9516012 575.67310124 126.875 588.16796875 C92.69113411 588.28237358 58.50731187 588.37049696 24.32329594 588.4232954 C20.28901664 588.42954905 16.25473772 588.43602065 12.22045898 588.44262695 C11.41729516 588.44393851 10.61413134 588.44525006 9.78662922 588.44660135 C-3.22393602 588.46836732 -16.23439099 588.50779537 -29.24489077 588.55373273 C-42.5914845 588.6004643 -55.9380204 588.62825715 -69.28469259 588.63841122 C-77.52262802 588.64527727 -85.76025175 588.66697496 -93.99809126 588.70755108 C-99.64448458 588.73394879 -105.29071638 588.74197654 -110.93716695 588.73547564 C-114.19668446 588.73226798 -117.45554049 588.73995814 -120.7149868 588.76399612 C-124.24757938 588.78877722 -127.77882511 588.78292697 -131.31144714 588.76924133 C-132.34354803 588.78380554 -133.37564891 588.79836975 -134.43902558 588.81337529 C-139.13279506 588.76403192 -141.39879167 588.69966885 -145.27277088 585.86329937 C-148.21699206 581.57892148 -147.60628212 577.79513509 -146.71728516 572.94238281 C-146.18384346 570.54010853 -145.57451278 568.16982268 -144.9375 565.79296875 C-144.59912109 564.48042114 -144.59912109 564.48042114 -144.25390625 563.14135742 C-142.98870286 558.27603534 -141.63681334 553.44025353 -140.23852539 548.61181641 C-124.55663511 494.13394052 -124.96986238 433.66530306 -152.36669922 382.65112305 C-156.03526926 376.07871404 -160.17514942 369.8191087 -164.31787109 363.53930664 C-177.33747152 343.76194994 -186.91335011 322.70780225 -194.125 300.16796875 C-194.45387207 299.1428418 -194.78274414 298.11771484 -195.12158203 297.06152344 C-198.97365858 284.90946247 -202.44637496 272.72562025 -205 260.23046875 C-205.28641357 258.85048706 -205.28641357 258.85048706 -205.57861328 257.44262695 C-208.68172594 241.29828243 -209.47857848 224.99096302 -209.44067383 208.58666992 C-209.43750518 205.73512747 -209.46113764 202.88461944 -209.48632812 200.03320312 C-209.54588365 182.99199922 -207.64751676 166.3634591 -203.3125 149.85546875 C-203.05388184 148.85185303 -202.79526367 147.8482373 -202.52880859 146.81420898 C-200.28768955 138.34994624 -197.58866848 130.20737968 -194.125 122.16796875 C-193.83931152 121.49781738 -193.55362305 120.82766602 -193.25927734 120.13720703 C-175.31092958 78.62619852 -143.25943772 45.65948892 -103.125 25.16796875 C-102.42552246 24.80864258 -101.72604492 24.44931641 -101.00537109 24.07910156 C-70.0487952 8.36547123 -34.70072418 0.04041688 0 0 Z " fill="#FEFEFE" transform="translate(421.125,383.83203125)"/>
<path d="M0 0 C3.09466544 0.0237336 6.1884684 0.02050367 9.28320312 0.01391602 C26.94403708 0.0373097 44.68777571 0.77496282 61.96289062 4.71118164 C63.47254395 5.04206787 63.47254395 5.04206787 65.01269531 5.37963867 C72.59685476 7.07084998 80.06696602 8.93927822 87.46289062 11.33618164 C88.18299316 11.56499023 88.9030957 11.79379883 89.64501953 12.02954102 C128.33251091 24.43888684 163.43843667 46.93957403 188.09130859 79.52905273 C188.96560042 80.68097657 189.84675521 81.82774607 190.73681641 82.9675293 C218.22866912 118.18634974 228.72658872 162.83731229 228.59326172 206.74291992 C228.58789294 208.8352787 228.59325558 210.92742295 228.59960938 213.01977539 C228.63694136 268.44681023 209.86077223 325.00696592 179.09179688 370.88305664 C174.80420486 377.30571323 171.05868521 383.80549372 167.71289062 390.77368164 C167.18381104 391.86314087 167.18381104 391.86314087 166.64404297 392.97460938 C161.09498702 404.88125336 157.67776538 417.49056558 154.83789062 430.27368164 C154.68947723 430.93949249 154.54106384 431.60530334 154.38815308 432.29129028 C151.60022493 444.8877569 149.40801746 457.45716454 148.46289062 470.33618164 C148.39424805 471.25222168 148.32560547 472.16826172 148.25488281 473.11206055 C146.43810679 501.95211117 153.70044809 532.53833773 162.17382812 559.92602539 C162.45226562 560.82772461 162.73070312 561.72942383 163.01757812 562.65844727 C163.54183559 564.32983001 164.07961282 565.99707087 164.63476562 567.65844727 C166.22824063 572.63163134 167.86636499 578.16669806 166.46289062 583.33618164 C164.46505623 585.98224028 162.84272137 588.01224349 159.50887334 588.79491961 C157.07433119 588.96760577 154.68427355 588.97837059 152.24382019 588.93745422 C151.31258168 588.94172635 150.38134317 588.94599847 149.42188531 588.95040005 C146.29989269 588.95863922 143.17924199 588.93112908 140.05737305 588.90380859 C137.8202111 588.90239833 135.58304683 588.90318968 133.34588623 588.90602112 C127.26972761 588.9074575 121.19406108 588.87803113 115.11801696 588.84315133 C108.76923975 588.81192516 102.42045165 588.80896003 96.0716095 588.80302429 C85.41458606 588.7892423 74.75775729 588.75799734 64.10083008 588.71337891 C53.1249278 588.66747282 42.14907462 588.6320861 31.1730957 588.61083984 C30.15799414 588.60886942 30.15799414 588.60886942 29.12238546 588.60685918 C25.72735477 588.60033392 22.33232373 588.5940154 18.93729246 588.58779967 C-9.22099563 588.53597915 -37.37897627 588.4438109 -65.53710938 588.33618164 C-65.53710938 558.63618164 -65.53710938 528.93618164 -65.53710938 498.33618164 C-39.22460937 498.58618164 -39.22460937 498.58618164 -30.98510742 498.6965332 C-28.79802232 498.70823011 -26.61092842 498.71841956 -24.42382812 498.72680664 C-23.31414673 498.74727051 -22.20446533 498.76773437 -21.06115723 498.78881836 C-12.48404973 498.79260474 -4.17988334 497.3762487 2.83789062 492.08618164 C9.37395021 485.23888112 12.62104183 478.14614117 13.03320312 468.69165039 C13.12520799 467.19479731 13.21901522 465.69805413 13.31445312 464.20141602 C13.45648828 461.86493766 13.58761693 459.53009001 13.6875 457.19140625 C14.3458458 442.49818391 14.3458458 442.49818391 19.45507812 437.42993164 C20.77811687 436.38218451 22.11229738 435.34816161 23.46289062 434.33618164 C27.61236462 428.76032596 27.33627403 422.00352817 26.46289062 415.33618164 C25.37832744 412.44777899 24.12082473 409.91673092 22.55664062 407.26196289 C21.46289062 405.33618164 21.46289062 405.33618164 21.46289062 403.33618164 C22.34332031 402.94688477 23.22375 402.55758789 24.13085938 402.15649414 C30.83971352 398.92492622 35.97456102 396.25577468 38.78320312 388.97290039 C41.59358596 378.07055317 37.64220179 368.49926089 34.01367188 358.24633789 C33.46289062 356.33618164 33.46289062 356.33618164 33.46289062 353.33618164 C34.40084473 352.89338867 35.33879883 352.4505957 36.30517578 351.99438477 C39.81544646 350.33043009 43.31196543 348.63913769 46.80517578 346.93969727 C48.31268412 346.21093388 49.8237212 345.48942009 51.33837891 344.77563477 C63.37201518 339.37133154 63.37201518 339.37133154 71.46289062 329.33618164 C71.90503906 328.4609082 72.3471875 327.58563477 72.80273438 326.68383789 C74.4656516 320.77015002 74.57287066 314.98124044 72.17773438 309.27368164 C68.84352599 303.44071571 64.88481626 298.05987671 60.87304688 292.67993164 C57.06453526 287.48189431 53.5873711 282.04973342 50.0390625 276.67285156 C46.96787724 272.03698427 43.85525396 267.44363187 40.62304688 262.91821289 C39.6874292 261.60614868 39.6874292 261.60614868 38.73291016 260.26757812 C37.55322695 258.62189962 36.36596982 256.98161056 35.16943359 255.34814453 C26.02655764 242.58198069 21.62848825 229.10005689 23.46289062 213.33618164 C24.17553063 209.59743394 25.05820503 205.9075848 25.96289062 202.21118164 C27.94734348 194.02539973 29.29870281 186.79645835 28.46289062 178.33618164 C28.39038086 177.54228027 28.31787109 176.74837891 28.24316406 175.93041992 C23.9996131 131.58289214 5.80701986 90.24203307 -24.52929688 57.55493164 C-25.93487229 56.00168877 -27.28148105 54.39397504 -28.58007812 52.75024414 C-30.86748905 49.92864743 -33.35426638 47.73756757 -36.11523438 45.39477539 C-37.83492788 43.93303591 -39.53064109 42.44287462 -41.20898438 40.93383789 C-52.824885 30.60579973 -65.95374907 21.86809941 -79.53710938 14.33618164 C-79.53710938 13.67618164 -79.53710938 13.01618164 -79.53710938 12.33618164 C-53.5332538 3.70039287 -27.38704909 -0.22331112 0 0 Z " fill="#FEFEFE" transform="translate(639.537109375,383.663818359375)"/>
<path d="M0 0 C0.804375 0.31324219 1.60875 0.62648438 2.4375 0.94921875 C14.147915 5.82213815 22.50530703 13.5565072 28 25 C32.21236183 35.5210164 34.14625745 45.28739231 34.17700195 56.58496094 C34.18357315 57.63957016 34.19014435 58.69417938 34.19691467 59.78074646 C34.21659412 63.26529014 34.22830277 66.74979067 34.23828125 70.234375 C34.24235678 71.43102028 34.2464323 72.62766556 34.25063133 73.86057281 C34.27147632 80.20310797 34.28578091 86.54562163 34.29516602 92.88818359 C34.30618467 99.39717818 34.3405368 105.90582661 34.38033772 112.41469955 C34.40666078 117.45435155 34.41487205 122.49392333 34.41844749 127.533638 C34.42327852 129.93028329 34.43479115 132.32692586 34.45348549 134.72350311 C34.57490904 151.33135116 34.44579345 168.63543463 26.25 183.625 C25.90420898 184.27903809 25.55841797 184.93307617 25.20214844 185.60693359 C19.34405567 196.24231961 10.96804671 202.17859205 -0.60742188 205.8203125 C-8.14949864 207.91285451 -15.1980895 208.45839334 -23 208.375 C-24.08539063 208.38660156 -25.17078125 208.39820313 -26.2890625 208.41015625 C-38.91178448 208.36496751 -51.9715324 205.63414253 -61.6875 197.0625 C-73.68484233 184.07011743 -74 168.98119811 -74 152 C-61.13 152 -48.26 152 -35 152 C-34.34 157.28 -33.68 162.56 -33 168 C-29.86824314 173.77260299 -29.86824314 173.77260299 -27 175 C-24.69694711 175.27408121 -24.69694711 175.27408121 -22.125 175.3125 C-21.26132813 175.34988281 -20.39765625 175.38726562 -19.5078125 175.42578125 C-16.15681715 174.85684279 -15.18663603 173.55969063 -13 171 C-8.52599637 161.09230269 -9.65902977 149.35392402 -9.8125 138.75 C-9.82758012 136.92579235 -9.84126261 135.10157258 -9.85351562 133.27734375 C-9.88624383 128.85125813 -9.93784036 124.42576611 -10 120 C-10.56847656 120.40992188 -11.13695312 120.81984375 -11.72265625 121.2421875 C-19.52371511 126.68599819 -25.96978169 128.35006078 -35.375 128.3125 C-36.17421875 128.32861328 -36.9734375 128.34472656 -37.796875 128.36132812 C-48.39597369 128.36990345 -56.09891899 124.67839871 -63.65625 117.40625 C-73.88601006 106.34140749 -78.07855746 90.08653177 -78.23828125 75.35546875 C-78.246353 74.62741531 -78.25442474 73.89936188 -78.26274109 73.14924622 C-78.27651884 71.60871714 -78.28726896 70.06815834 -78.29516602 68.52758789 C-78.30657682 66.98712906 -78.32685124 65.44670624 -78.35668945 63.90649414 C-78.72431259 44.8619727 -75.33383271 26.49238383 -62.6875 11.5 C-47.51393075 -4.0560962 -20.0542598 -8.18185947 0 0 Z " fill="#FEFEFD" transform="translate(148,104)"/>
<path d="M0 0 C5.86114205 3.12086784 9.05119608 6.67289984 11.31546021 12.97955322 C12.44597922 17.21954031 12.38481826 21.4402941 12.37109375 25.8046875 C12.3763356 26.79066925 12.38157745 27.776651 12.38697815 28.79251099 C12.39337178 30.86833764 12.39209602 32.94420065 12.38354492 35.02001953 C12.37504299 38.17156467 12.40382171 41.32129002 12.43554688 44.47265625 C12.43715952 46.49999946 12.43658015 48.52734585 12.43359375 50.5546875 C12.45044472 51.94891434 12.45044472 51.94891434 12.46763611 53.37130737 C12.39457271 60.33715502 11.18529221 67.50040087 6.52561951 72.96969604 C-0.68260897 79.31415983 -9.06004149 78.9977825 -18.11328125 78.51220703 C-23.31237288 77.97953457 -26.56894193 75.68495877 -30.375 72.1875 C-34.58403669 65.01654861 -35.51864185 57.4249436 -35.4609375 49.24609375 C-35.46380768 48.32715836 -35.46667786 47.40822296 -35.46963501 46.46144104 C-35.47166089 44.53459042 -35.46623537 42.60771854 -35.45361328 40.6809082 C-35.43751977 37.75359625 -35.45352216 34.82766079 -35.47265625 31.90039062 C-35.47067392 30.01562199 -35.46683045 28.13085421 -35.4609375 26.24609375 C-35.46701019 25.38334335 -35.47308289 24.52059296 -35.4793396 23.63169861 C-35.40287147 16.93674686 -34.47260326 10.33269216 -30.1953125 4.97265625 C-29.53273438 4.44542969 -28.87015625 3.91820312 -28.1875 3.375 C-27.53007813 2.82972656 -26.87265625 2.28445312 -26.1953125 1.72265625 C-18.65595081 -3.26215981 -8.27450159 -3.43496116 0 0 Z " fill="#FEFBFB" transform="translate(738.0625,233.6875)"/>
<path d="M0 0 C5.86114205 3.12086784 9.05119608 6.67289984 11.31546021 12.97955322 C12.44597922 17.21954031 12.38481826 21.4402941 12.37109375 25.8046875 C12.3763356 26.79066925 12.38157745 27.776651 12.38697815 28.79251099 C12.39337178 30.86833764 12.39209602 32.94420065 12.38354492 35.02001953 C12.37504299 38.17156467 12.40382171 41.32129002 12.43554688 44.47265625 C12.43715952 46.49999946 12.43658015 48.52734585 12.43359375 50.5546875 C12.45044472 51.94891434 12.45044472 51.94891434 12.46763611 53.37130737 C12.39457271 60.33715502 11.18529221 67.50040087 6.52561951 72.96969604 C-0.68260897 79.31415983 -9.06004149 78.9977825 -18.11328125 78.51220703 C-23.31237288 77.97953457 -26.56894193 75.68495877 -30.375 72.1875 C-34.58403669 65.01654861 -35.51864185 57.4249436 -35.4609375 49.24609375 C-35.46380768 48.32715836 -35.46667786 47.40822296 -35.46963501 46.46144104 C-35.47166089 44.53459042 -35.46623537 42.60771854 -35.45361328 40.6809082 C-35.43751977 37.75359625 -35.45352216 34.82766079 -35.47265625 31.90039062 C-35.47067392 30.01562199 -35.46683045 28.13085421 -35.4609375 26.24609375 C-35.46701019 25.38334335 -35.47308289 24.52059296 -35.4793396 23.63169861 C-35.40287147 16.93674686 -34.47260326 10.33269216 -30.1953125 4.97265625 C-29.53273438 4.44542969 -28.87015625 3.91820312 -28.1875 3.375 C-27.53007812 2.82972656 -26.87265625 2.28445312 -26.1953125 1.72265625 C-18.65595081 -3.26215981 -8.27450159 -3.43496116 0 0 Z " fill="#FEFBFB" transform="translate(368.0625,233.6875)"/>
<path d="M0 0 C5.49160118 3.77035305 8.12059892 8.9758194 9.83203125 15.2578125 C10.23221076 18.54381319 10.25361071 21.78629217 10.23046875 25.09375 C10.23333893 26.01314362 10.23620911 26.93253723 10.23916626 27.87979126 C10.24119714 29.8143984 10.23573601 31.74902652 10.22314453 33.68359375 C10.20711402 36.61766352 10.22300764 39.55034822 10.2421875 42.484375 C10.24020418 44.375003 10.23635866 46.26563014 10.23046875 48.15625 C10.23957779 49.45204483 10.23957779 49.45204483 10.24887085 50.77401733 C10.16626046 58.06247056 8.88521615 64.93023697 5.01953125 71.1953125 C-1.72148062 77.55112369 -9.65197675 77.70487968 -18.453125 77.5390625 C-24.57005196 77.07595131 -28.14812818 75.22306278 -32.48046875 71.0078125 C-36.68265495 64.15980536 -37.61440614 58.25154385 -37.53125 50.38671875 C-37.5317485 49.46495346 -37.53224701 48.54318817 -37.53276062 47.5934906 C-37.53043247 45.65467155 -37.52077885 43.71584875 -37.50415039 41.77709961 C-37.48056428 38.8322403 -37.48359888 35.88828924 -37.49023438 32.94335938 C-37.48465602 31.04947384 -37.47754516 29.15559208 -37.46875 27.26171875 C-37.46966141 26.39269424 -37.47057281 25.52366974 -37.47151184 24.62831116 C-37.38300209 16.88055172 -36.77595454 9.00689889 -31.75390625 2.765625 C-23.59185269 -4.99435696 -9.60445944 -5.09624378 0 0 Z " fill="#FEFBFB" transform="translate(314.16796875,234.7421875)"/>
<path d="M0 0 C6.27 0 12.54 0 19 0 C20.00031474 5.1955123 20.99837903 10.39135285 21.99072266 15.58837891 C22.3289191 17.35588494 22.66842714 19.12314053 23.00927734 20.89013672 C23.49922949 23.43131708 23.98444391 25.97336335 24.46875 28.515625 C24.62186646 29.30430969 24.77498291 30.09299438 24.93273926 30.90557861 C25.58573088 34.35569804 26 37.47443443 26 41 C26.66 41 27.32 41 28 41 C28.103125 39.81019531 28.20625 38.62039062 28.3125 37.39453125 C29.05374339 30.72986581 30.56050252 24.22974442 32 17.6875 C32.27328125 16.42615234 32.5465625 15.16480469 32.828125 13.86523438 C33.83599086 9.22855736 34.84911929 4.60352283 36 0 C41.94 0 47.88 0 54 0 C55.10316188 15.68748318 55.12043642 31.3306239 55.06866455 47.04968262 C55.05826703 50.55004256 55.05383245 54.05041018 55.04882812 57.55078125 C55.03823829 64.36720764 55.02071371 71.18359691 55 78 C51.04 78 47.08 78 43 78 C42.05706247 68.07934629 41.69510702 58.2056686 41.4375 48.25 C41.293125 42.8875 41.14875 37.525 41 32 C38.36 47.18 35.72 62.36 33 78 C29.37 78 25.74 78 22 78 C20.39338928 72.70926469 19.25026491 67.44347775 18.2734375 62.00390625 C18.13784424 61.26394409 18.00225098 60.52398193 17.86254883 59.76159668 C17.36290628 57.02925532 16.86929702 54.29581345 16.375 51.5625 C15.26125 45.436875 14.1475 39.31125 13 33 C12.34 47.85 11.68 62.7 11 78 C7.04 78 3.08 78 -1 78 C-1.15649844 51.98273682 -0.71814553 26.00712737 0 0 Z " fill="#FEFBFB" transform="translate(268,103)"/>
<path d="M0 0 C30 0 30 0 41 4 C46.82095752 9.82095752 47.22496772 13.44212099 47.3125 21.25 C47.34150391 22.09691406 47.37050781 22.94382813 47.40039062 23.81640625 C47.46734673 30.43990995 45.74212852 33.83600556 41.375 38.875 C40 40 40 40 38 40 C38.24524414 40.70672852 38.49048828 41.41345703 38.74316406 42.14160156 C41.40049665 49.93593621 43.65164351 57.78885348 45.75 65.75 C46.06582031 66.9359375 46.38164063 68.121875 46.70703125 69.34375 C47.47468877 72.22828129 48.23782592 75.11401498 49 78 C43.06 78 37.12 78 31 78 C28.73846614 70.89232216 26.60627098 63.78544916 24.75 56.5625 C24.57500977 55.90121094 24.40001953 55.23992187 24.21972656 54.55859375 C23.2294775 50.62150694 22.82453021 47.05460557 23 43 C21.02 43 19.04 43 17 43 C17 54.55 17 66.1 17 78 C11.39 78 5.78 78 0 78 C0 52.26 0 26.52 0 0 Z " fill="#FEFBFB" transform="translate(488,233)"/>
<path d="M0 0 C4.300573 2.75492945 6.49065846 6.52275662 8.09765625 11.34375 C8.16801064 13.91872068 8.19114965 16.45824929 8.16015625 19.03125 C8.13953125 21.444375 8.11890625 23.8575 8.09765625 26.34375 C2.48765625 26.34375 -3.12234375 26.34375 -8.90234375 26.34375 C-9.09765625 22.76302083 -9.29296875 19.18229167 -9.48828125 15.6015625 C-9.57475481 12.26313301 -9.57475481 12.26313301 -11.90234375 10.34375 C-14.40234375 9.92708333 -14.40234375 9.92708333 -16.90234375 10.34375 C-19.01915733 13.51897037 -19.15404764 14.3008577 -19.16113281 17.93530273 C-19.16743713 18.86314072 -19.17374146 19.7909787 -19.18023682 20.74693298 C-19.17618835 21.74696854 -19.17213989 22.74700409 -19.16796875 23.77734375 C-19.1698822 24.80682632 -19.17179565 25.8363089 -19.17376709 26.89698792 C-19.17512854 29.07496383 -19.17143492 31.25294787 -19.16308594 33.4309082 C-19.15239691 36.7646714 -19.16297714 40.09789436 -19.17578125 43.43164062 C-19.17445943 45.54687619 -19.17189659 47.66211142 -19.16796875 49.77734375 C-19.17201721 50.77535507 -19.17606567 51.77336639 -19.18023682 52.80162048 C-19.1739325 53.73261063 -19.16762817 54.66360077 -19.16113281 55.62280273 C-19.15954163 56.43982162 -19.15795044 57.25684052 -19.15631104 58.09861755 C-18.87706804 60.56719339 -18.13641013 62.20514947 -16.90234375 64.34375 C-14.59234375 64.34375 -12.28234375 64.34375 -9.90234375 64.34375 C-9.57234375 58.73375 -9.24234375 53.12375 -8.90234375 47.34375 C-3.29234375 47.34375 2.31765625 47.34375 8.09765625 47.34375 C8.89969662 64.98863821 8.89969662 64.98863821 3.09765625 72.34375 C-1.25602919 76.29588193 -6.24793036 76.94694906 -11.90234375 77.34375 C-11.90234375 79.32375 -11.90234375 81.30375 -11.90234375 83.34375 C-10.85046875 83.26125 -9.79859375 83.17875 -8.71484375 83.09375 C-4.3334655 83.38105349 -2.95388794 84.29220581 0.09765625 87.34375 C1.50766289 90.16376327 1.34314076 92.21382255 1.09765625 95.34375 C0.03204968 98.20756767 -0.9242613 99.78163365 -3.6015625 101.3203125 C-9.33956209 103.73275241 -14.91230179 104.34043065 -20.90234375 102.34375 C-20.90234375 100.03375 -20.90234375 97.72375 -20.90234375 95.34375 C-14.96234375 94.84875 -14.96234375 94.84875 -8.90234375 94.34375 C-9.23234375 93.02375 -9.56234375 91.70375 -9.90234375 90.34375 C-11.74961942 89.21304556 -11.74961942 89.21304556 -13.96484375 88.59375 C-15.26421875 88.18125 -16.56359375 87.76875 -17.90234375 87.34375 C-17.90234375 84.04375 -17.90234375 80.74375 -17.90234375 77.34375 C-19.05734375 77.323125 -20.21234375 77.3025 -21.40234375 77.28125 C-27.08201015 76.52597521 -30.29869259 73.62729125 -33.90234375 69.34375 C-39.15429318 60.45567436 -38.51382886 50.13621725 -38.42382812 40.17382812 C-38.40238654 37.34938701 -38.4237033 34.5274888 -38.44921875 31.703125 C-38.48341403 10.60080113 -38.48341403 10.60080113 -32.18164062 3.36914062 C-23.66872635 -4.802051 -10.29645207 -4.68781558 0 0 Z " fill="#FEFAFA" transform="translate(634.90234375,234.65625)"/>
<path d="M0 0 C0.66 0 1.32 0 2 0 C2.28085449 0.59723877 2.56170898 1.19447754 2.85107422 1.80981445 C8.22849313 13.21801413 13.64294613 24.57194911 19.73779297 35.6184082 C24.34721929 44.11974671 27.30115255 52.21244136 26 62 C23.22250311 70.7954068 16.58939835 75.89477869 8.75 80.25 C0.47136218 82.50781032 -5.82585399 80.90541615 -13.2890625 76.84765625 C-18.77175722 73.11089169 -21.89023228 68.22706773 -24 62 C-26.40084161 46.93631239 -17.86100206 34.23436693 -10.71582031 21.68139648 C-6.72140724 14.63897912 -3.29253181 7.39184294 0 0 Z " fill="#EC6A66" transform="translate(539,661)"/>
<path d="M0 0 C35.49526066 0 35.49526066 0 40.92578125 4.6484375 C41.38339844 5.21820313 41.84101563 5.78796875 42.3125 6.375 C42.78300781 6.93960938 43.25351562 7.50421875 43.73828125 8.0859375 C48.37750246 15.12376535 47.95342519 23.71146965 46.5 31.7734375 C45.0885444 36.60125721 43.45434029 39.36788983 39 42 C38.030625 42.5775 37.06125 43.155 36.0625 43.75 C32 45 32 45 18 45 C18 55.89 18 66.78 18 78 C12.06 78 6.12 78 0 78 C0 52.26 0 26.52 0 0 Z " fill="#FEFAFA" transform="translate(390,233)"/>
<path d="M0 0 C35.49526066 0 35.49526066 0 40.92578125 4.6484375 C41.38339844 5.21820313 41.84101563 5.78796875 42.3125 6.375 C42.78300781 6.93960938 43.25351562 7.50421875 43.73828125 8.0859375 C48.37750246 15.12376535 47.95342519 23.71146965 46.5 31.7734375 C45.0885444 36.60125721 43.45434029 39.36788983 39 42 C38.030625 42.5775 37.06125 43.155 36.0625 43.75 C32 45 32 45 18 45 C18 55.89 18 66.78 18 78 C12.06 78 6.12 78 0 78 C0 52.26 0 26.52 0 0 Z " fill="#FEFAFA" transform="translate(334,103)"/>
<path d="M0 0 C0.83265381 0.00523682 1.66530762 0.01047363 2.52319336 0.01586914 C3.42231445 0.0190918 4.32143555 0.02231445 5.24780273 0.02563477 C6.66609375 0.03820312 6.66609375 0.03820312 8.11303711 0.05102539 C9.06243164 0.05553711 10.01182617 0.06004883 10.98999023 0.06469727 C13.34356776 0.07652429 15.69702188 0.09300514 18.05053711 0.11352539 C22.03471738 20.21096034 25.98740048 40.31149329 29.55053711 60.48852539 C29.67986633 61.2162616 29.80919556 61.9439978 29.94244385 62.69378662 C30.30463042 64.73679343 30.66286413 66.78044356 31.01928711 68.82446289 C31.21973633 69.97221191 31.42018555 71.11996094 31.62670898 72.30249023 C32.05053711 75.11352539 32.05053711 75.11352539 32.05053711 78.11352539 C26.77053711 78.11352539 21.49053711 78.11352539 16.05053711 78.11352539 C14.56975231 75.15195579 14.69739674 72.27846244 14.48803711 68.98852539 C14.36235352 67.0665332 14.36235352 67.0665332 14.23413086 65.10571289 C14.17354492 64.11829102 14.11295898 63.13086914 14.05053711 62.11352539 C10.09053711 62.11352539 6.13053711 62.11352539 2.05053711 62.11352539 C1.83397461 64.40290039 1.83397461 64.40290039 1.61303711 66.73852539 C1.24861653 70.59097154 0.69002372 74.2766057 0.05053711 78.11352539 C-5.55946289 78.11352539 -11.16946289 78.11352539 -16.94946289 78.11352539 C-15.45619421 69.01303891 -13.85596226 59.93559121 -12.19946289 50.86352539 C-12.07173492 50.16340332 -11.94400696 49.46328125 -11.81240845 48.74194336 C-11.00058487 44.29444745 -10.18569485 39.84751973 -9.36920166 35.40087891 C-8.94581463 33.09364431 -8.52350978 30.78621341 -8.10131836 28.47875977 C-7.41594031 24.7359936 -6.72597023 20.99409981 -6.03259277 17.25280762 C-5.76930608 15.82914229 -5.50733826 14.40523242 -5.2467041 12.9810791 C-4.88444321 11.00370447 -4.51670496 9.02733564 -4.14868164 7.05102539 C-3.8367688 5.36299805 -3.8367688 5.36299805 -3.51855469 3.64086914 C-2.73458416 0.15924629 -2.73458416 0.15924629 0 0 Z " fill="#FEFAFA" transform="translate(558.949462890625,232.886474609375)"/>
<path d="M0 0 C6.6 0 13.2 0 20 0 C22.74953739 11.36761866 24.89155416 22.81197624 27 34.3125 C27.51740471 37.11866824 28.03561324 39.9246871 28.55395508 42.73068237 C28.89083152 44.55740419 29.22662056 46.3843269 29.5612793 48.2114563 C30.32582103 52.38149759 31.10148394 56.54828531 31.91796875 60.70849609 C32.05904053 61.43425339 32.2001123 62.16001068 32.34545898 62.90776062 C32.72092452 64.8314975 33.10239841 66.75405904 33.484375 68.67651367 C34 72 34 72 34 78 C28.72 78 23.44 78 18 78 C16.77731709 72.34509154 16 67.84044472 16 62 C12.04 62 8.08 62 4 62 C3.855625 63.711875 3.71125 65.42375 3.5625 67.1875 C3.24861109 70.90932563 2.73741485 74.31292574 2 78 C-3.28 78 -8.56 78 -14 78 C-14 70.12590271 -14 70.12590271 -13.23730469 66.34765625 C-13.07002869 65.50146729 -12.90275269 64.65527832 -12.73040771 63.78344727 C-12.54609192 62.88553467 -12.36177612 61.98762207 -12.171875 61.0625 C-11.88645844 59.62765259 -11.88645844 59.62765259 -11.59527588 58.16381836 C-10.98646432 55.1079155 -10.36880996 52.05389247 -9.75 49 C-8.94926262 45.02159955 -8.15290229 41.04234456 -7.359375 37.0625 C-7.06432068 35.58801392 -7.06432068 35.58801392 -6.76330566 34.08374023 C-5.11973887 25.79118333 -3.65413299 17.47241088 -2.26849365 9.13305664 C-2.11575989 8.22547607 -1.96302612 7.31789551 -1.80566406 6.3828125 C-1.6735553 5.58246582 -1.54144653 4.78211914 -1.40533447 3.95751953 C-1 2 -1 2 0 0 Z " fill="#FEFAFA" transform="translate(516,103)"/>
<path d="M0 0 C6.93 0 13.86 0 21 0 C25.92781735 25.95961296 30.83896113 51.90464066 35 78 C29.72 78 24.44 78 19 78 C17.19019666 71.66568832 16.80670678 68.28202978 17 62 C13.04 62 9.08 62 5 62 C4.86722656 62.98742187 4.73445312 63.97484375 4.59765625 64.9921875 C4.42105469 66.27351563 4.24445312 67.55484375 4.0625 68.875 C3.80146484 70.78925781 3.80146484 70.78925781 3.53515625 72.7421875 C3 76 3 76 2 78 C-3.28 78 -8.56 78 -14 78 C-13.16845062 70.37101787 -11.7626152 62.85667979 -10.375 55.3125 C-10.11306091 53.8796492 -9.85118061 52.44678764 -9.58935547 51.01391602 C-6.47172619 33.99454852 -3.23662293 16.99705828 0 0 Z " fill="#FEFBFB" transform="translate(663,233)"/>
<path d="M0 0 C6.93 0 13.86 0 21 0 C25.92781735 25.95961296 30.83896113 51.90464066 35 78 C29.72 78 24.44 78 19 78 C17.19019666 71.66568832 16.80670678 68.28202978 17 62 C13.04 62 9.08 62 5 62 C4.86722656 62.98742187 4.73445313 63.97484375 4.59765625 64.9921875 C4.42105469 66.27351563 4.24445313 67.55484375 4.0625 68.875 C3.80146484 70.78925781 3.80146484 70.78925781 3.53515625 72.7421875 C3 76 3 76 2 78 C-3.28 78 -8.56 78 -14 78 C-13.16845062 70.37101787 -11.7626152 62.85667979 -10.375 55.3125 C-10.11306091 53.8796492 -9.85118061 52.44678764 -9.58935547 51.01391602 C-6.47172619 33.99454852 -3.23662293 16.99705828 0 0 Z " fill="#FEFBFB" transform="translate(395,103)"/>
<path d="M0 0 C4.9205337 3.39202748 7.28796694 7.5140544 8.8359375 13.265625 C9.08672389 17.95031483 8.9245453 22.5694115 8.8359375 27.265625 C3.2259375 27.265625 -2.3840625 27.265625 -8.1640625 27.265625 C-8.39192708 23.68489583 -8.61979167 20.10416667 -8.84765625 16.5234375 C-8.95612277 13.38262348 -8.95612277 13.38262348 -10.1640625 11.265625 C-13.58049009 11.01546627 -13.58049009 11.01546627 -17.1640625 11.265625 C-19.26994458 14.42444812 -19.41341441 15.16144445 -19.40698242 18.76538086 C-19.41005905 19.67319809 -19.41313568 20.58101532 -19.41630554 21.51634216 C-19.40912003 22.49450394 -19.40193451 23.47266571 -19.39453125 24.48046875 C-19.39407303 25.48775528 -19.39361481 26.49504181 -19.3931427 27.53285217 C-19.39012087 29.66375913 -19.38223664 31.79466388 -19.36987305 33.92553711 C-19.35165389 37.18676589 -19.34936315 40.44771008 -19.34960938 43.70898438 C-19.3446926 45.77864829 -19.33886358 47.84831027 -19.33203125 49.91796875 C-19.33091843 50.89410629 -19.3298056 51.87024384 -19.32865906 52.8759613 C-19.32227921 53.78693069 -19.31589935 54.69790009 -19.30932617 55.63647461 C-19.30360847 56.83535561 -19.30360847 56.83535561 -19.29777527 58.05845642 C-19.16530633 60.24509338 -18.76709112 62.16429341 -18.1640625 64.265625 C-14.14048496 64.63567015 -14.14048496 64.63567015 -10.5078125 63.203125 C-8.47719743 60.27526142 -8.63793309 57.59600378 -8.4765625 54.078125 C-8.3734375 51.83 -8.2703125 49.581875 -8.1640625 47.265625 C-2.5540625 47.265625 3.0559375 47.265625 8.8359375 47.265625 C9.21837141 56.25282197 9.52624284 64.67941864 3.4453125 71.921875 C-2.9355232 77.69821047 -10.35804303 77.71030866 -18.5234375 77.57421875 C-24.12754971 77.09919207 -27.70334778 75.71365562 -31.6796875 71.7578125 C-37.32077556 64.78750254 -37.47789726 55.89594136 -37.5 47.296875 C-37.5066568 46.37652466 -37.5133136 45.45617432 -37.52017212 44.50793457 C-37.53023153 42.57513407 -37.53499124 40.64229931 -37.53466797 38.70947266 C-37.53905123 35.77317723 -37.57546984 32.83837517 -37.61328125 29.90234375 C-37.61914907 28.01302591 -37.6231187 26.12370102 -37.625 24.234375 C-37.63937103 23.36848755 -37.65374207 22.5026001 -37.66854858 21.61047363 C-37.61318831 14.13257797 -35.553487 8.23626087 -30.8515625 2.390625 C-22.13744772 -4.49960529 -9.89194892 -5.22177229 0 0 Z " fill="#FEFBFB" transform="translate(260.1640625,234.734375)"/>
<path d="M0 0 C3.42128337 1.81176336 6.54044855 3.79768207 9.75390625 5.95703125 C18.2116286 11.28000212 26.24531834 12.24129202 36 11 C43.6242081 9.07128141 49.65722728 5.68474508 56.0078125 1.171875 C59.13349587 -0.66676228 61.48938953 -0.60760566 65 0 C69.09206332 1.808121 71.69807584 4.16345973 74 8 C74.58066414 12.57273007 74.50216501 14.88154156 72.625 19.0625 C66.22958914 26.21926929 57.85862262 30.57449862 49 34 C48.17242188 34.32097656 47.34484375 34.64195312 46.4921875 34.97265625 C30.89583067 40.09989894 15.11997255 37.17953489 0.75 30.1875 C-12.96211593 23.23892194 -12.96211593 23.23892194 -16 16 C-16.86709334 9.38841327 -16.86709334 9.38841327 -14.7265625 5.9609375 C-10.46695045 0.91173883 -6.84139283 -1.4899966 0 0 Z " fill="#EC6B66" transform="translate(511,588)"/>
<path d="M0 0 C11.55 0 23.1 0 35 0 C35 3.96 35 7.92 35 12 C29.39 12 23.78 12 18 12 C18 18.27 18 24.54 18 31 C22.29 31 26.58 31 31 31 C31 34.96 31 38.92 31 43 C26.71 43 22.42 43 18 43 C18 50.59 18 58.18 18 66 C23.94 66 29.88 66 36 66 C36 69.96 36 73.92 36 78 C24.12 78 12.24 78 0 78 C0 52.26 0 26.52 0 0 Z " fill="#FEFAFA" transform="translate(445,233)"/>
<path d="M0 0 C11.55 0 23.1 0 35 0 C35 3.96 35 7.92 35 12 C29.06 12 23.12 12 17 12 C17 18.27 17 24.54 17 31 C21.62 31 26.24 31 31 31 C31 34.96 31 38.92 31 43 C26.38 43 21.76 43 17 43 C17 50.59 17 58.18 17 66 C22.94 66 28.88 66 35 66 C35 69.96 35 73.92 35 78 C23.45 78 11.9 78 0 78 C0 52.26 0 26.52 0 0 Z " fill="#FEFCFC" transform="translate(583,103)"/>
<path d="M0 0 C11.55 0 23.1 0 35 0 C35 3.96 35 7.92 35 12 C29.06 12 23.12 12 17 12 C17 18.27 17 24.54 17 31 C21.62 31 26.24 31 31 31 C31 34.96 31 38.92 31 43 C26.38 43 21.76 43 17 43 C17 50.59 17 58.18 17 66 C22.94 66 28.88 66 35 66 C35 69.96 35 73.92 35 78 C23.45 78 11.9 78 0 78 C0 52.26 0 26.52 0 0 Z " fill="#FEFDFD" transform="translate(224,103)"/>
<path d="M0 0 C13.53 0 27.06 0 41 0 C41 4.29 41 8.58 41 13 C37.04 13 33.08 13 29 13 C29 34.45 29 55.9 29 78 C23.06 78 17.12 78 11 78 C11 56.55 11 35.1 11 13 C7.37 13 3.74 13 0 13 C0 8.71 0 4.42 0 0 Z " fill="#FEFAF9" transform="translate(429,103)"/>
<path d="M0 0 C4.21588051 0.15395069 7.43946057 0.32320507 11.28125 2.1640625 C16.39633611 8.71776657 16.77501437 16.60858901 16.85546875 24.640625 C16.8701973 25.65450287 16.88492584 26.66838074 16.90010071 27.71298218 C16.92391299 29.84243325 16.93942972 31.97199182 16.94702148 34.1015625 C16.9687452 37.35084418 17.04913763 40.59549471 17.13085938 43.84375 C17.14684507 45.92185033 17.15933438 47.99998112 17.16796875 50.078125 C17.19984787 51.04183014 17.23172699 52.00553528 17.26457214 52.9984436 C17.22460042 57.01109008 17.09156346 59.66937565 14.60293579 62.91619873 C11.10020894 66.152155 8.49324176 68.07454451 3.65625 68.4765625 C-0.07035067 68.1360283 -2.79001648 67.08831506 -5.5144043 64.37329102 C-10.83794377 57.09429776 -10.14979486 47.80041369 -10.03125 39.2265625 C-10.02235245 38.23293701 -10.02235245 38.23293701 -10.01327515 37.21923828 C-9.75690192 9.0768561 -9.75690192 9.0768561 -5.48046875 3.328125 C-2.71875 0.7265625 -2.71875 0.7265625 0 0 Z " fill="#EC6A65" transform="translate(122.71875,132.2734375)"/>
<path d="M0 0 C5.94 0 11.88 0 18 0 C18 25.74 18 51.48 18 78 C12.06 78 6.12 78 0 78 C0 52.26 0 26.52 0 0 Z " fill="#FEF8F8" transform="translate(476,103)"/>
<path d="M0 0 C2.93429955 0.58685991 3.69458615 1.15888647 5.5 3.5 C5.88095093 5.73876953 5.88095093 5.73876953 5.88818359 8.3828125 C5.89764008 9.37394043 5.90709656 10.36506836 5.9168396 11.38623047 C5.91076691 12.45502441 5.90469421 13.52381836 5.8984375 14.625 C5.90274277 16.27266357 5.90274277 16.27266357 5.90713501 17.95361328 C5.90917736 20.27702347 5.90363563 22.60045078 5.89111328 24.92382812 C5.87506278 28.48606712 5.89095698 32.04717142 5.91015625 35.609375 C5.90817385 37.86458585 5.90433024 40.11979598 5.8984375 42.375 C5.90754654 43.97819092 5.90754654 43.97819092 5.9168396 45.61376953 C5.90738312 46.60489746 5.89792664 47.59602539 5.88818359 48.6171875 C5.88579681 49.48972168 5.88341003 50.36225586 5.88095093 51.26123047 C5.41864297 53.97811836 4.68696144 54.86745702 2.5 56.5 C0 56.875 0 56.875 -2.5 56.5 C-4.62996735 54.89243764 -5.41063508 54.00421055 -5.88095093 51.35061646 C-5.88333771 50.51964447 -5.88572449 49.68867249 -5.88818359 48.83251953 C-5.89764008 47.88788849 -5.90709656 46.94325745 -5.9168396 45.97000122 C-5.91076691 44.95122894 -5.90469421 43.93245667 -5.8984375 42.8828125 C-5.90130768 41.83350555 -5.90417786 40.78419861 -5.90713501 39.70309448 C-5.90917748 37.48223329 -5.90363493 35.26135418 -5.89111328 33.04052734 C-5.87509481 29.64509652 -5.89093983 26.25086191 -5.91015625 22.85546875 C-5.90817322 20.69791404 -5.90432832 18.54036008 -5.8984375 16.3828125 C-5.90451019 15.36808868 -5.91058289 14.35336487 -5.9168396 13.30789185 C-5.7960282 1.15920564 -5.7960282 1.15920564 0 0 Z " fill="#EC6A65" transform="translate(726.5,243.5)"/>
<path d="M0 0 C2.93429955 0.58685991 3.69458615 1.15888647 5.5 3.5 C5.88095093 5.73876953 5.88095093 5.73876953 5.88818359 8.3828125 C5.89764008 9.37394043 5.90709656 10.36506836 5.9168396 11.38623047 C5.91076691 12.45502441 5.90469421 13.52381836 5.8984375 14.625 C5.90274277 16.27266357 5.90274277 16.27266357 5.90713501 17.95361328 C5.90917736 20.27702347 5.90363563 22.60045078 5.89111328 24.92382812 C5.87506278 28.48606712 5.89095698 32.04717142 5.91015625 35.609375 C5.90817385 37.86458585 5.90433024 40.11979598 5.8984375 42.375 C5.90754654 43.97819092 5.90754654 43.97819092 5.9168396 45.61376953 C5.90738312 46.60489746 5.89792664 47.59602539 5.88818359 48.6171875 C5.88579681 49.48972168 5.88341003 50.36225586 5.88095093 51.26123047 C5.41864297 53.97811836 4.68696144 54.86745702 2.5 56.5 C0 56.875 0 56.875 -2.5 56.5 C-4.62996735 54.89243764 -5.41063508 54.00421055 -5.88095093 51.35061646 C-5.88333771 50.51964447 -5.88572449 49.68867249 -5.88818359 48.83251953 C-5.89764008 47.88788849 -5.90709656 46.94325745 -5.9168396 45.97000122 C-5.91076691 44.95122894 -5.90469421 43.93245667 -5.8984375 42.8828125 C-5.90130768 41.83350555 -5.90417786 40.78419861 -5.90713501 39.70309448 C-5.90917748 37.48223329 -5.90363493 35.26135418 -5.89111328 33.04052734 C-5.87509481 29.64509652 -5.89093983 26.25086191 -5.91015625 22.85546875 C-5.90817322 20.69791404 -5.90432832 18.54036008 -5.8984375 16.3828125 C-5.90451019 15.36808868 -5.91058289 14.35336487 -5.9168396 13.30789185 C-5.7960282 1.15920564 -5.7960282 1.15920564 0 0 Z " fill="#EC6A65" transform="translate(356.5,243.5)"/>
<path d="M0 0 C1.670625 0.061875 1.670625 0.061875 3.375 0.125 C5.14648938 3.1876956 5.63020786 5.41366156 5.6496582 8.93774414 C5.65919022 9.88875504 5.66872223 10.83976593 5.67854309 11.81959534 C5.67763168 12.83948044 5.67672028 13.85936554 5.67578125 14.91015625 C5.68006638 15.9627916 5.6843515 17.01542694 5.68876648 18.09996033 C5.69450533 20.3232247 5.69501332 22.54650785 5.69067383 24.76977539 C5.68750862 28.17822064 5.71099738 31.58580235 5.73632812 34.99414062 C5.73860056 37.15364474 5.73930487 39.31315119 5.73828125 41.47265625 C5.747491 42.49456558 5.75670074 43.51647491 5.76618958 44.5693512 C5.75996078 45.51720993 5.75373199 46.46506866 5.74731445 47.44165039 C5.74794388 48.27563858 5.7485733 49.10962677 5.7492218 49.96888733 C5.28503913 52.64331765 4.5410734 53.52690095 2.375 55.125 C-0.6875 55.5 -0.6875 55.5 -3.625 55.125 C-5.78945492 51.87831762 -5.87697394 50.97634041 -5.88378906 47.22631836 C-5.89009338 46.23196274 -5.89639771 45.23760712 -5.90289307 44.21311951 C-5.8988446 43.14118851 -5.89479614 42.06925751 -5.890625 40.96484375 C-5.89253845 39.86402969 -5.8944519 38.76321564 -5.89642334 37.62904358 C-5.89778479 35.30144014 -5.89409113 32.9738291 -5.88574219 30.64624023 C-5.87503217 27.07323253 -5.8856443 23.50072649 -5.8984375 19.92773438 C-5.8971161 17.66926972 -5.89455411 15.41080538 -5.890625 13.15234375 C-5.89669769 11.5414109 -5.89669769 11.5414109 -5.90289307 9.89793396 C-5.89658875 8.9067305 -5.89028442 7.91552704 -5.88378906 6.89428711 C-5.88219788 6.01953232 -5.88060669 5.14477753 -5.87896729 4.24351501 C-5.39834812 0.2343415 -3.81322759 0.13149061 0 0 Z " fill="#EC6A65" transform="translate(300.625,244.875)"/>
<path d="M0 0 C3.4375 0.9375 3.4375 0.9375 5.5 2 C8.17923845 3.2964057 10.50570212 3.07076354 13.4375 2.9375 C13.7675 2.2775 14.0975 1.6175 14.4375 0.9375 C16.7475 0.9375 19.0575 0.9375 21.4375 0.9375 C21.0974812 9.84599264 21.0974812 9.84599264 18.8125 13.625 C15.31659996 15.55694476 13.24822815 14.92303314 9.4375 13.9375 C7.42968823 12.95327854 5.42857248 11.95515927 3.4375 10.9375 C2.1175 10.9375 0.7975 10.9375 -0.5625 10.9375 C-0.8925 11.9275 -1.2225 12.9175 -1.5625 13.9375 C-4.2025 13.9375 -6.8425 13.9375 -9.5625 13.9375 C-9.44793931 9.15719482 -9.17544157 5.83888467 -6.4375 1.8125 C-3.5625 -0.0625 -3.5625 -0.0625 0 0 Z " fill="#FEF7F7" transform="translate(667.5625,210.0625)"/>
<path d="M0 0 C9 0 9 0 11.52734375 1.62890625 C14.30761525 6.1053646 13.78078137 10.93528544 13 16 C11 19.25 11 19.25 8 21 C5.36 21 2.72 21 0 21 C0 14.07 0 7.14 0 0 Z " fill="#EC6A65" transform="translate(506,245)"/>
<path d="M0 0 C3.3 0 6.6 0 10 0 C13.08003791 4.10671721 13.39760913 4.73388888 13.3125 9.5 C13.30863281 10.4384375 13.30476563 11.376875 13.30078125 12.34375 C12.99156678 15.07447523 12.54056031 16.73295473 11 19 C8 20 8 20 0 20 C0 13.4 0 6.8 0 0 Z " fill="#EC6C67" transform="translate(408,246)"/>
<path d="M0 0 C3.3 0 6.6 0 10 0 C13.08003791 4.10671721 13.39760913 4.73388888 13.3125 9.5 C13.30863281 10.4384375 13.30476563 11.376875 13.30078125 12.34375 C12.99156678 15.07447523 12.54056031 16.73295473 11 19 C8 20 8 20 0 20 C0 13.4 0 6.8 0 0 Z " fill="#EC6C67" transform="translate(352,116)"/>
<path d="M0 0 C0.33 0 0.66 0 1 0 C1.50790159 3.51973999 2.00488523 7.04094042 2.5 10.5625 C2.64308594 11.55314453 2.78617188 12.54378906 2.93359375 13.56445312 C3.65920623 18.76467588 4.17673411 23.74952418 4 29 C1.69 29 -0.62 29 -3 29 C-3.18343092 22.51877412 -2.4800332 16.40111777 -1.5 10 C-1.35691406 9.03449219 -1.21382812 8.06898438 -1.06640625 7.07421875 C-0.71607574 4.71532665 -0.3605065 2.35735455 0 0 Z " fill="#EC6E6A" transform="translate(673,255)"/>
<path d="M0 0 C0.33 0 0.66 0 1 0 C1.50790159 3.51973999 2.00488523 7.04094042 2.5 10.5625 C2.64308594 11.55314453 2.78617187 12.54378906 2.93359375 13.56445312 C3.65920623 18.76467588 4.17673411 23.74952418 4 29 C1.69 29 -0.62 29 -3 29 C-3.18343092 22.51877412 -2.4800332 16.40111777 -1.5 10 C-1.35691406 9.03449219 -1.21382813 8.06898438 -1.06640625 7.07421875 C-0.71607574 4.71532665 -0.3605065 2.35735455 0 0 Z " fill="#EC6E6A" transform="translate(405,125)"/>
<path d="M0 0 C0.66 0.33 1.32 0.66 2 1 C3.80826437 9.5501883 4.32626931 18.28135909 4 27 C1.69 27 -0.62 27 -3 27 C-2.27247184 17.96333446 -1.16165032 8.9886923 0 0 Z " fill="#ED726D" transform="translate(566,257)"/>
<path d="M0 0 C0.33 0 0.66 0 1 0 C1.50327997 3.60371663 2.00205994 7.20804197 2.5 10.8125 C2.64308594 11.83666016 2.78617188 12.86082031 2.93359375 13.91601562 C3.06894531 14.89892578 3.20429687 15.88183594 3.34375 16.89453125 C3.53227539 18.25348511 3.53227539 18.25348511 3.72460938 19.63989258 C4 22 4 22 4 25 C1.36 25 -1.28 25 -4 25 C-3.52776393 21.01997839 -3.04605685 17.04116077 -2.5625 13.0625 C-2.36043945 11.35803711 -2.36043945 11.35803711 -2.15429688 9.61914062 C-2.02216797 8.53955078 -1.89003906 7.45996094 -1.75390625 6.34765625 C-1.63345947 5.34742432 -1.5130127 4.34719238 -1.38891602 3.31665039 C-1 1 -1 1 0 0 Z " fill="#EC6F6A" transform="translate(526,129)"/>
<path d="M0 0 C0.33 0 0.66 0 1 0 C1.33 2.97 1.66 5.94 2 9 C1.01 9.33 0.02 9.66 -1 10 C-0.67 6.7 -0.34 3.4 0 0 Z " fill="#F08F8B" transform="translate(673,255)"/>
<path d="M0 0 C0.33 0 0.66 0 1 0 C1.33 2.97 1.66 5.94 2 9 C1.01 9.33 0.02 9.66 -1 10 C-0.67 6.7 -0.34 3.4 0 0 Z " fill="#F08F8B" transform="translate(405,125)"/>
</svg>
