<?xml version="1.0" encoding="UTF-8"?>
<svg version="1.1" xmlns="http://www.w3.org/2000/svg" width="1080" height="1080">
<path d="M0 0 C356.4 0 712.8 0 1080 0 C1080 356.4 1080 712.8 1080 1080 C723.6 1080 367.2 1080 0 1080 C0 723.6 0 367.2 0 0 Z " fill="#E51D3C" transform="translate(0,0)"/>
<path d="M0 0 C2.23588869 1.68462648 4.31891242 3.4501247 6.390625 5.33203125 C7.04160156 5.89148438 7.69257812 6.4509375 8.36328125 7.02734375 C13.51659297 11.76060422 17.19977489 17.24603731 20.89038086 23.140625 C23.86610768 28.04075747 23.86610768 28.04075747 28.390625 31.33203125 C31.49345278 31.7289408 34.57826869 31.74207154 37.703125 31.76953125 C52.15045985 32.22618863 63.98047325 35.64552526 76.390625 43.33203125 C77.13957031 43.79351562 77.88851562 44.255 78.66015625 44.73046875 C91.54944486 53.5267091 99.31792104 68.39701404 102.98046875 83.22265625 C104.08364288 91.58576682 103.10865515 98.95684119 101.015625 107.08203125 C100.79390625 107.98824219 100.5721875 108.89445312 100.34375 109.828125 C99.42976839 113.51093327 98.46981815 117.10271775 97.23046875 120.69140625 C96.40258711 123.29442015 96.12698501 125.12400015 96.328125 127.83203125 C96.35777344 128.54359375 96.38742187 129.25515625 96.41796875 129.98828125 C98.0487796 133.91794595 100.70372441 136.26640617 104.390625 138.33203125 C107.90745236 139.07649272 111.3074931 139.02487717 114.890625 138.95703125 C133.90425323 139.22973542 150.55111272 144.80375238 164.390625 158.33203125 C171.77197378 166.73505972 177.87615967 175.73075042 179.140625 187.01953125 C179.98777864 193.32430928 182.66043948 197.81931406 185.85693359 203.18701172 C195.08371033 218.78527694 199.91120464 235.45754487 199.1015625 253.578125 C199.0192799 255.8639371 198.94021926 258.14984278 198.86181641 260.43579102 C198.79772784 261.99067078 198.71570511 263.54491554 198.61572266 265.09790039 C197.80750057 274.98799279 197.80750057 274.98799279 201.74755859 283.70361328 C204.40570108 286.51315892 207.40879341 288.87431269 210.390625 291.33203125 C218.99895648 301.70344566 224.81789086 314.11104547 224.640625 327.70703125 C224.63047363 328.83347046 224.63047363 328.83347046 224.62011719 329.98266602 C224.5206774 335.31483536 224.11035519 340.25101024 222.390625 345.33203125 C222.1225 346.12609375 221.854375 346.92015625 221.578125 347.73828125 C214.53444733 366.75621096 201.75826337 378.02979865 183.828125 386.51953125 C178.99883262 388.86647708 176.07750094 390.62999835 173.390625 395.33203125 C172.20638368 401.25323784 174.66696541 405.8747007 177.015625 411.19921875 C178.32145148 414.17442567 179.5117598 417.1607553 180.640625 420.20703125 C180.95515625 421.05007813 181.2696875 421.893125 181.59375 422.76171875 C185.78488089 436.28017033 184.4945434 450.85172119 178.375 463.46679688 C169.46221187 480.35511566 156.39070601 491.06060938 138.390625 497.33203125 C134.77777986 498.32880988 131.16668873 499.28149512 127.51953125 500.14453125 C123.28972632 501.74985047 120.42769725 504.25788676 118.390625 508.33203125 C117.62393901 515.10442417 119.55718045 519.96614749 122.19921875 526.18359375 C127.99886991 541.509885 125.91897427 561.64052385 119.37890625 576.32421875 C114.7361652 585.91517388 108.8538229 593.73835786 101.390625 601.33203125 C100.77703125 601.95851563 100.1634375 602.585 99.53125 603.23046875 C91.1689593 611.12818774 80.17739107 616.59232871 69.390625 620.33203125 C68.30406616 620.74062378 68.30406616 620.74062378 67.19555664 621.1574707 C57.17653539 624.45356425 46.7954222 623.46689012 36.39892578 623.11962891 C33.86750854 623.04113166 31.33689957 622.99356291 28.8046875 622.94921875 C28.03379791 622.91400116 27.26290833 622.87878357 26.46865845 622.84249878 C22.42190122 622.7863352 20.66675022 623.10729381 17.48486328 625.69702148 C15.44965503 628.25775856 13.50070768 630.82877062 11.640625 633.51953125 C1.82414525 647.21093722 -9.64996396 658.56327324 -26.609375 662.33203125 C-42.22595478 664.58647954 -61.543624 665.32583429 -75.609375 657.33203125 C-76.60130859 656.79255859 -76.60130859 656.79255859 -77.61328125 656.2421875 C-89.65703022 649.24220033 -97.82140057 639.24995643 -102.19263458 626.00355434 C-104.69760912 616.49158044 -104.02918569 606.49113535 -104.00378418 596.73219299 C-104.00867583 594.41056283 -104.0148669 592.08893511 -104.02224207 589.76731151 C-104.03863043 583.40025232 -104.03632581 577.03331705 -104.0308671 570.66624415 C-104.02700716 564.50036571 -104.0401232 558.33451055 -104.05124024 552.16864472 C-104.07612606 538.00237963 -104.08067033 523.83615228 -104.07877427 509.66986883 C-104.0773999 498.72540741 -104.0812252 487.78095904 -104.08869934 476.83650017 C-104.08974969 475.26272351 -104.09079731 473.68894685 -104.0918422 472.11517019 C-104.09236155 471.33391433 -104.09288089 470.55265847 -104.09341597 469.74772819 C-104.09419619 468.57366225 -104.09419619 468.57366225 -104.09499216 467.3758778 C-104.09551615 466.59182729 -104.09604014 465.80777678 -104.09658002 464.99996716 C-104.1111605 442.95178606 -104.1194472 420.90360975 -104.11483002 398.85542393 C-104.11465806 398.02452129 -104.11448611 397.19361864 -104.11430894 396.33753714 C-104.11342009 392.12646167 -104.11247528 387.91538623 -104.11151093 383.70431078 C-104.11122438 382.44987835 -104.11122438 382.44987835 -104.11093204 381.17010385 C-104.11054495 379.47892439 -104.11015462 377.78774494 -104.10976107 376.09656548 C-104.10379489 349.79879739 -104.11921347 323.50111737 -104.15136719 297.20336914 C-104.18748832 267.63590668 -104.20677057 238.06850007 -104.20182848 208.50101417 C-104.20135853 205.34464419 -104.20094827 202.18827421 -104.20057678 199.03190422 C-104.2004744 198.25476731 -104.20037201 197.47763041 -104.20026652 196.6769439 C-104.19907426 184.97157532 -104.21100557 173.26626728 -104.22972107 161.56091499 C-104.25101546 148.23645353 -104.2547499 134.91211859 -104.23542148 121.58765138 C-104.22603917 114.79428388 -104.22505907 108.00118293 -104.24577713 101.20783234 C-104.26456591 94.97792654 -104.25989474 88.74847715 -104.23723131 82.5185883 C-104.23306545 80.27564134 -104.23717694 78.03265885 -104.25082725 75.78974957 C-104.38603807 51.93087424 -100.13066687 28.61951914 -83.609375 10.33203125 C-83.04089844 9.66042969 -82.47242188 8.98882812 -81.88671875 8.296875 C-61.64690546 -14.00559442 -24.62641022 -15.74173228 0 0 Z " fill="#FEFEFE" transform="translate(654.609375,334.66796875)"/>
<path d="M0 0 C12.85186074 10.14017541 21.86719181 22.68566672 24.62890625 39.07421875 C24.71437083 41.13081893 24.74709803 43.18991681 24.74311352 45.24828815 C24.74317422 46.50247929 24.74323492 47.75667042 24.74329746 49.04886734 C24.73829405 50.44227189 24.73321649 51.83567617 24.72807312 53.2290802 C24.72632149 54.71714765 24.72503152 56.20521569 24.72416127 57.69328392 C24.72129816 60.94840962 24.71525294 64.20350915 24.70684016 67.4586252 C24.6930514 72.81929312 24.68627169 78.17995722 24.68043804 83.54063892 C24.67369097 89.40755851 24.66631837 95.27447524 24.65659958 101.14139074 C24.63168273 116.20635818 24.62212758 131.27128618 24.62051392 146.33627319 C24.6202182 148.61206959 24.61991777 150.88786598 24.61961275 153.16366237 C24.61915187 156.64579816 24.61869198 160.12793395 24.61825845 163.61006975 C24.61346663 198.42257659 24.59111188 233.2350745 24.55461121 268.04756165 C24.55389175 268.7345984 24.5531723 269.42163515 24.55243105 270.1294912 C24.53687489 284.93842014 24.52018266 299.74734755 24.50205063 314.55627356 C24.49327943 321.72021405 24.48473659 328.8841548 24.47631836 336.0480957 C24.47547731 336.76030873 24.47463626 337.47252176 24.47376973 338.20631701 C24.44640484 361.47852921 24.43564917 384.75071459 24.43311101 408.02294162 C24.43039541 432.13824671 24.41137277 456.25348507 24.3717451 480.36875911 C24.36616177 483.77058193 24.36076243 487.172405 24.35547447 490.57422829 C24.35442844 491.24331102 24.3533824 491.91239376 24.35230467 492.60175173 C24.33502265 503.97688361 24.3378056 515.35193321 24.34539314 526.72707341 C24.35070522 536.80059552 24.33769717 546.87398982 24.31024335 556.94747552 C24.29497029 562.74820381 24.28772049 568.54864583 24.30230904 574.3493824 C24.31549329 579.66211996 24.30550233 584.97430316 24.27746852 590.28697846 C24.27137851 592.2020133 24.27361071 594.11709773 24.28527699 596.03210672 C24.39464226 615.51400834 19.47863857 628.72493857 6.00390625 643.26171875 C-7.96945447 656.82473348 -25.45141098 661.43994952 -44.42822266 661.37866211 C-50.77465601 661.24715944 -56.42206114 660.38220464 -62.37109375 658.07421875 C-63.49644531 657.6565625 -63.49644531 657.6565625 -64.64453125 657.23046875 C-78.38725341 651.63693973 -88.03429963 643.01676817 -95.49609375 630.26171875 C-98.88428307 624.54288628 -101.85206835 620.27608721 -108.57421875 618.48828125 C-111.46673645 618.06005936 -114.32466604 617.89457742 -117.24511719 617.78466797 C-136.30842012 617.04033999 -151.66784951 610.77746299 -165.37109375 597.07421875 C-176.77835852 583.97133677 -181.50737723 568.57868635 -180.61962891 551.3828125 C-179.87055714 544.42483353 -177.47281203 537.71702669 -175.37109375 531.07421875 C-173.95575676 526.07110996 -173.85382382 521.23734756 -175.05859375 516.19921875 C-176.85862628 513.28488037 -178.06973313 513.04420615 -181.37109375 512.07421875 C-184.63854737 511.7872763 -187.90523568 511.75721934 -191.18359375 511.69921875 C-211.01448533 511.01811624 -227.92124161 505.35081251 -242.3359375 491.13671875 C-250.24876042 482.5486221 -255.11573922 472.90295662 -257.55859375 461.57421875 C-258.8040083 456.34215976 -260.77908664 451.93360389 -263.24609375 447.19921875 C-274.26066488 425.8939917 -279.09214808 400.52399559 -273.93359375 376.76171875 C-273.15863324 372.61044146 -273.15863324 372.61044146 -274.55078125 368.7578125 C-276.35910673 366.64006244 -278.2452584 364.87052953 -280.37109375 363.07421875 C-290.99795853 353.23797411 -299.34263232 339.75060387 -300.5390625 325.00390625 C-300.67969852 310.20899695 -295.73987679 296.73961821 -285.93359375 285.57421875 C-284.43725063 284.04978728 -282.9169788 282.54838748 -281.37109375 281.07421875 C-280.66210938 280.36910156 -279.953125 279.66398437 -279.22265625 278.9375 C-271.44388909 271.56592462 -262.13674963 266.69582034 -252.4296875 262.3125 C-248.98236128 260.23887113 -247.62528556 257.83679417 -246.37109375 254.07421875 C-245.90340027 248.46867517 -247.12520965 244.64684251 -249.68359375 239.76171875 C-254.3681747 230.65661465 -256.9480514 222.12788616 -256.87109375 211.82421875 C-256.86142578 210.45342163 -256.86142578 210.45342163 -256.8515625 209.05493164 C-256.40561888 192.38925561 -248.05503794 178.72423358 -236.12109375 167.390625 C-226.77547655 159.51853551 -216.91355523 155.45757837 -205.37109375 152.07421875 C-197.98801949 150.06202442 -197.98801949 150.06202442 -192.37109375 145.07421875 C-190.62501557 141.58206239 -190.92673492 137.89330271 -191.37109375 134.07421875 C-192.19977307 131.79329944 -193.22351086 129.67932757 -194.28125 127.49609375 C-201.05070981 112.45284973 -199.53379762 95.11948953 -194.26953125 79.88671875 C-186.09593604 59.2154328 -171.5810857 43.14972963 -151.32519531 33.88330078 C-140.88793848 29.56182787 -129.71969919 27.8727011 -118.4765625 28.01171875 C-117.40551018 28.01739868 -117.40551018 28.01739868 -116.31282043 28.02319336 C-114.06134601 28.03527776 -111.81000813 28.0539205 -109.55859375 28.07421875 C-106.57292036 28.10082282 -103.58730966 28.12077815 -100.6015625 28.13671875 C-99.28567139 28.14832031 -97.96978027 28.15992188 -96.61401367 28.171875 C-93.35726938 28.22934901 -93.35726938 28.22934901 -90.37109375 27.07421875 C-89.33439856 25.30002022 -89.33439856 25.30002022 -88.37109375 23.07421875 C-79.17107431 7.8291026 -67.77173442 -3.10751279 -50.53125 -8.453125 C-32.68106417 -12.35886186 -15.31303407 -10.52057929 0 0 Z " fill="#FEFEFE" transform="translate(502.37109375,334.92578125)"/>
<path d="M0 0 C11.22 0 22.44 0 34 0 C34 67.65 34 135.3 34 205 C19.81 205 5.62 205 -9 205 C-9.33 151.54 -9.66 98.08 -10 43 C-22.375 48.445 -22.375 48.445 -35 54 C-35.66 54 -36.32 54 -37 54 C-37 43.44 -37 32.88 -37 22 C-33.844375 20.39125 -30.68875 18.7825 -27.4375 17.125 C-12.8397715 9.88661942 -12.8397715 9.88661942 0 0 Z " fill="#FEFBFC" transform="translate(102,104)"/>
<path d="M0 0 C3.14581423 -0.02888514 6.29159469 -0.04675923 9.4375 -0.0625 C10.33533203 -0.07087891 11.23316406 -0.07925781 12.15820312 -0.08789062 C13.01220703 -0.09111328 13.86621094 -0.09433594 14.74609375 -0.09765625 C15.93223267 -0.10551147 15.93223267 -0.10551147 17.14233398 -0.11352539 C19 0 19 0 20 1 C20.48940155 3.28683312 20.9257145 5.58506357 21.33984375 7.88671875 C21.46686172 8.5813472 21.5938797 9.27597565 21.7247467 9.99165344 C22.26937253 12.97016394 22.80501181 15.95026865 23.34057617 18.93041992 C23.73257642 21.10402178 24.12981365 23.27662253 24.52734375 25.44921875 C24.6451268 26.11507492 24.76290985 26.78093109 24.88426208 27.46696472 C25.61396778 31.44835354 26.63214349 35.19140786 28 39 C28.81831475 35.05315173 29.63616457 31.10620742 30.45361328 27.15917969 C30.73083423 25.8209381 31.00817466 24.48272125 31.28564453 23.14453125 C32.88412376 15.43489858 34.4673056 7.72299411 36 0 C42.27 0 48.54 0 55 0 C55.79457436 26.00812134 56.1394426 51.98001025 56 78 C51.71 78 47.42 78 43 78 C42.97494385 76.79875488 42.9498877 75.59750977 42.92407227 74.35986328 C42.83006856 69.91313571 42.72983083 65.46656693 42.62768555 61.02001953 C42.58430999 59.09362496 42.54263686 57.16719129 42.50268555 55.24072266 C42.44504638 52.47546592 42.38133384 49.7104065 42.31640625 46.9453125 C42.29969376 46.0806839 42.28298126 45.2160553 42.26576233 44.32522583 C42.27840104 40.02604148 42.27840104 40.02604148 41 36 C40.15974242 40.53416948 39.32373114 45.06909499 38.49145508 49.60473633 C38.20840955 51.14400781 37.92425339 52.68307554 37.63891602 54.22192383 C36.17417094 62.12539068 34.72025136 69.98606395 34 78 C30.04 78 26.08 78 22 78 C19.36 63.48 16.72 48.96 14 34 C13.34 48.52 12.68 63.04 12 78 C7.71 78 3.42 78 -1 78 C-1.07244146 60.49331449 -0.85194756 43.00289543 -0.5 25.5 C-0.45161124 23.0078166 -0.40343316 20.5156291 -0.35546875 18.0234375 C-0.2393955 12.0155758 -0.12076893 6.00776905 0 0 Z " fill="#FEF7F8" transform="translate(548,103)"/>
<path d="M0 0 C5.49160118 3.77035305 8.12059892 8.9758194 9.83203125 15.2578125 C10.23221076 18.54381319 10.25361071 21.78629217 10.23046875 25.09375 C10.23333893 26.01314362 10.23620911 26.93253723 10.23916626 27.87979126 C10.24119714 29.8143984 10.23573601 31.74902652 10.22314453 33.68359375 C10.20711402 36.61766352 10.22300764 39.55034822 10.2421875 42.484375 C10.24020418 44.375003 10.23635866 46.26563014 10.23046875 48.15625 C10.23957779 49.45204483 10.23957779 49.45204483 10.24887085 50.77401733 C10.16626046 58.06247056 8.88521615 64.93023697 5.01953125 71.1953125 C-1.72148062 77.55112369 -9.65197675 77.70487968 -18.453125 77.5390625 C-24.57005196 77.07595131 -28.14812818 75.22306278 -32.48046875 71.0078125 C-36.76852235 64.01987331 -37.61968836 57.97568739 -37.56640625 49.94921875 C-37.56927643 48.98306137 -37.57214661 48.01690399 -37.57510376 47.02146912 C-37.57713525 44.98850922 -37.57166978 42.95552936 -37.55908203 40.92260742 C-37.54303319 37.83271994 -37.55895325 34.74414384 -37.578125 31.65429688 C-37.57614206 29.66926798 -37.57229735 27.68423989 -37.56640625 25.69921875 C-37.57247894 24.78644669 -37.57855164 23.87367462 -37.58480835 22.9332428 C-37.50743766 15.77884385 -36.14047004 9.67175704 -32.54296875 3.4453125 C-23.88162413 -4.53224175 -10.32153915 -5.47673506 0 0 Z " fill="#FEF9FA" transform="translate(289.16796875,104.7421875)"/>
<path d="M0 0 C6.2910849 4.12073393 8.94226342 9.99756778 10.67578125 17.09765625 C11.0692649 20.33270419 11.12078655 23.52084271 11.109375 26.77734375 C11.11461685 27.6707547 11.1198587 28.56416565 11.1252594 29.48464966 C11.13164087 31.36198901 11.13039329 33.23936856 11.12182617 35.11669922 C11.11332287 37.95874668 11.14212093 40.79877563 11.17382812 43.640625 C11.25757079 64.8418256 11.25757079 64.8418256 4.95483398 72.07177734 C-1.13907656 77.92373041 -8.22789581 78.53311407 -16.34082031 78.53588867 C-23.90015622 78.33792268 -27.55363551 75.86823949 -32.69921875 70.72265625 C-36.68110069 64.29038543 -36.63190705 57.72984034 -36.625 50.37890625 C-36.62928513 49.36219849 -36.63357025 48.34549072 -36.63798523 47.29797363 C-36.6437073 45.15650169 -36.64424451 43.01501032 -36.63989258 40.87353516 C-36.63672883 37.60806011 -36.66023207 34.34348851 -36.68554688 31.078125 C-36.68781979 28.99088655 -36.6885234 26.90364568 -36.6875 24.81640625 C-36.69670975 23.846427 -36.70591949 22.87644775 -36.71540833 21.8770752 C-36.66787226 14.87232615 -35.34278355 10.43605188 -31.69921875 4.41015625 C-23.69014302 -3.38815433 -10.0742711 -4.63804772 0 0 Z " fill="#FEFBFB" transform="translate(789.32421875,103.90234375)"/>
<path d="M0 0 C5.94 0 11.88 0 18 0 C18 10.56 18 21.12 18 32 C21.96 32 25.92 32 30 32 C30 21.44 30 10.88 30 0 C35.61 0 41.22 0 47 0 C47 25.74 47 51.48 47 78 C41.39 78 35.78 78 30 78 C30 66.78 30 55.56 30 44 C26.04 44 22.08 44 18 44 C18 55.22 18 66.44 18 78 C12.06 78 6.12 78 0 78 C0 52.26 0 26.52 0 0 Z " fill="#FEFAFA" transform="translate(363,103)"/>
<path d="M0 0 C4.29 0 8.58 0 13 0 C17.62 10.89 22.24 21.78 27 33 C27.33 22.11 27.66 11.22 28 0 C32.95 0 37.9 0 43 0 C43 25.74 43 51.48 43 78 C39.04 78 35.08 78 31 78 C27.21271388 69.88633659 23.86043329 61.68335781 20.6875 53.3125 C19.140625 49.249375 17.59375 45.18625 16 41 C15.67 53.21 15.34 65.42 15 78 C10.05 78 5.1 78 0 78 C0 52.26 0 26.52 0 0 Z " fill="#FEF8F9" transform="translate(309,103)"/>
<path d="M0 0 C3.96 0 7.92 0 12 0 C15.81410052 7.40828894 19.15160493 14.91808053 22.3125 22.625 C23.859375 26.37875 25.40625 30.1325 27 34 C27.33 22.78 27.66 11.56 28 0 C32.62 0 37.24 0 42 0 C42 25.74 42 51.48 42 78 C38.04 78 34.08 78 30 78 C29.64695801 77.08710205 29.29391602 76.1742041 28.93017578 75.23364258 C27.61470899 71.83232654 26.29886524 68.43115644 24.98291016 65.0300293 C24.4144486 63.56066778 23.84608796 62.09126722 23.27783203 60.62182617 C22.4589273 58.50429057 21.6396544 56.38689773 20.8203125 54.26953125 C20.44206833 53.29111015 20.44206833 53.29111015 20.05618286 52.29292297 C18.72466193 48.85309076 17.3699718 45.4249295 16 42 C15.67 53.88 15.34 65.76 15 78 C10.05 78 5.1 78 0 78 C0 52.26 0 26.52 0 0 Z " fill="#FEFCFC" transform="translate(658,103)"/>
<path d="M0 0 C4.9205337 3.39202748 7.28796694 7.5140544 8.8359375 13.265625 C9.08672389 17.95031483 8.9245453 22.5694115 8.8359375 27.265625 C3.2259375 27.265625 -2.3840625 27.265625 -8.1640625 27.265625 C-8.39192708 23.68489583 -8.61979167 20.10416667 -8.84765625 16.5234375 C-8.95612277 13.38262348 -8.95612277 13.38262348 -10.1640625 11.265625 C-13.58049009 11.01546627 -13.58049009 11.01546627 -17.1640625 11.265625 C-19.26994458 14.42444812 -19.41341441 15.16144445 -19.40698242 18.76538086 C-19.41005905 19.67319809 -19.41313568 20.58101532 -19.41630554 21.51634216 C-19.40912003 22.49450394 -19.40193451 23.47266571 -19.39453125 24.48046875 C-19.39407303 25.48775528 -19.39361481 26.49504181 -19.3931427 27.53285217 C-19.39012087 29.66375913 -19.38223664 31.79466388 -19.36987305 33.92553711 C-19.35165389 37.18676589 -19.34936315 40.44771008 -19.34960938 43.70898438 C-19.3446926 45.77864829 -19.33886358 47.84831027 -19.33203125 49.91796875 C-19.33091843 50.89410629 -19.3298056 51.87024384 -19.32865906 52.8759613 C-19.32227921 53.78693069 -19.31589935 54.69790009 -19.30932617 55.63647461 C-19.30360847 56.83535561 -19.30360847 56.83535561 -19.29777527 58.05845642 C-19.16530633 60.24509338 -18.76709112 62.16429341 -18.1640625 64.265625 C-14.14048496 64.63567015 -14.14048496 64.63567015 -10.5078125 63.203125 C-8.47719743 60.27526142 -8.63793309 57.59600378 -8.4765625 54.078125 C-8.3734375 51.83 -8.2703125 49.581875 -8.1640625 47.265625 C-2.5540625 47.265625 3.0559375 47.265625 8.8359375 47.265625 C9.21837141 56.25282197 9.52624284 64.67941864 3.4453125 71.921875 C-2.9355232 77.69821047 -10.35804303 77.71030866 -18.5234375 77.57421875 C-24.12754971 77.09919207 -27.70334778 75.71365562 -31.6796875 71.7578125 C-37.32077556 64.78750254 -37.47789726 55.89594136 -37.5 47.296875 C-37.5066568 46.37652466 -37.5133136 45.45617432 -37.52017212 44.50793457 C-37.53023153 42.57513407 -37.53499124 40.64229931 -37.53466797 38.70947266 C-37.53905123 35.77317723 -37.57546984 32.83837517 -37.61328125 29.90234375 C-37.61914907 28.01302591 -37.6231187 26.12370102 -37.625 24.234375 C-37.63937103 23.36848755 -37.65374207 22.5026001 -37.66854858 21.61047363 C-37.61318831 14.13257797 -35.553487 8.23626087 -30.8515625 2.390625 C-22.13744772 -4.49960529 -9.89194892 -5.22177229 0 0 Z " fill="#FEFAFA" transform="translate(235.1640625,104.734375)"/>
<path d="M0 0 C4.2960318 2.80894387 6.91249508 5.51621315 8.54296875 10.46484375 C9.52935767 15.9363515 9.15965654 21.46524006 9 27 C3.39 27 -2.22 27 -8 27 C-8.33 22.05 -8.66 17.1 -9 12 C-14.49728375 10.40523438 -14.49728375 10.40523438 -16.85173035 12.15052795 C-18.28860706 14.46484786 -18.37441068 15.87320957 -18.37231445 18.59155273 C-18.37854324 19.51939072 -18.38477203 20.4472287 -18.39118958 21.40318298 C-18.38197983 22.40321854 -18.37277008 23.40325409 -18.36328125 24.43359375 C-18.36377975 25.46307632 -18.36427826 26.4925589 -18.36479187 27.55323792 C-18.36245057 29.73123097 -18.35271883 31.90922668 -18.33618164 34.0871582 C-18.31261676 37.42098204 -18.31561706 40.75400483 -18.32226562 44.08789062 C-18.31668795 46.20312977 -18.30957752 48.31836554 -18.30078125 50.43359375 C-18.30169266 51.43160507 -18.30260406 52.42961639 -18.30354309 53.45787048 C-18.28924507 54.8543557 -18.28924507 54.8543557 -18.2746582 56.27905273 C-18.26774712 57.50458107 -18.26774712 57.50458107 -18.26069641 58.75486755 C-17.97448177 61.21976443 -17.2318251 62.86312931 -16 65 C-14.02 65 -12.04 65 -10 65 C-8.47943501 61.95887002 -8.6258839 58.71802203 -8.4375 55.375 C-8.293125 52.94125 -8.14875 50.5075 -8 48 C-2.06 48 3.88 48 10 48 C10.33528952 56.71752741 10.14903456 65.11779381 4.8125 72.4375 C-1.65516368 78.33026025 -8.21406697 78.49784748 -16.65234375 78.28125 C-22.61609553 77.78021134 -26.37243347 76.55523024 -30.8125 72.3125 C-35.60810292 65.05058701 -36.46695779 58.79030188 -36.46875 50.2890625 C-36.47636353 49.2808847 -36.48397705 48.27270691 -36.49182129 47.23397827 C-36.50257831 45.1110887 -36.5054934 42.9881464 -36.50097656 40.86523438 C-36.50000483 37.64101706 -36.54166703 34.4191867 -36.5859375 31.1953125 C-36.59114597 29.12240074 -36.59383267 27.0494808 -36.59375 24.9765625 C-36.61014526 24.02520416 -36.62654053 23.07384583 -36.64343262 22.09365845 C-36.56174079 14.06619833 -34.23706803 7.32006978 -28.5625 1.5 C-20.25258065 -3.36434303 -8.83991059 -3.78853311 0 0 Z " fill="#FEFAFB" transform="translate(500,104)"/>
<path d="M0 0 C11.55 0 23.1 0 35 0 C35 3.96 35 7.92 35 12 C29.39 12 23.78 12 18 12 C18 18.27 18 24.54 18 31 C22.29 31 26.58 31 31 31 C31 34.96 31 38.92 31 43 C26.71 43 22.42 43 18 43 C18 50.59 18 58.18 18 66 C23.94 66 29.88 66 36 66 C36 69.96 36 73.92 36 78 C24.12 78 12.24 78 0 78 C0 52.26 0 26.52 0 0 Z " fill="#FEF7F8" transform="translate(615,103)"/>
<path d="M0 0 C11.55 0 23.1 0 35 0 C35 3.96 35 7.92 35 12 C29.06 12 23.12 12 17 12 C17 18.27 17 24.54 17 31 C21.62 31 26.24 31 31 31 C31 34.96 31 38.92 31 43 C26.38 43 21.76 43 17 43 C17 50.59 17 58.18 17 66 C22.94 66 28.88 66 35 66 C35 69.96 35 73.92 35 78 C23.45 78 11.9 78 0 78 C0 52.26 0 26.52 0 0 Z " fill="#FEFBFC" transform="translate(422,103)"/>
<path d="M0 0 C13.53 0 27.06 0 41 0 C41 4.29 41 8.58 41 13 C37.04 13 33.08 13 29 13 C29 34.45 29 55.9 29 78 C23.39 78 17.78 78 12 78 C12 56.55 12 35.1 12 13 C8.04 13 4.08 13 0 13 C0 8.71 0 4.42 0 0 Z " fill="#FEFDFD" transform="translate(707,103)"/>
<path d="M0 0 C5.61 0 11.22 0 17 0 C17 25.74 17 51.48 17 78 C11.39 78 5.78 78 0 78 C0 52.26 0 26.52 0 0 Z " fill="#FEFEFE" transform="translate(519,103)"/>
<path d="M0 0 C2.11076435 3.16614653 2.25413059 3.95254782 2.2746582 7.57568359 C2.28419022 8.50029388 2.29372223 9.42490417 2.30354309 10.37753296 C2.30263168 11.37443146 2.30172028 12.37132996 2.30078125 13.3984375 C2.30506638 14.4255484 2.3093515 15.4526593 2.31376648 16.51089478 C2.31951184 18.68466454 2.32000853 20.85845353 2.31567383 23.03222656 C2.31251884 26.35515266 2.33595372 29.67718434 2.36132812 33 C2.36360161 35.11197804 2.36430439 37.22395848 2.36328125 39.3359375 C2.372491 40.32878754 2.38170074 41.32163757 2.39118958 42.34457397 C2.33158533 51.25263829 2.33158533 51.25263829 -1 55 C-4 55.625 -4 55.625 -7 55 C-10.99791044 50.46504806 -10.41756783 45.29474316 -10.36328125 39.58984375 C-10.36377975 38.58538712 -10.36427826 37.58093048 -10.36479187 36.54603577 C-10.36245573 34.42707333 -10.35275439 32.3081079 -10.33618164 30.18920898 C-10.31255862 26.94554865 -10.31562822 23.70270908 -10.32226562 20.45898438 C-10.31668956 18.3984326 -10.30958013 16.33788428 -10.30078125 14.27734375 C-10.30169266 13.30748032 -10.30260406 12.33761688 -10.30354309 11.33836365 C-10.29401108 10.43384964 -10.28447906 9.52933563 -10.2746582 8.59741211 C-10.27005081 7.80419052 -10.26544342 7.01096893 -10.26069641 6.19371033 C-9.96648984 3.71801844 -9.31636489 2.10930599 -8 0 C-5.06791253 -1.46604374 -3.11702298 -0.77925574 0 0 Z " fill="#E62643" transform="translate(780,115)"/>
<path d="M0 0 C2.5 0.5 2.5 0.5 4.13134766 2.35107422 C6.1532184 7.00289171 5.92848259 11.36239284 5.8984375 16.3828125 C5.90274277 17.9596431 5.90274277 17.9596431 5.90713501 19.56832886 C5.90917295 21.78562968 5.90366202 24.00294859 5.89111328 26.22021484 C5.87502427 29.61987265 5.89098822 33.01834733 5.91015625 36.41796875 C5.9081744 38.5729193 5.90433194 40.7278691 5.8984375 42.8828125 C5.90754654 44.41097092 5.90754654 44.41097092 5.9168396 45.97000122 C5.90738312 46.91463226 5.89792664 47.85926331 5.88818359 48.83251953 C5.88579681 49.66349152 5.88341003 50.4944635 5.88095093 51.35061646 C5.40840368 54.0168005 4.65990975 54.90421539 2.5 56.5 C-0.5625 56.875 -0.5625 56.875 -3.5 56.5 C-5.65869783 53.26195326 -5.75491344 52.35639208 -5.7746582 48.6171875 C-5.78419022 47.62605957 -5.79372223 46.63493164 -5.80354309 45.61376953 C-5.80263168 44.54497559 -5.80172028 43.47618164 -5.80078125 42.375 C-5.80506638 41.27655762 -5.8093515 40.17811523 -5.81376648 39.04638672 C-5.81951185 36.72298879 -5.82000853 34.39957287 -5.81567383 32.07617188 C-5.81251244 28.51401234 -5.83597628 24.95268188 -5.86132812 21.390625 C-5.86360087 19.13541772 -5.86430473 16.8802082 -5.86328125 14.625 C-5.872491 13.55620605 -5.88170074 12.48741211 -5.89118958 11.38623047 C-5.88496078 10.39510254 -5.87873199 9.40397461 -5.87231445 8.3828125 C-5.87294388 7.51027832 -5.8735733 6.63774414 -5.8742218 5.73876953 C-5.25718435 2.04736339 -3.5903646 0.71807292 0 0 Z " fill="#E51F3E" transform="translate(275.5,113.5)"/>
</svg>
