<?xml version="1.0" encoding="UTF-8"?>
<svg version="1.1" xmlns="http://www.w3.org/2000/svg" width="1080" height="1080">
<path d="M0 0 C356.4 0 712.8 0 1080 0 C1080 356.4 1080 712.8 1080 1080 C723.6 1080 367.2 1080 0 1080 C0 723.6 0 367.2 0 0 Z " fill="#14AB02" transform="translate(0,0)"/>
<path d="M0 0 C0.97277893 -0.00012085 1.94555786 -0.0002417 2.94781494 -0.00036621 C17.86298937 0.0260231 32.08484384 0.77424626 46.625 4.375 C48.54119141 4.82552734 48.54119141 4.82552734 50.49609375 5.28515625 C53.93205321 6.18607184 57.26296806 7.2291106 60.625 8.375 C61.33930176 8.61589355 62.05360352 8.85678711 62.78955078 9.10498047 C74.21967762 13.00090974 84.99020781 17.6679792 95.625 23.375 C97.36136719 24.27992188 97.36136719 24.27992188 99.1328125 25.203125 C113.80625756 33.15820456 126.65784527 43.81408532 138.625 55.375 C140.00751953 56.68017578 140.00751953 56.68017578 141.41796875 58.01171875 C146.6045814 63.022762 151.28408874 68.2197376 155.75 73.875 C156.22381104 74.47481689 156.69762207 75.07463379 157.18579102 75.69262695 C159.15111041 78.2401019 160.59986597 80.29959791 161.625 83.375 C164.37106799 80.77905873 166.67587146 78.0489723 168.91967773 75.01196289 C199.17783085 34.45217012 246.08048526 8.58417502 295.6885376 0.75338745 C304.67949595 -0.40517184 313.76402549 -0.26620222 322.8125 -0.1875 C324.4241655 -0.18011307 324.4241655 -0.18011307 326.06838989 -0.1725769 C342.38410227 -0.07088313 357.90296668 0.62525223 373.625 5.375 C374.71200195 5.70209961 375.79900391 6.02919922 376.91894531 6.36621094 C407.37569542 15.80217135 434.45402466 30.30107227 457.625 52.375 C458.18977051 52.91253906 458.75454102 53.45007813 459.33642578 54.00390625 C494.5644188 87.75749787 518.42236481 134.87335583 519.72558594 184.18066406 C520.35845827 215.20113433 520.35845827 215.20113433 517.98876953 229.19677734 C517.55060549 231.82046833 517.16593383 234.45054912 516.77734375 237.08203125 C514.89301556 249.4808911 512.39013243 261.41760141 508.625 273.375 C508.3249707 274.35243164 508.02494141 275.32986328 507.71582031 276.33691406 C495.68195865 315.28956202 495.68195865 315.28956202 485.625 330.375 C482.79124958 330.67272299 480.17506535 330.77305432 477.33856201 330.74681091 C476.03765385 330.75254776 476.03765385 330.75254776 474.71046472 330.7584005 C471.78695892 330.76773051 468.86392117 330.75566585 465.94042969 330.74389648 C463.8513723 330.74636287 461.76231614 330.75019962 459.67326355 330.75531006 C455.16553387 330.76366687 450.65793043 330.76282448 446.15019989 330.75512505 C439.02408468 330.74357368 431.89813295 330.75567863 424.77203369 330.77174377 C407.06773879 330.80799461 389.36344726 330.81416782 371.65911865 330.81164551 C357.91009233 330.80993542 344.16119884 330.81703059 330.41220975 330.85162407 C323.32705645 330.86844242 316.24222658 330.86660175 309.15707445 330.85080135 C304.7481781 330.84501032 300.33943555 330.85573437 295.93056679 330.87104797 C293.88513831 330.87477908 291.83968415 330.87165211 289.7942791 330.86117744 C287.00225382 330.84783182 284.21135243 330.85899496 281.41937256 330.87620544 C280.60944186 330.86639867 279.79951116 330.85659189 278.96503711 330.84648794 C273.73985382 330.91311508 270.78512547 331.93879433 266.625 335.375 C265.23924579 337.28862994 265.23924579 337.28862994 264.5 339.4375 C264.19320313 340.2109375 263.88640625 340.984375 263.5703125 341.78125 C263.25835938 342.6371875 262.94640625 343.493125 262.625 344.375 C262.25117187 345.3753125 261.87734375 346.375625 261.4921875 347.40625 C260.51572017 350.05568584 259.56110502 352.71108412 258.625 355.375 C256.70117559 352.06687573 256.18800447 349.19697706 255.765625 345.41015625 C255.55111694 343.5391626 255.55111694 343.5391626 255.33227539 341.63037109 C255.17979704 340.2327532 255.02737402 338.83512927 254.875 337.4375 C254.70702025 335.95125292 254.53829438 334.46509002 254.36889648 332.97900391 C253.8868589 328.73298821 253.41437435 324.4859525 252.94329834 320.2387085 C251.99589016 311.71494159 251.03382655 303.1928018 250.07305908 294.67053223 C249.81508761 292.38190829 249.5573992 290.09325243 249.29998779 287.80456543 C247.62448741 272.92018154 245.88139996 258.04728673 244 243.1875 C243.89679443 242.37209747 243.79358887 241.55669495 243.68725586 240.71658325 C243.4818574 239.09438384 243.2764438 237.47218634 243.0710144 235.84999084 C242.92178024 234.67127663 242.92178024 234.67127663 242.76953125 233.46875 C242.67157257 232.6952269 242.57361389 231.9217038 242.47268677 231.1247406 C241.5075667 223.48330289 240.58601578 215.83703558 239.6875 208.1875 C239.60914917 207.52046051 239.53079834 206.85342102 239.45007324 206.16616821 C238.23214753 195.76937355 237.05677534 185.36782782 235.88664246 174.96556091 C234.8689319 165.91936026 233.84185957 156.8742456 232.81037903 147.8296051 C232.00651275 140.76985828 231.21850778 133.70853093 230.44009399 126.64593506 C229.92829889 122.03274867 229.4032328 117.42113766 228.87493896 112.80981445 C228.62700539 110.62115387 228.38460156 108.43185906 228.14801025 106.24194336 C227.81898745 103.20371032 227.47038445 100.16831667 227.1171875 97.1328125 C227.02564392 96.24357086 226.93410034 95.35432922 226.83978271 94.43814087 C226.16143269 88.83622352 224.85005694 85.03828866 221.625 80.375 C217.29868925 77.39465259 213.82400694 76.80783561 208.625 77.375 C205.86058031 78.78259341 205.86058031 78.78259341 203.625 80.375 C202.965 80.375 202.305 80.375 201.625 80.375 C199.04343483 86.82891294 198.03264601 92.95167853 197.35986328 99.81811523 C196.96518515 103.77464737 196.41975534 107.64987529 195.68359375 111.55859375 C194.46785852 118.02982192 193.61358552 124.53646147 192.75 131.0625 C191.38869932 141.15966633 189.86149888 151.20598921 188.12988281 161.24560547 C186.54322196 170.57386206 185.26075751 179.93852354 184.01953125 189.31835938 C183.20163963 195.44567352 182.25794265 201.51392576 181.11621094 207.58862305 C180.17827038 212.9090582 179.51982412 218.26996698 178.8125 223.625 C177.40540637 234.07079052 175.83949055 244.47450125 174.125 254.875 C172.25671924 266.21335991 170.6016987 277.5642345 169.07421875 288.953125 C167.92701074 297.41840989 166.58070791 305.83274116 165.12915039 314.25048828 C163.54246205 323.57706265 162.26053986 332.94016827 161.01953125 342.31835938 C160.20163963 348.44567352 159.25794265 354.51392576 158.11621094 360.58862305 C157.1782697 365.90906208 156.51989293 371.26997284 155.8125 376.625 C154.03008735 389.84491635 151.9532769 403.0007451 149.796875 416.1640625 C148.31497238 425.22093338 146.95306721 434.29447543 145.625 443.375 C144.965 443.045 144.305 442.715 143.625 442.375 C143.01576865 439.74827646 142.53756634 437.18541393 142.12063599 434.52598572 C141.98290862 433.69364759 141.84518125 432.86130945 141.70328033 432.00374895 C141.24050353 429.19383747 140.79052909 426.38202068 140.34033203 423.57006836 C140.01235757 421.56309109 139.68356236 419.5562478 139.35400391 417.54953003 C138.64405122 413.21669331 137.93957498 408.88301317 137.23913956 404.54862785 C136.13090931 397.69342873 135.00832468 390.8406297 133.88327026 383.98817444 C131.08972494 366.95978848 128.31296499 349.92867055 125.54418945 332.89624023 C123.39498596 319.67546855 121.24020019 306.45566676 119.06713378 293.23879343 C117.94823365 286.42952704 116.84144614 279.61843649 115.7437098 272.80572784 C115.05690122 268.56040081 114.35920277 264.31691651 113.65849304 260.07386398 C113.33627784 258.10904101 113.01853837 256.14347788 112.7056694 254.177145 C112.27696805 251.48692022 111.83212358 248.7998351 111.3833313 246.11289978 C111.26405466 245.33924023 111.14477803 244.56558068 111.02188694 243.7684769 C109.9394249 237.46041652 108.21231998 231.25668726 102.875 227.375 C97.46173276 225.70937931 93.57534678 225.47483995 88.375 227.875 C82.70246151 233.03185317 80.58064793 240.84282098 78.078125 247.92578125 C77.74947449 248.84214355 77.42082397 249.75850586 77.08221436 250.70263672 C76.37599757 252.67265553 75.67189603 254.64343367 74.96972656 256.61489868 C73.10031103 261.86184237 71.21390031 267.1026683 69.328125 272.34375 C68.94217163 273.41732254 68.55621826 274.49089508 68.15856934 275.59700012 C64.0565522 286.98871893 59.85252282 298.34186436 55.625 309.6875 C55.27634888 310.62485992 54.92769775 311.56221985 54.56848145 312.52798462 C53.58881261 315.16114259 52.60736456 317.79362795 51.625 320.42578125 C51.33413513 321.20687256 51.04327026 321.98796387 50.74359131 322.79272461 C48.74171614 328.14156772 48.74171614 328.14156772 47.625 330.375 C-21.015 330.375 -89.655 330.375 -160.375 330.375 C-169.57681818 311.97136364 -169.57681818 311.97136364 -172.5625 304.1875 C-172.86607422 303.41470703 -173.16964844 302.64191406 -173.48242188 301.84570312 C-174.11319488 300.23519083 -174.73799153 298.62232666 -175.35717773 297.00732422 C-176.08381955 295.12806012 -176.82742815 293.25532039 -177.58227539 291.38720703 C-180.81986008 283.26570326 -183.28132266 275.09404804 -185.4375 266.625 C-185.69371628 265.62868561 -185.69371628 265.62868561 -185.95510864 264.61224365 C-189.2671201 251.66955373 -191.71411293 238.63687948 -193.375 225.375 C-193.46014862 224.70625351 -193.54529724 224.03750702 -193.63302612 223.34849548 C-194.26154809 218.13029903 -194.54670801 212.99202843 -194.578125 207.73828125 C-194.58522995 206.94488846 -194.5923349 206.15149567 -194.59965515 205.33406067 C-194.964334 152.60755079 -181.03219322 103.88652311 -144.390625 64.54296875 C-142.46590389 62.47277453 -140.63752513 60.34546891 -138.8125 58.1875 C-135.29710174 54.17787341 -131.48180527 50.76786304 -127.375 47.375 C-126.88596191 46.95766602 -126.39692383 46.54033203 -125.89306641 46.11035156 C-102.40372755 26.08966395 -75.01738249 12.27062922 -45.1875 4.625 C-44.03133179 4.32674316 -44.03133179 4.32674316 -42.85180664 4.02246094 C-28.57494029 0.53730943 -14.61970425 -0.02785708 0 0 Z " fill="#FEFEFE" transform="translate(377.375,339.625)"/>
<path d="M0 0 C0.66 0 1.32 0 2 0 C10.57964926 71.30546238 10.57964926 71.30546238 13.40234375 96.45703125 C15.89543945 118.66196099 18.42231183 140.85700996 21.23925781 163.0234375 C22.79178056 175.24647619 24.25465513 187.47827509 25.65673828 199.71948242 C26.38975657 206.06100793 27.1526681 212.39819113 27.9921875 218.7265625 C28.13897949 219.84369629 28.28577148 220.96083008 28.43701172 222.11181641 C29.19976296 226.02480303 30.32108759 228.07755009 33 231 C37.07508732 233.71672488 40.22380682 233.49888319 45 233 C49.33865504 231.69021735 50.62147079 230.66476788 52.87451172 226.70800781 C55.65532599 220.88756209 57.63298818 214.77431527 59.6953125 208.671875 C60.13263709 207.3923214 60.57054432 206.11296681 61.00900269 204.83380127 C62.15387745 201.48989336 63.29252623 198.14390335 64.42932129 194.79724121 C66.25402023 189.42752269 68.0864178 184.06044078 69.92235947 178.69455719 C70.55981532 176.82761844 71.19328686 174.9593208 71.82669067 173.09100342 C72.21404388 171.95592346 72.60139709 170.82084351 73.00048828 169.65136719 C73.33928009 168.6540155 73.6780719 167.65666382 74.02713013 166.62908936 C75 164 75 164 77 160 C137.39 160 197.78 160 260 160 C258.44456402 163.88858995 257.06565224 166.65817914 254.796875 170.0703125 C254.15339111 171.0396875 253.50990723 172.0090625 252.84692383 173.0078125 C252.15493896 174.03648437 251.4629541 175.06515625 250.75 176.125 C250.03416748 177.19234375 249.31833496 178.2596875 248.58081055 179.359375 C232.02020043 203.89198582 213.49356409 226.85487656 193.35351562 248.53320312 C192.04203183 249.95445036 190.7472683 251.39107018 189.453125 252.828125 C182.61514689 260.4030628 175.45562588 267.65212009 168.25 274.875 C167.75431519 275.37327301 167.25863037 275.87154602 166.7479248 276.38491821 C161.54786015 281.60638629 156.32228344 286.75122146 150.69628906 291.51806641 C148.87986764 293.10495155 147.18849279 294.7783157 145.5 296.5 C141.83729197 300.2118719 137.96020571 303.61011518 134 307 C132.94517618 307.90739364 131.89050014 308.81495908 130.8359375 309.72265625 C127.82490283 312.31204406 124.80638093 314.89256074 121.78613281 317.47119141 C120.12117836 318.89627954 118.46223918 320.32803478 116.8046875 321.76171875 C110.19370632 327.45240658 103.39240719 332.83083895 96.43603516 338.09350586 C91.74208045 341.64837042 87.13295302 345.28823072 82.5625 349 C75.02931023 355.08831735 67.19817764 360.72717184 59.31152344 366.34570312 C56.99304086 368.00498047 54.6862843 369.6793333 52.3828125 371.359375 C43.07013576 378.14765647 33.64821143 384.69898472 24 391 C22.48825587 391.99345096 20.97653843 392.98694254 19.46484375 393.98046875 C2.38713569 405.17324423 -14.86540015 416.10659249 -32.45697021 426.47637939 C-34.15523735 427.48091641 -35.84553695 428.49888444 -37.53564453 429.51708984 C-38.56931152 430.1198877 -39.60297852 430.72268555 -40.66796875 431.34375 C-41.57828857 431.88193359 -42.4886084 432.42011719 -43.42651367 432.97460938 C-46.56405734 434.22474536 -47.82667467 434.08662073 -51 433 C-52.94672742 432.01278304 -54.85343381 430.94481408 -56.7265625 429.82421875 C-57.83153076 429.16695801 -58.93649902 428.50969727 -60.07495117 427.83251953 C-61.2585074 427.1178551 -62.44185254 426.40284096 -63.625 425.6875 C-64.84524782 424.95651588 -66.06570868 424.22588727 -67.28637695 423.49560547 C-76.56751871 417.92779745 -85.74104715 412.19738921 -94.85644531 406.36279297 C-97.72067844 404.54181924 -100.60617813 402.7561532 -103.4921875 400.9699707 C-109.28332339 397.38260787 -114.98218982 393.72777171 -120.52734375 389.765625 C-123.41212928 387.70571495 -126.33011785 385.69733464 -129.25 383.6875 C-148.23189847 370.56565429 -166.79485908 356.87524825 -184.93798828 342.61669922 C-186.86851643 341.10308835 -188.80574313 339.5986431 -190.74609375 338.09765625 C-197.30424264 333.01080596 -203.69235185 327.77157751 -209.96411133 322.33496094 C-213.40048092 319.35738504 -216.88415095 316.46347409 -220.4375 313.625 C-225.69337381 309.36432123 -230.61506503 304.78684621 -235.52319336 300.13525391 C-238.52489724 297.29264807 -241.55153782 294.50761921 -244.69042969 291.81665039 C-249.18779827 287.8912981 -253.4148588 283.72938706 -257.62890625 279.50390625 C-258.42223862 278.71153061 -259.21557098 277.91915497 -260.03294373 277.10276794 C-261.69889081 275.43749717 -263.36359256 273.77097971 -265.02709961 272.10327148 C-267.55536134 269.56965378 -270.08891661 267.04141833 -272.62304688 264.51367188 C-274.2503207 262.88573717 -275.87728425 261.25749225 -277.50390625 259.62890625 C-278.62606285 258.509786 -278.62606285 258.509786 -279.77088928 257.36805725 C-284.38123132 252.73737341 -288.74067141 247.95366584 -293 243 C-294.45445517 241.39231627 -295.91220895 239.78760285 -297.375 238.1875 C-301.21367163 233.92877171 -304.88475665 229.56428016 -308.48828125 225.10546875 C-310.34860248 222.80538263 -312.22052335 220.51800364 -314.10546875 218.23828125 C-320.59037722 210.37190967 -326.77575092 202.39214145 -332.59130859 194.01953125 C-334.222127 191.6815538 -335.87048725 189.35640645 -337.51953125 187.03125 C-338.76333214 185.27105327 -340.00682299 183.51063741 -341.25 181.75 C-341.8287085 180.9343457 -342.40741699 180.11869141 -343.00366211 179.27832031 C-354 163.62658697 -354 163.62658697 -354 160 C-352.42214077 159.99641747 -352.42214077 159.99641747 -350.81240559 159.99276257 C-325.23254359 159.93400192 -299.65277604 159.8581404 -274.07301807 159.76428509 C-261.70290287 159.71929466 -249.33281666 159.67988747 -236.96264648 159.65356445 C-226.18244239 159.63061069 -215.40232983 159.59724204 -204.62219828 159.55129844 C-198.91272313 159.52733089 -193.20333881 159.50862525 -187.49381447 159.50238609 C-182.12171491 159.49635125 -176.7498479 159.47640931 -171.37783432 159.44572449 C-169.40456823 159.43691858 -167.43127178 159.43322694 -165.45798683 159.43499184 C-162.76634268 159.43663937 -160.07541182 159.41998988 -157.38386536 159.39872742 C-156.20924507 159.40599878 -156.20924507 159.40599878 -155.01089507 159.41341704 C-150.44801909 159.35382317 -147.72547699 158.61558918 -144 156 C-143.34 156 -142.68 156 -142 156 C-140.66202422 152.68977479 -139.38046616 149.36613574 -138.15234375 146.01367188 C-137.62169312 144.56692078 -137.62169312 144.56692078 -137.08032227 143.09094238 C-136.51462524 141.54545715 -136.51462524 141.54545715 -135.9375 139.96875 C-135.54554443 138.9000769 -135.15358887 137.83140381 -134.74975586 136.73034668 C-133.49914519 133.32048437 -132.24945965 129.91028422 -131 126.5 C-129.35499532 122.01011232 -127.70904236 117.52057398 -126.0625 113.03125 C-125.68536865 112.00092651 -125.3082373 110.97060303 -124.91967773 109.90905762 C-124.56591064 108.94455688 -124.21214355 107.98005615 -123.84765625 106.98632812 C-123.53836182 106.14203247 -123.22906738 105.29773682 -122.91040039 104.42785645 C-121.9762277 101.93660402 -120.99702528 99.46669502 -120 97 C-119.34 97 -118.68 97 -118 97 C-117.80256699 98.17651123 -117.60513397 99.35302246 -117.40171814 100.56518555 C-115.50696432 111.85496973 -113.61070686 123.14450054 -111.71311092 134.43380737 C-110.73844869 140.2326078 -109.76425086 146.03148532 -108.79125977 151.83056641 C-105.08874169 173.89606623 -101.38256761 195.95961817 -97.48828125 217.9921875 C-94.78087331 233.31265027 -92.22128845 248.65517611 -89.703125 264.0078125 C-89.3346946 266.24918144 -88.96616952 268.49053481 -88.59754944 270.73187256 C-87.0944183 279.87551522 -85.59136261 289.01914434 -84.10498047 298.16552734 C-83.17812038 303.86699367 -82.24180952 309.56683722 -81.29915619 315.26571274 C-80.94639877 317.40930768 -80.59714077 319.55348173 -80.25156403 321.698246 C-79.77336232 324.66383096 -79.28312179 327.62719042 -78.79003906 330.59033203 C-78.65285965 331.45969391 -78.51568024 332.32905579 -78.37434387 333.22476196 C-77.44281139 338.72147787 -76.20089333 343.54515743 -72.375 347.8125 C-68.1349198 349.9325401 -63.57007349 350.78927401 -58.96484375 349.375 C-54.48899584 347.09431317 -52.88693036 344.49891112 -51 340 C-50.20939496 336.53861015 -50.20939496 336.53861015 -49.75390625 332.8203125 C-49.65810776 332.13989395 -49.56230927 331.4594754 -49.46360779 330.75843811 C-49.25984631 329.30389319 -49.06075248 327.84868791 -48.8659668 326.39291382 C-48.34889361 322.52864455 -47.79873104 318.66902968 -47.25390625 314.80859375 C-47.14664215 314.04124405 -47.03937805 313.27389435 -46.92886353 312.48329163 C-46.0684265 306.36330674 -45.066526 300.2749274 -44 294.1875 C-41.92051409 282.16723924 -40.33529523 270.08237684 -38.75 257.98901367 C-37.79650983 250.73548558 -36.7916477 243.50974805 -35.54956055 236.29882812 C-34.25865192 228.54993548 -33.15216028 220.77050976 -32 213 C-31.75412609 211.34439256 -31.50819618 209.68879344 -31.26220703 208.03320312 C-31.14205734 207.22453796 -31.02190765 206.4158728 -30.89811707 205.58270264 C-26.08022832 173.16692151 -26.08022832 173.16692151 -23.9375 160.75 C-21.56826582 146.97494995 -19.74654208 133.12002204 -17.85757446 119.27279663 C-14.49570038 94.629726 -14.49570038 94.629726 -12.5234375 83.16796875 C-11.84068261 79.0357731 -11.23553709 74.8933887 -10.625 70.75 C-9.69388208 64.43915555 -8.69592726 58.145432 -7.61572266 51.85839844 C-4.65842157 34.63248741 -2.34261671 17.31801095 0 0 Z " fill="#FEFEFE" transform="translate(587,538)"/>
<path d="M0 0 C10.33366289 8.16303711 15.54666831 19.02840274 18.17578125 31.71875 C18.5874099 35.64693913 18.65361694 39.52129455 18.61328125 43.46875 C18.60570801 44.51571045 18.59813477 45.5626709 18.59033203 46.64135742 C18.21262126 64.52472183 12.09357491 79.27939314 -0.82421875 91.71875 C-0.14359375 91.904375 0.53703125 92.09 1.23828125 92.28125 C9.80938022 96.47561758 15.18856613 105.33934601 18.40234375 114.0390625 C24.59354918 133.59258182 24.64101386 156.62437698 15.42578125 175.28125 C8.90089123 187.69780657 0.25183864 195.62203558 -13.18286133 200.23144531 C-29.39665509 204.89950139 -51.27004979 203.42645903 -66.06640625 195.41015625 C-73.97877527 190.55738602 -78.54949049 184.90414999 -82.82421875 176.71875 C-83.31003418 175.84222778 -83.31003418 175.84222778 -83.80566406 174.94799805 C-86.50752765 169.89425646 -87.99271055 165.02074627 -89.07421875 159.40625 C-89.24115234 158.54032227 -89.40808594 157.67439453 -89.58007812 156.78222656 C-92.72225407 139.10267743 -92.13840583 119.15106013 -81.82421875 103.71875 C-74.06481183 93.74035058 -74.06481183 93.74035058 -67.82421875 91.71875 C-68.24832031 91.26886719 -68.67242187 90.81898438 -69.109375 90.35546875 C-84.76206561 73.18911135 -87.71519194 56.09520717 -86.99902344 33.52880859 C-86.24587649 21.42165583 -80.25235058 10.60565465 -71.51171875 2.34375 C-51.88511951 -13.8680862 -20.97473164 -13.81864673 0 0 Z " fill="#FDFEFC" transform="translate(159.82421875,110.28125)"/>
<path d="M0 0 C6.27 0 12.54 0 19 0 C19.82014216 3.9098601 20.63871277 7.82000511 21.45361328 11.73095703 C21.86454241 13.69989324 22.27794219 15.6683133 22.69140625 17.63671875 C24.30714646 25.4001534 25.77120376 33.16573726 27 41 C27.96192653 36.76859975 28.92213742 32.53681468 29.88085938 28.3046875 C30.20625104 26.86936299 30.53208601 25.4341389 30.85839844 23.99902344 C32.67278534 16.01794729 34.44306823 8.03628418 36 0 C42.27 0 48.54 0 55 0 C55 25.74 55 51.48 55 78 C51.04 78 47.08 78 43 78 C42.97494385 77.08822998 42.9498877 76.17645996 42.92407227 75.23706055 C42.82802077 71.8020761 42.72885394 68.36720918 42.62768555 64.93237305 C42.58480139 63.45551988 42.54310173 61.97863175 42.50268555 60.50170898 C42.26839059 51.97163714 41.92830293 43.48913099 41 35 C40.79318604 36.1960083 40.58637207 37.3920166 40.37329102 38.62426758 C39.60593344 43.05826854 38.83553327 47.49173633 38.06420898 51.92504883 C37.73069467 53.8445008 37.39800752 55.76409669 37.06616211 57.68383789 C36.58924874 60.4419512 36.1093707 63.19953461 35.62890625 65.95703125 C35.48095108 66.81649857 35.33299591 67.67596588 35.18055725 68.56147766 C35.04048752 69.36208115 34.90041779 70.16268463 34.75610352 70.98754883 C34.63396988 71.6914827 34.51183624 72.39541656 34.38600159 73.12068176 C34 75 34 75 33 78 C29.37 78 25.74 78 22 78 C21.24596986 74.31328705 20.49680689 70.62567789 19.75 66.9375 C19.54503906 65.93783203 19.34007812 64.93816406 19.12890625 63.90820312 C16.85362127 52.63520029 14.97333162 41.34665682 13 30 C12.67 45.84 12.34 61.68 12 78 C7.71 78 3.42 78 -1 78 C-1.13455469 51.97919374 -0.82378919 26.00820149 0 0 Z " fill="#F9FDF9" transform="translate(780,103)"/>
<path d="M0 0 C6.2910849 4.12073393 8.94226342 9.99756778 10.67578125 17.09765625 C11.0692649 20.33270419 11.12078655 23.52084271 11.109375 26.77734375 C11.11461685 27.6707547 11.1198587 28.56416565 11.1252594 29.48464966 C11.13164087 31.36198901 11.13039329 33.23936856 11.12182617 35.11669922 C11.11332287 37.95874668 11.14212093 40.79877563 11.17382812 43.640625 C11.25757079 64.8418256 11.25757079 64.8418256 4.95483398 72.07177734 C-1.13907656 77.92373041 -8.22789581 78.53311407 -16.34082031 78.53588867 C-23.90015622 78.33792268 -27.55363551 75.86823949 -32.69921875 70.72265625 C-36.68110069 64.29038543 -36.63190705 57.72984034 -36.625 50.37890625 C-36.62928513 49.36219849 -36.63357025 48.34549072 -36.63798523 47.29797363 C-36.6437073 45.15650169 -36.64424451 43.01501032 -36.63989258 40.87353516 C-36.63672883 37.60806011 -36.66023207 34.34348851 -36.68554688 31.078125 C-36.68781979 28.99088655 -36.6885234 26.90364568 -36.6875 24.81640625 C-36.69670975 23.846427 -36.70591949 22.87644775 -36.71540833 21.8770752 C-36.66787226 14.87232615 -35.34278355 10.43605188 -31.69921875 4.41015625 C-23.69014302 -3.38815433 -10.0742711 -4.63804772 0 0 Z " fill="#FBFDFB" transform="translate(1021.32421875,103.90234375)"/>
<path d="M0 0 C6.2910849 4.12073393 8.94226342 9.99756778 10.67578125 17.09765625 C11.0692649 20.33270419 11.12078655 23.52084271 11.109375 26.77734375 C11.11461685 27.6707547 11.1198587 28.56416565 11.1252594 29.48464966 C11.13164087 31.36198901 11.13039329 33.23936856 11.12182617 35.11669922 C11.11332287 37.95874668 11.14212093 40.79877563 11.17382812 43.640625 C11.25757079 64.8418256 11.25757079 64.8418256 4.95483398 72.07177734 C-1.13907656 77.92373041 -8.22789581 78.53311407 -16.34082031 78.53588867 C-23.90015622 78.33792268 -27.55363551 75.86823949 -32.69921875 70.72265625 C-36.68110069 64.29038543 -36.63190705 57.72984034 -36.625 50.37890625 C-36.62928513 49.36219849 -36.63357025 48.34549072 -36.63798523 47.29797363 C-36.6437073 45.15650169 -36.64424451 43.01501032 -36.63989258 40.87353516 C-36.63672883 37.60806011 -36.66023207 34.34348851 -36.68554688 31.078125 C-36.68781979 28.99088655 -36.6885234 26.90364568 -36.6875 24.81640625 C-36.69670975 23.846427 -36.70591949 22.87644775 -36.71540833 21.8770752 C-36.66787226 14.87232615 -35.34278355 10.43605188 -31.69921875 4.41015625 C-23.69014302 -3.38815433 -10.0742711 -4.63804772 0 0 Z " fill="#FBFDFB" transform="translate(520.32421875,103.90234375)"/>
<path d="M0 0 C5.21542101 3.15260524 7.58107807 7.42102338 9.09375 13.265625 C9.39883997 16.77110964 9.42158137 20.26392381 9.4296875 23.78125 C9.4363443 24.79225769 9.4430011 25.80326538 9.44985962 26.84490967 C9.45996091 28.97975859 9.46467742 31.11463892 9.46435547 33.24951172 C9.468717 36.49109886 9.50503235 39.7313107 9.54296875 42.97265625 C9.54883999 45.05468289 9.55280733 47.13671593 9.5546875 49.21875 C9.56905853 50.17638245 9.58342957 51.13401489 9.59823608 52.1206665 C9.55098712 59.19161739 8.37608817 66.31698142 3.71713257 71.92169189 C-1.74775134 76.82326947 -7.83033941 77.61137646 -14.90625 77.578125 C-15.93492187 77.60229492 -15.93492187 77.60229492 -16.984375 77.62695312 C-22.54349032 77.63225762 -26.44446406 76.33588507 -30.69921875 72.7578125 C-31.15941406 72.22414063 -31.61960937 71.69046875 -32.09375 71.140625 C-32.56167969 70.62242187 -33.02960938 70.10421875 -33.51171875 69.5703125 C-37.49207801 62.99212772 -38.36630812 56.13804313 -38.33984375 48.5859375 C-38.3450856 47.69252655 -38.35032745 46.7991156 -38.35572815 45.87863159 C-38.36210962 44.00129224 -38.36086204 42.12391269 -38.35229492 40.24658203 C-38.34379162 37.40453457 -38.37258968 34.56450562 -38.40429688 31.72265625 C-38.48803954 10.52145565 -38.48803954 10.52145565 -32.18530273 3.29150391 C-23.64075138 -4.91378777 -10.30162447 -4.74945024 0 0 Z " fill="#FBFDFB" transform="translate(410.90625,104.734375)"/>
<path d="M0 0 C5.94 0 11.88 0 18 0 C18 10.23 18 20.46 18 31 C21.63 31 25.26 31 29 31 C29 20.77 29 10.54 29 0 C34.94 0 40.88 0 47 0 C47 25.74 47 51.48 47 78 C41.06 78 35.12 78 29 78 C29 66.78 29 55.56 29 44 C25.37 44 21.74 44 18 44 C18 55.22 18 66.44 18 78 C12.06 78 6.12 78 0 78 C0 52.26 0 26.52 0 0 Z " fill="#F6FBF5" transform="translate(595,103)"/>
<path d="M0 0 C5.61 0 11.22 0 17 0 C17.01458252 1.82168701 17.02916504 3.64337402 17.04418945 5.52026367 C17.09589077 11.5474088 17.16119001 17.57427881 17.23571491 23.60117626 C17.28039218 27.25435862 17.31965377 30.90743015 17.34643555 34.56079102 C17.37249545 38.08826179 17.41291592 41.61530546 17.46318626 45.14251137 C17.48792576 47.13927679 17.49789298 49.13620755 17.50764465 51.13310242 C17.53733589 52.96443474 17.53733589 52.96443474 17.56762695 54.83276367 C17.57873001 55.90531906 17.58983307 56.97787445 17.60127258 58.08293152 C18.05674411 61.41513687 18.96822801 63.33528421 21 66 C23.54290625 66.58350505 23.54290625 66.58350505 26 66 C28.73306029 63.26693971 28.27381961 61.7253334 28.31884766 57.89794922 C28.33871735 56.61677216 28.35858704 55.33559509 28.37905884 54.01559448 C28.39093617 52.61196058 28.40259898 51.20832484 28.4140625 49.8046875 C28.43276692 48.37263869 28.45233978 46.94060098 28.4727478 45.50857544 C28.52415206 41.73735083 28.56373311 37.96609045 28.60089111 34.19470215 C28.640879 30.34715874 28.69199504 26.49976517 28.7421875 22.65234375 C28.83904497 15.10165731 28.92238971 7.5509133 29 0 C34.94 0 40.88 0 47 0 C47.04536482 7.53719086 47.08198134 15.0743301 47.10362434 22.61162472 C47.11401714 26.11231029 47.1280929 29.61289681 47.15087891 33.11352539 C47.17696796 37.14730731 47.18650998 41.18098678 47.1953125 45.21484375 C47.20563507 46.45894516 47.21595764 47.70304657 47.22659302 48.98484802 C47.22776 58.10475126 47.12564692 66.68325507 41 74 C33.08802989 79.97434477 24.55253728 79.88510449 15 79 C9.64535185 77.60445431 5.85490283 74.75817139 3 70 C-0.52031853 62.430053 -0.39171812 54.99068989 -0.29296875 46.77734375 C-0.2873616 45.42257664 -0.2830968 44.06780337 -0.28010559 42.71302795 C-0.26874466 39.17675474 -0.23935521 35.64086127 -0.20599365 32.10473633 C-0.1751019 28.48458999 -0.16155978 24.86438126 -0.14648438 21.24414062 C-0.11447516 14.16259177 -0.06178092 7.08136091 0 0 Z " fill="#F7FCF6" transform="translate(275,103)"/>
<path d="M0 0 C3.96 0 7.92 0 12 0 C17.55931902 11.46609549 22.33740241 23.13900614 27 35 C27.33 23.45 27.66 11.9 28 0 C32.62 0 37.24 0 42 0 C42 25.74 42 51.48 42 78 C38.04 78 34.08 78 30 78 C25.38 66.45 20.76 54.9 16 43 C15.67 54.55 15.34 66.1 15 78 C10.05 78 5.1 78 0 78 C0 52.26 0 26.52 0 0 Z " fill="#FBFDFB" transform="translate(890,103)"/>
<path d="M0 0 C3.96 0 7.92 0 12 0 C15.81410052 7.40828894 19.15160493 14.91808053 22.3125 22.625 C23.859375 26.37875 25.40625 30.1325 27 34 C27.33 22.78 27.66 11.56 28 0 C32.62 0 37.24 0 42 0 C42 25.74 42 51.48 42 78 C38.04 78 34.08 78 30 78 C29.64695801 77.08710205 29.29391602 76.1742041 28.93017578 75.23364258 C27.61470899 71.83232654 26.29886524 68.43115644 24.98291016 65.0300293 C24.4144486 63.56066778 23.84608796 62.09126722 23.27783203 60.62182617 C22.4589273 58.50429057 21.6396544 56.38689773 20.8203125 54.26953125 C20.44206833 53.29111015 20.44206833 53.29111015 20.05618286 52.29292297 C18.72466193 48.85309076 17.3699718 45.4249295 16 42 C15.67 53.88 15.34 65.76 15 78 C10.05 78 5.1 78 0 78 C0 52.26 0 26.52 0 0 Z " fill="#FCFEFC" transform="translate(541,103)"/>
<path d="M0 0 C0.83265381 0.00523682 1.66530762 0.01047363 2.52319336 0.01586914 C3.42231445 0.0190918 4.32143555 0.02231445 5.24780273 0.02563477 C6.66609375 0.03820312 6.66609375 0.03820312 8.11303711 0.05102539 C9.06243164 0.05553711 10.01182617 0.06004883 10.98999023 0.06469727 C13.34356776 0.07652429 15.69702188 0.09300514 18.05053711 0.11352539 C22.03471738 20.21096034 25.98740048 40.31149329 29.55053711 60.48852539 C29.67986633 61.2162616 29.80919556 61.9439978 29.94244385 62.69378662 C30.30463042 64.73679343 30.66286413 66.78044356 31.01928711 68.82446289 C31.21973633 69.97221191 31.42018555 71.11996094 31.62670898 72.30249023 C32.05053711 75.11352539 32.05053711 75.11352539 32.05053711 78.11352539 C26.77053711 78.11352539 21.49053711 78.11352539 16.05053711 78.11352539 C14.56975231 75.15195579 14.69739674 72.27846244 14.48803711 68.98852539 C14.36235352 67.0665332 14.36235352 67.0665332 14.23413086 65.10571289 C14.17354492 64.11829102 14.11295898 63.13086914 14.05053711 62.11352539 C10.09053711 62.11352539 6.13053711 62.11352539 2.05053711 62.11352539 C1.83397461 64.40290039 1.83397461 64.40290039 1.61303711 66.73852539 C1.24861653 70.59097154 0.69002372 74.2766057 0.05053711 78.11352539 C-5.55946289 78.11352539 -11.16946289 78.11352539 -16.94946289 78.11352539 C-15.45619421 69.01303891 -13.85596226 59.93559121 -12.19946289 50.86352539 C-12.07173492 50.16340332 -11.94400696 49.46328125 -11.81240845 48.74194336 C-11.00058487 44.29444745 -10.18569485 39.84751973 -9.36920166 35.40087891 C-8.94581463 33.09364431 -8.52350978 30.78621341 -8.10131836 28.47875977 C-7.41594031 24.7359936 -6.72597023 20.99409981 -6.03259277 17.25280762 C-5.76930608 15.82914229 -5.50733826 14.40523242 -5.2467041 12.9810791 C-4.88444321 11.00370447 -4.51670496 9.02733564 -4.14868164 7.05102539 C-3.8367688 5.36299805 -3.8367688 5.36299805 -3.51855469 3.64086914 C-2.73458416 0.15924629 -2.73458416 0.15924629 0 0 Z " fill="#F8FCF8" transform="translate(236.949462890625,102.886474609375)"/>
<path d="M0 0 C4.300573 2.75492945 6.49065846 6.52275662 8.09765625 11.34375 C8.16801064 13.91872068 8.19114965 16.45824929 8.16015625 19.03125 C8.13953125 21.444375 8.11890625 23.8575 8.09765625 26.34375 C2.48765625 26.34375 -3.12234375 26.34375 -8.90234375 26.34375 C-9.09765625 22.76302083 -9.29296875 19.18229167 -9.48828125 15.6015625 C-9.57475481 12.26313301 -9.57475481 12.26313301 -11.90234375 10.34375 C-14.40234375 9.92708333 -14.40234375 9.92708333 -16.90234375 10.34375 C-19.01915733 13.51897037 -19.15404764 14.3008577 -19.16113281 17.93530273 C-19.16743713 18.86314072 -19.17374146 19.7909787 -19.18023682 20.74693298 C-19.17618835 21.74696854 -19.17213989 22.74700409 -19.16796875 23.77734375 C-19.1698822 24.80682632 -19.17179565 25.8363089 -19.17376709 26.89698792 C-19.17512854 29.07496383 -19.17143492 31.25294787 -19.16308594 33.4309082 C-19.15239691 36.7646714 -19.16297714 40.09789436 -19.17578125 43.43164062 C-19.17445943 45.54687619 -19.17189659 47.66211142 -19.16796875 49.77734375 C-19.17201721 50.77535507 -19.17606567 51.77336639 -19.18023682 52.80162048 C-19.1739325 53.73261063 -19.16762817 54.66360077 -19.16113281 55.62280273 C-19.15954163 56.43982162 -19.15795044 57.25684052 -19.15631104 58.09861755 C-18.87706804 60.56719339 -18.13641013 62.20514947 -16.90234375 64.34375 C-14.59234375 64.34375 -12.28234375 64.34375 -9.90234375 64.34375 C-9.57234375 58.73375 -9.24234375 53.12375 -8.90234375 47.34375 C-3.29234375 47.34375 2.31765625 47.34375 8.09765625 47.34375 C8.9044185 65.09251953 8.9044185 65.09251953 3.09765625 72.34375 C0.7955909 74.19133034 -1.15324268 75.15074388 -3.90234375 76.34375 C-4.89234375 76.83875 -4.89234375 76.83875 -5.90234375 77.34375 C-8.64708415 77.52205582 -11.34313427 77.62142275 -14.08984375 77.65625 C-15.20456055 77.69975586 -15.20456055 77.69975586 -16.34179688 77.74414062 C-23.38971076 77.82444113 -27.55515924 75.63758941 -32.65234375 70.65625 C-37.57557535 64.20252857 -38.36349977 56.52947272 -38.3359375 48.6640625 C-38.34117935 47.77065155 -38.3464212 46.8772406 -38.3518219 45.95675659 C-38.35820337 44.07941724 -38.35695579 42.20203769 -38.34838867 40.32470703 C-38.33988537 37.48265957 -38.36868343 34.64263062 -38.40039062 31.80078125 C-38.48413329 10.59958065 -38.48413329 10.59958065 -32.18139648 3.36962891 C-23.6705131 -4.80333158 -10.29526223 -4.68727386 0 0 Z " fill="#F8FCF8" transform="translate(732.90234375,104.65625)"/>
<path d="M0 0 C4.2960318 2.80894387 6.91249508 5.51621315 8.54296875 10.46484375 C9.52935767 15.9363515 9.15965654 21.46524006 9 27 C3.39 27 -2.22 27 -8 27 C-8.33 22.05 -8.66 17.1 -9 12 C-14.49728375 10.40523438 -14.49728375 10.40523438 -16.85173035 12.15052795 C-18.28860706 14.46484786 -18.37441068 15.87320957 -18.37231445 18.59155273 C-18.37854324 19.51939072 -18.38477203 20.4472287 -18.39118958 21.40318298 C-18.38197983 22.40321854 -18.37277008 23.40325409 -18.36328125 24.43359375 C-18.36377975 25.46307632 -18.36427826 26.4925589 -18.36479187 27.55323792 C-18.36245057 29.73123097 -18.35271883 31.90922668 -18.33618164 34.0871582 C-18.31261676 37.42098204 -18.31561706 40.75400483 -18.32226562 44.08789062 C-18.31668795 46.20312977 -18.30957752 48.31836554 -18.30078125 50.43359375 C-18.30169266 51.43160507 -18.30260406 52.42961639 -18.30354309 53.45787048 C-18.28924507 54.8543557 -18.28924507 54.8543557 -18.2746582 56.27905273 C-18.26774712 57.50458107 -18.26774712 57.50458107 -18.26069641 58.75486755 C-17.97448177 61.21976443 -17.2318251 62.86312931 -16 65 C-14.02 65 -12.04 65 -10 65 C-8.47943501 61.95887002 -8.6258839 58.71802203 -8.4375 55.375 C-8.293125 52.94125 -8.14875 50.5075 -8 48 C-2.06 48 3.88 48 10 48 C10.33528952 56.71752741 10.14903456 65.11779381 4.8125 72.4375 C-1.65516368 78.33026025 -8.21406697 78.49784748 -16.65234375 78.28125 C-22.61609553 77.78021134 -26.37243347 76.55523024 -30.8125 72.3125 C-35.60810292 65.05058701 -36.46695779 58.79030188 -36.46875 50.2890625 C-36.47636353 49.2808847 -36.48397705 48.27270691 -36.49182129 47.23397827 C-36.50257831 45.1110887 -36.5054934 42.9881464 -36.50097656 40.86523438 C-36.50000483 37.64101706 -36.54166703 34.4191867 -36.5859375 31.1953125 C-36.59114597 29.12240074 -36.59383267 27.0494808 -36.59375 24.9765625 C-36.61014526 24.02520416 -36.62654053 23.07384583 -36.64343262 22.09365845 C-36.56174079 14.06619833 -34.23706803 7.32006978 -28.5625 1.5 C-20.25258065 -3.36434303 -8.83991059 -3.78853311 0 0 Z " fill="#FAFDFA" transform="translate(466,104)"/>
<path d="M0 0 C11.88 0 23.76 0 36 0 C36 3.96 36 7.92 36 12 C30.06 12 24.12 12 18 12 C18 18.27 18 24.54 18 31 C22.29 31 26.58 31 31 31 C31 34.96 31 38.92 31 43 C26.71 43 22.42 43 18 43 C18 50.59 18 58.18 18 66 C23.94 66 29.88 66 36 66 C36 69.96 36 73.92 36 78 C24.12 78 12.24 78 0 78 C0 52.26 0 26.52 0 0 Z " fill="#F6FBF5" transform="translate(653,103)"/>
<path d="M0 0 C11.55 0 23.1 0 35 0 C35 3.96 35 7.92 35 12 C29.06 12 23.12 12 17 12 C17 18.27 17 24.54 17 31 C21.62 31 26.24 31 31 31 C31 34.96 31 38.92 31 43 C26.38 43 21.76 43 17 43 C17 50.59 17 58.18 17 66 C22.94 66 28.88 66 35 66 C35 69.96 35 73.92 35 78 C23.45 78 11.9 78 0 78 C0 52.26 0 26.52 0 0 Z " fill="#FCFEFC" transform="translate(847,103)"/>
<path d="M0 0 C13.53 0 27.06 0 41 0 C41 4.29 41 8.58 41 13 C37.04 13 33.08 13 29 13 C29 34.45 29 55.9 29 78 C23.06 78 17.12 78 11 78 C11 56.55 11 35.1 11 13 C7.37 13 3.74 13 0 13 C0 8.71 0 4.42 0 0 Z " fill="#F7FCF6" transform="translate(328,103)"/>
<path d="M0 0 C13.53 0 27.06 0 41 0 C41 4.29 41 8.58 41 13 C37.04 13 33.08 13 29 13 C29 34.45 29 55.9 29 78 C23.39 78 17.78 78 12 78 C12 56.55 12 35.1 12 13 C8.04 13 4.08 13 0 13 C0 8.71 0 4.42 0 0 Z " fill="#FDFEFD" transform="translate(939,103)"/>
<path d="M0 0 C4.83242103 2.51688595 6.30967575 5.92902726 8 11 C9.12639499 17.92378457 9.25221272 24.80711814 9.3125 31.8125 C9.34150391 32.92431641 9.37050781 34.03613281 9.40039062 35.18164062 C9.46328348 43.44963156 8.67773516 51.76933955 3.0480957 58.24536133 C-0.27834186 61.09517737 -3.62233624 61.44331703 -7.94140625 61.30859375 C-10.69665559 60.89556776 -12.69422357 59.98872088 -14.6796875 58.01953125 C-22.4370188 46.15402746 -21.60627002 27.45280062 -19.45703125 14.03515625 C-18.30119607 8.86901999 -16.97168065 4.71544319 -13 1 C-9.05256539 -0.9737173 -4.3032516 -0.43592997 0 0 Z " fill="#18AC06" transform="translate(131,220)"/>
<path d="M0 0 C5.94 0 11.88 0 18 0 C18 25.74 18 51.48 18 78 C12.06 78 6.12 78 0 78 C0 52.26 0 26.52 0 0 Z " fill="#F5FBF4" transform="translate(750,103)"/>
<path d="M0 0 C3.81878108 0.07528063 6.2368078 0.97417035 9.07275391 3.70825195 C13.37654829 9.49438906 13.78143473 16.80145391 13.625 23.75 C13.6137207 24.57854492 13.60244141 25.40708984 13.59082031 26.26074219 C13.387051 35.40176212 12.80493443 43.78251712 7.3125 51.375 C4.93032005 53.20133796 3.35830167 53.36817847 0.375 53.8125 C-3.84574309 53.2095367 -5.07597089 51.69234779 -7.6875 48.375 C-11.69568776 40.50177404 -11.86924072 33.0821724 -11.875 24.4375 C-11.89336914 22.99213867 -11.89336914 22.99213867 -11.91210938 21.51757812 C-11.92627014 14.61184396 -11.90961347 8.86810291 -7.125 3.5 C-6.320625 2.79875 -5.51625 2.0975 -4.6875 1.375 C-3.6875 0.375 -3.6875 0.375 0 0 Z " fill="#16AB04" transform="translate(124.6875,132.625)"/>
<path d="M0 0 C2.11076435 3.16614653 2.25413059 3.95254782 2.2746582 7.57568359 C2.28419022 8.50029388 2.29372223 9.42490417 2.30354309 10.37753296 C2.30263168 11.37443146 2.30172028 12.37132996 2.30078125 13.3984375 C2.30506638 14.4255484 2.3093515 15.4526593 2.31376648 16.51089478 C2.31951184 18.68466454 2.32000853 20.85845353 2.31567383 23.03222656 C2.31251884 26.35515266 2.33595372 29.67718434 2.36132812 33 C2.36360161 35.11197804 2.36430439 37.22395848 2.36328125 39.3359375 C2.372491 40.32878754 2.38170074 41.32163757 2.39118958 42.34457397 C2.33158533 51.25263829 2.33158533 51.25263829 -1 55 C-4 55.625 -4 55.625 -7 55 C-10.99791044 50.46504806 -10.41756783 45.29474316 -10.36328125 39.58984375 C-10.36377975 38.58538712 -10.36427826 37.58093048 -10.36479187 36.54603577 C-10.36245573 34.42707333 -10.35275439 32.3081079 -10.33618164 30.18920898 C-10.31255862 26.94554865 -10.31562822 23.70270908 -10.32226562 20.45898438 C-10.31668956 18.3984326 -10.30958013 16.33788428 -10.30078125 14.27734375 C-10.30169266 13.30748032 -10.30260406 12.33761688 -10.30354309 11.33836365 C-10.29401108 10.43384964 -10.28447906 9.52933563 -10.2746582 8.59741211 C-10.27005081 7.80419052 -10.26544342 7.01096893 -10.26069641 6.19371033 C-9.96648984 3.71801844 -9.31636489 2.10930599 -8 0 C-5.06791253 -1.46604374 -3.11702298 -0.77925574 0 0 Z " fill="#1DAE0C" transform="translate(1012,115)"/>
<path d="M0 0 C2.11076435 3.16614653 2.25413059 3.95254782 2.2746582 7.57568359 C2.28419022 8.50029388 2.29372223 9.42490417 2.30354309 10.37753296 C2.30263168 11.37443146 2.30172028 12.37132996 2.30078125 13.3984375 C2.30506638 14.4255484 2.3093515 15.4526593 2.31376648 16.51089478 C2.31951184 18.68466454 2.32000853 20.85845353 2.31567383 23.03222656 C2.31251884 26.35515266 2.33595372 29.67718434 2.36132812 33 C2.36360161 35.11197804 2.36430439 37.22395848 2.36328125 39.3359375 C2.372491 40.32878754 2.38170074 41.32163757 2.39118958 42.34457397 C2.33158533 51.25263829 2.33158533 51.25263829 -1 55 C-4 55.625 -4 55.625 -7 55 C-10.99791044 50.46504806 -10.41756783 45.29474316 -10.36328125 39.58984375 C-10.36377975 38.58538712 -10.36427826 37.58093048 -10.36479187 36.54603577 C-10.36245573 34.42707333 -10.35275439 32.3081079 -10.33618164 30.18920898 C-10.31255862 26.94554865 -10.31562822 23.70270908 -10.32226562 20.45898438 C-10.31668956 18.3984326 -10.30958013 16.33788428 -10.30078125 14.27734375 C-10.30169266 13.30748032 -10.30260406 12.33761688 -10.30354309 11.33836365 C-10.29401108 10.43384964 -10.28447906 9.52933563 -10.2746582 8.59741211 C-10.27005081 7.80419052 -10.26544342 7.01096893 -10.26069641 6.19371033 C-9.96648984 3.71801844 -9.31636489 2.10930599 -8 0 C-5.06791253 -1.46604374 -3.11702298 -0.77925574 0 0 Z " fill="#1DAE0C" transform="translate(511,115)"/>
<path d="M0 0 C3.375 0.25 3.375 0.25 7 1 C8.95507294 3.84048014 9.25200483 6.21841743 9.25878906 9.61328125 C9.26509338 10.52102295 9.27139771 11.42876465 9.27789307 12.36401367 C9.2738446 13.33701416 9.26979614 14.31001465 9.265625 15.3125 C9.26753845 16.31837158 9.2694519 17.32424316 9.27142334 18.3605957 C9.27278325 20.48551687 9.26910036 22.6104464 9.26074219 24.73535156 C9.25004008 27.98782005 9.2606442 31.23973619 9.2734375 34.4921875 C9.27211587 36.55729289 9.26955341 38.62239793 9.265625 40.6875 C9.26967346 41.66050049 9.27372192 42.63350098 9.27789307 43.63598633 C9.27158875 44.54372803 9.26528442 45.45146973 9.25878906 46.38671875 C9.25640228 47.58107544 9.25640228 47.58107544 9.25396729 48.79956055 C8.962297 51.32666876 8.44394451 52.90212651 7 55 C3.375 55.75 3.375 55.75 0 56 C-3.88882898 51.16052547 -3.43470439 46.28178491 -3.3984375 40.37109375 C-3.40130768 39.34444107 -3.40417786 38.31778839 -3.40713501 37.26002502 C-3.40917291 35.09399869 -3.40366229 32.92795383 -3.39111328 30.76196289 C-3.37503979 27.44570854 -3.39098026 24.13066993 -3.41015625 20.81445312 C-3.40817409 18.70833064 -3.40433099 16.60220892 -3.3984375 14.49609375 C-3.40754654 13.00848793 -3.40754654 13.00848793 -3.4168396 11.49082947 C-3.40738312 10.56629471 -3.39792664 9.64175995 -3.38818359 8.68920898 C-3.38579681 7.8782225 -3.38341003 7.06723602 -3.38095093 6.23167419 C-2.91325238 3.49181796 -1.79760083 2.07920897 0 0 Z " fill="#1DAE0C" transform="translate(394,114)"/>
<path d="M0 0 C0.66 0.33 1.32 0.66 2 1 C3.80826437 9.5501883 4.32626931 18.28135909 4 27 C1.69 27 -0.62 27 -3 27 C-2.27247184 17.96333446 -1.16165032 8.9886923 0 0 Z " fill="#25B115" transform="translate(244,127)"/>
</svg>
