<?xml version="1.0" encoding="UTF-8"?>
<svg version="1.1" xmlns="http://www.w3.org/2000/svg" width="1080" height="1080">
<path d="M0 0 C356.4 0 712.8 0 1080 0 C1080 356.4 1080 712.8 1080 1080 C723.6 1080 367.2 1080 0 1080 C0 723.6 0 367.2 0 0 Z " fill="#5E17EB" transform="translate(0,0)"/>
<path d="M0 0 C2.29905902 -0.00202669 4.59811719 -0.00536881 6.89717263 -0.00990558 C13.18749503 -0.01852289 19.47766888 -0.00851672 25.76797831 0.00463676 C31.86347724 0.01443829 37.95895179 0.01007635 44.05445453 0.00612571 C56.51737223 -0.00144644 68.9802455 0.00502219 81.44315529 0.01973724 C93.78214681 0.03428861 106.12111886 0.04302498 118.46011925 0.04392242 C119.22865958 0.04398352 119.99719991 0.04404461 120.78902934 0.04410756 C123.90895246 0.04433709 127.02887558 0.04452426 130.14879871 0.0446557 C158.55910683 0.04586601 186.96938778 0.06154511 215.37968445 0.08624268 C242.18990795 0.10954433 269.00011496 0.12371095 295.81034851 0.1272583 C297.04980774 0.12742557 297.04980774 0.12742557 298.31430654 0.12759623 C301.64571002 0.12804509 304.97711349 0.12848707 308.30851697 0.12892865 C309.96876298 0.12914903 311.62900899 0.12937033 313.28925501 0.12959253 C314.94546975 0.12981389 316.60168449 0.13003266 318.25789923 0.13024884 C344.63456549 0.13376433 371.01122867 0.14522418 397.38789183 0.15805517 C405.10693105 0.16177257 412.82597006 0.16503778 420.54500985 0.16730404 C436.77373381 0.17211381 453.00244791 0.1792064 469.23116503 0.19545171 C475.94208728 0.20209731 482.65299958 0.20712464 489.36392593 0.20791245 C495.50540156 0.2086993 501.64685504 0.21410527 507.78832378 0.22323194 C510.01146803 0.22574018 512.23461493 0.22657325 514.45776037 0.22557315 C517.47770166 0.22447687 520.49757362 0.2295048 523.5175066 0.23606491 C524.38187768 0.23429544 525.24624875 0.23252597 526.1368129 0.23070288 C534.55579246 0.26191085 542.26063824 0.9242431 550.14408875 3.99249268 C550.83317322 4.25755615 551.52225769 4.52261963 552.23222351 4.79571533 C571.61265474 12.54066222 584.00432849 26.87298018 592.0776825 45.68780518 C595.33333989 55.74298308 595.55825994 65.72631815 595.52978516 76.19871521 C595.53281027 77.7848557 595.53670155 79.37099473 595.54137772 80.95713121 C595.55162031 85.29101986 595.54948546 89.62482545 595.54519713 93.9587208 C595.54272304 98.64259449 595.55175261 103.32644852 595.55923462 108.01031494 C595.57196539 117.17768591 595.57377728 126.34502757 595.57143436 135.51240589 C595.56964897 142.96767345 595.57140558 150.42293213 595.5756588 157.87819862 C595.57625399 158.94060275 595.57684918 160.00300687 595.5774624 161.09760505 C595.5786742 163.25614148 595.57988833 165.41467791 595.58110478 167.57321433 C595.59197439 187.80403111 595.58982076 208.03483122 595.58371993 228.26564894 C595.57855317 246.75166055 595.5898009 265.23761943 595.60881815 283.72362062 C595.62821635 302.72633963 595.63644895 321.72903373 595.6326949 340.73176271 C595.63078562 351.39172591 595.63324358 362.05164425 595.64740944 372.71159935 C595.6593496 381.78825185 595.66069875 390.86483188 595.64861927 399.94148543 C595.64274863 404.56727481 595.6415806 409.19293183 595.65362167 413.81871223 C595.66454187 418.06344827 595.66130496 422.30794241 595.64735999 426.55266742 C595.6447298 428.07818511 595.64702605 429.60372213 595.65509585 431.12922075 C595.74997487 450.42307703 592.49282524 467.92045852 580.26908875 483.36749268 C579.62326843 484.20151611 578.97744812 485.03553955 578.3120575 485.89483643 C568.74245745 497.41741607 555.89478649 504.44235313 541.26908875 507.36749268 C601.65908875 507.86249268 601.65908875 507.86249268 663.26908875 508.36749268 C663.26908875 527.6395251 655.87253532 544.64744513 642.26908875 558.36749268 C635.2485122 564.54334744 627.97983533 569.03918841 619.26908875 572.36749268 C617.970039 572.89752183 617.970039 572.89752183 616.64474583 573.43825865 C604.51065979 577.6611304 591.94635238 576.93349748 579.25661452 576.88136289 C575.68348561 576.87114502 572.11042571 576.88428364 568.53730679 576.89433622 C562.28502385 576.9087369 556.03287924 576.90837326 549.78059006 576.89814758 C540.48305531 576.88298289 531.18563671 576.89077059 521.88810268 576.90298081 C505.28027227 576.92402039 488.6725035 576.92222754 472.06466725 576.91066516 C457.5307402 576.90059652 442.99683571 576.89797913 428.46290588 576.90275574 C427.49822993 576.90306128 426.53355398 576.90336682 425.53964543 576.90368162 C421.62355197 576.904927 417.70745852 576.90620061 413.79136508 576.90752067 C377.06754021 576.91975223 340.34375455 576.90866988 303.61993574 576.88713308 C271.00459334 576.86815116 238.38931341 576.86984969 205.77397156 576.88897705 C169.11661985 576.91040309 132.45930278 576.91888471 95.80194569 576.906528 C91.89305433 576.90524516 87.98416297 576.90399379 84.07527161 576.90275574 C83.1128275 576.90243943 82.15038339 576.90212312 81.15877431 576.90179722 C66.63522337 576.89725044 52.11169749 576.90256265 37.58815002 576.91267395 C21.071543 576.9241156 4.55500716 576.92124182 -11.96159101 576.89955097 C-21.20139713 576.88781631 -30.44104906 576.88702389 -39.68085115 576.90213567 C-45.85723141 576.9111218 -52.03348836 576.90549313 -58.20985038 576.8881166 C-61.72586608 576.87862634 -65.24157604 576.87529535 -68.75758183 576.88974053 C-95.44546659 576.97544729 -95.44546659 576.97544729 -106.73091125 572.36749268 C-107.44124228 572.10311921 -108.15157331 571.83874574 -108.88342953 571.56636095 C-125.22216085 565.10214125 -137.29641739 551.51412448 -144.7035675 535.85186768 C-146.38610987 531.78305799 -147.66869294 527.63789738 -148.73091125 523.36749268 C-148.9216925 522.65206299 -149.11247375 521.9366333 -149.30903625 521.19952393 C-149.9395993 516.96657753 -149.73091125 512.64714745 -149.73091125 508.36749268 C-110.13091125 508.03749268 -70.53091125 507.70749268 -29.73091125 507.36749268 C-34.68091125 505.88249268 -34.68091125 505.88249268 -39.73091125 504.36749268 C-56.59837393 497.8300413 -69.06092573 485.01233609 -76.70747375 468.76983643 C-78.29903635 465.03391659 -79.66954901 461.28778442 -80.73091125 457.36749268 C-81.06933359 456.15584002 -81.40775593 454.94418736 -81.75643349 453.69581795 C-83.27545187 446.75039837 -83.01401517 439.68874162 -82.99833679 432.61819458 C-83.002077 431.01656796 -83.00667999 429.41494316 -83.01206744 427.81332123 C-83.02426729 423.42738129 -83.02404053 419.04151781 -83.02167869 414.65556479 C-83.02126975 409.91918362 -83.03231704 405.18282671 -83.04179382 400.44645691 C-83.05838871 391.172202 -83.0639027 381.89797252 -83.06501858 372.623704 C-83.06596985 365.08209055 -83.07008413 357.54048547 -83.07641983 349.99887466 C-83.09402881 328.60173015 -83.10325934 307.20460567 -83.10175888 285.80745386 C-83.10167897 284.65454206 -83.10159906 283.50163026 -83.10151672 282.31378174 C-83.10143496 281.15945676 -83.1013532 280.00513179 -83.10126896 278.81582727 C-83.10045636 260.11560398 -83.11958846 241.4154613 -83.14779346 222.71526133 C-83.17654726 203.49903736 -83.19033235 184.28285266 -83.1886059 165.06660664 C-83.18794282 154.28422651 -83.19339912 143.50193087 -83.21496201 132.71957016 C-83.23320673 123.53779121 -83.23749419 114.35613504 -83.22394316 105.17434578 C-83.21742988 100.49397313 -83.21723675 95.8138358 -83.23464966 91.13348579 C-83.25045849 86.83993542 -83.24743777 82.5468054 -83.23008139 78.2532648 C-83.22702857 76.7088607 -83.23057831 75.16442462 -83.24180155 73.62005828 C-83.37642668 53.7629388 -77.76416979 35.88730509 -63.86274719 21.37384033 C-45.24973603 2.71605561 -25.17424418 -0.09891346 0 0 Z " fill="#5E17EB" transform="translate(283.7309112548828,395.63250732421875)"/>
<path d="M0 0 C2.29905902 -0.00202669 4.59811719 -0.00536881 6.89717263 -0.00990558 C13.18749503 -0.01852289 19.47766888 -0.00851672 25.76797831 0.00463676 C31.86347724 0.01443829 37.95895179 0.01007635 44.05445453 0.00612571 C56.51737223 -0.00144644 68.9802455 0.00502219 81.44315529 0.01973724 C93.78214681 0.03428861 106.12111886 0.04302498 118.46011925 0.04392242 C119.22865958 0.04398352 119.99719991 0.04404461 120.78902934 0.04410756 C123.90895246 0.04433709 127.02887558 0.04452426 130.14879871 0.0446557 C158.55910683 0.04586601 186.96938778 0.06154511 215.37968445 0.08624268 C242.18990795 0.10954433 269.00011496 0.12371095 295.81034851 0.1272583 C297.04980774 0.12742557 297.04980774 0.12742557 298.31430654 0.12759623 C301.64571002 0.12804509 304.97711349 0.12848707 308.30851697 0.12892865 C309.96876298 0.12914903 311.62900899 0.12937033 313.28925501 0.12959253 C314.94546975 0.12981389 316.60168449 0.13003266 318.25789923 0.13024884 C344.63456549 0.13376433 371.01122867 0.14522418 397.38789183 0.15805517 C405.10693105 0.16177257 412.82597006 0.16503778 420.54500985 0.16730404 C436.77373381 0.17211381 453.00244791 0.1792064 469.23116503 0.19545171 C475.94208728 0.20209731 482.65299958 0.20712464 489.36392593 0.20791245 C495.50540156 0.2086993 501.64685504 0.21410527 507.78832378 0.22323194 C510.01146803 0.22574018 512.23461493 0.22657325 514.45776037 0.22557315 C517.47770166 0.22447687 520.49757362 0.2295048 523.5175066 0.23606491 C524.38187768 0.23429544 525.24624875 0.23252597 526.1368129 0.23070288 C534.55579246 0.26191085 542.26063824 0.9242431 550.14408875 3.99249268 C550.83317322 4.25755615 551.52225769 4.52261963 552.23222351 4.79571533 C571.61265474 12.54066222 584.00432849 26.87298018 592.0776825 45.68780518 C595.33333989 55.74298308 595.55825994 65.72631815 595.52978516 76.19871521 C595.53281027 77.7848557 595.53670155 79.37099473 595.54137772 80.95713121 C595.55162031 85.29101986 595.54948546 89.62482545 595.54519713 93.9587208 C595.54272304 98.64259449 595.55175261 103.32644852 595.55923462 108.01031494 C595.57196539 117.17768591 595.57377728 126.34502757 595.57143436 135.51240589 C595.56964897 142.96767345 595.57140558 150.42293213 595.5756588 157.87819862 C595.57625399 158.94060275 595.57684918 160.00300687 595.5774624 161.09760505 C595.5786742 163.25614148 595.57988833 165.41467791 595.58110478 167.57321433 C595.59197439 187.80403111 595.58982076 208.03483122 595.58371993 228.26564894 C595.57855317 246.75166055 595.5898009 265.23761943 595.60881815 283.72362062 C595.62821635 302.72633963 595.63644895 321.72903373 595.6326949 340.73176271 C595.63078562 351.39172591 595.63324358 362.05164425 595.64740944 372.71159935 C595.6593496 381.78825185 595.66069875 390.86483188 595.64861927 399.94148543 C595.64274863 404.56727481 595.6415806 409.19293183 595.65362167 413.81871223 C595.66454187 418.06344827 595.66130496 422.30794241 595.64735999 426.55266742 C595.6447298 428.07818511 595.64702605 429.60372213 595.65509585 431.12922075 C595.74997487 450.42307703 592.49282524 467.92045852 580.26908875 483.36749268 C579.62326843 484.20151611 578.97744812 485.03553955 578.3120575 485.89483643 C568.74245745 497.41741607 555.89478649 504.44235313 541.26908875 507.36749268 C601.65908875 507.86249268 601.65908875 507.86249268 663.26908875 508.36749268 C663.26908875 527.6395251 655.87253532 544.64744513 642.26908875 558.36749268 C635.2485122 564.54334744 627.97983533 569.03918841 619.26908875 572.36749268 C617.970039 572.89752183 617.970039 572.89752183 616.64474583 573.43825865 C604.51065979 577.6611304 591.94635238 576.93349748 579.25661452 576.88136289 C575.68348561 576.87114502 572.11042571 576.88428364 568.53730679 576.89433622 C562.28502385 576.9087369 556.03287924 576.90837326 549.78059006 576.89814758 C540.48305531 576.88298289 531.18563671 576.89077059 521.88810268 576.90298081 C505.28027227 576.92402039 488.6725035 576.92222754 472.06466725 576.91066516 C457.5307402 576.90059652 442.99683571 576.89797913 428.46290588 576.90275574 C427.49822993 576.90306128 426.53355398 576.90336682 425.53964543 576.90368162 C421.62355197 576.904927 417.70745852 576.90620061 413.79136508 576.90752067 C377.06754021 576.91975223 340.34375455 576.90866988 303.61993574 576.88713308 C271.00459334 576.86815116 238.38931341 576.86984969 205.77397156 576.88897705 C169.11661985 576.91040309 132.45930278 576.91888471 95.80194569 576.906528 C91.89305433 576.90524516 87.98416297 576.90399379 84.07527161 576.90275574 C83.1128275 576.90243943 82.15038339 576.90212312 81.15877431 576.90179722 C66.63522337 576.89725044 52.11169749 576.90256265 37.58815002 576.91267395 C21.071543 576.9241156 4.55500716 576.92124182 -11.96159101 576.89955097 C-21.20139713 576.88781631 -30.44104906 576.88702389 -39.68085115 576.90213567 C-45.85723141 576.9111218 -52.03348836 576.90549313 -58.20985038 576.8881166 C-61.72586608 576.87862634 -65.24157604 576.87529535 -68.75758183 576.88974053 C-95.44546659 576.97544729 -95.44546659 576.97544729 -106.73091125 572.36749268 C-107.44124228 572.10311921 -108.15157331 571.83874574 -108.88342953 571.56636095 C-125.22216085 565.10214125 -137.29641739 551.51412448 -144.7035675 535.85186768 C-146.38610987 531.78305799 -147.66869294 527.63789738 -148.73091125 523.36749268 C-148.9216925 522.65206299 -149.11247375 521.9366333 -149.30903625 521.19952393 C-149.9395993 516.96657753 -149.73091125 512.64714745 -149.73091125 508.36749268 C-110.13091125 508.03749268 -70.53091125 507.70749268 -29.73091125 507.36749268 C-34.68091125 505.88249268 -34.68091125 505.88249268 -39.73091125 504.36749268 C-56.59837393 497.8300413 -69.06092573 485.01233609 -76.70747375 468.76983643 C-78.29903635 465.03391659 -79.66954901 461.28778442 -80.73091125 457.36749268 C-81.06933359 456.15584002 -81.40775593 454.94418736 -81.75643349 453.69581795 C-83.27545187 446.75039837 -83.01401517 439.68874162 -82.99833679 432.61819458 C-83.002077 431.01656796 -83.00667999 429.41494316 -83.01206744 427.81332123 C-83.02426729 423.42738129 -83.02404053 419.04151781 -83.02167869 414.65556479 C-83.02126975 409.91918362 -83.03231704 405.18282671 -83.04179382 400.44645691 C-83.05838871 391.172202 -83.0639027 381.89797252 -83.06501858 372.623704 C-83.06596985 365.08209055 -83.07008413 357.54048547 -83.07641983 349.99887466 C-83.09402881 328.60173015 -83.10325934 307.20460567 -83.10175888 285.80745386 C-83.10167897 284.65454206 -83.10159906 283.50163026 -83.10151672 282.31378174 C-83.10143496 281.15945676 -83.1013532 280.00513179 -83.10126896 278.81582727 C-83.10045636 260.11560398 -83.11958846 241.4154613 -83.14779346 222.71526133 C-83.17654726 203.49903736 -83.19033235 184.28285266 -83.1886059 165.06660664 C-83.18794282 154.28422651 -83.19339912 143.50193087 -83.21496201 132.71957016 C-83.23320673 123.53779121 -83.23749419 114.35613504 -83.22394316 105.17434578 C-83.21742988 100.49397313 -83.21723675 95.8138358 -83.23464966 91.13348579 C-83.25045849 86.83993542 -83.24743777 82.5468054 -83.23008139 78.2532648 C-83.22702857 76.7088607 -83.23057831 75.16442462 -83.24180155 73.62005828 C-83.37642668 53.7629388 -77.76416979 35.88730509 -63.86274719 21.37384033 C-45.24973603 2.71605561 -25.17424418 -0.09891346 0 0 Z M-14.73091125 68.36749268 C-14.73091125 191.45749268 -14.73091125 314.54749268 -14.73091125 441.36749268 C164.12908875 441.36749268 342.98908875 441.36749268 527.26908875 441.36749268 C527.26908875 318.27749268 527.26908875 195.18749268 527.26908875 68.36749268 C348.40908875 68.36749268 169.54908875 68.36749268 -14.73091125 68.36749268 Z " fill="#FEFEFE" transform="translate(283.7309112548828,395.63250732421875)"/>
<path d="M0 0 C0.64297445 -0.00367669 1.28594889 -0.00735338 1.94840741 -0.01114148 C4.10080596 -0.02214585 6.25315618 -0.02601661 8.40557861 -0.02983093 C9.94982048 -0.03609801 11.49406084 -0.04274503 13.03829956 -0.04974365 C18.10765539 -0.07075644 23.17701143 -0.08114307 28.24639893 -0.09111023 C29.99336004 -0.09515875 31.740321 -0.0992757 33.4872818 -0.10346031 C41.69494547 -0.12250545 49.90260019 -0.1367382 58.11028171 -0.14507228 C67.57695193 -0.15484415 77.04338831 -0.18116515 86.50997615 -0.22157317 C93.83241623 -0.25175387 101.15478933 -0.26654299 108.47729039 -0.26985329 C112.84829546 -0.27220144 117.2190505 -0.28113118 121.58998871 -0.30631447 C125.70391676 -0.3296347 129.81743085 -0.3338127 133.93140793 -0.32355309 C135.43741866 -0.32305858 136.94345005 -0.32935385 138.44939804 -0.34310913 C154.75626321 -0.48366732 154.75626321 -0.48366732 161.0804863 5.59455395 C164.54711655 9.52603779 166.81727001 13.06079316 166.84194946 18.33277893 C166.85474442 19.57318687 166.85474442 19.57318687 166.86779785 20.83865356 C166.86643829 22.18681404 166.86643829 22.18681404 166.86505127 23.56221008 C166.87176849 24.51554733 166.87848572 25.46888458 166.88540649 26.45111084 C166.90441486 29.60505884 166.90831242 32.75879428 166.91046143 35.91279602 C166.91688839 38.1075194 166.92361668 40.30224192 166.93063354 42.4969635 C166.94261414 47.10027553 166.94631366 51.70351247 166.94512939 56.30683899 C166.9449264 62.19588444 166.97220552 68.08444627 167.00667381 73.97337723 C167.02895133 78.50823665 167.03296663 83.04297996 167.03190994 87.57788849 C167.03426549 89.748341 167.0430864 91.91879673 167.05857468 94.08919525 C167.07824719 97.13132181 167.07239077 100.17240929 167.06036377 103.21455383 C167.07160278 104.10523056 167.0828418 104.99590729 167.09442139 105.91357422 C167.02981601 112.36887697 165.67721829 117.87341024 161.12720299 122.6742897 C156.64502519 126.56527005 153.25849049 128.42321325 147.33795166 128.27558899 C146.29263779 128.25672638 145.24732391 128.23786377 144.17033386 128.21842957 C143.04430252 128.19233612 141.91827118 128.16624268 140.75811768 128.13935852 C138.36035313 128.12067117 135.96256222 128.10514793 133.5647583 128.09248352 C129.79336666 128.06602965 126.02617668 128.02253898 122.25592041 127.92451477 C107.67671618 126.84249314 107.67671618 126.84249314 94.54547119 131.73823547 C91.70030475 134.5470832 89.64197033 137.72952734 87.57452393 141.14717102 C86.29288108 142.65315306 84.98660673 144.13925878 83.63702393 145.58467102 C81.78129729 147.71564897 80.01165143 149.86217122 78.26202393 152.08467102 C76.0932795 154.73535865 75.15976151 155.07574119 71.75811768 155.49092102 C67.60375673 155.04235199 66.45152592 153.67606782 63.63702393 150.64717102 C62.77593018 149.73193665 61.91483643 148.81670227 61.02764893 147.87373352 C60.21811768 146.9739679 59.40858643 146.07420227 58.57452393 145.14717102 C57.92999268 144.4330304 57.28546143 143.71888977 56.62139893 142.98310852 C51.97293435 137.72741209 51.97293435 137.72741209 50.13383484 135.04896545 C47.77105682 131.82150591 45.9414563 129.52456178 41.99813843 128.43586731 C38.90407396 128.19262169 35.89941865 128.19565593 32.79718018 128.28779602 C31.67186386 128.28640625 30.54654755 128.28501648 29.38713074 128.28358459 C25.80242131 128.28389524 22.22118745 128.33694108 18.63702393 128.39717102 C15.05700807 128.43621259 11.47785941 128.46350637 7.89762878 128.46791077 C5.67478841 128.47272075 3.45186555 128.49824455 1.22956848 128.54762268 C-6.07575027 128.59142315 -11.75332157 127.70009973 -17.23016357 122.40107727 C-17.5833667 121.84291321 -17.93656982 121.28474915 -18.30047607 120.70967102 C-18.66914795 120.15408508 -19.03781982 119.59849915 -19.41766357 119.02607727 C-22.37782727 113.50732248 -22.72244517 109.05682343 -22.71600342 102.89399719 C-22.72272064 101.96977463 -22.72943787 101.04555206 -22.73635864 100.09332275 C-22.75533442 97.04220685 -22.75926274 93.99131099 -22.76141357 90.94013977 C-22.76784213 88.81410635 -22.77457053 86.68807381 -22.78158569 84.56204224 C-22.79355766 80.10594126 -22.79726663 75.6499178 -22.79608154 71.19380188 C-22.79587844 65.49422827 -22.82317234 59.79515376 -22.85762596 54.09569836 C-22.87990525 49.70409886 -22.88391875 45.31261923 -22.88286209 40.92096901 C-22.88521681 38.82029311 -22.894033 36.71961384 -22.90952682 34.61899376 C-22.92920583 31.67515383 -22.92334085 28.73238705 -22.91131592 25.78852844 C-22.92255493 24.92747498 -22.93379395 24.06642151 -22.94537354 23.17927551 C-22.87417304 16.29150396 -20.99574866 11.07386812 -16.42547607 5.86982727 C-15.76547607 5.32197571 -15.10547607 4.77412415 -14.42547607 4.20967102 C-13.76547607 3.64377258 -13.10547607 3.07787415 -12.42547607 2.49482727 C-8.51470065 -0.1403632 -4.62146656 0.01715775 0 0 Z " fill="#5F18EB" transform="translate(521.4254760742188,650.8528289794922)"/>
<path d="M0 0 C31.68 0 63.36 0 96 0 C96 11.55 96 23.1 96 35 C75.54 35 55.08 35 34 35 C34 48.2 34 61.4 34 75 C37.3 73.35 40.6 71.7 44 70 C54.92478356 66.47045454 68.5250344 66.34414925 79.28515625 70.55078125 C91.30744103 76.96843255 97.87199042 88.43164684 102 101 C105.00538656 111.77519213 105.48680032 121.95898497 105.375 133.0625 C105.37067963 133.87404541 105.36635925 134.68559082 105.36190796 135.52172852 C105.22314882 157.76479166 104.61129517 180.24200508 88.0546875 196.96484375 C75.25437957 208.83650188 59.56326334 209.74318289 42.84375 209.34765625 C29.35120476 208.74127414 17.24047676 204.69432369 7.6875 194.875 C-4.06196011 180.68563185 -4 162.57373284 -4 145 C9.53 145 23.06 145 37 145 C37.495 154.405 37.495 154.405 38 164 C39.93906615 171.25857552 39.93906615 171.25857552 45 176 C50.34572552 176.78613611 54.6312017 177.00564773 59.0625 173.75 C64.19647392 166.46306927 64.15526279 158.82761036 64.203125 150.14453125 C64.20882507 149.32103683 64.21452515 148.49754242 64.22039795 147.64909363 C64.22978745 145.91540792 64.23635764 144.18170485 64.24023438 142.44799805 C64.24991015 139.836749 64.28097909 137.22629844 64.3125 134.61523438 C64.72837675 117.07580031 64.72837675 117.07580031 57 102 C53.02581427 100.01290714 48.32124663 100.46899935 44 101 C39.99783989 102.78496341 38.18355551 105.64554799 36.1875 109.5 C34.847757 113.20074519 34.847757 113.20074519 34 118 C21.79 118 9.58 118 -3 118 C-2.15097139 78.66167424 -1.07663225 39.33296504 0 0 Z " fill="#FDFDFE" transform="translate(75,104)"/>
<path d="M0 0 C0.64297445 -0.00367669 1.28594889 -0.00735338 1.94840741 -0.01114148 C4.10080596 -0.02214585 6.25315618 -0.02601661 8.40557861 -0.02983093 C9.94982048 -0.03609801 11.49406084 -0.04274503 13.03829956 -0.04974365 C18.10765539 -0.07075644 23.17701143 -0.08114307 28.24639893 -0.09111023 C29.99336004 -0.09515875 31.740321 -0.0992757 33.4872818 -0.10346031 C41.69494547 -0.12250545 49.90260019 -0.1367382 58.11028171 -0.14507228 C67.57695193 -0.15484415 77.04338831 -0.18116515 86.50997615 -0.22157317 C93.83241623 -0.25175387 101.15478933 -0.26654299 108.47729039 -0.26985329 C112.84829546 -0.27220144 117.2190505 -0.28113118 121.58998871 -0.30631447 C125.70391676 -0.3296347 129.81743085 -0.3338127 133.93140793 -0.32355309 C135.43741866 -0.32305858 136.94345005 -0.32935385 138.44939804 -0.34310913 C154.75626321 -0.48366732 154.75626321 -0.48366732 161.0804863 5.59455395 C164.54711655 9.52603779 166.81727001 13.06079316 166.84194946 18.33277893 C166.85474442 19.57318687 166.85474442 19.57318687 166.86779785 20.83865356 C166.86643829 22.18681404 166.86643829 22.18681404 166.86505127 23.56221008 C166.87176849 24.51554733 166.87848572 25.46888458 166.88540649 26.45111084 C166.90441486 29.60505884 166.90831242 32.75879428 166.91046143 35.91279602 C166.91688839 38.1075194 166.92361668 40.30224192 166.93063354 42.4969635 C166.94261414 47.10027553 166.94631366 51.70351247 166.94512939 56.30683899 C166.9449264 62.19588444 166.97220552 68.08444627 167.00667381 73.97337723 C167.02895133 78.50823665 167.03296663 83.04297996 167.03190994 87.57788849 C167.03426549 89.748341 167.0430864 91.91879673 167.05857468 94.08919525 C167.07824719 97.13132181 167.07239077 100.17240929 167.06036377 103.21455383 C167.07160278 104.10523056 167.0828418 104.99590729 167.09442139 105.91357422 C167.02981601 112.36887697 165.67721829 117.87341024 161.12720299 122.6742897 C156.64502519 126.56527005 153.25849049 128.42321325 147.33795166 128.27558899 C146.29263779 128.25672638 145.24732391 128.23786377 144.17033386 128.21842957 C143.04430252 128.19233612 141.91827118 128.16624268 140.75811768 128.13935852 C138.36035313 128.12067117 135.96256222 128.10514793 133.5647583 128.09248352 C129.79336666 128.06602965 126.02617668 128.02253898 122.25592041 127.92451477 C107.67671618 126.84249314 107.67671618 126.84249314 94.54547119 131.73823547 C91.70030475 134.5470832 89.64197033 137.72952734 87.57452393 141.14717102 C86.29288108 142.65315306 84.98660673 144.13925878 83.63702393 145.58467102 C81.78129729 147.71564897 80.01165143 149.86217122 78.26202393 152.08467102 C76.0932795 154.73535865 75.15976151 155.07574119 71.75811768 155.49092102 C67.60375673 155.04235199 66.45152592 153.67606782 63.63702393 150.64717102 C62.77593018 149.73193665 61.91483643 148.81670227 61.02764893 147.87373352 C60.21811768 146.9739679 59.40858643 146.07420227 58.57452393 145.14717102 C57.92999268 144.4330304 57.28546143 143.71888977 56.62139893 142.98310852 C51.97293435 137.72741209 51.97293435 137.72741209 50.13383484 135.04896545 C47.77105682 131.82150591 45.9414563 129.52456178 41.99813843 128.43586731 C38.90407396 128.19262169 35.89941865 128.19565593 32.79718018 128.28779602 C31.67186386 128.28640625 30.54654755 128.28501648 29.38713074 128.28358459 C25.80242131 128.28389524 22.22118745 128.33694108 18.63702393 128.39717102 C15.05700807 128.43621259 11.47785941 128.46350637 7.89762878 128.46791077 C5.67478841 128.47272075 3.45186555 128.49824455 1.22956848 128.54762268 C-6.07575027 128.59142315 -11.75332157 127.70009973 -17.23016357 122.40107727 C-17.5833667 121.84291321 -17.93656982 121.28474915 -18.30047607 120.70967102 C-18.66914795 120.15408508 -19.03781982 119.59849915 -19.41766357 119.02607727 C-22.37782727 113.50732248 -22.72244517 109.05682343 -22.71600342 102.89399719 C-22.72272064 101.96977463 -22.72943787 101.04555206 -22.73635864 100.09332275 C-22.75533442 97.04220685 -22.75926274 93.99131099 -22.76141357 90.94013977 C-22.76784213 88.81410635 -22.77457053 86.68807381 -22.78158569 84.56204224 C-22.79355766 80.10594126 -22.79726663 75.6499178 -22.79608154 71.19380188 C-22.79587844 65.49422827 -22.82317234 59.79515376 -22.85762596 54.09569836 C-22.87990525 49.70409886 -22.88391875 45.31261923 -22.88286209 40.92096901 C-22.88521681 38.82029311 -22.894033 36.71961384 -22.90952682 34.61899376 C-22.92920583 31.67515383 -22.92334085 28.73238705 -22.91131592 25.78852844 C-22.92255493 24.92747498 -22.93379395 24.06642151 -22.94537354 23.17927551 C-22.87417304 16.29150396 -20.99574866 11.07386812 -16.42547607 5.86982727 C-15.76547607 5.32197571 -15.10547607 4.77412415 -14.42547607 4.20967102 C-13.76547607 3.64377258 -13.10547607 3.07787415 -12.42547607 2.49482727 C-8.51470065 -0.1403632 -4.62146656 0.01715775 0 0 Z M-7.29267979 15.42749786 C-9.36392876 18.57181542 -8.8485786 22.40584468 -8.82952881 26.05317688 C-8.83639206 26.96402542 -8.84325531 27.87487396 -8.85032654 28.81332397 C-8.86865515 31.829712 -8.86474833 34.84558291 -8.85906982 37.86201477 C-8.8636288 39.95564952 -8.86893352 42.04928276 -8.87495422 44.14291382 C-8.88389732 48.53363621 -8.88144865 52.92417684 -8.871521 57.31489563 C-8.86003152 62.94544952 -8.88023666 68.57537627 -8.90943813 74.20584774 C-8.9277726 78.53039546 -8.92751313 82.85479215 -8.92180061 87.17936897 C-8.92164705 89.25543154 -8.92771998 91.33150412 -8.94009209 93.40752983 C-8.95494767 96.30934507 -8.94436482 99.20999228 -8.92718506 102.11177063 C-8.93685303 102.97164581 -8.946521 103.831521 -8.95648193 104.717453 C-8.91028603 108.43831638 -8.83828261 110.52385514 -6.74952698 113.67776489 C-3.87617839 115.49447038 -2.12985071 115.66306151 1.26104736 115.69306946 C2.97236847 115.7226474 2.97236847 115.7226474 4.71826172 115.75282288 C5.944422 115.75405151 7.17058228 115.75528015 8.43389893 115.75654602 C10.32317108 115.7813504 10.32317108 115.7813504 12.25061035 115.80665588 C15.59135065 115.84699936 18.93132817 115.87031926 22.2722168 115.88539124 C25.68434135 115.90497607 29.09618308 115.94694434 32.50811768 115.98701477 C39.19685082 116.06102149 45.88547706 116.11259194 52.57452393 116.14717102 C53.02039101 117.0786647 53.02039101 117.0786647 53.4752655 118.02897644 C54.71344513 120.41486253 56.15565933 122.03099817 58.01593018 123.96748352 C58.68173096 124.66744446 59.34753174 125.3674054 60.0335083 126.08857727 C60.72766846 126.80916321 61.42182861 127.52974915 62.13702393 128.27217102 C63.51536224 129.71032641 64.8917635 131.15034158 66.26593018 132.59248352 C66.87638184 133.2268634 67.4868335 133.86124329 68.11578369 134.5148468 C69.57452393 136.14717102 69.57452393 136.14717102 70.57452393 138.14717102 C73.67865153 136.79288641 75.48928116 135.37582849 77.63702393 132.77217102 C78.23700195 132.09936096 78.83697998 131.4265509 79.45513916 130.73335266 C81.6661107 128.17457271 81.6661107 128.17457271 83.34796143 125.10346985 C86.66042105 120.22558904 89.51910418 116.82241972 95.46609497 115.50813293 C104.12317231 114.59410614 112.82644021 114.94663319 121.51202393 115.20967102 C125.46251252 115.29813812 129.41288006 115.35536495 133.36421204 115.39190674 C135.81427155 115.41840268 138.26422363 115.4728824 140.7129364 115.55831909 C142.3710006 115.5869529 142.3710006 115.5869529 144.06256104 115.61616516 C145.5183683 115.6604641 145.5183683 115.6604641 147.00358582 115.70565796 C149.7355432 115.3239765 149.7355432 115.3239765 151.88766479 113.17720032 C154.17320522 109.07178669 154.12972152 105.8229689 154.07623291 101.19770813 C154.08163589 100.30607468 154.08703888 99.41444122 154.09260559 98.49578857 C154.10509056 95.55502406 154.08860463 92.61523889 154.07061768 89.67451477 C154.07077266 87.62858021 154.07226146 85.58264535 154.07502747 83.53671265 C154.07641131 79.2520294 154.06385454 74.96768097 154.04107666 70.68305969 C154.01267429 65.18939073 154.01543449 59.69627729 154.02816677 54.2025671 C154.03511903 49.97924041 154.02734012 45.75604229 154.01490974 41.53273201 C154.01039211 39.50692297 154.01006116 37.48110014 154.01397514 35.45528984 C154.01688334 32.62565139 154.00039963 29.79678083 153.97857666 26.96723938 C153.98307831 26.12920776 153.98757996 25.29117615 153.99221802 24.42774963 C153.95214963 21.30316888 153.88047472 18.74538881 152.44172764 15.93224335 C149.77206444 13.38000876 147.96787725 13.64663461 144.31158447 13.64596558 C142.99918793 13.63613144 141.68679138 13.6262973 140.33462524 13.61616516 C138.87682847 13.62553755 137.41903427 13.63531688 135.96124268 13.64546204 C134.4287364 13.64167978 132.89623355 13.63618051 131.36373901 13.62908936 C127.19841398 13.6151051 123.03350064 13.6263251 118.86819839 13.64280057 C114.51338613 13.6566306 110.15859826 13.65019333 105.80377197 13.64666748 C98.48998361 13.64396373 91.17635921 13.65745507 83.86260986 13.68061829 C75.40161016 13.70722911 66.94088465 13.70897577 58.47985744 13.69722992 C50.34744692 13.68645826 42.21513578 13.69263438 34.08273315 13.7067852 C30.61865902 13.71255034 27.15465749 13.71245819 23.69058228 13.7077198 C19.61279942 13.70295454 15.53531758 13.71303273 11.45759201 13.73467445 C9.95918162 13.74024869 8.46074234 13.74070178 6.96232986 13.73572159 C4.92070096 13.72978591 2.87904277 13.7440832 0.83746338 13.75949097 C-0.30627243 13.76192086 -1.45000824 13.76435076 -2.62840271 13.76685429 C-5.41135576 13.93195163 -5.41135576 13.93195163 -7.29267979 15.42749786 Z " fill="#FBFAFE" transform="translate(521.4254760742188,650.8528289794922)"/>
<path d="M0 0 C8.49582704 7.70735122 14.74923692 18.96215336 15.61328125 30.4921875 C15.87464386 43.50529418 13.62917341 54.87594042 5.375 65.3125 C4.611875 66.364375 3.84875 67.41625 3.0625 68.5 C-6.08205421 78.06988231 -19.05862802 83.2780618 -32.1875 83.625 C-44.80408848 83.4688541 -55.88103159 78.46820948 -65.1328125 70.0234375 C-75.38119476 59.36917871 -79.06410435 47.00422473 -78.98632812 32.515625 C-78.69925545 19.68644602 -73.36533618 10.62857323 -64.75 1.27734375 C-46.18358022 -16.322075 -19.58800667 -15.38438577 0 0 Z " fill="#601AEB" transform="translate(625.625,682.6875)"/>
<path d="M0 0 C1.52351041 -0.00542701 3.04701556 -0.01255291 4.57051086 -0.02124023 C8.69047671 -0.03940947 12.81003997 -0.03243234 16.93001246 -0.01972389 C21.25263307 -0.00956104 25.57522037 -0.01899884 29.89784241 -0.02526855 C37.15656692 -0.03253621 44.41512839 -0.0229813 51.67382812 -0.00390625 C60.05022603 0.01785264 68.4262343 0.01081481 76.80262274 -0.01121187 C84.00969289 -0.02940089 91.21664616 -0.03190688 98.42373186 -0.0214572 C102.72145089 -0.01524041 107.01898718 -0.01433623 111.31669426 -0.02760315 C115.35933351 -0.03921191 119.40147368 -0.03104507 123.44405937 -0.00802612 C124.92221755 -0.00276535 126.40041818 -0.00420743 127.87855911 -0.01307678 C136.71189667 -0.06116731 145.0133187 -0.07290004 151.78260708 6.26750946 C157.4164966 12.32637899 158.21312609 17.8439424 158.20483398 25.86254883 C158.21155121 26.79652496 158.21826843 27.7305011 158.22518921 28.69277954 C158.24416636 31.77636048 158.24809337 34.85972369 158.25024414 37.94335938 C158.25667259 40.09181304 158.26340099 42.24026582 158.27041626 44.38871765 C158.28238856 48.89189686 158.28609716 53.39499936 158.28491211 57.89819336 C158.284709 63.65829896 158.31200318 69.41791072 158.34645653 75.17789936 C158.36873455 79.61582177 158.37274936 84.05362554 158.37169266 88.49159813 C158.37404755 90.61460254 158.38286476 92.73761028 158.39835739 94.86055946 C158.41803382 97.83552882 158.41217237 100.80943602 158.40014648 103.78442383 C158.4113855 104.65482803 158.42262451 105.52523224 158.4342041 106.42201233 C158.36865825 112.82850931 156.94383082 118.23920426 152.50238609 123.04547596 C147.90127592 127.10830301 143.65222711 128.77299965 137.57666016 128.74121094 C136.53530411 128.74171448 135.49394806 128.74221802 134.42103577 128.74273682 C133.30635422 128.7354657 132.19167267 128.72819458 131.04321289 128.72070312 C128.67146259 128.73124915 126.29971742 128.74300513 123.92797852 128.75585938 C120.19717864 128.76618379 116.46709596 128.76752615 112.73632812 128.74755859 C109.12967233 128.73279966 105.52475664 128.75524092 101.91821289 128.78320312 C100.80555557 128.76783508 99.69289825 128.75246704 98.54652405 128.7366333 C92.93519285 128.68255334 92.93519285 128.68255334 87.94796753 130.88024902 C86.52441799 132.3535975 85.21039918 133.93094862 83.91430664 135.51757812 C80.15412136 136.26961518 78.69405964 136.01741979 75.47680664 133.95507812 C73.91430664 131.51757812 73.91430664 131.51757812 73.72680664 128.26757812 C75.31156623 123.26307416 78.13620332 120.09499697 81.91430664 116.51757812 C84.45908161 115.24519064 86.27767573 115.37220638 89.12670898 115.34399414 C90.21478851 115.3305043 91.30286804 115.31701447 92.42391968 115.30311584 C93.60410675 115.29267746 94.78429382 115.28223907 96.00024414 115.27148438 C98.48201853 115.23854834 100.96378928 115.20533665 103.44555664 115.171875 C107.37163803 115.12442174 111.29770437 115.07999423 115.22387695 115.04077148 C119.00365737 115.00111181 122.78313158 114.94955248 126.56274414 114.89648438 C127.73888275 114.88807022 128.91502136 114.87965607 130.12680054 114.87098694 C131.76837631 114.84602394 131.76837631 114.84602394 133.44311523 114.82055664 C134.40526947 114.81024918 135.36742371 114.79994171 136.35873413 114.7893219 C138.99264151 114.50924848 140.65105487 113.85673784 142.91430664 112.51757812 C142.9605716 100.16567381 142.99614605 87.81378998 143.01793098 75.46181679 C143.02838469 69.72679212 143.04257276 63.99182657 143.06518555 58.25683594 C143.08685744 52.72609244 143.0988633 47.19540593 143.10406113 41.66462326 C143.10776707 39.55062334 143.11500346 37.43662667 143.12576675 35.32265091 C143.14020656 32.37014178 143.14228774 29.41787058 143.14135742 26.46533203 C143.15214325 25.14363762 143.15214325 25.14363762 143.16314697 23.79524231 C143.36571328 19.17700045 143.36571328 19.17700045 140.91430664 15.51757812 C138.12921837 15.20917312 138.12921837 15.20917312 134.80958557 15.25688171 C132.85567398 15.2462545 132.85567398 15.2462545 130.86228943 15.2354126 C129.41030849 15.23770664 127.95832789 15.24021637 126.50634766 15.24291992 C124.98384348 15.23857482 123.46134149 15.23339235 121.93884277 15.22743225 C117.79630539 15.21400904 113.65385905 15.21346727 109.51130414 15.21599555 C106.05687278 15.21706305 102.60246 15.21218757 99.14803261 15.20739013 C91.00036705 15.19628339 82.85274759 15.19586404 74.70507812 15.2019043 C66.29126338 15.20794582 57.87761579 15.19563125 49.46382958 15.17433423 C42.24765534 15.1567382 35.03153441 15.15071371 27.81533951 15.15397197 C23.50209159 15.15578822 19.18896289 15.1531148 14.87573433 15.13925743 C10.82015665 15.12671615 6.76484016 15.12858783 2.70926666 15.14166832 C1.2189087 15.14404179 -0.27146743 15.14127196 -1.76180458 15.1330452 C-3.79250886 15.12264201 -5.82328703 15.13244497 -7.85398865 15.14335632 C-9.56047907 15.14310471 -9.56047907 15.14310471 -11.30144405 15.14284801 C-14.09186358 15.29117054 -14.09186358 15.29117054 -15.95151615 16.89392567 C-17.55885352 19.19493934 -17.46426442 20.88422085 -17.47045898 23.67578125 C-17.48562561 25.25256653 -17.48562561 25.25256653 -17.50109863 26.86120605 C-17.49807739 27.99562134 -17.49505615 29.13003662 -17.49194336 30.29882812 C-17.50277954 31.46385864 -17.51361572 32.62888916 -17.52478027 33.82922363 C-17.55912427 37.5587316 -17.57465465 41.28793257 -17.58569336 45.01757812 C-17.60021538 49.92412567 -17.63380846 54.82998242 -17.67944336 59.73632812 C-17.67642212 60.87074341 -17.67340088 62.00515869 -17.67028809 63.1739502 C-17.68545471 64.75073547 -17.68545471 64.75073547 -17.70092773 66.359375 C-17.7040094 67.74811829 -17.7040094 67.74811829 -17.70715332 69.16491699 C-18.08569336 71.51757812 -18.08569336 71.51757812 -19.39099121 73.31652832 C-22.22494291 75.32497395 -24.74145137 74.87588977 -28.08569336 74.51757812 C-29.78018188 73.32403564 -29.78018188 73.32403564 -31.08569336 71.51757812 C-31.46664429 69.11590576 -31.46664429 69.11590576 -31.47387695 66.23925781 C-31.48333344 65.16093689 -31.49278992 64.08261597 -31.50253296 62.97161865 C-31.49646027 61.80600403 -31.49038757 60.6403894 -31.48413086 59.43945312 C-31.48700104 58.23951721 -31.48987122 57.0395813 -31.49282837 55.80328369 C-31.49487182 53.26126637 -31.48932242 50.71923343 -31.47680664 48.17724609 C-31.46081396 44.29683923 -31.47661787 40.41748292 -31.49584961 36.53710938 C-31.49386613 34.067055 -31.49002029 31.59700128 -31.48413086 29.12695312 C-31.49020355 27.96943542 -31.49627625 26.81191772 -31.50253296 25.61932373 C-31.43665668 18.01962851 -30.81311262 12.8684075 -25.89819336 6.83007812 C-17.610704 0.0159202 -10.39592762 -0.06228566 0 0 Z " fill="#FAF8FE" transform="translate(517.085693359375,508.482421875)"/>
<path d="M0 0 C1.30102158 -0.00426498 2.60204315 -0.00852997 3.94248962 -0.01292419 C5.38244632 -0.01257469 6.82240299 -0.01211316 8.26235962 -0.0115509 C9.78028954 -0.01454339 11.29821869 -0.01794613 12.81614685 -0.02172852 C16.93808629 -0.03056356 21.06000496 -0.03290642 25.18195295 -0.0335443 C27.75765289 -0.03425509 30.33334755 -0.03638994 32.90904617 -0.03904152 C41.89612412 -0.04829328 50.88318723 -0.05237661 59.87026978 -0.05158997 C68.2454017 -0.05098921 76.62046922 -0.06154109 84.99558485 -0.07733363 C92.18805951 -0.09041246 99.38051313 -0.09577372 106.5729996 -0.09513456 C110.86784608 -0.09487967 115.16263531 -0.09772572 119.45746994 -0.10831261 C123.49743627 -0.11799934 127.53729068 -0.11806883 131.57726097 -0.11079597 C133.0582985 -0.10975085 134.53934302 -0.11210875 136.02036858 -0.11815643 C138.0455473 -0.12588918 140.07076422 -0.12002639 142.09594727 -0.11352539 C143.79439317 -0.11434254 143.79439317 -0.11434254 145.52715111 -0.1151762 C151.48755328 0.35609753 155.99273425 2.46936431 160.67495728 6.13371277 C165.32432382 12.16532343 165.83507832 16.63242814 165.87808228 24.07511902 C165.88378235 24.83920578 165.88948242 25.60329254 165.89535522 26.39053345 C165.90477929 28.00177129 165.91132887 29.61302817 165.91519165 31.22428894 C165.92493739 33.69117954 165.95599995 36.15725047 165.98745728 38.62394714 C165.99398403 40.1909995 165.99923579 41.75805779 166.00308228 43.32511902 C166.01542908 44.06266922 166.02777588 44.80021942 166.04049683 45.56011963 C166.01842792 50.61638105 166.01842792 50.61638105 164.37319946 53.09440613 C161.44714182 54.88512312 158.9897402 54.54806063 155.67495728 54.13371277 C153.12102727 51.75661602 152.69265099 50.2757707 152.25845337 46.78971863 C152.23863403 45.48913513 152.2188147 44.18855164 152.19839478 42.84855652 C152.17502548 41.80230858 152.17502548 41.80230858 152.15118408 40.73492432 C152.1037927 38.51369819 152.075949 36.29278348 152.04995728 34.07121277 C152.01340828 31.84629238 151.97274051 29.62154613 151.92730713 27.39678955 C151.88775308 25.38077172 151.85992343 23.36453404 151.83267212 21.34831238 C151.81875843 18.11618386 151.81875843 18.11618386 150.67495728 15.13371277 C130.23925112 15.08704445 109.80355574 15.05174933 89.36780739 15.03008842 C79.8796778 15.01976471 70.39158127 15.00568351 60.9034729 14.98283386 C52.63608446 14.96293345 44.36871995 14.95000431 36.10130823 14.94553578 C31.72156778 14.9429227 27.34189583 14.93675825 22.96217728 14.92225266 C18.84349231 14.90872156 14.72490434 14.90448101 10.60619926 14.90749741 C9.09123013 14.90694523 7.57625789 14.90294121 6.06130791 14.89530182 C3.9993489 14.88541032 1.93776031 14.88772233 -0.12420654 14.89320374 C-1.28013494 14.89136015 -2.43606335 14.88951656 -3.62701988 14.88761711 C-6.47521337 14.85724837 -6.47521337 14.85724837 -8.32504272 17.13371277 C-8.5291587 20.10030574 -8.60818161 22.97392687 -8.59970093 25.94206238 C-8.60481186 26.85437119 -8.60992279 27.76667999 -8.6151886 28.70663452 C-8.6291295 31.73317459 -8.62812444 34.75948809 -8.62582397 37.78605652 C-8.62970847 39.88351527 -8.63404262 41.98097324 -8.6388092 44.07843018 C-8.64628112 48.47928922 -8.64597313 52.88006806 -8.64071655 57.28092957 C-8.63492102 62.92831664 -8.65185035 68.57537585 -8.67506123 74.2227087 C-8.68977346 78.55577524 -8.69067369 82.88876236 -8.6875515 87.22184944 C-8.68806599 89.30431836 -8.69332752 91.38679158 -8.70336342 93.46923637 C-8.71566171 96.37836553 -8.70897589 99.28685025 -8.69735718 102.19596863 C-8.70500092 103.06101013 -8.71264465 103.92605164 -8.72052002 104.81730652 C-8.8190136 109.13526104 -8.8190136 109.13526104 -6.95091724 112.85732174 C-4.63286629 114.67710513 -2.99969497 114.47294727 -0.07846069 114.42326355 C1.52933762 114.40938095 1.52933762 114.40938095 3.1696167 114.3952179 C4.32895721 114.37337433 5.48829773 114.35153076 6.68276978 114.32902527 C9.13849456 114.32205201 11.59422508 114.31690191 14.04995728 114.31340027 C17.92146013 114.29280717 21.79126136 114.25886228 25.66226196 114.19230652 C29.39923972 114.13494692 33.13293182 114.1342229 36.87026978 114.14152527 C38.0174649 114.10753632 39.16466003 114.07354736 40.34661865 114.03852844 C46.74606403 114.09518998 50.1293738 114.87079999 54.75650024 119.44963074 C56.09260374 120.9854395 57.40092894 122.54603116 58.67495728 124.13371277 C59.8376587 125.44972673 61.00361265 126.76288592 62.17495728 128.07121277 C62.72667603 128.71445496 63.27839478 129.35769714 63.84683228 130.02043152 C66.7242208 133.34664347 69.69790941 136.58548539 72.65933228 139.83683777 C77.70335561 145.58467831 77.70335561 145.58467831 77.48745728 149.75871277 C76.67495728 153.13371277 76.67495728 153.13371277 74.67495728 155.13371277 C71.36245728 155.57121277 71.36245728 155.57121277 67.67495728 155.13371277 C65.17495728 153.07121277 65.17495728 153.07121277 62.67495728 150.13371277 C61.55762968 149.02178289 60.43206065 147.91809515 59.29995728 146.82121277 C54.74309577 142.26435127 50.14885792 137.56594656 46.80166626 132.04240417 C44.99024912 129.88801124 44.01236715 129.20729379 41.23251343 128.60107422 C38.09869517 128.42491175 35.01222266 128.43465334 31.87417603 128.50480652 C30.72383377 128.50295853 29.57349152 128.50111053 28.38829041 128.49920654 C24.7122896 128.49495532 21.03820038 128.52911768 17.36245728 128.57121277 C13.69755101 128.60806657 10.03386112 128.63571853 6.36875916 128.63250732 C4.09032232 128.63074642 1.81171994 128.6517383 -0.4662323 128.69876099 C-7.32744874 128.6969415 -12.09467651 127.76805443 -17.32504272 123.13371277 C-20.66331204 118.85388031 -22.43474833 115.41490286 -22.485672 109.99243164 C-22.49571762 109.15003937 -22.50576324 108.30764709 -22.51611328 107.43972778 C-22.52194427 106.51865738 -22.52777527 105.59758698 -22.53378296 104.64860535 C-22.54356674 103.67590698 -22.55335052 102.70320862 -22.56343079 101.70103455 C-22.59338381 98.47678496 -22.61477098 95.25257688 -22.63363647 92.02824402 C-22.6402083 90.92669165 -22.64678013 89.82513927 -22.6535511 88.69020653 C-22.68614559 82.85848143 -22.71059531 77.02677462 -22.73007202 71.19499207 C-22.74788027 66.37115359 -22.78269363 61.54790019 -22.83261108 56.72428894 C-22.89283216 50.89820996 -22.92355074 45.07267324 -22.93324471 39.24629784 C-22.94179775 37.02834961 -22.96061197 34.81041581 -22.98998833 32.59264565 C-23.02895706 29.48305467 -23.02992991 26.37557061 -23.02206421 23.26579285 C-23.04206482 22.3548436 -23.06206543 21.44389435 -23.08267212 20.50534058 C-23.0070686 13.82497415 -20.98171824 9.90338763 -16.32504272 5.13371277 C-10.76911686 0.80009059 -6.9195464 0.01024802 0 0 Z " fill="#FBFAFE" transform="translate(414.3250427246094,589.8662872314453)"/>
<path d="M0 0 C9.07655855 5.37823704 14.7618941 12.25296083 17.9296875 22.41796875 C19.80086758 32.28939835 17.83604292 41.69648184 12.625 50.1875 C9.46550191 54.5999025 5.9268219 57.62096585 1.3125 60.4375 C0.66925781 60.85128906 0.02601563 61.26507812 -0.63671875 61.69140625 C-7.63151593 65.51522871 -15.94316099 65.67705763 -23.6875 64.4375 C-33.26300325 61.43899955 -41.33285288 55.29918817 -46.0625 46.375 C-50.21203489 36.90084069 -51.39880129 28.12183168 -47.6875 18.3125 C-43.43087586 9.15897957 -37.50222784 2.67213018 -28.2265625 -1.51953125 C-18.90680651 -4.26608186 -8.86705891 -4.12757698 0 0 Z " fill="#5F19EB" transform="translate(555.6875,873.5625)"/>
<path d="M0 0 C8.49582704 7.70735122 14.74923692 18.96215336 15.61328125 30.4921875 C15.87464386 43.50529418 13.62917341 54.87594042 5.375 65.3125 C4.611875 66.364375 3.84875 67.41625 3.0625 68.5 C-6.08205421 78.06988231 -19.05862802 83.2780618 -32.1875 83.625 C-44.80408848 83.4688541 -55.88103159 78.46820948 -65.1328125 70.0234375 C-75.38119476 59.36917871 -79.06410435 47.00422473 -78.98632812 32.515625 C-78.69925545 19.68644602 -73.36533618 10.62857323 -64.75 1.27734375 C-46.18358022 -16.322075 -19.58800667 -15.38438577 0 0 Z M-48.625 6.3125 C-49.31078125 6.725 -49.9965625 7.1375 -50.703125 7.5625 C-57.25500321 11.9637617 -62.78119076 18.52995851 -65.0625 26.1875 C-65.43690543 28.16475231 -65.43690543 28.16475231 -65.625 30.3125 C-65.7178125 31.21742188 -65.810625 32.12234375 -65.90625 33.0546875 C-66.41367756 42.82266812 -63.51278056 51.12427263 -57.375 58.75 C-53.68165605 62.62881756 -49.47056746 65.1037431 -44.625 67.3125 C-43.84640625 67.67859375 -43.0678125 68.0446875 -42.265625 68.421875 C-34.19304792 71.14457851 -24.81827399 69.87108383 -17.08984375 66.63671875 C-9.36948744 62.48901544 -2.40164428 55.38688812 0.515625 47.0546875 C2.47127357 38.53872689 2.95313559 28.13715394 -1.2890625 20.26953125 C-7.57648759 11.05900503 -14.64457032 4.96621667 -25.625 2.3125 C-34.10390964 1.36935099 -41.30009656 1.76992422 -48.625 6.3125 Z " fill="#FBFAFE" transform="translate(625.625,682.6875)"/>
<path d="M0 0 C33.66666667 0 33.66666667 0 41 6 C44.74928483 10.86393708 46.10083546 14.48997823 46.17700195 20.53393555 C46.19625481 21.87134041 46.19625481 21.87134041 46.21589661 23.23576355 C46.22328354 24.19307877 46.23067047 25.15039398 46.23828125 26.13671875 C46.246353 27.13073196 46.25442474 28.12474518 46.26274109 29.14888 C46.27656239 31.25280015 46.28729327 33.35674254 46.29516602 35.46069336 C46.30667428 37.60301321 46.32710766 39.74530465 46.35668945 41.88745117 C46.39954618 44.99157089 46.41556139 48.09483919 46.42578125 51.19921875 C46.44328934 52.14641281 46.46079742 53.09360687 46.47883606 54.06950378 C46.45662142 60.95936979 45.21462587 67.18857644 40.65864563 72.59037781 C30.17266973 82.19234417 11.7435292 78 0 78 C0 52.26 0 26.52 0 0 Z " fill="#FCFAFE" transform="translate(245,233)"/>
<path d="M0 0 C35.2 0 35.2 0 43 6.5 C46.77357266 11.21696582 47.34014986 14.82353978 47.3125 20.8125 C47.32861328 21.49892578 47.34472656 22.18535156 47.36132812 22.89257812 C47.36613078 27.9689858 46.36486769 31.4944227 44 36 C41.3125 38.4375 41.3125 38.4375 39 40 C39.6278439 44.11008056 40.48696244 48.05577707 41.59375 52.0625 C41.90183594 53.18914062 42.20992187 54.31578125 42.52734375 55.4765625 C42.84832031 56.63929688 43.16929687 57.80203125 43.5 59 C44.13816417 61.3117433 44.77367168 63.62422197 45.40625 65.9375 C45.82874023 67.46697266 45.82874023 67.46697266 46.25976562 69.02734375 C46.99593669 71.98368243 47.49913895 74.99483371 48 78 C42.06 78 36.12 78 30 78 C28.85739128 73.49842772 27.71695381 68.99642003 26.58203125 64.49291992 C26.19528503 62.96102204 25.80727236 61.42944332 25.41796875 59.89819336 C24.85864406 57.69727922 24.30388248 55.49525789 23.75 53.29296875 C23.57500977 52.60849167 23.40001953 51.92401459 23.21972656 51.21879578 C22.51258894 48.39124571 22 45.92845999 22 43 C20.35 43 18.7 43 17 43 C17 54.55 17 66.1 17 78 C11.39 78 5.78 78 0 78 C0 52.26 0 26.52 0 0 Z " fill="#FCFBFE" transform="translate(492,103)"/>
<path d="M0 0 C5.61 0 11.22 0 17 0 C17.01981934 1.8572168 17.03963867 3.71443359 17.06005859 5.62792969 C17.12785202 11.76678301 17.20462907 17.90547263 17.28752708 24.04413986 C17.33745556 27.76571684 17.38378574 31.48726591 17.421875 35.20898438 C17.45877163 38.80120413 17.50514317 42.39318843 17.55806351 45.9852066 C17.57658426 47.35507321 17.59170081 48.72499024 17.60334396 50.09493256 C17.62024532 52.01488656 17.65041426 53.93470986 17.68115234 55.85449219 C17.69447601 56.94703308 17.70779968 58.03957397 17.7215271 59.16522217 C17.99536721 61.95283949 18.56055693 63.62670059 20 66 C22.41645782 66.16687448 22.41645782 66.16687448 25 66 C27.73306029 63.26693971 27.27381961 61.7253334 27.31884766 57.89794922 C27.33871735 56.61677216 27.35858704 55.33559509 27.37905884 54.01559448 C27.39093617 52.61196058 27.40259898 51.20832484 27.4140625 49.8046875 C27.43276692 48.37263869 27.45233978 46.94060098 27.4727478 45.50857544 C27.52415206 41.73735083 27.56373311 37.96609045 27.60089111 34.19470215 C27.640879 30.34715874 27.69199504 26.49976517 27.7421875 22.65234375 C27.83904497 15.10165731 27.92238971 7.5509133 28 0 C33.94 0 39.88 0 46 0 C46.09076364 7.91109876 46.16398016 15.8217853 46.20724869 23.73326683 C46.22802687 27.40782562 46.2561623 31.08200637 46.30175781 34.75634766 C46.34556907 38.30958335 46.36921035 41.86245796 46.37950897 45.41594315 C46.39037784 47.41546807 46.42154635 49.41484993 46.45318604 51.41415405 C46.45512697 59.38368058 46.02060953 67.32423216 40.58770752 73.64242554 C33.41774694 80.02434751 24.9860893 79.68440453 15.94921875 79.19970703 C10.66318437 78.65812686 7.34930665 76.34930665 3.625 72.625 C0.56548134 67.68270062 -0.24981711 63.20372932 -0.22705078 57.44384766 C-0.22689972 56.16297272 -0.22674866 54.88209778 -0.22659302 53.56240845 C-0.21638209 52.17962485 -0.20595014 50.79684288 -0.1953125 49.4140625 C-0.19157835 47.98774413 -0.18873328 46.56142318 -0.18673706 45.13510132 C-0.17913219 41.39667573 -0.15951109 37.65840767 -0.1373291 33.92004395 C-0.11680257 30.09906138 -0.10772084 26.27805316 -0.09765625 22.45703125 C-0.07626189 14.97127433 -0.04110578 7.48567938 0 0 Z " fill="#FAF7FE" transform="translate(299,103)"/>
<path d="M0 0 C5.61 0 11.22 0 17 0 C17.01458252 1.82168701 17.02916504 3.64337402 17.04418945 5.52026367 C17.09589077 11.5474088 17.16119001 17.57427881 17.23571491 23.60117626 C17.28039218 27.25435862 17.31965377 30.90743015 17.34643555 34.56079102 C17.37249545 38.08826179 17.41291592 41.61530546 17.46318626 45.14251137 C17.48792576 47.13927679 17.49789298 49.13620755 17.50764465 51.13310242 C17.53733589 52.96443474 17.53733589 52.96443474 17.56762695 54.83276367 C17.57873001 55.90531906 17.58983307 56.97787445 17.60127258 58.08293152 C18.05033874 61.36827552 19.11956735 63.30052442 21 66 C23.97065509 65.65772428 23.97065509 65.65772428 27 65 C28.36682074 62.26635853 28.16265463 60.04962521 28.20532227 56.98974609 C28.22526749 55.72858978 28.24521271 54.46743347 28.26576233 53.1680603 C28.28274665 51.78652063 28.29962546 50.40497966 28.31640625 49.0234375 C28.3369756 47.61381418 28.35797207 46.20419703 28.37937927 44.79458618 C28.43460195 41.08252965 28.48401031 37.37041743 28.53222656 33.65826416 C28.58244018 29.87108397 28.63812697 26.08398474 28.69335938 22.296875 C28.80094336 14.86464995 28.90188203 7.43235715 29 0 C34.61 0 40.22 0 46 0 C46.06792394 8.22367354 46.12290106 16.44712697 46.15543652 24.6710062 C46.17105618 28.49016857 46.19222614 32.30912815 46.22631836 36.12817383 C46.2590448 39.81753963 46.27688081 43.50671104 46.28463173 47.19621086 C46.29015153 48.59995519 46.30093021 50.00368953 46.31719017 51.40735054 C46.487622 66.73735089 46.487622 66.73735089 40.75 73.75 C35.06153908 78.4041953 29.7184437 79.56164086 22.5625 79.5 C21.81331299 79.49572998 21.06412598 79.49145996 20.29223633 79.48706055 C12.77003671 79.2547875 8.86316791 76.86316791 3.625 71.625 C-0.96971059 64.2027752 -0.26272439 56.20287124 -0.1953125 47.75390625 C-0.19157695 46.37385769 -0.18873254 44.99380645 -0.18673706 43.61375427 C-0.17914324 40.00192798 -0.15953194 36.39026551 -0.1373291 32.77850342 C-0.11677846 29.08478002 -0.10771573 25.39102986 -0.09765625 21.69726562 C-0.07628145 14.46476083 -0.04113467 7.23242435 0 0 Z " fill="#FCFBFE" transform="translate(435,103)"/>
<path d="M0 0 C4.35619905 2.96441705 7.14086148 7.44003635 8.8125 12.39453125 C9.54201121 16.70675305 9.2159359 21.11529074 9.1640625 25.47265625 C3.2240625 25.47265625 -2.7159375 25.47265625 -8.8359375 25.47265625 C-9.1659375 20.85265625 -9.4959375 16.23265625 -9.8359375 11.47265625 C-15.33521876 9.87572478 -15.33521876 9.87572478 -17.68865967 11.62991333 C-19.11148028 13.91522953 -19.20468928 15.27138639 -19.19238281 17.95654297 C-19.19538391 18.86113251 -19.19838501 19.76572205 -19.20147705 20.69772339 C-19.18913025 21.67274811 -19.17678345 22.64777283 -19.1640625 23.65234375 C-19.16218933 24.65725861 -19.16031616 25.66217346 -19.15838623 26.69754028 C-19.15166122 28.8242728 -19.13773789 30.95099286 -19.1171875 33.07763672 C-19.08612614 36.3279169 -19.07622503 39.57771131 -19.0703125 42.828125 C-19.06113833 44.89453714 -19.05076125 46.96094436 -19.0390625 49.02734375 C-19.03481262 49.99832001 -19.03056274 50.96929626 -19.02618408 51.96969604 C-19.01657654 52.8805899 -19.00696899 53.79148376 -18.99707031 54.72998047 C-18.98682831 55.92553055 -18.98682831 55.92553055 -18.97637939 57.14523315 C-18.82464176 59.65985093 -18.38213368 62.01599825 -17.8359375 64.47265625 C-14.46193172 64.88991303 -14.46193172 64.88991303 -10.8359375 64.47265625 C-7.80197989 60.70830144 -7.38791651 57.40184073 -7.1484375 52.66015625 C-7.08269531 51.49871094 -7.01695312 50.33726562 -6.94921875 49.140625 C-6.91183594 48.26019531 -6.87445313 47.37976563 -6.8359375 46.47265625 C-9.1459375 46.47265625 -11.4559375 46.47265625 -13.8359375 46.47265625 C-13.8359375 42.84265625 -13.8359375 39.21265625 -13.8359375 35.47265625 C-6.2459375 35.47265625 1.3440625 35.47265625 9.1640625 35.47265625 C9.1640625 49.00265625 9.1640625 62.53265625 9.1640625 76.47265625 C5.2040625 76.47265625 1.2440625 76.47265625 -2.8359375 76.47265625 C-3.1659375 74.82265625 -3.4959375 73.17265625 -3.8359375 71.47265625 C-4.5990625 72.27703125 -5.3621875 73.08140625 -6.1484375 73.91015625 C-10.57980272 78.13541146 -14.88520247 77.88589154 -20.7578125 77.80078125 C-25.46871896 77.2986034 -28.55055447 75.89493024 -31.8359375 72.47265625 C-36.8987214 64.7519108 -37.99241839 57.64210613 -38.07421875 48.62109375 C-38.0822905 47.7664151 -38.09036224 46.91173645 -38.09867859 46.03115845 C-38.11247787 44.22408042 -38.12321851 42.41697679 -38.13110352 40.60986328 C-38.14259259 38.7790553 -38.16299546 36.94828001 -38.19262695 35.11767578 C-38.38125647 23.44793704 -38.1075178 13.9083701 -32.1484375 3.53515625 C-23.29851972 -4.35801367 -10.57638873 -4.80588348 0 0 Z " fill="#F9F7FE" transform="translate(366.8359375,234.52734375)"/>
<path d="M0 0 C3.31248187 -0.02888146 6.62493167 -0.04675799 9.9375 -0.0625 C10.88302734 -0.07087891 11.82855469 -0.07925781 12.80273438 -0.08789062 C14.15141602 -0.09272461 14.15141602 -0.09272461 15.52734375 -0.09765625 C16.77632446 -0.10551147 16.77632446 -0.10551147 18.05053711 -0.11352539 C20 0 20 0 21 1 C21.60266872 3.84831803 22.15294299 6.69078692 22.671875 9.5546875 C22.83471985 10.43550995 22.9975647 11.3163324 23.16534424 12.22384644 C23.69742827 15.10686801 24.22390641 17.99087976 24.75 20.875 C25.11168172 22.84543223 25.47366147 24.81580977 25.8359375 26.78613281 C26.37907641 29.74066221 26.9218639 32.69525188 27.4630127 35.65014648 C28.50044659 41.31013404 29.55707211 46.96585799 30.640625 52.6171875 C30.87426758 53.84453613 31.10791016 55.07188477 31.34863281 56.33642578 C31.77037783 58.54663524 32.19652591 60.75601095 32.62792969 62.96435547 C32.81258789 63.94033691 32.99724609 64.91631836 33.1875 65.921875 C33.34605469 66.74268555 33.50460937 67.56349609 33.66796875 68.40917969 C34.07459815 71.58208498 34 74.80114467 34 78 C28.72 78 23.44 78 18 78 C17.34 72.72 16.68 67.44 16 62 C12.04 62 8.08 62 4 62 C4.04125 63.340625 4.0825 64.68125 4.125 66.0625 C4.26740148 70.69054811 3.39067637 73.13263271 2 78 C-3.28 78 -8.56 78 -14 78 C-12.62652256 65.78737847 -10.54345994 53.85697938 -8.125 41.8125 C-7.76436786 39.9949932 -7.40434545 38.17736532 -7.04492188 36.35961914 C-6.34603168 32.82626811 -5.64500164 29.29335349 -4.94238281 25.76074219 C-3.76438983 19.8254132 -2.62419157 13.88326007 -1.5 7.9375 C-1.34031738 7.09485596 -1.18063477 6.25221191 -1.01611328 5.3840332 C-0.67649046 3.58952904 -0.33805409 1.79480035 0 0 Z " fill="#FAF9FE" transform="translate(465,233)"/>
<path d="M0 0 C6.93 0 13.86 0 21 0 C25.92781735 25.95961296 30.83896113 51.90464066 35 78 C29.72 78 24.44 78 19 78 C17.19019666 71.66568832 16.80670678 68.28202978 17 62 C13.04 62 9.08 62 5 62 C4.86722656 62.98742187 4.73445312 63.97484375 4.59765625 64.9921875 C4.42105469 66.27351563 4.24445312 67.55484375 4.0625 68.875 C3.80146484 70.78925781 3.80146484 70.78925781 3.53515625 72.7421875 C3 76 3 76 2 78 C-3.28 78 -8.56 78 -14 78 C-13.16845062 70.37101787 -11.7626152 62.85667979 -10.375 55.3125 C-10.11306091 53.8796492 -9.85118061 52.44678764 -9.58935547 51.01391602 C-6.47172619 33.99454852 -3.23662293 16.99705828 0 0 Z " fill="#FAF9FE" transform="translate(560,103)"/>
<path d="M0 0 C5.64357771 2.96864775 9.00087982 7.28110182 10.9375 13.375 C11.19507648 18.05774033 11.02524542 22.68061981 10.9375 27.375 C5.3275 27.375 -0.2825 27.375 -6.0625 27.375 C-6.2578125 23.79427083 -6.453125 20.21354167 -6.6484375 16.6328125 C-6.73491106 13.29438301 -6.73491106 13.29438301 -9.0625 11.375 C-11.5625 11.04166667 -11.5625 11.04166667 -14.0625 11.375 C-16.55222763 13.86472763 -16.31491448 14.61923154 -16.32128906 18.05249023 C-16.32759338 19.02367294 -16.33389771 19.99485565 -16.34039307 20.99546814 C-16.3363446 22.04754959 -16.33229614 23.09963104 -16.328125 24.18359375 C-16.33003845 25.26125504 -16.3319519 26.33891632 -16.33392334 27.44923401 C-16.33528619 29.73153924 -16.33158284 32.01385219 -16.32324219 34.29614258 C-16.31255465 37.79461057 -16.32312897 41.2925638 -16.3359375 44.79101562 C-16.33461572 47.00520947 -16.33205294 49.21940299 -16.328125 51.43359375 C-16.33217346 52.48365097 -16.33622192 53.53370819 -16.34039307 54.61558533 C-16.33408875 55.5899202 -16.32778442 56.56425507 -16.32128906 57.56811523 C-16.31969788 58.42590073 -16.31810669 59.28368622 -16.31646729 60.16746521 C-16.199252 62.66383826 -16.199252 62.66383826 -14.0625 65.375 C-11.5625 65.875 -11.5625 65.875 -9.0625 65.375 C-6.63770264 61.73780395 -6.67587423 59.51796518 -6.4375 55.1875 C-6.31375 52.939375 -6.19 50.69125 -6.0625 48.375 C-0.4525 48.375 5.1575 48.375 10.9375 48.375 C11.51841454 66.77062714 11.51841454 66.77062714 5.1875 73.8125 C0.57513371 78.46462807 -6.30791077 78.68556619 -12.5 78.75 C-23.59974792 78.53107006 -23.59974792 78.53107006 -28.0625 74.375 C-34.17538924 66.39054335 -35.21909432 59.60088612 -35.30078125 49.83203125 C-35.31288887 48.44657356 -35.31288887 48.44657356 -35.32524109 47.03312683 C-35.33904415 45.0806158 -35.34978312 43.12808102 -35.35766602 41.17553711 C-35.3691705 39.19239152 -35.38959794 37.20927653 -35.41918945 35.22631836 C-35.46214887 32.34467762 -35.47807458 29.46395365 -35.48828125 26.58203125 C-35.50578934 25.70875687 -35.52329742 24.83548248 -35.54133606 23.93574524 C-35.51694179 16.8982281 -34.14085154 9.80866878 -29.31221008 4.42268372 C-21.36630144 -2.8661261 -9.9655129 -4.01970268 0 0 Z " fill="#FBF9FE" transform="translate(279.0625,103.625)"/>
<path d="M0 0 C2.89055516 1.54162942 5.53040137 3.2127793 8.16796875 5.15625 C10.32897057 4.07825605 12.48677594 2.99458 14.640625 1.90234375 C15.49527344 1.47050781 16.34992188 1.03867187 17.23046875 0.59375 C18.08769531 0.15933594 18.94492187 -0.27507813 19.828125 -0.72265625 C26.40799725 -3.87528286 34.05430872 -4.04310047 41.03515625 -2.0078125 C46.93323293 0.66335293 51.31515939 4.26044399 54.16796875 10.15625 C54.70505592 13.79650745 54.87892714 15.85979646 53.10546875 19.09375 C49.81140072 20.9001744 47.85324388 20.84333519 44.16796875 20.15625 C42.73046875 18.36328125 42.73046875 18.36328125 41.35546875 16.15625 C39.26807479 12.99502822 39.26807479 12.99502822 35.921875 11.484375 C29.0884052 11.27116221 21.55869948 13.05312589 16.41796875 17.7578125 C15.92296875 18.30179688 15.42796875 18.84578125 14.91796875 19.40625 C12.16796875 22.15625 12.16796875 22.15625 9.34375 22.5703125 C5.41986644 22.05871145 3.67800282 20.73752902 0.60546875 18.28125 C-5.11172954 13.75614837 -9.42148529 11.62377021 -16.73828125 11.85546875 C-19.00928337 12.05340212 -19.00928337 12.05340212 -21.39453125 13.59375 C-23.56559213 17.46390201 -23.41632518 20.82212036 -22.83203125 25.15625 C-18.66696198 39.4736756 -3.1479716 51.8467805 7.85546875 61.28125 C14.91794745 67.34359555 14.91794745 67.34359555 15.66796875 72.78125 C15.16796875 76.15625 15.16796875 76.15625 13.48046875 78.09375 C10.73976124 79.35299399 9.16120195 79.46701679 6.16796875 79.15625 C4.19567871 77.81214905 4.19567871 77.81214905 2.28320312 75.90258789 C1.55895142 75.19086929 0.83469971 74.4791507 0.08850098 73.74586487 C-0.67933716 72.96476852 -1.44717529 72.18367218 -2.23828125 71.37890625 C-3.04060181 70.57899765 -3.84292236 69.77908905 -4.66955566 68.9549408 C-6.36666679 67.2568496 -8.05756026 65.55252508 -9.74267578 63.8425293 C-12.3066837 61.24443453 -14.89355338 58.67093443 -17.484375 56.09960938 C-19.13294445 54.44413515 -20.78012505 52.78727648 -22.42578125 51.12890625 C-23.19361938 50.36602798 -23.96145752 49.60314972 -24.75256348 48.81715393 C-32.62928915 40.76819745 -37.65905323 32.2982455 -38.26953125 20.84375 C-38.09243988 13.6715494 -35.80357207 8.01330063 -30.6015625 3.01171875 C-21.32737784 -4.41670648 -10.83360132 -4.9484639 0 0 Z " fill="#FBFAFE" transform="translate(476.83203125,623.84375)"/>
<path d="M0 0 C13.53 0 27.06 0 41 0 C41 4.29 41 8.58 41 13 C37.37 13 33.74 13 30 13 C30 34.45 30 55.9 30 78 C24.06 78 18.12 78 12 78 C12 56.55 12 35.1 12 13 C8.04 13 4.08 13 0 13 C0 8.71 0 4.42 0 0 Z " fill="#F9F7FE" transform="translate(410,233)"/>
<path d="M0 0 C13.53 0 27.06 0 41 0 C41 4.29 41 8.58 41 13 C37.04 13 33.08 13 29 13 C29 34.45 29 55.9 29 78 C23.39 78 17.78 78 12 78 C12 56.55 12 35.1 12 13 C8.04 13 4.08 13 0 13 C0 8.71 0 4.42 0 0 Z " fill="#FDFDFE" transform="translate(388,103)"/>
<path d="M0 0 C5.94 0 11.88 0 18 0 C18 21.78 18 43.56 18 66 C23.94 66 29.88 66 36 66 C36 69.96 36 73.92 36 78 C24.12 78 12.24 78 0 78 C0 52.26 0 26.52 0 0 Z " fill="#F8F5FE" transform="translate(507,233)"/>
<path d="M0 0 C5.61 0 11.22 0 17 0 C17 21.78 17 43.56 17 66 C22.94 66 28.88 66 35 66 C35 69.96 35 73.92 35 78 C23.45 78 11.9 78 0 78 C0 52.26 0 26.52 0 0 Z " fill="#FDFCFE" transform="translate(356,103)"/>
<path d="M0 0 C5.94 0 11.88 0 18 0 C18 25.74 18 51.48 18 78 C12.06 78 6.12 78 0 78 C0 52.26 0 26.52 0 0 Z " fill="#F8F5FE" transform="translate(386,233)"/>
<path d="M0 0 C5.94 0 11.88 0 18 0 C18 25.74 18 51.48 18 78 C12.06 78 6.12 78 0 78 C0 52.26 0 26.52 0 0 Z " fill="#F8F5FE" transform="translate(301,233)"/>
<path d="M0 0 C0.901241 -0.00686325 1.80248199 -0.0137265 2.73103333 -0.02079773 C5.70952109 -0.0390964 8.68748373 -0.03522421 11.66601562 -0.02954102 C13.7358009 -0.034101 15.80558466 -0.03940602 17.87536621 -0.04542542 C22.21303459 -0.0543623 26.5505189 -0.05192637 30.88818359 -0.04199219 C36.45033022 -0.03049573 42.01184265 -0.05072166 47.57390594 -0.07990932 C51.84783979 -0.09824259 56.12162081 -0.0979847 60.39558411 -0.0922718 C62.446527 -0.09211827 64.49748005 -0.098189 66.54838562 -0.11056328 C69.41417417 -0.1254189 72.27878006 -0.11483657 75.14453125 -0.09765625 C75.99348465 -0.10732422 76.84243805 -0.11699219 77.71711731 -0.12695312 C81.53044505 -0.07901252 83.45222405 -0.04841601 86.59899902 2.24790955 C88.61693247 5.20117914 88.65638784 6.89931943 88.07226562 10.40405273 C86.43607976 12.7975287 85.14044871 14.19018597 82.23091125 14.77272034 C79.86028873 14.92675199 77.52013201 14.94428824 75.14453125 14.92163086 C74.24329025 14.92864014 73.34204926 14.93564941 72.41349792 14.94287109 C69.43485693 14.96047418 66.45716626 14.94882005 63.47851562 14.93530273 C61.40873024 14.93799698 59.33894609 14.94187884 57.26916504 14.94689941 C52.93143665 14.9527976 48.59403775 14.94422102 44.25634766 14.92553711 C38.69417343 14.90274757 33.1327712 14.9158689 27.57062531 14.93982697 C23.29667334 14.95427616 19.02290461 14.94968295 14.74894714 14.9393158 C12.69801238 14.93664609 10.64706101 14.93992682 8.59614563 14.94923401 C5.73031501 14.95938498 2.86573722 14.94391873 0 14.92163086 C-1.2734301 14.93377625 -1.2734301 14.93377625 -2.57258606 14.94616699 C-6.36028202 14.89155095 -8.31195138 14.8450877 -11.45446777 12.59436035 C-13.61110065 9.3880911 -13.47557072 7.17042764 -12.92773438 3.40405273 C-9.41669681 -0.62252029 -4.93998704 -0.0261947 0 0 Z " fill="#F8F6FE" transform="translate(532.927734375,535.595947265625)"/>
<path d="M0 0 C1.75201721 -0.01902626 1.75201721 -0.01902626 3.53942871 -0.03843689 C4.79678833 -0.03550125 6.05414795 -0.03256561 7.34960938 -0.02954102 C9.29123962 -0.03740379 9.29123962 -0.03740379 11.27209473 -0.04542542 C14.00913248 -0.05435 16.74587834 -0.05194069 19.48291016 -0.04199219 C22.98703582 -0.03049524 26.49015483 -0.05072643 29.99414825 -0.07990932 C33.34185542 -0.10268464 36.68932656 -0.09580471 40.03710938 -0.09204102 C41.29446899 -0.10327499 42.55182861 -0.11450897 43.84729004 -0.12608337 C45.01530151 -0.11670242 46.18331299 -0.10732147 47.38671875 -0.09765625 C48.41390015 -0.09749008 49.44108154 -0.09732391 50.49938965 -0.09715271 C53.90984714 0.53735325 55.0937383 1.69051871 57.19335938 4.40405273 C57.69335938 7.40405273 57.69335938 7.40405273 57.19335938 10.40405273 C55.0941822 13.11576511 53.90621123 14.26964807 50.49938965 14.9119873 C49.47220825 14.91516968 48.44502686 14.91835205 47.38671875 14.92163086 C45.63470154 14.94054382 45.63470154 14.94054382 43.84729004 14.95983887 C42.58993042 14.95174194 41.3325708 14.94364502 40.03710938 14.93530273 C38.74268921 14.93912964 37.44826904 14.94295654 36.11462402 14.94689941 C33.37749092 14.95278961 30.64088079 14.94424812 27.90380859 14.92553711 C24.39963911 14.90274642 20.89669504 14.91587228 17.3925705 14.93982697 C14.04481917 14.95777728 10.6973955 14.94520034 7.34960938 14.93530273 C5.46356995 14.94744812 5.46356995 14.94744812 3.53942871 14.95983887 C2.37141724 14.94723022 1.20340576 14.93462158 0 14.92163086 C-1.0271814 14.91844849 -2.05436279 14.91526611 -3.1126709 14.9119873 C-6.53236881 14.2672203 -7.71839498 13.14564867 -9.80664062 10.40405273 C-10.30664062 6.84155273 -10.30664062 6.84155273 -9.80664062 3.40405273 C-6.72945439 0.28766148 -4.27932677 0.0225093 0 0 Z " fill="#F8F6FE" transform="translate(529.806640625,562.595947265625)"/>
<path d="M0 0 C3.0625 0.4375 3.0625 0.4375 5.3125 2 C7.47221986 5.00818123 8.18584661 7.86345154 9.0625 11.4375 C10.07086062 12.67017348 10.07086062 12.67017348 12.12890625 12.53515625 C12.95261719 12.52355469 13.77632812 12.51195312 14.625 12.5 C15.45128906 12.49097656 16.27757812 12.48195313 17.12890625 12.47265625 C17.76699219 12.46105469 18.40507813 12.44945312 19.0625 12.4375 C19.22685547 11.51517578 19.22685547 11.51517578 19.39453125 10.57421875 C19.63236328 9.36185547 19.63236328 9.36185547 19.875 8.125 C20.02582031 7.32449219 20.17664063 6.52398438 20.33203125 5.69921875 C21.15471287 3.15198528 21.95052923 2.05736108 24.0625 0.4375 C27.6197204 -0.09229878 29.37843299 0.00545768 32.4375 1.9375 C34.71414994 5.44003838 34.77878703 8.44365717 34.0625 12.4375 C31.74797389 19.26968402 27.97647694 22.49484871 22.0625 26.4375 C16.18159813 28.11775768 10.46275181 28.35334563 4.875 25.8125 C0.13946582 23.17958021 -2.57253683 19.84243512 -5.25 15.125 C-6.23356471 11.28015614 -6.62184273 7.36695179 -5.9375 3.4375 C-3.9734175 0.87040972 -3.28182568 0.48878255 0 0 Z " fill="#FBF9FE" transform="translate(579.9375,714.5625)"/>
<path d="M0 0 C9 1 9 1 11 3 C11.26069641 5.04258728 11.26069641 5.04258728 11.2746582 7.58569336 C11.28419022 8.53685532 11.29372223 9.48801727 11.30354309 10.46800232 C11.30263168 11.49820999 11.30172028 12.52841766 11.30078125 13.58984375 C11.30506638 14.64530899 11.3093515 15.70077423 11.31376648 16.78822327 C11.31951705 19.02344037 11.32000472 21.25867618 11.31567383 23.49389648 C11.31251605 26.92008305 11.33595706 30.3454048 11.36132812 33.77148438 C11.36360119 35.94010307 11.36430458 38.1087241 11.36328125 40.27734375 C11.372491 41.30552719 11.38170074 42.33371063 11.39118958 43.39305115 C11.38496078 44.34736526 11.37873199 45.30167938 11.37231445 46.28491211 C11.37294388 47.12493271 11.3735733 47.96495331 11.3742218 48.83042908 C11 51 11 51 9.97673035 52.79469299 C8 54 8 54 0 54 C0 36.18 0 18.36 0 0 Z " fill="#6623EC" transform="translate(262,245)"/>
<path d="M0 0 C10 0 10 0 12.625 1.3125 C14.88129213 5.72252553 14.61002881 10.1556536 14 15 C12.62747293 18.11937969 12.020457 19.4897715 9 21 C6.03 21 3.06 21 0 21 C0 14.07 0 7.14 0 0 Z " fill="#621DEB" transform="translate(509,115)"/>
<path d="M0 0 C0.33 0 0.66 0 1 0 C1.50508972 3.89519106 2.00317733 7.79124657 2.5 11.6875 C2.64308594 12.79029297 2.78617187 13.89308594 2.93359375 15.02929688 C3.06894531 16.09599609 3.20429688 17.16269531 3.34375 18.26171875 C3.46943359 19.24100342 3.59511719 20.22028809 3.72460938 21.22924805 C3.98432795 23.84232089 4.05025329 26.37635968 4 29 C1.69 29 -0.62 29 -3 29 C-3.26942834 22.77321163 -2.83735382 16.73340794 -2.0625 10.5625 C-1.97564941 9.86447266 -1.88879883 9.16644531 -1.79931641 8.44726562 C-1.41107732 5.49923205 -0.94290398 2.82871193 0 0 Z " fill="#6B2AEC" transform="translate(475,255)"/>
<path d="M0 0 C0.33 0 0.66 0 1 0 C1.50790159 3.51973999 2.00488523 7.04094042 2.5 10.5625 C2.64308594 11.55314453 2.78617188 12.54378906 2.93359375 13.56445312 C3.65920623 18.76467588 4.17673411 23.74952418 4 29 C1.69 29 -0.62 29 -3 29 C-3.18343092 22.51877412 -2.4800332 16.40111777 -1.5 10 C-1.35691406 9.03449219 -1.21382812 8.06898438 -1.06640625 7.07421875 C-0.71607574 4.71532665 -0.3605065 2.35735455 0 0 Z " fill="#6420EB" transform="translate(570,125)"/>
<path d="M0 0 C0.33 0 0.66 0 1 0 C1.33 2.97 1.66 5.94 2 9 C1.01 9.33 0.02 9.66 -1 10 C-0.67 6.7 -0.34 3.4 0 0 Z " fill="#8752F0" transform="translate(570,125)"/>
</svg>
