<?xml version="1.0" encoding="UTF-8"?>
<svg version="1.1" xmlns="http://www.w3.org/2000/svg" width="1080" height="1080">
<path d="M0 0 C356.4 0 712.8 0 1080 0 C1080 356.4 1080 712.8 1080 1080 C723.6 1080 367.2 1080 0 1080 C0 723.6 0 367.2 0 0 Z " fill="#0097B2" transform="translate(0,0)"/>
<path d="M0 0 C0.88368256 -0.00100708 1.76736511 -0.00201416 2.67782593 -0.00305176 C15.48632392 0.00680751 27.75884938 0.53925965 40.3125 3.25 C41.90178223 3.55760301 43.49164858 3.86220063 45.08203125 4.1640625 C49.85046127 5.09080443 54.58339294 6.141155 59.3125 7.25 C60.01455566 7.41161621 60.71661133 7.57323242 61.43994141 7.73974609 C96.51570527 16.01660514 131.27665017 33.31438252 158.3125 57.25 C159.47458984 58.24966797 159.47458984 58.24966797 160.66015625 59.26953125 C163.26014015 61.54821633 165.79301663 63.88246303 168.3125 66.25 C168.86953613 66.77303711 169.42657227 67.29607422 170.00048828 67.83496094 C184.53963421 81.60395044 196.25748112 96.95624761 206.3125 114.25 C206.66650879 114.85489258 207.02051758 115.45978516 207.38525391 116.08300781 C231.37045784 157.57031973 237.86620246 208.15151118 225.76953125 254.49609375 C224.16665166 260.15913294 222.306672 265.71391007 220.3125 271.25 C220.00296387 272.11947266 219.69342773 272.98894531 219.37451172 273.88476562 C209.79042611 300.36409712 194.27146465 325.78546902 173.37890625 344.91015625 C172.73163574 345.5131958 172.08436523 346.11623535 171.41748047 346.73754883 C170.17944434 347.87548909 168.91772424 348.9884216 167.62939453 350.0690918 C165.17407797 352.32370987 163.55989668 354.0951769 162.85083008 357.4050293 C162.76722498 360.4057191 163.00219747 363.26210388 163.3125 366.25 C163.38207916 366.94937683 163.45165833 367.64875366 163.52334595 368.36932373 C164.04282188 373.50304006 164.64762737 378.62441717 165.27844238 383.74551392 C165.86790713 388.53696531 166.43499849 393.33107168 167.00390625 398.125 C167.11737396 399.07736038 167.23084167 400.02972076 167.3477478 401.01094055 C168.33688145 409.35350784 169.23189197 417.70277961 170.0625 426.0625 C170.17762939 427.20823486 170.29275879 428.35396973 170.41137695 429.53442383 C171.18480255 437.43061394 171.78006487 445.33411733 172.3125 453.25 C159.61169696 448.06400184 147.00043185 442.71564421 134.5 437.0625 C121.96377646 431.39442713 109.34728068 425.93071592 96.69018555 420.53833008 C95.64964775 420.09433617 95.64964775 420.09433617 94.58808899 419.64137268 C93.2114909 419.05558734 91.83363998 418.47273686 90.45451355 417.89292908 C86.94862615 416.41197203 83.4909664 414.87201102 80.06494141 413.21386719 C72.54623892 409.62108934 66.68811224 407.01451005 58.3125 409.25 C57.46526367 409.43030762 56.61802734 409.61061523 55.74511719 409.79638672 C52.16111074 410.57096909 48.60811459 411.45768732 45.05078125 412.34570312 C29.66984827 416.03048779 14.55057064 416.62530049 -1.1875 416.5625 C-2.15927185 416.56034485 -3.1310437 416.5581897 -4.13226318 416.55596924 C-18.8278379 416.50370192 -33.2248588 416.08496295 -47.6875 413.25 C-49.22615723 412.95198486 -49.22615723 412.95198486 -50.79589844 412.64794922 C-73.27462835 408.15152961 -95.07881748 401.33714303 -115.6875 391.25 C-116.45368652 390.87649414 -117.21987305 390.50298828 -118.00927734 390.11816406 C-150.23592014 374.2199517 -179.89101373 350.77962292 -200.6875 321.25 C-201.09967773 320.67685059 -201.51185547 320.10370117 -201.93652344 319.51318359 C-230.73055832 279.23463135 -243.95704093 227.80090001 -236.16625977 178.68969727 C-228.0170203 133.29704309 -203.90696706 88.46328345 -167.6875 59.25 C-166.58967952 58.34004185 -165.49204106 57.42986407 -164.39453125 56.51953125 C-117.48844895 17.96003635 -60.31943505 0.04809091 0 0 Z " fill="#FEFEFE" transform="translate(636.6875,565.75)"/>
<path d="M0 0 C0.98726074 0.1556543 1.97452148 0.31130859 2.99169922 0.47167969 C59.50025371 9.57921895 114.81451214 39.23468332 150 85 C150.42635742 85.54994629 150.85271484 86.09989258 151.29199219 86.66650391 C166.7864778 106.76248363 179.29450844 129.43568416 186 154 C186.27505371 154.9909668 186.55010742 155.98193359 186.83349609 157.00292969 C192.55516193 178.4115767 192.69161249 199.00494956 192 221 C191.36835937 220.93941406 190.73671875 220.87882813 190.0859375 220.81640625 C118.50390252 214.11203698 49.1278649 226.75020269 -8 273 C-10.57638475 275.22115028 -13.10116795 277.48287336 -15.6015625 279.7890625 C-17.22317923 281.28390789 -18.86458894 282.75751911 -20.5234375 284.2109375 C-57.38793161 316.5382631 -76.49678697 362.35903785 -83 410 C-90.20423822 409.4486314 -96.87708054 408.1992905 -103.83007812 406.28515625 C-104.52939453 406.10597656 -105.22871094 405.92679688 -105.94921875 405.7421875 C-106.86707153 405.49251221 -106.86707153 405.49251221 -107.8034668 405.23779297 C-115.08278166 404.44974666 -121.47444619 407.55092184 -128.0625 410.2421875 C-129.14727127 410.67813232 -130.23204254 411.11407715 -131.34968567 411.56323242 C-134.90277126 412.99321665 -138.45132562 414.43410797 -142 415.875 C-144.45633342 416.86546791 -146.91296094 417.85520672 -149.36987305 418.84423828 C-156.91788375 421.88473976 -164.45954391 424.94081999 -172 428 C-173.19369202 428.4842041 -174.38738403 428.9684082 -175.61724854 429.46728516 C-177.95329356 430.41493937 -180.28930297 431.36268138 -182.62527466 432.31051636 C-185.93806582 433.65445106 -189.25124223 434.99743249 -192.56445312 436.34033203 C-196.67857265 438.00797937 -200.79025656 439.68144306 -204.90039062 441.35888672 C-206.75256371 442.11175318 -208.60477499 442.8645257 -210.45703125 443.6171875 C-211.30022415 443.96297852 -212.14341705 444.30876953 -213.01216125 444.66503906 C-218.77326041 447 -218.77326041 447 -221 447 C-221.21459536 440.32370006 -220.37133021 434.08357317 -219.3125 427.5 C-217.17937748 413.72821036 -215.4416441 399.9181022 -213.7512207 386.0859375 C-213.55035252 384.44660729 -213.34942594 382.80728423 -213.1484375 381.16796875 C-213.05219589 380.37852875 -212.95595428 379.58908875 -212.85679626 378.77572632 C-212.12742803 372.85661211 -211.27974304 366.96346758 -210.35400391 361.0715332 C-209.40085466 354.80438449 -209.40085466 354.80438449 -211.23413086 349.00292969 C-211.80526611 348.48118164 -212.37640137 347.95943359 -212.96484375 347.421875 C-213.59551758 346.82439453 -214.22619141 346.22691406 -214.87597656 345.61132812 C-215.5562793 344.99708984 -216.23658203 344.38285156 -216.9375 343.75 C-218.33032417 342.42554728 -219.71965551 341.09741171 -221.10546875 339.765625 C-221.78013184 339.12173828 -222.45479492 338.47785156 -223.14990234 337.81445312 C-227.1748347 333.86706631 -230.59034702 329.47632561 -234 325 C-234.41137207 324.47567383 -234.82274414 323.95134766 -235.24658203 323.41113281 C-254.5599341 298.76035048 -266.23836648 270.94599621 -273.3125 240.625 C-273.55178223 239.62907837 -273.55178223 239.62907837 -273.79589844 238.61303711 C-278.63661739 216.60272616 -278.18207169 189.00401689 -273 167 C-272.80132324 166.13793945 -272.60264648 165.27587891 -272.39794922 164.38769531 C-262.3868567 122.07864365 -238.27361635 83.05516429 -205 55 C-204.49227051 54.56397461 -203.98454102 54.12794922 -203.46142578 53.67871094 C-174.80798053 29.2012353 -139.7773713 12.03794094 -103 4 C-101.61129653 3.66426949 -100.22329548 3.32562289 -98.8359375 2.984375 C-66.58739987 -4.81488343 -32.69742019 -5.47609084 0 0 Z " fill="#FEFEFE" transform="translate(465,327)"/>
<path d="M0 0 C7.43903161 5.74382371 13.99415924 12.83673272 20.6237793 19.4934082 C22.1927236 21.06774155 23.76698558 22.63661589 25.34179688 24.20507812 C30.24371342 29.1041033 35.06362 34.03209836 39.54223633 39.32788086 C41.11977485 41.13738703 42.78631147 42.81957969 44.5 44.5 C50.06409839 49.97676949 55.03568291 55.98264596 60 62 C62.84731326 60.70722863 64.88961912 59.35425174 67.08105469 57.13012695 C67.65555359 56.5522493 68.23005249 55.97437164 68.82196045 55.37898254 C69.43243225 54.75505112 70.04290405 54.13111969 70.671875 53.48828125 C71.31312317 52.84183151 71.95437134 52.19538177 72.61505127 51.52934265 C74.66484762 49.46175974 76.70785445 47.38763776 78.75 45.3125 C80.77866262 43.25603754 82.8088256 41.20111681 84.84210205 39.1492157 C86.10502666 37.87423441 87.3652734 36.59659246 88.62225342 35.31575012 C92.90107618 30.98933025 97.37937137 26.95737174 102 23 C103.06789269 22.07573379 104.13563626 21.15129522 105.203125 20.2265625 C107.88807106 17.92375657 110.59625975 15.65004725 113.31982422 13.39306641 C114.42672028 12.47531736 115.53001848 11.55320888 116.62939453 10.62646484 C126.37718742 2.46795354 126.37718742 2.46795354 131.4375 2.25 C136.5821905 3.33309274 139.07569804 4.61354706 142 9 C142.66800451 15.31984658 141.60774666 18.68672873 137.625 23.6875 C137.17527832 24.28272461 136.72555664 24.87794922 136.26220703 25.49121094 C134.85837723 27.34115859 133.42998307 29.17023142 132 31 C131.12819606 32.14560687 130.25834396 33.29270219 129.390625 34.44140625 C125.05808096 40.15564436 120.61093652 45.77743871 116.109375 51.359375 C114.56192101 53.29655814 113.03216139 55.24204665 111.515625 57.203125 C106.05378848 64.25194793 100.42804431 71.09552254 94.50317383 77.76245117 C91.04935953 81.6752585 87.97129183 85.7075249 85 90 C85.56847656 90.6290625 86.13695312 91.258125 86.72265625 91.90625 C90.91727327 96.55604249 95.0857397 101.22415694 99.1953125 105.94921875 C101.22958141 108.26088797 103.3022231 110.5353143 105.375 112.8125 C108.55759788 116.33010818 111.59117962 119.92747051 114.5625 123.625 C117.87047242 127.71537981 121.34469485 131.44933225 125.10546875 135.12109375 C136.40673765 146.32915631 150.80091994 162.10492517 151.26171875 178.7421875 C151 181 151 181 149.5 183.6875 C145.21115162 185.9391454 141.2215642 185.36603863 136.67578125 184.00390625 C123.93720858 178.54451796 114.13472405 170.37137144 104 161 C102.29295964 159.47771553 100.58462703 157.9568789 98.875 156.4375 C92.45220015 150.64793394 86.48093454 144.62359351 80.84765625 138.06640625 C78.10019628 134.99366561 75.1506843 132.13738241 72.20703125 129.25390625 C69.47634452 126.46522263 67.02279313 123.49553796 64.60546875 120.43359375 C62.86145897 118.55596544 62.86145897 118.55596544 59 119 C56.96755716 120.91828803 56.96755716 120.91828803 55.0625 123.5625 C54.27617188 124.56796875 53.48984375 125.5734375 52.6796875 126.609375 C52.25139648 127.15787109 51.82310547 127.70636719 51.38183594 128.27148438 C48.90932837 131.36430303 46.29345567 134.33211433 43.6875 137.3125 C42.5661256 138.60001603 41.44503332 139.88777784 40.32421875 141.17578125 C39.76911621 141.81338379 39.21401367 142.45098633 38.64208984 143.10791016 C36.57571385 145.48888161 34.52297634 147.8812555 32.47387695 150.27709961 C31.49078779 151.42628964 30.50624698 152.5742394 29.52026367 153.72094727 C26.91762913 156.74860624 24.33632797 159.79143883 21.78125 162.859375 C-0.87863635 189.87277174 -0.87863635 189.87277174 -16.234375 191.30078125 C-19 191 -19 191 -21.375 189.0625 C-24.29024969 183.56837559 -23.71746832 179.35004717 -21.96484375 173.609375 C-16.51419561 159.09455712 -8.27132352 146.87377356 1.45947266 134.91455078 C4.31909316 131.36064524 7.08758049 127.73559134 9.875 124.125 C15.01748647 117.48980717 20.25612701 110.94154772 25.56860352 104.44189453 C29.45469675 99.68541832 33.27123676 94.88129006 37 90 C34.62159982 85.74601578 31.70952574 82.06331528 28.625 78.3125 C15.95575822 62.64575471 4.7778495 46.00989572 -6 29 C-6.47469727 28.26104492 -6.94939453 27.52208984 -7.43847656 26.76074219 C-15.38792713 14.30318774 -15.38792713 14.30318774 -14.71875 7.91015625 C-12.35318416 1.6234079 -6.40562542 -1.62854884 0 0 Z " fill="#0197B2" transform="translate(570,683)"/>
<path d="M0 0 C32.01 0 64.02 0 97 0 C97 22.67846653 96.23115396 39.16704844 90 60 C85.33505305 76.04006388 81.4431986 92.2713417 77.5 108.5 C76.20138276 113.84459905 74.90076531 119.18869768 73.59375 124.53125 C73.43565542 125.17753483 73.27756084 125.82381966 73.11467552 126.48968887 C71.15158072 134.49881658 69.09832005 142.46747935 66.83821106 150.39755249 C63.86091685 160.90412298 61.31593578 171.52710882 58.6875 182.125 C58.1323841 184.35552417 57.57704691 186.58599328 57.02148438 188.81640625 C55.6780384 194.2102117 54.33911175 199.60510959 53 205 C39.14 205 25.28 205 11 205 C12.32 199.72 13.64 194.44 15 189 C16.46043628 182.92125426 17.91662367 176.84169628 19.35546875 170.7578125 C21.08328877 163.5338048 23.00462483 156.39633965 25.07617188 149.26367188 C26.36020553 144.72747688 27.44833583 140.15718451 28.5 135.5625 C30.0219765 128.9445263 31.6778728 122.37559902 33.44158936 115.8175354 C35.26437966 109.03783131 37.00664026 102.23802178 38.75 95.4375 C40.85077349 87.25496963 42.96739651 79.07743675 45.15625 70.91796875 C45.33263 70.26007858 45.50901001 69.60218842 45.69073486 68.92436218 C46.52632918 65.81098518 47.36569307 62.6986834 48.20996094 59.58764648 C50.67863374 50.42337868 52.82250252 41.25436431 55 32 C36.85 32 18.7 32 0 32 C0 21.44 0 10.88 0 0 Z " fill="#FDFEFE" transform="translate(65,104)"/>
<path d="M0 0 C3.62760073 1.64890942 6.08652985 3.47518657 8 7 C8.97331231 17.81125363 -1.29817382 27.23159142 -7.66748047 35.30859375 C-8.99418766 36.99262222 -10.31247337 38.68293192 -11.62890625 40.375 C-21.94430366 53.60795989 -32.5388225 66.59301408 -43.51611328 79.28222656 C-46.01972397 82.18045045 -48.50903652 85.09090762 -51 88 C-52.00124845 89.16801473 -53.0025505 90.33598351 -54.00390625 91.50390625 C-55.99201276 93.82325601 -57.97889438 96.14364674 -59.96484375 98.46484375 C-65.1434624 104.51550737 -70.33956413 110.55003264 -75.5625 116.5625 C-79.59306681 121.20379489 -83.59808062 125.86456624 -87.5625 130.5625 C-103.95537906 149.97786266 -103.95537906 149.97786266 -112.19824219 158.86987305 C-114.77926049 161.65497845 -117.29029646 164.48252011 -119.75 167.375 C-124.71996428 173.09762714 -128.98282124 177.67072305 -136.8125 178.3125 C-141.25394397 178.22302036 -143.62941458 176.99607593 -147 174 C-150.89833624 168.63103863 -153.71346812 162.68120404 -156.5 156.6875 C-162.24249134 144.50763289 -168.14713247 132.4091013 -174.0625 120.3125 C-175.01303888 118.36744046 -175.96356004 116.42237226 -176.9140625 114.47729492 C-177.80851447 112.64758494 -178.70304247 110.81791212 -179.59765625 108.98828125 C-180.21889122 107.71774399 -180.21889122 107.71774399 -180.85267639 106.42153931 C-181.23781906 105.63443573 -181.62296173 104.84733215 -182.01977539 104.03637695 C-182.35521866 103.35074173 -182.69066193 102.66510651 -183.03627014 101.95869446 C-183.69815376 100.61347541 -184.3879095 99.28172378 -185.10032654 97.96257019 C-186.52711303 94.85014246 -186.35474334 92.37006174 -186 89 C-184.20437595 86.24670979 -182.94745078 84.47372539 -180 83 C-175.82203736 82.51792739 -173.70096256 82.52817968 -170.16796875 84.90625 C-166.03674437 88.56084419 -163.40744487 93.20388868 -160.5625 97.875 C-159.34257719 99.83682828 -158.12116984 101.79773406 -156.8984375 103.7578125 C-156.26647461 104.77520508 -155.63451172 105.79259766 -154.98339844 106.84082031 C-151.62425045 112.19130959 -148.15394154 117.46863917 -144.6875 122.75 C-143.41968751 124.68171085 -142.15268782 126.61395554 -140.88671875 128.546875 C-140.35264404 129.35995117 -139.81856934 130.17302734 -139.26831055 131.01074219 C-138 133 -138 133 -137 135 C-132.75677967 133.58559322 -131.13774931 130.44067605 -128.625 126.9375 C-122.81168629 119.00585882 -116.7053053 111.36257333 -110.45605469 103.77197266 C-109.16496651 102.20075905 -107.88261416 100.62237609 -106.6015625 99.04296875 C-97.68834522 88.05429113 -88.46488777 77.38291826 -78.81640625 67.03515625 C-76.25536657 64.28665992 -73.74776222 61.49373371 -71.25 58.6875 C-67.9000979 54.9438481 -64.4150404 51.38659294 -60.83203125 47.8671875 C-59.11918875 46.12147595 -57.55494919 44.32355697 -56 42.4375 C-53.39173687 39.3367191 -50.54200312 36.75960686 -47.45703125 34.140625 C-44.91497554 31.92592464 -42.45780878 29.63875177 -40.00170898 27.32983398 C-33.54601833 21.2633439 -26.94930531 15.5011284 -20 10 C-18.89087362 9.07678497 -17.7828502 8.15224368 -16.67578125 7.2265625 C-15.53450421 6.29607712 -14.39258759 5.36637562 -13.25 4.4375 C-12.47160767 3.77391479 -12.47160767 3.77391479 -11.67749023 3.09692383 C-7.73308131 -0.0492044 -4.96598714 -0.53798194 0 0 Z " fill="#0297B2" transform="translate(488,444)"/>
<path d="M0 0 C6.27 0 12.54 0 19 0 C20.00031474 5.1955123 20.99837903 10.39135285 21.99072266 15.58837891 C22.3289191 17.35588494 22.66842714 19.12314053 23.00927734 20.89013672 C23.49922949 23.43131708 23.98444391 25.97336335 24.46875 28.515625 C24.62186646 29.30430969 24.77498291 30.09299438 24.93273926 30.90557861 C25.58573088 34.35569804 26 37.47443443 26 41 C26.66 41 27.32 41 28 41 C28.103125 39.81019531 28.20625 38.62039062 28.3125 37.39453125 C29.05374339 30.72986581 30.56050252 24.22974442 32 17.6875 C32.27328125 16.42615234 32.5465625 15.16480469 32.828125 13.86523438 C33.83599086 9.22855736 34.84911929 4.60352283 36 0 C41.94 0 47.88 0 54 0 C55.17334723 8.31899123 55.12783235 16.59099343 55.09765625 24.97265625 C55.09578782 26.50678969 55.09436593 28.04092373 55.09336853 29.57505798 C55.08957676 33.58464243 55.07977555 37.59418982 55.06866455 41.60375977 C55.05837807 45.70653787 55.0538555 49.80932205 55.04882812 53.91210938 C55.03814982 61.94142313 55.02111422 69.97070694 55 78 C51.04 78 47.08 78 43 78 C42.22867749 67.52042442 41.7430061 57.06562829 41.4375 46.5625 C41.2209375 39.3540625 41.2209375 39.3540625 41 32 C38.36 47.18 35.72 62.36 33 78 C29.37 78 25.74 78 22 78 C20.39340136 72.70930448 19.25035024 67.44334452 18.2734375 62.00390625 C18.12089508 61.17036118 17.96835266 60.3368161 17.81118774 59.47801208 C17.32920198 56.8400894 16.85202644 54.20132352 16.375 51.5625 C16.0471936 49.76361379 15.71907175 47.96478503 15.390625 46.16601562 C14.59010073 41.77799969 13.79388652 37.38922149 13 33 C12.97494385 33.90129639 12.9498877 34.80259277 12.92407227 35.73120117 C12.82778454 39.14013609 12.72863973 42.54896492 12.62768555 45.95776367 C12.58490988 47.42094782 12.54320729 48.88416381 12.50268555 50.34741211 C12.24572152 59.59494478 11.78667431 68.77806169 11 78 C7.04 78 3.08 78 -1 78 C-1.15036838 51.98164373 -0.74194085 26.00767668 0 0 Z " fill="#F9FCFD" transform="translate(447,103)"/>
<path d="M0 0 C6.01358578 3.19088225 9.02861337 7.76710359 11.31768799 14.09991455 C12.41129262 18.11410586 12.36488451 22.07381878 12.3359375 26.2109375 C12.33880768 27.13033112 12.34167786 28.04972473 12.34463501 28.99697876 C12.34666589 30.9315859 12.34120476 32.86621402 12.32861328 34.80078125 C12.31258277 37.73485102 12.32847639 40.66753572 12.34765625 43.6015625 C12.34567293 45.4921905 12.34182741 47.38281764 12.3359375 49.2734375 C12.34504654 50.56923233 12.34504654 50.56923233 12.3543396 51.89120483 C12.27172921 59.17965806 10.9906849 66.04742447 7.125 72.3125 C0.38398813 78.66831119 -7.546508 78.82206718 -16.34765625 78.65625 C-22.46458321 78.19313881 -26.04265943 76.34025028 -30.375 72.125 C-34.5771862 65.27699286 -35.50893739 59.36873135 -35.42578125 51.50390625 C-35.42627975 50.58214096 -35.42677826 49.66037567 -35.42729187 48.7106781 C-35.42496372 46.77185905 -35.4153101 44.83303625 -35.39868164 42.89428711 C-35.37509553 39.9494278 -35.37813013 37.00547674 -35.38476562 34.06054688 C-35.37918727 32.16666134 -35.37207641 30.27277958 -35.36328125 28.37890625 C-35.36419266 27.50988174 -35.36510406 26.64085724 -35.36604309 25.74549866 C-35.27286946 17.58948336 -34.55991867 9.76389197 -29.0625 3.375 C-20.70196062 -2.58045271 -9.59854513 -3.90092643 0 0 Z " fill="#F9FCFD" transform="translate(842.0625,103.625)"/>
<path d="M0 0 C35.2 0 35.2 0 43 6.5 C46.77357266 11.21696582 47.34014986 14.82353978 47.3125 20.8125 C47.32861328 21.49892578 47.34472656 22.18535156 47.36132812 22.89257812 C47.36613078 27.9689858 46.36486769 31.4944227 44 36 C41.3125 38.4375 41.3125 38.4375 39 40 C39.6278439 44.11008056 40.48696244 48.05577707 41.59375 52.0625 C41.90183594 53.18914062 42.20992188 54.31578125 42.52734375 55.4765625 C42.84832031 56.63929688 43.16929687 57.80203125 43.5 59 C44.13816417 61.3117433 44.77367168 63.62422197 45.40625 65.9375 C45.82874023 67.46697266 45.82874023 67.46697266 46.25976562 69.02734375 C46.99593669 71.98368243 47.49913895 74.99483371 48 78 C42.06 78 36.12 78 30 78 C28.85739128 73.49842772 27.71695381 68.99642003 26.58203125 64.49291992 C26.19528503 62.96102204 25.80727236 61.42944332 25.41796875 59.89819336 C24.85864406 57.69727922 24.30388248 55.49525789 23.75 53.29296875 C23.57500977 52.60849167 23.40001953 51.92401459 23.21972656 51.21879578 C22.51258894 48.39124571 22 45.92845999 22 43 C20.35 43 18.7 43 17 43 C17 54.55 17 66.1 17 78 C11.39 78 5.78 78 0 78 C0 52.26 0 26.52 0 0 Z " fill="#FBFDFD" transform="translate(277,103)"/>
<path d="M0 0 C4.29 0 8.58 0 13 0 C17.62 10.56 22.24 21.12 27 32 C27.33 21.44 27.66 10.88 28 0 C32.95 0 37.9 0 43 0 C43 25.74 43 51.48 43 78 C39.04 78 35.08 78 31 78 C29.50636392 74.33801637 28.01293981 70.67594729 26.52001953 67.01367188 C25.76748063 65.16787577 25.01460371 63.32221748 24.26171875 61.4765625 C23.77832031 60.290625 23.29492188 59.1046875 22.796875 57.8828125 C22.35698242 56.80402832 21.91708984 55.72524414 21.46386719 54.61376953 C19.62802113 50.08171593 17.81601461 45.54003652 16 41 C15.67 53.21 15.34 65.42 15 78 C10.05 78 5.1 78 0 78 C0 52.26 0 26.52 0 0 Z " fill="#F6FBFC" transform="translate(556,103)"/>
<path d="M0 0 C5.64357771 2.96864775 9.00087982 7.28110182 10.9375 13.375 C11.19507648 18.05774033 11.02524542 22.68061981 10.9375 27.375 C5.3275 27.375 -0.2825 27.375 -6.0625 27.375 C-6.2578125 23.79427083 -6.453125 20.21354167 -6.6484375 16.6328125 C-6.73491106 13.29438301 -6.73491106 13.29438301 -9.0625 11.375 C-11.5625 11.04166667 -11.5625 11.04166667 -14.0625 11.375 C-16.55222763 13.86472763 -16.31491448 14.61923154 -16.32128906 18.05249023 C-16.32759338 19.02367294 -16.33389771 19.99485565 -16.34039307 20.99546814 C-16.3363446 22.04754959 -16.33229614 23.09963104 -16.328125 24.18359375 C-16.33003845 25.26125504 -16.3319519 26.33891632 -16.33392334 27.44923401 C-16.33528619 29.73153924 -16.33158284 32.01385219 -16.32324219 34.29614258 C-16.31255465 37.79461057 -16.32312897 41.2925638 -16.3359375 44.79101562 C-16.33461572 47.00520947 -16.33205294 49.21940299 -16.328125 51.43359375 C-16.33217346 52.48365097 -16.33622192 53.53370819 -16.34039307 54.61558533 C-16.33408875 55.5899202 -16.32778442 56.56425507 -16.32128906 57.56811523 C-16.31969788 58.42590073 -16.31810669 59.28368622 -16.31646729 60.16746521 C-16.199252 62.66383826 -16.199252 62.66383826 -14.0625 65.375 C-11.5625 65.875 -11.5625 65.875 -9.0625 65.375 C-6.63770264 61.73780395 -6.67587423 59.51796518 -6.4375 55.1875 C-6.31375 52.939375 -6.19 50.69125 -6.0625 48.375 C-0.4525 48.375 5.1575 48.375 10.9375 48.375 C11.51841454 66.77062714 11.51841454 66.77062714 5.1875 73.8125 C0.97655363 77.59397174 -3.50516123 78.375 -9.0625 78.375 C-9.0625 80.025 -9.0625 81.675 -9.0625 83.375 C-8.44761719 83.48457031 -7.83273437 83.59414062 -7.19921875 83.70703125 C-5.98685547 83.94486328 -5.98685547 83.94486328 -4.75 84.1875 C-3.54923828 84.41373047 -3.54923828 84.41373047 -2.32421875 84.64453125 C0.27600945 85.48432861 1.35517951 86.15173956 2.9375 88.375 C3.76492751 92.84012681 3.81430793 97.02606472 1.3125 100.875 C-4.11790449 104.30472915 -8.80993143 104.68250337 -15.0625 104.375 C-16.5475 103.88 -16.5475 103.88 -18.0625 103.375 C-18.0625 101.065 -18.0625 98.755 -18.0625 96.375 C-13.1125 95.88 -13.1125 95.88 -8.0625 95.375 C-8.3925 93.725 -8.7225 92.075 -9.0625 90.375 C-11.0425 89.715 -13.0225 89.055 -15.0625 88.375 C-15.0625 85.075 -15.0625 81.775 -15.0625 78.375 C-16.25875 78.2925 -17.455 78.21 -18.6875 78.125 C-23.06916019 77.53768752 -25.69361824 76.36956157 -29.0625 73.375 C-34.38784853 65.67483388 -35.22428835 58.97973781 -35.30078125 49.83203125 C-35.31288887 48.44657356 -35.31288887 48.44657356 -35.32524109 47.03312683 C-35.33904415 45.0806158 -35.34978312 43.12808102 -35.35766602 41.17553711 C-35.3691705 39.19239152 -35.38959794 37.20927653 -35.41918945 35.22631836 C-35.46214887 32.34467762 -35.47807458 29.46395365 -35.48828125 26.58203125 C-35.50578934 25.70875687 -35.52329742 24.83548248 -35.54133606 23.93574524 C-35.51694179 16.8982281 -34.14085154 9.80866878 -29.31221008 4.42268372 C-21.36630144 -2.8661261 -9.9655129 -4.01970268 0 0 Z " fill="#F8FCFC" transform="translate(736.0625,103.625)"/>
<path d="M0 0 C5.61 0 11.22 0 17 0 C17.02505615 1.8572168 17.0501123 3.71443359 17.07592773 5.62792969 C17.15985089 11.76672599 17.24811596 17.90544786 17.33933926 24.04413986 C17.39448462 27.76572513 17.44789102 31.48731837 17.49731445 35.20898438 C17.54508196 38.80112671 17.59742891 42.39317589 17.65294075 45.9852066 C17.67330828 47.35509163 17.69203046 48.72500214 17.70907402 50.09493256 C17.73324211 52.0148457 17.76382225 53.93467488 17.79467773 55.85449219 C17.81799416 57.49330353 17.81799416 57.49330353 17.84178162 59.16522217 C17.97804988 61.60672268 18.29720582 63.66887263 19 66 C21.64 66 24.28 66 27 66 C27.86864698 62.22964168 28.14929928 58.69834953 28.20532227 54.83276367 C28.22526749 53.61187546 28.24521271 52.39098724 28.26576233 51.13310242 C28.28247482 49.82460831 28.29918732 48.5161142 28.31640625 47.16796875 C28.3369958 45.80747372 28.35799278 44.44698481 28.37937927 43.08650208 C28.43439347 39.51751677 28.48389317 35.94847573 28.53222656 32.37939453 C28.58259306 28.73269734 28.6381998 25.08608041 28.69335938 21.43945312 C28.80068806 14.29303713 28.90170377 7.14654677 29 0 C34.61 0 40.22 0 46 0 C46.06802619 7.92836502 46.1229594 15.85649961 46.15543652 23.785079 C46.17103114 27.46742616 46.19215433 31.1495617 46.22631836 34.83178711 C46.25913541 38.39148575 46.27689956 41.95098203 46.28463173 45.51082039 C46.2927971 47.51643174 46.31618017 49.52196273 46.33988953 51.52745056 C46.34129524 59.2237989 46.25756355 66.80839572 41.3515625 73.12109375 C40.78179687 73.55550781 40.21203125 73.98992187 39.625 74.4375 C39.06039062 74.88996094 38.49578125 75.34242188 37.9140625 75.80859375 C30.74020464 80.27395425 22.17961641 79.81960084 14 79 C9.33154561 77.8328864 6.68101028 75.84230219 3.625 72.0625 C0.93282097 66.98877799 -0.24990333 63.35049418 -0.22705078 57.55737305 C-0.22689972 56.27642258 -0.22674866 54.99547211 -0.22659302 53.67570496 C-0.2163813 52.28770795 -0.20594933 50.89971256 -0.1953125 49.51171875 C-0.1915795 48.08397113 -0.18873388 46.65622095 -0.18673706 45.22846985 C-0.17912318 41.48181001 -0.15949419 37.73530674 -0.1373291 33.9887085 C-0.11682214 30.16111366 -0.107725 26.33349338 -0.09765625 22.50585938 C-0.07624597 15.00382682 -0.04108236 7.50195535 0 0 Z " fill="#FCFEFE" transform="translate(389,103)"/>
<path d="M0 0 C5.48864761 3.55147786 8.35212791 7.63580433 10 14 C10.30317823 18.06845631 10.18805767 21.90974561 10 26 C4.39 26 -1.22 26 -7 26 C-7.1953125 22.97265625 -7.390625 19.9453125 -7.5859375 16.91796875 C-7.81195733 13.81373814 -7.81195733 13.81373814 -10 11 C-13.58357241 10.74984127 -13.58357241 10.74984127 -17 11 C-17.8400241 13.93479952 -18.13498809 16.56445203 -18.16113281 19.61328125 C-18.17074036 20.52102295 -18.1803479 21.42876465 -18.19024658 22.36401367 C-18.1966214 23.8235144 -18.1966214 23.8235144 -18.203125 25.3125 C-18.21167511 26.82130737 -18.21167511 26.82130737 -18.22039795 28.3605957 C-18.22983484 30.48550366 -18.23637672 32.61042616 -18.24023438 34.73535156 C-18.24996377 37.98788798 -18.2810094 41.23979868 -18.3125 44.4921875 C-18.31902803 46.55728792 -18.32427929 48.62239285 -18.328125 50.6875 C-18.3404718 51.66050049 -18.3528186 52.63350098 -18.36553955 53.63598633 C-18.36253845 54.54372803 -18.35953735 55.45146973 -18.35644531 56.38671875 C-18.36009094 57.18295654 -18.36373657 57.97919434 -18.36749268 58.79956055 C-17.9121748 61.52587178 -16.78554967 62.93176842 -15 65 C-11.535 64.505 -11.535 64.505 -8 64 C-6.84429296 60.53287889 -6.67164707 57.4585044 -6.4375 53.8125 C-6.35371094 52.54019531 -6.26992188 51.26789063 -6.18359375 49.95703125 C-6.09271484 48.49330078 -6.09271484 48.49330078 -6 47 C-8.31 47 -10.62 47 -13 47 C-13 43.7 -13 40.4 -13 37 C-5.41 37 2.18 37 10 37 C10 50.2 10 63.4 10 77 C6.04 77 2.08 77 -2 77 C-2.33 75.35 -2.66 73.7 -3 72 C-3.763125 72.804375 -4.52625 73.60875 -5.3125 74.4375 C-9.45231098 78.38476163 -12.97944939 78.29032825 -18.43359375 78.2109375 C-23.6910776 77.77881554 -26.98077645 75.9728952 -30.75 72.375 C-35.82162962 65.59843985 -36.45294423 57.75137147 -36.3984375 49.55859375 C-36.40274277 48.10792259 -36.40274277 48.10792259 -36.40713501 46.62794495 C-36.40916405 44.59676523 -36.40371602 42.56556546 -36.39111328 40.53442383 C-36.37502562 37.44242335 -36.39101098 34.35172634 -36.41015625 31.25976562 C-36.40817395 29.27603881 -36.40433056 27.2923128 -36.3984375 25.30859375 C-36.40451019 24.39379745 -36.41058289 23.47900116 -36.4168396 22.53648376 C-36.34088283 15.53814724 -35.29028477 9.87921515 -30.8125 4.25 C-21.8503328 -2.91973376 -10.86066569 -4.65457101 0 0 Z " fill="#FBFDFD" transform="translate(369,104)"/>
<path d="M0 0 C0.83265381 0.00523682 1.66530762 0.01047363 2.52319336 0.01586914 C3.42231445 0.0190918 4.32143555 0.02231445 5.24780273 0.02563477 C6.66609375 0.03820312 6.66609375 0.03820312 8.11303711 0.05102539 C9.06243164 0.05553711 10.01182617 0.06004883 10.98999023 0.06469727 C13.34356776 0.07652429 15.69702188 0.09300514 18.05053711 0.11352539 C22.03471738 20.21096034 25.98740048 40.31149329 29.55053711 60.48852539 C29.67986633 61.2162616 29.80919556 61.9439978 29.94244385 62.69378662 C30.30463042 64.73679343 30.66286413 66.78044356 31.01928711 68.82446289 C31.21973633 69.97221191 31.42018555 71.11996094 31.62670898 72.30249023 C32.05053711 75.11352539 32.05053711 75.11352539 32.05053711 78.11352539 C26.77053711 78.11352539 21.49053711 78.11352539 16.05053711 78.11352539 C14.56975231 75.15195579 14.69739674 72.27846244 14.48803711 68.98852539 C14.36235352 67.0665332 14.36235352 67.0665332 14.23413086 65.10571289 C14.17354492 64.11829102 14.11295898 63.13086914 14.05053711 62.11352539 C10.09053711 62.11352539 6.13053711 62.11352539 2.05053711 62.11352539 C1.83397461 64.40290039 1.83397461 64.40290039 1.61303711 66.73852539 C1.24861653 70.59097154 0.69002372 74.2766057 0.05053711 78.11352539 C-5.55946289 78.11352539 -11.16946289 78.11352539 -16.94946289 78.11352539 C-15.45619421 69.01303891 -13.85596226 59.93559121 -12.19946289 50.86352539 C-12.07173492 50.16340332 -11.94400696 49.46328125 -11.81240845 48.74194336 C-11.00058487 44.29444745 -10.18569485 39.84751973 -9.36920166 35.40087891 C-8.94581463 33.09364431 -8.52350978 30.78621341 -8.10131836 28.47875977 C-7.41594031 24.7359936 -6.72597023 20.99409981 -6.03259277 17.25280762 C-5.76930608 15.82914229 -5.50733826 14.40523242 -5.2467041 12.9810791 C-4.88444321 11.00370447 -4.51670496 9.02733564 -4.14868164 7.05102539 C-3.8367688 5.36299805 -3.8367688 5.36299805 -3.51855469 3.64086914 C-2.73458416 0.15924629 -2.73458416 0.15924629 0 0 Z " fill="#F7FCFC" transform="translate(236.949462890625,102.886474609375)"/>
<path d="M0 0 C6.93 0 13.86 0 21 0 C25.92781735 25.95961296 30.83896113 51.90464066 35 78 C29.72 78 24.44 78 19 78 C17.19019666 71.66568832 16.80670678 68.28202978 17 62 C13.04 62 9.08 62 5 62 C4.86722656 62.98742187 4.73445312 63.97484375 4.59765625 64.9921875 C4.42105469 66.27351563 4.24445312 67.55484375 4.0625 68.875 C3.80146484 70.78925781 3.80146484 70.78925781 3.53515625 72.7421875 C3 76 3 76 2 78 C-3.28 78 -8.56 78 -14 78 C-13.16845062 70.37101787 -11.7626152 62.85667979 -10.375 55.3125 C-10.11306091 53.8796492 -9.85118061 52.44678764 -9.58935547 51.01391602 C-6.47172619 33.99454852 -3.23662293 16.99705828 0 0 Z " fill="#F8FCFD" transform="translate(660,103)"/>
<path d="M0 0 C3.31248187 -0.02888146 6.62493167 -0.04675799 9.9375 -0.0625 C10.88302734 -0.07087891 11.82855469 -0.07925781 12.80273438 -0.08789062 C14.15141602 -0.09272461 14.15141602 -0.09272461 15.52734375 -0.09765625 C16.77632446 -0.10551147 16.77632446 -0.10551147 18.05053711 -0.11352539 C20 0 20 0 21 1 C21.60266872 3.84831803 22.15294299 6.69078692 22.671875 9.5546875 C22.83471985 10.43550995 22.9975647 11.3163324 23.16534424 12.22384644 C23.69742827 15.10686801 24.22390641 17.99087976 24.75 20.875 C25.11168172 22.84543223 25.47366147 24.81580977 25.8359375 26.78613281 C26.37907641 29.74066221 26.9218639 32.69525188 27.4630127 35.65014648 C28.50044659 41.31013404 29.55707211 46.96585799 30.640625 52.6171875 C30.87426758 53.84453613 31.10791016 55.07188477 31.34863281 56.33642578 C31.77037783 58.54663524 32.19652591 60.75601095 32.62792969 62.96435547 C32.81258789 63.94033691 32.99724609 64.91631836 33.1875 65.921875 C33.34605469 66.74268555 33.50460937 67.56349609 33.66796875 68.40917969 C34.07459815 71.58208498 34 74.80114467 34 78 C28.72 78 23.44 78 18 78 C17.34 72.72 16.68 67.44 16 62 C12.04 62 8.08 62 4 62 C4.04125 63.340625 4.0825 64.68125 4.125 66.0625 C4.26740148 70.69054811 3.39067637 73.13263271 2 78 C-3.28 78 -8.56 78 -14 78 C-12.62652256 65.78737847 -10.54345994 53.85697938 -8.125 41.8125 C-7.76436786 39.9949932 -7.40434545 38.17736532 -7.04492188 36.35961914 C-6.34603168 32.82626811 -5.64500164 29.29335349 -4.94238281 25.76074219 C-3.76438983 19.8254132 -2.62419157 13.88326007 -1.5 7.9375 C-1.34031738 7.09485596 -1.18063477 6.25221191 -1.01611328 5.3840332 C-0.67649046 3.58952904 -0.33805409 1.79480035 0 0 Z " fill="#F8FCFD" transform="translate(767,103)"/>
<path d="M0 0 C11.55 0 23.1 0 35 0 C35 3.96 35 7.92 35 12 C29.06 12 23.12 12 17 12 C17 18.27 17 24.54 17 31 C21.62 31 26.24 31 31 31 C31 34.96 31 38.92 31 43 C26.38 43 21.76 43 17 43 C17 50.59 17 58.18 17 66 C22.94 66 28.88 66 35 66 C35 69.96 35 73.92 35 78 C23.45 78 11.9 78 0 78 C0 52.26 0 26.52 0 0 Z " fill="#FBFDFD" transform="translate(514,103)"/>
<path d="M0 0 C13.53 0 27.06 0 41 0 C41 4.29 41 8.58 41 13 C37.04 13 33.08 13 29 13 C29 34.45 29 55.9 29 78 C23.06 78 17.12 78 11 78 C11 56.55 11 35.1 11 13 C7.37 13 3.74 13 0 13 C0 8.71 0 4.42 0 0 Z " fill="#F6FBFC" transform="translate(606,103)"/>
<path d="M0 0 C2.5 0.5 2.5 0.5 4.13134766 2.35107422 C6.1532184 7.00289171 5.92848259 11.36239284 5.8984375 16.3828125 C5.90274277 17.9596431 5.90274277 17.9596431 5.90713501 19.56832886 C5.90917295 21.78562968 5.90366202 24.00294859 5.89111328 26.22021484 C5.87502427 29.61987265 5.89098822 33.01834733 5.91015625 36.41796875 C5.9081744 38.5729193 5.90433194 40.7278691 5.8984375 42.8828125 C5.90754654 44.41097092 5.90754654 44.41097092 5.9168396 45.97000122 C5.90738312 46.91463226 5.89792664 47.85926331 5.88818359 48.83251953 C5.88579681 49.66349152 5.88341003 50.4944635 5.88095093 51.35061646 C5.40840368 54.0168005 4.65990975 54.90421539 2.5 56.5 C-0.5625 56.875 -0.5625 56.875 -3.5 56.5 C-5.65869783 53.26195326 -5.75491344 52.35639208 -5.7746582 48.6171875 C-5.78419022 47.62605957 -5.79372223 46.63493164 -5.80354309 45.61376953 C-5.80263168 44.54497559 -5.80172028 43.47618164 -5.80078125 42.375 C-5.80506638 41.27655762 -5.8093515 40.17811523 -5.81376648 39.04638672 C-5.81951185 36.72298879 -5.82000853 34.39957287 -5.81567383 32.07617188 C-5.81251244 28.51401234 -5.83597628 24.95268188 -5.86132812 21.390625 C-5.86360087 19.13541772 -5.86430473 16.8802082 -5.86328125 14.625 C-5.872491 13.55620605 -5.88170074 12.48741211 -5.89118958 11.38623047 C-5.88496078 10.39510254 -5.87873199 9.40397461 -5.87231445 8.3828125 C-5.87294388 7.51027832 -5.8735733 6.63774414 -5.8742218 5.73876953 C-5.25718435 2.04736339 -3.5903646 0.71807292 0 0 Z " fill="#0398B2" transform="translate(830.5,113.5)"/>
<path d="M0 0 C1.34136367 0.65035814 2.67532254 1.3162955 4 2 C5.99110401 2.38290462 7.99100513 2.72604615 10 3 C10 2.01 10 1.02 10 0 C12.31 0 14.62 0 17 0 C17.47397116 4.83450586 17.67972486 7.97011384 14.9375 12.125 C12 14 12 14 8.5 14 C5.17694108 13.05055459 2.90625228 11.80658926 0 10 C-1.32 10 -2.64 10 -4 10 C-4.33 10.99 -4.66 11.98 -5 13 C-7.64 13 -10.28 13 -13 13 C-13.4560284 7.29964499 -12.60412752 4.45215753 -9 0 C-5.88094953 -1.55952523 -3.35318513 -0.6359489 0 0 Z " fill="#F3FAFB" transform="translate(775,81)"/>
<path d="M0 0 C10 0 10 0 12.625 1.3125 C14.88129213 5.72252553 14.61002881 10.1556536 14 15 C12.62747293 18.11937969 12.020457 19.4897715 9 21 C6.03 21 3.06 21 0 21 C0 14.07 0 7.14 0 0 Z " fill="#0799B4" transform="translate(294,115)"/>
<path d="M0 0 C0.33 0 0.66 0 1 0 C1.50508972 3.89519106 2.00317733 7.79124657 2.5 11.6875 C2.64308594 12.79029297 2.78617188 13.89308594 2.93359375 15.02929688 C3.06894531 16.09599609 3.20429687 17.16269531 3.34375 18.26171875 C3.46943359 19.24100342 3.59511719 20.22028809 3.72460938 21.22924805 C3.98432795 23.84232089 4.05025329 26.37635968 4 29 C1.69 29 -0.62 29 -3 29 C-3.26942834 22.77321163 -2.83735382 16.73340794 -2.0625 10.5625 C-1.97564941 9.86447266 -1.88879883 9.16644531 -1.79931641 8.44726562 C-1.41107732 5.49923205 -0.94290398 2.82871193 0 0 Z " fill="#139FB7" transform="translate(777,125)"/>
<path d="M0 0 C0.33 0 0.66 0 1 0 C1.50790159 3.51973999 2.00488523 7.04094042 2.5 10.5625 C2.64308594 11.55314453 2.78617188 12.54378906 2.93359375 13.56445312 C3.65920623 18.76467588 4.17673411 23.74952418 4 29 C1.69 29 -0.62 29 -3 29 C-3.18343092 22.51877412 -2.4800332 16.40111777 -1.5 10 C-1.35691406 9.03449219 -1.21382812 8.06898438 -1.06640625 7.07421875 C-0.71607574 4.71532665 -0.3605065 2.35735455 0 0 Z " fill="#0A9BB5" transform="translate(670,125)"/>
<path d="M0 0 C0.66 0.33 1.32 0.66 2 1 C3.80826437 9.5501883 4.32626931 18.28135909 4 27 C1.69 27 -0.62 27 -3 27 C-2.27247184 17.96333446 -1.16165032 8.9886923 0 0 Z " fill="#109DB6" transform="translate(244,127)"/>
<path d="M0 0 C0.33 0 0.66 0 1 0 C1.33 2.97 1.66 5.94 2 9 C1.01 9.33 0.02 9.66 -1 10 C-0.67 6.7 -0.34 3.4 0 0 Z " fill="#41B1C5" transform="translate(670,125)"/>
</svg>
