<?xml version="1.0" encoding="UTF-8"?>
<svg version="1.1" xmlns="http://www.w3.org/2000/svg" width="1080" height="1080">
<path d="M0 0 C356.4 0 712.8 0 1080 0 C1080 356.4 1080 712.8 1080 1080 C723.6 1080 367.2 1080 0 1080 C0 723.6 0 367.2 0 0 Z " fill="#FE20A9" transform="translate(0,0)"/>
<path d="M0 0 C2.52547813 2.19606794 4.92273019 4.46614511 7.29296875 6.828125 C7.92976562 7.44171875 8.5665625 8.0553125 9.22265625 8.6875 C14.81362398 14.50210644 17.94653068 21.58598547 21.29296875 28.828125 C23.47411949 26.10168657 24.92691139 23.52982194 26.29296875 20.328125 C29.68543205 13.37871533 34.88836164 8.24846605 40.29296875 2.828125 C41.17275391 1.91353516 41.17275391 1.91353516 42.0703125 0.98046875 C52.07063209 -8.56182094 66.83713112 -13.00090014 80.35546875 -13.546875 C96.73984856 -12.90329871 110.19201966 -6.01054539 121.29296875 5.828125 C128.78680448 14.84955032 134.06375262 25.58493956 137.29296875 36.828125 C137.64101563 37.84390625 137.9890625 38.8596875 138.34765625 39.90625 C144.95982204 63.30146489 134.54401685 88.82774386 123.6237793 109.15551758 C111.78122769 130.28195852 95.08432007 148.09659575 78.10546875 165.140625 C77.26201904 165.98874756 76.41856934 166.83687012 75.54956055 167.71069336 C70.6250624 172.62262284 65.60030541 177.33315641 60.29296875 181.828125 C59.6575415 182.37025635 59.02211426 182.9123877 58.36743164 183.47094727 C48.20373006 192.0883042 37.68943083 200.08217095 26.7890625 207.7434082 C25.31992731 208.74869606 25.31992731 208.74869606 24.29296875 209.828125 C21.60004044 210.38915173 19.87384137 210.17202943 17.5 208.76660156 C15.38119982 207.21767828 13.33329912 205.60406886 11.29296875 203.953125 C9.77091838 202.75249634 8.24878212 201.55197657 6.7265625 200.3515625 C5.97616699 199.75311523 5.22577148 199.15466797 4.45263672 198.53808594 C1.98514172 196.58439671 -0.5201493 194.6864614 -3.03442383 192.79370117 C-8.31743571 188.80520744 -13.33554436 184.62222868 -18.1953125 180.12890625 C-20.18883562 178.30280187 -22.2097645 176.53972861 -24.26171875 174.78125 C-29.91093525 169.84799209 -35.21468889 164.562576 -40.51953125 159.265625 C-41.32031097 158.4668544 -41.32031097 158.4668544 -42.13726807 157.65194702 C-49.98100665 149.80393641 -57.18115615 141.8069077 -63.70703125 132.828125 C-64.54991873 131.76728338 -65.3990221 130.7113543 -66.25390625 129.66015625 C-77.87866615 115.28545314 -87.65874962 97.67173681 -92.70703125 79.828125 C-93.12275391 78.58675781 -93.12275391 78.58675781 -93.546875 77.3203125 C-99.00265927 59.26845487 -96.45533231 37.38963555 -87.70703125 20.828125 C-78.2681369 4.73938822 -67.22216524 -6.89012831 -48.70703125 -12.171875 C-31.44500799 -15.74332809 -13.59933337 -10.91086487 0 0 Z " fill="#FEFEFE" transform="translate(696.70703125,391.171875)"/>
<path d="M0 0 C0.66066422 -0.00235223 1.32132844 -0.00470446 2.00201279 -0.00712797 C4.23745096 -0.01383663 6.47283125 -0.01335919 8.70827866 -0.01294994 C10.31852646 -0.01624741 11.92877343 -0.01997273 13.53901935 -0.02409142 C17.98093357 -0.0341329 22.42283428 -0.03783166 26.86475825 -0.04048073 C31.64880116 -0.04437743 36.4328333 -0.05395618 41.21686935 -0.0626936 C52.77863943 -0.08247584 64.34041041 -0.09252638 75.90219319 -0.10142139 C81.34264949 -0.10580134 86.78310481 -0.1111689 92.22356033 -0.11641026 C110.30166166 -0.13342418 128.37976238 -0.14791933 146.45787048 -0.155159 C151.15150834 -0.15706899 155.84514619 -0.15898931 160.53878403 -0.16094494 C161.70540954 -0.16142868 162.87203505 -0.16191242 164.07401285 -0.16241082 C182.98121919 -0.17071473 201.88836234 -0.19605703 220.79554108 -0.22852562 C240.19342752 -0.26156615 259.5912818 -0.27960503 278.98919654 -0.28280324 C289.88597642 -0.28497111 300.78266414 -0.29376018 311.67941666 -0.31926441 C320.95786807 -0.34093037 330.23620496 -0.3490421 339.51467881 -0.33929763 C344.25059872 -0.33474101 348.98628213 -0.33671794 353.72216988 -0.35605907 C358.05623003 -0.37360666 362.38987967 -0.37276183 366.72394368 -0.35716178 C368.29329881 -0.35477287 369.86268175 -0.35917537 371.43199423 -0.37099043 C373.56355721 -0.38604674 375.69365379 -0.37648259 377.82518005 -0.36076355 C379.60178414 -0.36222876 379.60178414 -0.36222876 381.41427922 -0.36372358 C386.37141851 0.39577989 389.42135716 2.96685008 393.00606918 6.33368397 C395.32131172 10.24389408 395.24027021 13.47489851 395.19552231 17.94281483 C395.19934921 18.7871558 395.20317612 19.63149677 395.20711899 20.50142384 C395.20983396 22.28243677 395.20250177 24.06348987 395.18575668 25.84442616 C395.16436641 28.55977508 395.18555712 31.27247039 395.21114731 33.9877367 C395.20850344 35.72276855 395.20337722 37.45779875 395.19552231 39.19281483 C395.20361923 39.99923923 395.21171616 40.80566364 395.22005844 41.63652515 C395.13273083 46.92950584 394.19677096 49.96340568 390.66427231 54.13422108 C386.75485935 57.89290212 384.33324589 58.63463371 378.94378376 58.63758564 C377.94506257 58.64630628 377.94506257 58.64630628 376.92616519 58.6552031 C374.69092218 58.66982296 372.45677389 58.65590981 370.22153854 58.64215565 C368.60457196 58.64676382 366.98760957 58.65311617 365.37065595 58.66106462 C360.92400576 58.6777929 356.47769809 58.66949575 352.03104651 58.65711975 C347.2368133 58.64808579 342.44263984 58.66203081 337.64841843 58.67303944 C328.25494424 58.69084735 318.86159773 58.68697444 309.4681185 58.67538887 C301.83479183 58.66636322 294.20150101 58.66512679 286.56817055 58.66948414 C285.48263873 58.67009707 284.39710691 58.67071 283.27868019 58.67134151 C281.07357823 58.67262038 278.86847629 58.67391724 276.66337436 58.67523187 C255.97457068 58.68664447 235.28583783 58.67351359 214.59704577 58.65203041 C196.83890155 58.63416134 179.08086191 58.63726066 161.32271957 58.65570545 C140.71058553 58.67710451 120.09851363 58.68554311 99.48637003 58.6732564 C97.28897664 58.67198218 95.09158324 58.67072469 92.89418983 58.66948414 C91.81297782 58.66886704 90.73176581 58.66824993 89.61778979 58.66761413 C81.99272074 58.66415815 74.36769105 58.66999498 66.7426281 58.67940235 C57.45142064 58.6906131 48.16034837 58.68760184 38.86915643 58.66627938 C34.12715371 58.65575614 29.38537652 58.65166877 24.6433754 58.66487598 C20.30386106 58.67677952 15.96478168 58.67027114 11.6253069 58.64896578 C10.05403194 58.64449101 8.48272037 58.64678559 6.91146887 58.65646893 C4.77732242 58.66861416 2.64467021 58.65617933 0.510602 58.63758564 C-0.67521227 58.63693623 -1.86102654 58.63628682 -3.08277458 58.63561773 C-8.46443929 57.80611033 -11.48463483 55.27562016 -14.68338394 50.98578358 C-17.46650804 44.75585622 -16.89100063 37.59989938 -16.80228043 30.90668201 C-16.77321133 28.50787059 -16.78171713 26.11125987 -16.79471207 23.71234608 C-16.78847634 22.17327294 -16.78008669 20.6342067 -16.76932144 19.09515858 C-16.77225708 18.38564045 -16.77519272 17.67612232 -16.77821732 16.94510365 C-16.6906339 12.28805828 -15.77848071 9.09360637 -13.33572769 5.13422108 C-8.67551705 0.92866513 -6.21352468 0.00938821 0 0 Z " fill="#FEFEFE" transform="translate(338.3357276916504,930.8657789230347)"/>
<path d="M0 0 C1.06244934 -0.01094193 2.12489868 -0.02188385 3.21954346 -0.03315735 C5.45490707 -0.04893385 7.69036687 -0.05424458 9.92578125 -0.04956055 C13.30635986 -0.05077344 16.68258445 -0.11059004 20.0625 -0.17382812 C36.11781878 -0.30547522 46.33485226 1.89045895 58.578125 12.63671875 C60.58984375 15.21484375 60.58984375 15.21484375 62.265625 17.88671875 C62.82636719 18.758125 63.38710938 19.62953125 63.96484375 20.52734375 C67.56999251 27.47576607 69.02930931 33.8142101 68.87109375 41.609375 C68.86684891 42.41789413 68.86260406 43.22641327 68.85823059 44.05943298 C68.84162535 46.60638748 68.80401033 49.15250915 68.765625 51.69921875 C68.75055458 53.44074367 68.73687034 55.18228116 68.72460938 56.92382812 C68.69178184 61.16177236 68.64012955 65.39910507 68.578125 69.63671875 C69.67688965 69.61577148 70.7756543 69.59482422 71.90771484 69.57324219 C76.02639475 69.50025047 80.14501877 69.45470636 84.26416016 69.41699219 C86.03899789 69.39701036 87.81377094 69.3698152 89.58837891 69.33496094 C108.48364123 68.97343088 108.48364123 68.97343088 116.578125 73.63671875 C117.57924316 74.18960571 117.57924316 74.18960571 118.60058594 74.75366211 C124.64985844 78.28354427 127.54005048 84.56056971 130.578125 90.63671875 C130.66461951 93.11771609 130.69377554 95.57016803 130.67578125 98.05078125 C130.67365883 99.14524063 130.67365883 99.14524063 130.67149353 100.2618103 C130.66589031 102.5951546 130.65333735 104.92840339 130.640625 107.26171875 C130.63561041 108.84244653 130.63104743 110.42317582 130.62695312 112.00390625 C130.61591984 115.88154729 130.59865311 119.75911682 130.578125 123.63671875 C102.44498708 134.499983 102.44498708 134.499983 89.19824219 137.34399414 C86.33652954 137.96074256 83.64490888 138.60976914 80.92578125 139.70703125 C78.3147614 140.74101249 76.05825407 141.03830842 73.265625 141.26171875 C72.38261719 141.33648437 71.49960937 141.41125 70.58984375 141.48828125 C69.92597656 141.53726563 69.26210938 141.58625 68.578125 141.63671875 C67.959375 140.68796875 67.340625 139.73921875 66.703125 138.76171875 C64.75841531 135.69226766 64.75841531 135.69226766 62.578125 133.63671875 C60.24106361 133.35544252 60.24106361 133.35544252 57.640625 133.44921875 C56.76535156 133.45566406 55.89007813 133.46210938 54.98828125 133.46875 C52.4343575 133.54602632 52.4343575 133.54602632 49.578125 134.63671875 C47.74898386 138.19338208 47.19625872 141.71644962 46.578125 145.63671875 C36.0664625 146.59351324 25.63859052 146.79260904 15.09130859 146.76708984 C12.45013734 146.76171267 9.809135 146.76707796 7.16796875 146.7734375 C-1.74335604 146.77657154 -10.55269641 146.62368184 -19.421875 145.63671875 C-19.793125 143.78046875 -19.793125 143.78046875 -20.171875 141.88671875 C-21.1748433 138.06459632 -21.89246666 135.75436375 -25.421875 133.63671875 C-28.84933968 133.0883244 -31.9969163 133.06018404 -35.421875 133.63671875 C-38.29336818 135.7185513 -39.44972147 137.67848846 -41.421875 140.63671875 C-48.58301692 141.44171831 -55.16188873 139.47366087 -62.046875 137.63671875 C-63.22588379 137.32710205 -64.40489258 137.01748535 -65.61962891 136.69848633 C-78.54773452 133.20954969 -91.00566946 128.61762259 -103.421875 123.63671875 C-103.54677223 119.26262571 -103.63681281 114.88951485 -103.6965332 110.51416016 C-103.72146338 109.03025196 -103.75542125 107.5464638 -103.79907227 106.06298828 C-104.10578178 95.36063055 -103.20038893 87.29548524 -96.046875 78.82421875 C-88.17024442 72.26035993 -82.56556246 69.31519855 -72.18359375 69.44140625 C-70.86244316 69.44565109 -70.86244316 69.44565109 -69.51460266 69.44998169 C-66.71271955 69.46114042 -63.91116084 69.48623704 -61.109375 69.51171875 C-59.20508275 69.52175412 -57.30078548 69.530879 -55.39648438 69.5390625 C-50.73815703 69.56106566 -46.08007094 69.59556581 -41.421875 69.63671875 C-41.44282227 68.57348389 -41.46376953 67.51024902 -41.48535156 66.41479492 C-41.55846399 62.42095734 -41.60393 58.42717726 -41.64160156 54.43286133 C-41.66155648 52.71335866 -41.68873058 50.99392242 -41.72363281 49.2746582 C-42.03536546 33.50923818 -39.88413012 22.71816327 -28.859375 10.88671875 C-28.055 10.14421875 -27.250625 9.40171875 -26.421875 8.63671875 C-25.7 7.95609375 -24.978125 7.27546875 -24.234375 6.57421875 C-16.62842344 1.33456323 -9.08317222 0.0119595 0 0 Z " fill="#FEFDFE" transform="translate(323.421875,347.36328125)"/>
<path d="M0 0 C1.00957764 0.33773438 2.01915527 0.67546875 3.05932617 1.0234375 C4.40803185 1.47398381 5.75674653 1.92450321 7.10546875 2.375 C7.76800659 2.59671875 8.43054443 2.8184375 9.11315918 3.046875 C15.3774395 5.13817202 21.66670846 7.12687248 28 9 C28.67933594 9.20125488 29.35867187 9.40250977 30.05859375 9.60986328 C40.61972206 12.7137243 51.14340123 15.1807062 62 17 C62.05607422 18.21236328 62.05607422 18.21236328 62.11328125 19.44921875 C62.17902344 20.51785156 62.24476563 21.58648438 62.3125 22.6875 C62.37050781 23.74324219 62.42851562 24.79898438 62.48828125 25.88671875 C63.04777047 29.29063405 63.96278343 31.2369343 66 34 C69.72579089 36.48386059 71.58711402 36.3804212 76 36 C78.78377943 34.7627647 80.43861664 33.75786753 82.25 31.3125 C83.32564595 27.99592499 83.56753508 24.45971937 84 21 C105.78 21 127.56 21 150 21 C150.99 25.95 150.99 25.95 152 31 C153.98158726 34.2338734 153.98158726 34.2338734 157 36 C160.91435244 36.55919321 163.20221437 36.35457139 166.8125 34.75 C170.02980109 32.17615913 170.85446179 30.05995753 171.4140625 25.984375 C171.48367188 24.91703125 171.55328125 23.8496875 171.625 22.75 C171.69976562 21.67234375 171.77453125 20.5946875 171.8515625 19.484375 C171.92503906 18.25460937 171.92503906 18.25460937 172 17 C172.8765625 16.86464844 173.753125 16.72929687 174.65625 16.58984375 C194.94747925 13.1461087 214.44134169 6.25513007 234 0 C234.09299956 9.73637961 234.16391624 19.4726522 234.20724869 29.20938683 C234.22805434 33.73138583 234.25624229 38.25307919 234.30175781 42.77490234 C234.34546789 47.14509681 234.36918982 51.51499873 234.37950897 55.88539505 C234.38685547 57.54624659 234.40120073 59.20708353 234.42292023 60.8678093 C234.56748373 72.38779296 234.01816436 82.59495287 225.77734375 91.46484375 C218.9157767 97.39142803 212.23308548 99.14778187 203.37313843 99.15390015 C202.21478294 99.16047353 202.21478294 99.16047353 201.03302634 99.1671797 C198.44307625 99.18054357 195.85316018 99.18674116 193.26318359 99.19287109 C191.40691983 99.20077401 189.5506576 99.20904308 187.69439697 99.21765137 C181.5957587 99.24385128 175.49711363 99.2591778 169.3984375 99.2734375 C167.29738994 99.27879817 165.19634243 99.28417568 163.09529495 99.28956985 C154.35381095 99.31119631 145.61232879 99.32993201 136.87082481 99.34119225 C124.3521871 99.35742509 111.83386005 99.39058961 99.31533945 99.44759309 C90.50838131 99.48632547 81.70150615 99.5058289 72.89446509 99.51111281 C67.63692371 99.51476195 62.37971386 99.52673684 57.12226486 99.55921555 C52.17274947 99.58935377 47.2237652 99.59558742 42.27417755 99.58383179 C40.46261487 99.58361153 38.65102713 99.59187684 36.83955002 99.60948563 C25.99848774 99.70908891 17.1876458 99.31232029 8.59765625 91.9375 C7.83775391 90.9784375 7.83775391 90.9784375 7.0625 90 C6.51464844 89.31292969 5.96679688 88.62585938 5.40234375 87.91796875 C0.66049414 81.43259784 -0.15478991 76.40599309 -0.11352539 68.45581055 C-0.11367142 67.71380905 -0.11381744 66.97180756 -0.1139679 66.20732117 C-0.11327404 63.7670901 -0.1055064 61.3269364 -0.09765625 58.88671875 C-0.0957902 57.18992657 -0.09436718 55.49313385 -0.09336853 53.79634094 C-0.0895581 49.3395335 -0.07974043 44.88275887 -0.06866455 40.42596436 C-0.0584187 35.87447554 -0.05386412 31.32298141 -0.04882812 26.77148438 C-0.03811681 17.84764187 -0.02105813 8.92382367 0 0 Z " fill="#FEFEFE" transform="translate(220,494)"/>
<path d="M0 0 C9.30784193 7.55495268 14.43175778 17.88773766 16.07421875 29.68359375 C16.07421875 35.62359375 16.07421875 41.56359375 16.07421875 47.68359375 C3.20421875 47.68359375 -9.66578125 47.68359375 -22.92578125 47.68359375 C-23.91578125 39.26859375 -23.91578125 39.26859375 -24.92578125 30.68359375 C-26.9910077 26.38232972 -26.9910077 26.38232972 -30.92578125 24.68359375 C-34.00033197 24.16108513 -36.85152906 24.14559962 -39.92578125 24.68359375 C-44.75197103 28.27756486 -46.45107388 31.97272536 -47.46655273 37.77172852 C-47.98424513 42.18160902 -48.0514497 46.46455674 -48.0234375 50.8984375 C-48.02131508 52.18204918 -48.02131508 52.18204918 -48.01914978 53.49159241 C-48.01359115 56.20146306 -48.0010465 58.91124843 -47.98828125 61.62109375 C-47.9832609 63.46809776 -47.97869893 65.31510307 -47.97460938 67.16210938 C-47.9636353 71.66930326 -47.94639955 76.17643409 -47.92578125 80.68359375 C-47.4644278 80.27190445 -47.00307434 79.86021515 -46.52774048 79.43605042 C-45.91224335 78.89584763 -45.29674622 78.35564484 -44.66259766 77.79907227 C-43.75400497 76.99591331 -43.75400497 76.99591331 -42.82705688 76.17652893 C-36.79521541 71.44015711 -29.95680993 71.1620783 -22.55078125 71.24609375 C-21.62048096 71.25366699 -20.69018066 71.26124023 -19.73168945 71.26904297 C-13.12128157 71.42818995 -7.62013819 72.09536883 -1.92578125 75.68359375 C-1.21550781 76.11929688 -0.50523437 76.555 0.2265625 77.00390625 C10.57439515 84.056619 16.35621087 95.67905894 19.07421875 107.68359375 C23.27817622 133.37101032 22.35811672 164.91851078 6.76171875 186.74609375 C-1.65405552 196.47799131 -13.0694331 201.74602217 -25.76953125 202.95410156 C-42.72306072 203.93176966 -58.21898564 202.70402664 -71.92578125 191.68359375 C-83.72054282 180.91527504 -91.29195327 164.53096236 -92.02646828 148.48386383 C-92.07692006 145.81083664 -92.09522147 143.13931644 -92.1027832 140.46582031 C-92.1093544 139.45022537 -92.1159256 138.43463043 -92.12269592 137.38825989 C-92.14237045 134.03357863 -92.15408316 130.67894219 -92.1640625 127.32421875 C-92.16813803 126.17170372 -92.17221355 125.01918869 -92.17641258 123.83174896 C-92.19725587 117.72263266 -92.21156097 111.61353866 -92.22094727 105.50439453 C-92.23196322 99.23753045 -92.26631259 92.97102617 -92.30611897 86.70428848 C-92.33245325 81.84992886 -92.34065429 76.99565247 -92.34422874 72.14122772 C-92.34905721 69.83389629 -92.36056226 67.52656762 -92.37926674 65.21930695 C-92.55279535 42.38089921 -90.52519725 20.47259179 -74.34375 2.97265625 C-57.01660651 -13.63779274 -19.13756674 -13.02914136 0 0 Z " fill="#FFFDFE" transform="translate(164.92578125,109.31640625)"/>
<path d="M0 0 C1.03332732 -0.00256327 2.06665464 -0.00512655 3.13129491 -0.0077675 C6.59844544 -0.01271419 10.06516183 0.00380258 13.53227234 0.02018738 C16.01573679 0.02103346 18.499202 0.02055889 20.98266602 0.01885986 C26.33178618 0.01817641 31.68077086 0.02669293 37.02985573 0.04357338 C44.76369265 0.06796365 52.49747649 0.07576867 60.2313477 0.07953735 C72.77927717 0.0861018 85.32714809 0.10606276 97.87504578 0.13444519 C110.06351936 0.16198594 122.25197704 0.18321944 134.44047546 0.19596863 C135.19188473 0.1967568 135.943294 0.19754497 136.71747325 0.19835702 C140.48710593 0.20227216 144.25673873 0.20606328 148.0263716 0.20979273 C179.29490126 0.24088843 210.56335818 0.29394717 241.83183289 0.36076355 C241.62324646 1.18350769 241.41466003 2.00625183 241.19975281 2.85392761 C240.92751892 3.93383972 240.65528503 5.01375183 240.37480164 6.12638855 C239.9691095 7.73175476 239.9691095 7.73175476 239.55522156 9.36955261 C236.01832315 23.99462157 236.41698689 41.14349814 241.99198914 55.11076355 C242.83183289 57.36076355 242.83183289 57.36076355 242.83183289 59.36076355 C210.95805873 59.42919463 179.08430546 59.48228911 147.21047502 59.51395954 C143.44786763 59.51771168 139.68526038 59.52159464 135.9226532 59.52555847 C135.17358275 59.5263454 134.42451231 59.52713233 133.65274276 59.52794311 C121.52233661 59.54099865 109.3919731 59.56465331 97.26159225 59.59222194 C84.81560936 59.62027202 72.36964881 59.63693897 59.9236356 59.64302903 C52.24316321 59.64714631 44.56281133 59.6601525 36.88237603 59.68451295 C30.9939863 59.70223862 25.10565849 59.70413017 19.21724129 59.70008659 C16.80091802 59.70091317 14.38459027 59.70689708 11.96829414 59.71837997 C8.67279078 59.73327533 5.37780567 59.72972759 2.08229065 59.7215271 C1.12313968 59.73026562 0.1639887 59.73900415 -0.82422745 59.74800748 C-7.17532579 59.70520374 -11.35872415 58.62392593 -16.41816711 54.54826355 C-20.24928667 49.7593641 -20.49449128 44.32311537 -20.53926086 38.39982605 C-20.54828934 37.65042755 -20.55731781 36.90102905 -20.56661987 36.12892151 C-20.58106154 34.55064348 -20.5899939 32.97230641 -20.59370422 31.39396667 C-20.60560113 28.99904559 -20.65484003 26.60670461 -20.70527649 24.21232605 C-20.85478869 10.40562288 -20.85478869 10.40562288 -16.7348175 4.78410339 C-11.41007125 -0.05355761 -6.89484205 -0.06237429 0 0 Z " fill="#FEFCFE" transform="translate(210.1681671142578,651.6392364501953)"/>
<path d="M0 0 C32.1115055 -0.1368855 64.22292798 -0.24306299 96.33465708 -0.30639198 C100.12601861 -0.31389619 103.91737956 -0.32166212 107.70874023 -0.32958984 C108.4635296 -0.33116371 109.21831896 -0.33273757 109.99598073 -0.33435912 C122.21631001 -0.36046467 134.43646987 -0.40777075 146.65669865 -0.46291678 C159.19646949 -0.5190327 171.73615163 -0.5523541 184.27604288 -0.56453097 C192.01348109 -0.5727624 199.75044046 -0.59875656 207.48773127 -0.6474988 C213.42142666 -0.68297412 219.35487649 -0.68672939 225.28868103 -0.67864609 C227.72234483 -0.68029813 230.15602659 -0.69225147 232.58958244 -0.71523285 C235.91150992 -0.7450675 239.23138546 -0.73791623 242.55335999 -0.7215271 C243.51738001 -0.73900415 244.48140004 -0.7564812 245.4746328 -0.77448785 C251.29867161 -0.69677021 254.42586513 0.33699773 258.64070219 4.41989744 C262.33225015 8.71110157 262.32117866 12.16944267 262.3359375 17.578125 C262.3425943 18.42292419 262.3492511 19.26772339 262.35610962 20.13812256 C262.36623516 21.92685775 262.37092667 23.71563071 262.37060547 25.50439453 C262.37496195 28.22623017 262.4112345 30.94642184 262.44921875 33.66796875 C262.45509049 35.40884865 262.45905749 37.14973622 262.4609375 38.890625 C262.47530853 39.69816223 262.48967957 40.50569946 262.50448608 41.33770752 C262.46098571 46.78543522 261.629724 50.81989469 258 55 C252.18628442 59.1842173 246.50797469 59.56644251 239.54699707 59.48101807 C238.51927358 59.48443577 237.49155009 59.48785347 236.43268347 59.49137473 C233.00236109 59.49794289 229.57282795 59.47599428 226.14257812 59.45410156 C223.67837543 59.45297286 221.21417139 59.45360739 218.74996948 59.45587158 C213.45160346 59.45678131 208.15348128 59.44546483 202.85517883 59.42292023 C195.19486321 59.39034641 187.53464275 59.37998774 179.87426537 59.37496826 C167.44444309 59.36622402 155.01472609 59.33963216 142.58496094 59.30175781 C130.51400274 59.26501513 118.44307318 59.23671444 106.37207031 59.21972656 C105.25509965 59.21815022 105.25509965 59.21815022 104.11556393 59.21654204 C100.37971137 59.21132171 96.64385861 59.20626692 92.90800571 59.20129442 C61.93859393 59.15985952 30.96931299 59.08913657 0 59 C0.11875803 58.45998667 0.23751606 57.91997334 0.35987282 57.36359596 C0.90199649 54.88490329 1.43663929 52.40465249 1.97119141 49.92431641 C2.1581105 49.07499039 2.3450296 48.22566437 2.53761292 47.3506012 C3.97537705 40.64029365 4.55304574 34.24381736 4.375 27.375 C4.37306641 25.89966797 4.37306641 25.89966797 4.37109375 24.39453125 C4.26763454 15.76143519 2.36353461 8.25950259 0 0 Z " fill="#FEFCFE" transform="translate(603,652)"/>
<path d="M0 0 C4.16382368 1.51269999 7.83964381 3.60985458 11.625 5.875 C17.55107104 9.32954167 23.38742592 12.07302289 30 14 C30.73734375 14.22429688 31.4746875 14.44859375 32.234375 14.6796875 C50.9365402 19.38747391 72.33819254 15.80831896 89.09765625 6.75390625 C91.56162454 5.2649133 93.88252174 3.7203476 96.1875 2 C97.115625 1.34 98.04375 0.68 99 0 C99.99 0.33 100.98 0.66 102 1 C103.32421875 3.71313477 103.32421875 3.71313477 104.6875 7.37890625 C105.21288342 8.7574219 105.74032524 10.13515433 106.26953125 11.51220703 C106.54877441 12.24433411 106.82801758 12.97646118 107.11572266 13.73077393 C108.62080398 17.59310264 110.25006536 21.40174874 111.875 25.21484375 C112.55735641 26.82484235 113.23964736 28.4348687 113.921875 30.04492188 C114.96026191 32.4910466 115.99966995 34.93672511 117.04101562 37.3815918 C121.14803328 47.03134301 125.09997348 56.69787878 128.68798828 66.55371094 C130.36163179 70.9499059 132.33373207 75.16806382 134.34375 79.41796875 C136.44004191 83.95169441 138.41946788 88.52911066 140.375 93.125 C140.73319824 93.95555908 141.09139648 94.78611816 141.46044922 95.6418457 C141.79061035 96.42261475 142.12077148 97.20338379 142.4609375 98.0078125 C142.90638916 99.05412842 142.90638916 99.05412842 143.36083984 100.12158203 C144 102 144 102 144 105 C82.62 105 21.24 105 -42 105 C-41.19016133 100.14096795 -40.08986301 96.34169262 -38.18359375 91.91015625 C-37.89558899 91.22567917 -37.60758423 90.54120209 -37.31085205 89.83598328 C-36.6862071 88.35322377 -36.05867174 86.87167927 -35.42855835 85.39123535 C-34.07064436 82.20048245 -32.7268132 79.00386359 -31.38240051 75.80740356 C-30.67357993 74.12212731 -29.96408593 72.43713416 -29.25395203 70.75241089 C-25.3342703 61.44455302 -21.50978153 52.09816924 -17.6875 42.75 C-11.84573989 28.47713248 -5.96194196 14.22317697 0 0 Z " fill="#FEFDFE" transform="translate(477,745)"/>
<path d="M0 0 C1.46566406 -0.02416992 1.46566406 -0.02416992 2.9609375 -0.04882812 C18.83144738 -0.05938033 32.77265326 7.21230623 43.89453125 18.296875 C55.08198032 30.19791876 59.23868847 44.03306624 59.02783203 60.00024414 C58.42995828 77.75236557 51.40782884 90.76613671 38.84375 103.0546875 C37.16542929 104.58259267 35.44652978 105.95892161 33.625 107.3125 C32.94566406 107.82554687 32.26632812 108.33859375 31.56640625 108.8671875 C18.95600094 117.41589396 1.95766672 119.10201545 -12.8125 116.8125 C-28.79138916 112.44091712 -42.59437658 102.36100703 -50.98046875 88.078125 C-53.22574832 83.62530164 -54.92209318 79.0774835 -56.375 74.3125 C-56.73207031 73.22710938 -57.08914063 72.14171875 -57.45703125 71.0234375 C-60.31878321 59.45465297 -58.88267367 47.2343716 -54.375 36.3125 C-54.01277344 35.43207031 -53.65054687 34.55164063 -53.27734375 33.64453125 C-46.38043047 18.56483951 -34.27547403 8.97989038 -19.375 2.3125 C-12.86666471 0.23258756 -6.80476534 -0.0222669 0 0 Z " fill="#FEFDFE" transform="translate(527.375,622.6875)"/>
<path d="M0 0 C0.88494638 -0.00384115 1.76989277 -0.00768229 2.6816557 -0.01163983 C3.64963942 -0.01077335 4.61762313 -0.00990687 5.61493969 -0.00901413 C6.64655718 -0.01198525 7.67817466 -0.01495637 8.74105328 -0.01801753 C12.20864169 -0.0267108 15.67619561 -0.02821331 19.14379406 -0.02970505 C21.62560634 -0.03433274 24.1074179 -0.03935733 26.58922863 -0.04475021 C33.33924782 -0.05788008 40.08925348 -0.06435688 46.83928227 -0.06876087 C51.05457418 -0.07152446 55.26986379 -0.075762 59.48515415 -0.08026505 C71.15787423 -0.09245625 82.83059248 -0.10275612 94.50331879 -0.10614014 C95.25022302 -0.1063597 95.99712724 -0.10657927 96.76666493 -0.10680549 C97.51534616 -0.10702377 98.26402738 -0.10724204 99.03539592 -0.10746694 C100.55248567 -0.1079104 102.06957541 -0.10835696 103.58666515 -0.10880661 C104.33919251 -0.10902804 105.09171987 -0.10924947 105.86705109 -0.10947761 C118.0611976 -0.1134258 130.25528436 -0.13088109 142.44940779 -0.15416613 C154.97123802 -0.17788382 167.49303827 -0.19034216 180.01489133 -0.19150805 C187.04454375 -0.19242454 194.07411831 -0.1981702 201.10374928 -0.21632767 C207.71520577 -0.23334496 214.32654053 -0.23497816 220.93802166 -0.22618866 C223.36521265 -0.22541673 225.7924115 -0.22978147 228.21958256 -0.23964691 C231.53204669 -0.25232163 234.84398335 -0.24651356 238.1564436 -0.23606491 C239.59838092 -0.24814952 239.59838092 -0.24814952 241.06944829 -0.26047826 C246.67487771 -0.21910263 250.628678 0.42891987 255.57616711 3.13142776 C265.28421345 13.60589882 260.57616711 17.80456434 260.57616711 37.13142776 C169.16616711 37.13142776 77.75616711 37.13142776 -16.42383289 37.13142776 C-16.42383289 9.75642776 -16.42383289 9.75642776 -10.42383289 2.81892776 C-7.22507229 0.11997351 -4.08059478 0.00666428 0 0 Z " fill="#FEFBFD" transform="translate(405.4238328933716,871.8685722351074)"/>
<path d="M0 0 C31.69230769 0 31.69230769 0 39.875 4.625 C45.56181384 10.98085077 46.60500239 18.11408257 46.53125 26.37109375 C46.5350769 27.33346451 46.53890381 28.29583527 46.54284668 29.28736877 C46.5455525 31.31016087 46.53828521 33.33298876 46.52148438 35.35571289 C46.50007948 38.42609902 46.52131977 41.49413929 46.546875 44.56445312 C46.54423103 46.54167176 46.53910462 48.51888895 46.53125 50.49609375 C46.53934692 51.40056747 46.54744385 52.3050412 46.55578613 53.23692322 C46.44833983 60.66037292 44.90453417 67.85342131 39.75 73.4375 C26.05841328 81.21681064 18.38238241 78 0 78 C0 52.26 0 26.52 0 0 Z " fill="#FFFCFD" transform="translate(819,103)"/>
<path d="M0 0 C31.69230769 0 31.69230769 0 39.875 4.625 C45.56181384 10.98085077 46.60500239 18.11408257 46.53125 26.37109375 C46.5350769 27.33346451 46.53890381 28.29583527 46.54284668 29.28736877 C46.5455525 31.31016087 46.53828521 33.33298876 46.52148438 35.35571289 C46.50007948 38.42609902 46.52131977 41.49413929 46.546875 44.56445312 C46.54423103 46.54167176 46.53910462 48.51888895 46.53125 50.49609375 C46.53934692 51.40056747 46.54744385 52.3050412 46.55578613 53.23692322 C46.44833983 60.66037292 44.90453417 67.85342131 39.75 73.4375 C26.05841328 81.21681064 18.38238241 78 0 78 C0 52.26 0 26.52 0 0 Z " fill="#FFFCFD" transform="translate(616,103)"/>
<path d="M0 0 C4.54077558 3.55365045 6.53617096 7.50994089 8 13 C8.41564125 16.50268804 8.44467742 19.96758051 8.43359375 23.4921875 C8.4388356 24.47816925 8.44407745 25.464151 8.44947815 26.48001099 C8.45587178 28.55583764 8.45459602 30.63170065 8.44604492 32.70751953 C8.43754299 35.85906467 8.46632171 39.00879002 8.49804688 42.16015625 C8.49965952 44.18749946 8.49908015 46.21484585 8.49609375 48.2421875 C8.51294472 49.63641434 8.51294472 49.63641434 8.53013611 51.05880737 C8.45688791 58.04227405 7.21667591 65.12732317 2.6235199 70.65719604 C-3.9393411 76.5380894 -11.82948811 76.51852917 -20.1328125 76.31640625 C-26.29593284 75.81215095 -29.72972221 74.08620121 -34.3125 69.875 C-38.52870459 62.69183663 -39.45602524 55.09050785 -39.3984375 46.8984375 C-39.40130768 45.97713043 -39.40417786 45.05582336 -39.40713501 44.1065979 C-39.40916073 42.17555113 -39.40373635 40.24448314 -39.39111328 38.31347656 C-39.37500099 35.37518144 -39.3910321 32.43825383 -39.41015625 29.5 C-39.40817427 27.61197617 -39.40433154 25.72395317 -39.3984375 23.8359375 C-39.40451019 22.96802582 -39.41058289 22.10011414 -39.4168396 21.2059021 C-39.32432095 13.10495331 -37.28610892 6.47831482 -31.640625 0.4765625 C-23.27123908 -7.05588483 -9.01064491 -5.85980106 0 0 Z " fill="#FFF9FD" transform="translate(399,106)"/>
<path d="M0 0 C6.01358578 3.19088225 9.02861337 7.76710359 11.31768799 14.09991455 C12.41129262 18.11410586 12.36488451 22.07381878 12.3359375 26.2109375 C12.33880768 27.13033112 12.34167786 28.04972473 12.34463501 28.99697876 C12.34666589 30.9315859 12.34120476 32.86621402 12.32861328 34.80078125 C12.31258277 37.73485102 12.32847639 40.66753572 12.34765625 43.6015625 C12.34567293 45.4921905 12.34182741 47.38281764 12.3359375 49.2734375 C12.34504654 50.56923233 12.34504654 50.56923233 12.3543396 51.89120483 C12.27172921 59.17965806 10.9906849 66.04742447 7.125 72.3125 C0.38398813 78.66831119 -7.546508 78.82206718 -16.34765625 78.65625 C-22.4808245 78.19190919 -26.0836411 76.3538589 -30.375 72.0625 C-34.6055102 65.3250208 -35.50615313 60.2202354 -35.42578125 52.3828125 C-35.42627975 51.43743622 -35.42677826 50.49205994 -35.42729187 49.51803589 C-35.42496057 47.52616262 -35.41528808 45.53428588 -35.39868164 43.54248047 C-35.3751271 40.51632923 -35.37812378 37.49106325 -35.38476562 34.46484375 C-35.37918645 32.52082815 -35.37207508 30.57681622 -35.36328125 28.6328125 C-35.36419266 27.73877716 -35.36510406 26.84474182 -35.36604309 25.9236145 C-35.27468318 17.70353884 -34.60779396 9.81953082 -29.0625 3.375 C-20.70196062 -2.58045271 -9.59854513 -3.90092643 0 0 Z " fill="#FFF9FD" transform="translate(569.0625,103.625)"/>
<path d="M0 0 C30 0 30 0 41 4 C46.82095752 9.82095752 47.22496772 13.44212099 47.3125 21.25 C47.34150391 22.09691406 47.37050781 22.94382812 47.40039062 23.81640625 C47.46734673 30.43990995 45.74212852 33.83600556 41.375 38.875 C40 40 40 40 38 40 C38.24524414 40.70672852 38.49048828 41.41345703 38.74316406 42.14160156 C41.40049665 49.93593621 43.65164351 57.78885348 45.75 65.75 C46.06582031 66.9359375 46.38164062 68.121875 46.70703125 69.34375 C47.47468877 72.22828129 48.23782592 75.11401498 49 78 C43.06 78 37.12 78 31 78 C28.73846614 70.89232216 26.60627098 63.78544916 24.75 56.5625 C24.57500977 55.90121094 24.40001953 55.23992187 24.21972656 54.55859375 C23.2294775 50.62150694 22.82453021 47.05460557 23 43 C21.02 43 19.04 43 17 43 C17 54.55 17 66.1 17 78 C11.39 78 5.78 78 0 78 C0 52.26 0 26.52 0 0 Z " fill="#FFFAFD" transform="translate(304,103)"/>
<path d="M0 0 C0.81881653 -0.00902847 1.63763306 -0.01805695 2.48126221 -0.02735901 C4.21273147 -0.04184799 5.94425532 -0.05074489 7.67578125 -0.05444336 C10.30564487 -0.06630486 12.93313374 -0.11546986 15.5625 -0.16601562 C17.24998863 -0.17548498 18.93749158 -0.18271756 20.625 -0.1875 C21.79104767 -0.21679848 21.79104767 -0.21679848 22.98065186 -0.24668884 C29.62923281 -0.19261458 34.46969912 2.22666353 39.14447021 6.95558167 C43.33505488 11.854779 43.7186927 14.96974844 43.67578125 21.22265625 C43.67477417 21.9086792 43.67376709 22.59470215 43.67272949 23.30151367 C43.66749389 25.86639068 43.65353263 28.43124388 43.640625 30.99609375 C43.62 36.72984375 43.599375 42.46359375 43.578125 48.37109375 C21.798125 48.37109375 0.018125 48.37109375 -22.421875 48.37109375 C-22.421875 11.80264827 -22.421875 11.80264827 -17.73828125 6.4453125 C-17.15949219 5.98769531 -16.58070313 5.53007812 -15.984375 5.05859375 C-15.40816406 4.58808594 -14.83195312 4.11757813 -14.23828125 3.6328125 C-9.56288707 0.3851731 -5.63617462 0.03848069 0 0 Z " fill="#FF22AA" transform="translate(326.421875,368.62890625)"/>
<path d="M0 0 C35.49526066 0 35.49526066 0 40.92578125 4.6484375 C41.38339844 5.21820313 41.84101563 5.78796875 42.3125 6.375 C42.78300781 6.93960938 43.25351562 7.50421875 43.73828125 8.0859375 C48.37750246 15.12376535 47.95342519 23.71146965 46.5 31.7734375 C45.0885444 36.60125721 43.45434029 39.36788983 39 42 C38.030625 42.5775 37.06125 43.155 36.0625 43.75 C32 45 32 45 18 45 C18 55.89 18 66.78 18 78 C12.06 78 6.12 78 0 78 C0 52.26 0 26.52 0 0 Z " fill="#FFF8FC" transform="translate(249,103)"/>
<path d="M0 0 C6.6 0 13.2 0 20 0 C22.74953739 11.36761866 24.89155416 22.81197624 27 34.3125 C27.51740471 37.11866824 28.03561324 39.9246871 28.55395508 42.73068237 C28.89083152 44.55740419 29.22662056 46.3843269 29.5612793 48.2114563 C30.32582103 52.38149759 31.10148394 56.54828531 31.91796875 60.70849609 C32.05904053 61.43425339 32.2001123 62.16001068 32.34545898 62.90776062 C32.72092452 64.8314975 33.10239841 66.75405904 33.484375 68.67651367 C34 72 34 72 34 78 C28.72 78 23.44 78 18 78 C16.77731709 72.34509154 16 67.84044472 16 62 C12.04 62 8.08 62 4 62 C3.855625 63.711875 3.71125 65.42375 3.5625 67.1875 C3.24861109 70.90932563 2.73741485 74.31292574 2 78 C-3.28 78 -8.56 78 -14 78 C-14 70.12590271 -14 70.12590271 -13.23730469 66.34765625 C-13.07002869 65.50146729 -12.90275269 64.65527832 -12.73040771 63.78344727 C-12.54609192 62.88553467 -12.36177612 61.98762207 -12.171875 61.0625 C-11.88645844 59.62765259 -11.88645844 59.62765259 -11.59527588 58.16381836 C-10.98646432 55.1079155 -10.36880996 52.05389247 -9.75 49 C-8.94926262 45.02159955 -8.15290229 41.04234456 -7.359375 37.0625 C-7.06432068 35.58801392 -7.06432068 35.58801392 -6.76330566 34.08374023 C-5.11973887 25.79118333 -3.65413299 17.47241088 -2.26849365 9.13305664 C-2.11575989 8.22547607 -1.96302612 7.31789551 -1.80566406 6.3828125 C-1.6735553 5.58246582 -1.54144653 4.78211914 -1.40533447 3.95751953 C-1 2 -1 2 0 0 Z " fill="#FFF8FC" transform="translate(885,103)"/>
<path d="M0 0 C4.95 0 9.9 0 15 0 C17.19476708 10.61340443 19.05625168 21.22469645 20.6875 31.9375 C20.91440731 33.41085449 21.14161959 34.88416204 21.36914062 36.35742188 C21.91625627 39.90441704 22.45931541 43.45201809 23 47 C23.19335938 45.74445313 23.38671875 44.48890625 23.5859375 43.1953125 C25.95209976 27.95619151 25.95209976 27.95619151 27.0625 22.875 C28.20939123 17.51328352 28.7370118 12.0707783 29.30297852 6.62255859 C29.89689075 1.10310925 29.89689075 1.10310925 31 0 C33.53049402 -0.07313567 36.03304837 -0.09247527 38.5625 -0.0625 C39.62887695 -0.05573242 39.62887695 -0.05573242 40.71679688 -0.04882812 C42.47790013 -0.03700864 44.23896036 -0.01907263 46 0 C45.45099127 7.41301578 44.46307347 14.61351384 43.0390625 21.90625 C42.84782806 22.91103394 42.65659363 23.91581787 42.45956421 24.9510498 C41.85300379 28.13500626 41.23957602 31.31758188 40.625 34.5 C39.82170483 38.67636123 39.02196744 42.85337874 38.2265625 47.03125 C37.93812469 48.545979 37.93812469 48.545979 37.64385986 50.09130859 C35.8961254 59.3670383 34.41805013 68.66831528 33 78 C26.73 78 20.46 78 14 78 C11.12832386 63.88475894 8.45013019 49.74645942 5.90795898 35.56835938 C5.30562412 32.21168228 4.69887182 28.85582271 4.09179688 25.5 C3.7028632 23.33858876 3.31418191 21.17713209 2.92578125 19.015625 C2.74662674 18.02596741 2.56747223 17.03630981 2.38288879 16.0166626 C1.4308865 10.68797274 0.61655478 5.37810224 0 0 Z " fill="#FFFAFD" transform="translate(736,103)"/>
<path d="M0 0 C11.55 0 23.1 0 35 0 C35 3.96 35 7.92 35 12 C29.39 12 23.78 12 18 12 C18 18.27 18 24.54 18 31 C22.29 31 26.58 31 31 31 C31 34.96 31 38.92 31 43 C26.71 43 22.42 43 18 43 C18 50.59 18 58.18 18 66 C23.94 66 29.88 66 36 66 C36 69.96 36 73.92 36 78 C24.12 78 12.24 78 0 78 C0 52.26 0 26.52 0 0 Z " fill="#FFF8FC" transform="translate(672,103)"/>
<path d="M0 0 C11.55 0 23.1 0 35 0 C35 3.96 35 7.92 35 12 C29.39 12 23.78 12 18 12 C18 18.27 18 24.54 18 31 C22.29 31 26.58 31 31 31 C31 34.96 31 38.92 31 43 C26.71 43 22.42 43 18 43 C18 50.59 18 58.18 18 66 C23.94 66 29.88 66 36 66 C36 69.96 36 73.92 36 78 C24.12 78 12.24 78 0 78 C0 52.26 0 26.52 0 0 Z " fill="#FFF8FC" transform="translate(450,103)"/>
<path d="M0 0 C4.65971696 4.16400239 6.58681319 8.7531198 7.1913147 14.96640015 C7.27866786 17.09860423 7.30342541 19.22148779 7.30078125 21.35546875 C7.30506638 22.1383577 7.3093515 22.92124664 7.31376648 23.7278595 C7.31948055 25.37756388 7.32003173 27.02729343 7.31567383 28.67700195 C7.3125305 31.16337636 7.33595093 33.6485393 7.36132812 36.13476562 C7.45275647 57.94684047 7.45275647 57.94684047 2.0793457 64.25463867 C-0.6853575 66.57527542 -2.74208398 66.97080196 -6.3125 67.375 C-10.08936149 66.99091239 -11.94054271 66.22565202 -14.71484375 63.62890625 C-16.99277763 60.74167699 -18.03011207 57.50973834 -19 54 C-19.17156616 53.3901828 -19.34313232 52.7803656 -19.51989746 52.15206909 C-20.01848221 49.91715315 -20.16734031 47.88966904 -20.22460938 45.60205078 C-20.24712769 44.74080597 -20.269646 43.87956116 -20.29284668 42.99221802 C-20.36420792 39.071243 -20.42131379 35.15044269 -20.45996094 31.22900391 C-20.48661049 29.16301343 -20.52758221 27.09715709 -20.58300781 25.03173828 C-20.66217074 22.04405297 -20.69526608 19.05889288 -20.71875 16.0703125 C-20.75174194 15.15138214 -20.78473389 14.23245178 -20.81872559 13.28567505 C-20.7993193 7.04778425 -20.7993193 7.04778425 -18.53344727 4.07757568 C-12.93627037 -0.95663239 -7.27102831 -2.09042064 0 0 Z " fill="#FF23AA" transform="translate(136,214)"/>
<path d="M0 0 C13.53 0 27.06 0 41 0 C41 4.29 41 8.58 41 13 C37.04 13 33.08 13 29 13 C29 34.45 29 55.9 29 78 C23.39 78 17.78 78 12 78 C12 56.55 12 35.1 12 13 C8.04 13 4.08 13 0 13 C0 8.71 0 4.42 0 0 Z " fill="#FFFDFE" transform="translate(488,103)"/>
<path d="M0 0 C5.94 0 11.88 0 18 0 C18.09059639 8.72791675 18.16388542 17.45551799 18.20724869 26.18379974 C18.22806754 30.23729511 18.25627957 34.29045034 18.30175781 38.34375 C18.34542098 42.2600689 18.36917994 46.17606194 18.37950897 50.09260559 C18.38686386 51.58206812 18.40122599 53.0715141 18.42292023 54.56083679 C18.53497865 62.57712377 18.62376167 69.15792612 14 76 C7.60839411 81.81055081 -0.8706469 80.35132859 -9 80 C-9 76.04 -9 72.08 -9 68 C-6.36 67.67 -3.72 67.34 -1 67 C-0.67 44.89 -0.34 22.78 0 0 Z " fill="#FFF6FB" transform="translate(421,103)"/>
<path d="M0 0 C5.94 0 11.88 0 18 0 C18 25.74 18 51.48 18 78 C12.06 78 6.12 78 0 78 C0 52.26 0 26.52 0 0 Z " fill="#FFF5FB" transform="translate(790,103)"/>
<path d="M0 0 C2.5 0.5 2.5 0.5 4.13134766 2.35107422 C6.1532184 7.00289171 5.92848259 11.36239284 5.8984375 16.3828125 C5.90274277 17.9596431 5.90274277 17.9596431 5.90713501 19.56832886 C5.90917295 21.78562968 5.90366202 24.00294859 5.89111328 26.22021484 C5.87502427 29.61987265 5.89098822 33.01834733 5.91015625 36.41796875 C5.9081744 38.5729193 5.90433194 40.7278691 5.8984375 42.8828125 C5.90754654 44.41097092 5.90754654 44.41097092 5.9168396 45.97000122 C5.90738312 46.91463226 5.89792664 47.85926331 5.88818359 48.83251953 C5.88579681 49.66349152 5.88341003 50.4944635 5.88095093 51.35061646 C5.40840368 54.0168005 4.65990975 54.90421539 2.5 56.5 C-0.5625 56.875 -0.5625 56.875 -3.5 56.5 C-5.65869783 53.26195326 -5.75491344 52.35639208 -5.7746582 48.6171875 C-5.78419022 47.62605957 -5.79372223 46.63493164 -5.80354309 45.61376953 C-5.80263168 44.54497559 -5.80172028 43.47618164 -5.80078125 42.375 C-5.80506638 41.27655762 -5.8093515 40.17811523 -5.81376648 39.04638672 C-5.81951185 36.72298879 -5.82000853 34.39957287 -5.81567383 32.07617188 C-5.81251244 28.51401234 -5.83597628 24.95268188 -5.86132812 21.390625 C-5.86360087 19.13541772 -5.86430473 16.8802082 -5.86328125 14.625 C-5.872491 13.55620605 -5.88170074 12.48741211 -5.89118958 11.38623047 C-5.88496078 10.39510254 -5.87873199 9.40397461 -5.87231445 8.3828125 C-5.87294388 7.51027832 -5.8735733 6.63774414 -5.8742218 5.73876953 C-5.25718435 2.04736339 -3.5903646 0.71807292 0 0 Z " fill="#FF22AA" transform="translate(557.5,113.5)"/>
<path d="M0 0 C2.93429955 0.58685991 3.69458615 1.15888647 5.5 3.5 C5.88095093 5.73876953 5.88095093 5.73876953 5.88818359 8.3828125 C5.89764008 9.37394043 5.90709656 10.36506836 5.9168396 11.38623047 C5.91076691 12.45502441 5.90469421 13.52381836 5.8984375 14.625 C5.90274277 16.27266357 5.90274277 16.27266357 5.90713501 17.95361328 C5.90917736 20.27702347 5.90363563 22.60045078 5.89111328 24.92382812 C5.87506278 28.48606712 5.89095698 32.04717142 5.91015625 35.609375 C5.90817385 37.86458585 5.90433024 40.11979598 5.8984375 42.375 C5.90754654 43.97819092 5.90754654 43.97819092 5.9168396 45.61376953 C5.90738312 46.60489746 5.89792664 47.59602539 5.88818359 48.6171875 C5.88579681 49.48972168 5.88341003 50.36225586 5.88095093 51.26123047 C5.41864297 53.97811836 4.68696144 54.86745702 2.5 56.5 C0 56.875 0 56.875 -2.5 56.5 C-4.62996735 54.89243764 -5.41063508 54.00421055 -5.88095093 51.35061646 C-5.88333771 50.51964447 -5.88572449 49.68867249 -5.88818359 48.83251953 C-5.89764008 47.88788849 -5.90709656 46.94325745 -5.9168396 45.97000122 C-5.91076691 44.95122894 -5.90469421 43.93245667 -5.8984375 42.8828125 C-5.90130768 41.83350555 -5.90417786 40.78419861 -5.90713501 39.70309448 C-5.90917748 37.48223329 -5.90363493 35.26135418 -5.89111328 33.04052734 C-5.87509481 29.64509652 -5.89093983 26.25086191 -5.91015625 22.85546875 C-5.90817322 20.69791404 -5.90432832 18.54036008 -5.8984375 16.3828125 C-5.90451019 15.36808868 -5.91058289 14.35336487 -5.9168396 13.30789185 C-5.7960282 1.15920564 -5.7960282 1.15920564 0 0 Z " fill="#FF22A9" transform="translate(383.5,113.5)"/>
<path d="M0 0 C2.97 0.33 5.94 0.66 9 1 C10.83825557 4.67651113 11.25255482 5.79483001 11.2746582 9.62915039 C11.28419022 10.54011978 11.29372223 11.45108917 11.30354309 12.3896637 C11.30263168 13.36580124 11.30172028 14.34193878 11.30078125 15.34765625 C11.30506638 16.35589951 11.3093515 17.36414276 11.31376648 18.40293884 C11.31950437 20.53204599 11.32001403 22.66117275 11.31567383 24.7902832 C11.31250836 28.05388597 11.33599924 31.31658705 11.36132812 34.58007812 C11.36360055 36.64843635 11.36430488 38.71679703 11.36328125 40.78515625 C11.372491 41.76331802 11.38170074 42.7414798 11.39118958 43.74928284 C11.38496078 44.65710007 11.37873199 45.5649173 11.37231445 46.50024414 C11.37294388 47.29870255 11.3735733 48.09716095 11.3742218 48.91981506 C11 51 11 51 9.97673035 52.78123474 C8 54 8 54 0 54 C0 36.18 0 18.36 0 0 Z " fill="#FF27AB" transform="translate(836,115)"/>
<path d="M0 0 C2.97 0.33 5.94 0.66 9 1 C10.83825557 4.67651113 11.25255482 5.79483001 11.2746582 9.62915039 C11.28419022 10.54011978 11.29372223 11.45108917 11.30354309 12.3896637 C11.30263168 13.36580124 11.30172028 14.34193878 11.30078125 15.34765625 C11.30506638 16.35589951 11.3093515 17.36414276 11.31376648 18.40293884 C11.31950437 20.53204599 11.32001403 22.66117275 11.31567383 24.7902832 C11.31250836 28.05388597 11.33599924 31.31658705 11.36132812 34.58007812 C11.36360055 36.64843635 11.36430488 38.71679703 11.36328125 40.78515625 C11.372491 41.76331802 11.38170074 42.7414798 11.39118958 43.74928284 C11.38496078 44.65710007 11.37873199 45.5649173 11.37231445 46.50024414 C11.37294388 47.29870255 11.3735733 48.09716095 11.3742218 48.91981506 C11 51 11 51 9.97673035 52.78123474 C8 54 8 54 0 54 C0 36.18 0 18.36 0 0 Z " fill="#FF27AB" transform="translate(633,115)"/>
<path d="M0 0 C9 0 9 0 11.52734375 1.62890625 C14.30761525 6.1053646 13.78078137 10.93528544 13 16 C11 19.25 11 19.25 8 21 C5.36 21 2.72 21 0 21 C0 14.07 0 7.14 0 0 Z " fill="#FF21A9" transform="translate(322,115)"/>
<path d="M0 0 C3.3 0 6.6 0 10 0 C13.08003791 4.10671721 13.39760913 4.73388888 13.3125 9.5 C13.30863281 10.4384375 13.30476563 11.376875 13.30078125 12.34375 C12.99156678 15.07447523 12.54056031 16.73295473 11 19 C8 20 8 20 0 20 C0 13.4 0 6.8 0 0 Z " fill="#FF24AA" transform="translate(267,116)"/>
<path d="M0 0 C0.33 0 0.66 0 1 0 C1.50327997 3.60371663 2.00205994 7.20804197 2.5 10.8125 C2.64308594 11.83666016 2.78617188 12.86082031 2.93359375 13.91601562 C3.06894531 14.89892578 3.20429687 15.88183594 3.34375 16.89453125 C3.53227539 18.25348511 3.53227539 18.25348511 3.72460938 19.63989258 C4 22 4 22 4 25 C1.36 25 -1.28 25 -4 25 C-3.52776393 21.01997839 -3.04605685 17.04116077 -2.5625 13.0625 C-2.36043945 11.35803711 -2.36043945 11.35803711 -2.15429688 9.61914062 C-2.02216797 8.53955078 -1.89003906 7.45996094 -1.75390625 6.34765625 C-1.63345947 5.34742432 -1.5130127 4.34719238 -1.38891602 3.31665039 C-1 1 -1 1 0 0 Z " fill="#FF29AC" transform="translate(895,129)"/>
</svg>
